G04 #@! TF.FileFunction,Legend,Bot*
%FSLAX46Y46*%
G04 Gerber Fmt 4.6, Leading zero omitted, Abs format (unit mm)*
G04 Created by KiCad (PCBNEW 4.0.7) date 07/15/18 17:53:39*
%MOMM*%
%LPD*%
G01*
G04 APERTURE LIST*
%ADD10C,0.100000*%
%ADD11C,0.300000*%
%ADD12C,0.150000*%
G04 APERTURE END LIST*
D10*
D11*
X165785714Y-82974571D02*
X165785714Y-81474571D01*
X165785714Y-82903143D02*
X165928571Y-82974571D01*
X166214285Y-82974571D01*
X166357143Y-82903143D01*
X166428571Y-82831714D01*
X166500000Y-82688857D01*
X166500000Y-82260286D01*
X166428571Y-82117429D01*
X166357143Y-82046000D01*
X166214285Y-81974571D01*
X165928571Y-81974571D01*
X165785714Y-82046000D01*
X163285714Y-82974571D02*
X163285714Y-82188857D01*
X163357143Y-82046000D01*
X163500000Y-81974571D01*
X163785714Y-81974571D01*
X163928571Y-82046000D01*
X163285714Y-82903143D02*
X163428571Y-82974571D01*
X163785714Y-82974571D01*
X163928571Y-82903143D01*
X164000000Y-82760286D01*
X164000000Y-82617429D01*
X163928571Y-82474571D01*
X163785714Y-82403143D01*
X163428571Y-82403143D01*
X163285714Y-82331714D01*
X161571428Y-81974571D02*
X161214285Y-82974571D01*
X160857143Y-81974571D01*
X159142857Y-82974571D02*
X159142857Y-81974571D01*
X159142857Y-81474571D02*
X159214286Y-81546000D01*
X159142857Y-81617429D01*
X159071429Y-81546000D01*
X159142857Y-81474571D01*
X159142857Y-81617429D01*
X156642857Y-82974571D02*
X156642857Y-81474571D01*
X156642857Y-82903143D02*
X156785714Y-82974571D01*
X157071428Y-82974571D01*
X157214286Y-82903143D01*
X157285714Y-82831714D01*
X157357143Y-82688857D01*
X157357143Y-82260286D01*
X157285714Y-82117429D01*
X157214286Y-82046000D01*
X157071428Y-81974571D01*
X156785714Y-81974571D01*
X156642857Y-82046000D01*
X154785714Y-82831714D02*
X154714286Y-82903143D01*
X154785714Y-82974571D01*
X154857143Y-82903143D01*
X154785714Y-82831714D01*
X154785714Y-82974571D01*
X152285714Y-81974571D02*
X152285714Y-82974571D01*
X152928571Y-81974571D02*
X152928571Y-82760286D01*
X152857143Y-82903143D01*
X152714285Y-82974571D01*
X152500000Y-82974571D01*
X152357143Y-82903143D01*
X152285714Y-82831714D01*
X150428571Y-81974571D02*
X150428571Y-82974571D01*
X150428571Y-82117429D02*
X150357143Y-82046000D01*
X150214285Y-81974571D01*
X150000000Y-81974571D01*
X149857143Y-82046000D01*
X149785714Y-82188857D01*
X149785714Y-82974571D01*
X147714285Y-82974571D02*
X147857143Y-82903143D01*
X147928571Y-82760286D01*
X147928571Y-81474571D01*
X145357143Y-82974571D02*
X145357143Y-82188857D01*
X145428572Y-82046000D01*
X145571429Y-81974571D01*
X145857143Y-81974571D01*
X146000000Y-82046000D01*
X145357143Y-82903143D02*
X145500000Y-82974571D01*
X145857143Y-82974571D01*
X146000000Y-82903143D01*
X146071429Y-82760286D01*
X146071429Y-82617429D01*
X146000000Y-82474571D01*
X145857143Y-82403143D01*
X145500000Y-82403143D01*
X145357143Y-82331714D01*
X143500000Y-81974571D02*
X143500000Y-82974571D01*
X143500000Y-82117429D02*
X143428572Y-82046000D01*
X143285714Y-81974571D01*
X143071429Y-81974571D01*
X142928572Y-82046000D01*
X142857143Y-82188857D01*
X142857143Y-82974571D01*
X140357143Y-82974571D02*
X140357143Y-81474571D01*
X140357143Y-82903143D02*
X140500000Y-82974571D01*
X140785714Y-82974571D01*
X140928572Y-82903143D01*
X141000000Y-82831714D01*
X141071429Y-82688857D01*
X141071429Y-82260286D01*
X141000000Y-82117429D01*
X140928572Y-82046000D01*
X140785714Y-81974571D01*
X140500000Y-81974571D01*
X140357143Y-82046000D01*
X138500000Y-82831714D02*
X138428572Y-82903143D01*
X138500000Y-82974571D01*
X138571429Y-82903143D01*
X138500000Y-82831714D01*
X138500000Y-82974571D01*
X136071429Y-82903143D02*
X136214286Y-82974571D01*
X136500000Y-82974571D01*
X136642857Y-82903143D01*
X136714286Y-82760286D01*
X136714286Y-82188857D01*
X136642857Y-82046000D01*
X136500000Y-81974571D01*
X136214286Y-81974571D01*
X136071429Y-82046000D01*
X136000000Y-82188857D01*
X136000000Y-82331714D01*
X136714286Y-82474571D01*
X133571429Y-81974571D02*
X133571429Y-82974571D01*
X134214286Y-81974571D02*
X134214286Y-82760286D01*
X134142858Y-82903143D01*
X134000000Y-82974571D01*
X133785715Y-82974571D01*
X133642858Y-82903143D01*
X133571429Y-82831714D01*
D12*
X121000000Y-84000000D02*
X179000000Y-84000000D01*
X121000000Y-116000000D02*
X121000000Y-84000000D01*
X121000000Y-116000000D02*
X179000000Y-116000000D01*
X179000000Y-84000000D02*
X179000000Y-116000000D01*
M02*
