M48
INCH,TZ
T1C0.016
T2C0.030
T3C0.031
%
G90
G05
T1
X48600Y-42500
X51954Y-35100
X52000Y-33200
X52200Y-32200
X52200Y-34000
X52300Y-32900
X52600Y-38900
X53400Y-38800
X53500Y-36500
X53600Y-39900
X54100Y-38100
X54500Y-37246
X55300Y-37400
X55600Y-37000
X56754Y-31461
X56800Y-32800
X56900Y-32500
X57000Y-34200
X57000Y-35400
X57200Y-50400
X57207Y-34806
X57212Y-33505
X57700Y-44000
X57854Y-33200
X57854Y-34400
X57900Y-30900
X58100Y-32900
X58100Y-34100
X58200Y-36500
X58400Y-32500
X58800Y-48100
X60169Y-38254
X60500Y-38800
X62000Y-40200
X62300Y-38300
X62700Y-45000
X65900Y-34800
X66500Y-34800
T2
X46400Y-37000
X66100Y-47400
X71200Y-34100
X71200Y-36100
X71200Y-41300
X71200Y-43300
T3
X48544Y-45499
X49463Y-44580
X56709Y-40987
X57891Y-40987
T0
M30
