G04 #@! TF.FileFunction,Copper,L1,Top,Signal*
%FSLAX46Y46*%
G04 Gerber Fmt 4.6, Leading zero omitted, Abs format (unit mm)*
G04 Created by KiCad (PCBNEW 4.0.7) date 07/15/18 17:53:39*
%MOMM*%
%LPD*%
G01*
G04 APERTURE LIST*
%ADD10C,0.100000*%
%ADD11C,1.524000*%
%ADD12R,1.600000X0.550000*%
%ADD13R,0.550000X1.600000*%
%ADD14R,1.500000X1.250000*%
%ADD15R,3.000000X1.600000*%
%ADD16R,1.600000X2.000000*%
%ADD17R,2.600000X1.600000*%
%ADD18R,3.500000X1.600000*%
%ADD19R,1.500000X1.300000*%
%ADD20R,1.000000X2.750000*%
%ADD21R,1.300000X1.500000*%
%ADD22R,2.000000X1.100000*%
%ADD23R,4.000000X2.500000*%
%ADD24R,1.100000X0.600000*%
%ADD25R,1.200000X3.500000*%
%ADD26R,1.000000X1.000000*%
%ADD27R,1.550000X0.600000*%
%ADD28R,1.000000X3.150000*%
%ADD29R,0.900000X1.200000*%
%ADD30C,3.500000*%
%ADD31C,0.600000*%
%ADD32C,0.250000*%
%ADD33C,0.254000*%
G04 APERTURE END LIST*
D10*
D11*
X125635501Y-113232377D03*
X123300634Y-115567244D03*
D12*
X134434000Y-82106000D03*
X134434000Y-82906000D03*
X134434000Y-83706000D03*
X134434000Y-84506000D03*
X134434000Y-85306000D03*
X134434000Y-86106000D03*
X134434000Y-86906000D03*
X134434000Y-87706000D03*
D13*
X135884000Y-89156000D03*
X136684000Y-89156000D03*
X137484000Y-89156000D03*
X138284000Y-89156000D03*
X139084000Y-89156000D03*
X139884000Y-89156000D03*
X140684000Y-89156000D03*
X141484000Y-89156000D03*
D12*
X142934000Y-87706000D03*
X142934000Y-86906000D03*
X142934000Y-86106000D03*
X142934000Y-85306000D03*
X142934000Y-84506000D03*
X142934000Y-83706000D03*
X142934000Y-82906000D03*
X142934000Y-82106000D03*
D13*
X141484000Y-80656000D03*
X140684000Y-80656000D03*
X139884000Y-80656000D03*
X139084000Y-80656000D03*
X138284000Y-80656000D03*
X137484000Y-80656000D03*
X136684000Y-80656000D03*
X135884000Y-80656000D03*
D14*
X169418000Y-94488000D03*
X171918000Y-94488000D03*
X169438000Y-86360000D03*
X171938000Y-86360000D03*
D15*
X164252000Y-126746000D03*
X159852000Y-126746000D03*
D14*
X125984000Y-81788000D03*
X123484000Y-81788000D03*
X125984000Y-89408000D03*
X123484000Y-89408000D03*
D16*
X152146000Y-122650000D03*
X152146000Y-118650000D03*
D17*
X162284000Y-107188000D03*
X165884000Y-107188000D03*
D18*
X141318000Y-116332000D03*
X146718000Y-116332000D03*
D19*
X172640000Y-113538000D03*
X175340000Y-113538000D03*
D20*
X171838000Y-98806000D03*
X169538000Y-98806000D03*
D11*
X167894000Y-120396000D03*
X117856000Y-93980000D03*
D21*
X166116000Y-85772000D03*
X166116000Y-88472000D03*
X166116000Y-91106000D03*
X166116000Y-93806000D03*
D19*
X133016000Y-76454000D03*
X135716000Y-76454000D03*
X132762000Y-113538000D03*
X135462000Y-113538000D03*
X175340000Y-109982000D03*
X172640000Y-109982000D03*
X129714000Y-103886000D03*
X132414000Y-103886000D03*
X132762000Y-108458000D03*
X135462000Y-108458000D03*
X126920000Y-100330000D03*
X129620000Y-100330000D03*
X154098000Y-94996000D03*
X156798000Y-94996000D03*
X164926000Y-113538000D03*
X162226000Y-113538000D03*
D22*
X176070000Y-94994000D03*
X176070000Y-98044000D03*
X176070000Y-101094000D03*
X182070000Y-98044000D03*
X182070000Y-94994000D03*
X182070000Y-101094000D03*
D23*
X161290000Y-83058000D03*
X153290000Y-83058000D03*
D24*
X169288000Y-91374000D03*
X172088000Y-91374000D03*
X169288000Y-90424000D03*
X172088000Y-90424000D03*
X169288000Y-89474000D03*
X172088000Y-89474000D03*
D25*
X129794000Y-82848000D03*
X129794000Y-88348000D03*
D26*
X157226000Y-115316000D03*
X157226000Y-117816000D03*
D27*
X147668000Y-127635000D03*
X147668000Y-128905000D03*
X147668000Y-130175000D03*
X147668000Y-131445000D03*
X153068000Y-131445000D03*
X153068000Y-130175000D03*
X153068000Y-128905000D03*
X153068000Y-127635000D03*
D11*
X180848000Y-104902000D03*
X180848000Y-109982000D03*
X180848000Y-91694000D03*
X180848000Y-86614000D03*
D28*
X147066000Y-73899000D03*
X147066000Y-68849000D03*
X149606000Y-73899000D03*
X149606000Y-68849000D03*
X152146000Y-73899000D03*
X152146000Y-68849000D03*
D29*
X120179000Y-108588000D03*
X120179000Y-105788000D03*
X121629000Y-108588000D03*
X121629000Y-105788000D03*
D30*
X150000000Y-91000000D03*
X150000000Y-109000000D03*
D11*
X144042000Y-104108000D03*
X147042000Y-104108000D03*
D31*
X148336000Y-82550000D03*
X144526000Y-82550000D03*
X132842000Y-83566000D03*
X132588000Y-81788000D03*
X146948990Y-87376000D03*
X123444000Y-107950000D03*
X132588000Y-86360000D03*
X144780000Y-86868000D03*
X159258000Y-114300000D03*
X146558000Y-111760000D03*
X138430000Y-94605010D03*
X140462000Y-94996000D03*
X149352000Y-122174000D03*
X145288000Y-128016000D03*
X147828000Y-92710000D03*
X157480000Y-102108000D03*
X153670000Y-98552000D03*
X147574000Y-86614000D03*
X147574000Y-83566000D03*
X144272000Y-83312000D03*
X145318800Y-85101485D03*
X146948990Y-84328000D03*
X145304610Y-88406292D03*
X144780000Y-89916000D03*
X144154990Y-79911401D03*
X147067032Y-78486000D03*
X167386000Y-88392000D03*
X168910000Y-88392000D03*
X131962990Y-89154000D03*
X132080000Y-84328000D03*
X133604000Y-98806000D03*
X136144000Y-101346000D03*
X152828651Y-97164990D03*
X158242000Y-97282000D03*
X141224000Y-93980000D03*
X135890000Y-92710000D03*
X137414000Y-96774000D03*
X135636000Y-98552000D03*
D32*
X180848000Y-91694000D02*
X177800000Y-91694000D01*
X177800000Y-91694000D02*
X176070000Y-93424000D01*
X176070000Y-93424000D02*
X176070000Y-94994000D01*
X170942000Y-92637000D02*
X170942000Y-91084998D01*
X170942000Y-91084998D02*
X171602998Y-90424000D01*
X171602998Y-90424000D02*
X172088000Y-90424000D01*
X171918000Y-94488000D02*
X171918000Y-93613000D01*
X171918000Y-93613000D02*
X170942000Y-92637000D01*
X143984000Y-84506000D02*
X144897002Y-83592998D01*
X144825999Y-82940995D02*
X144825999Y-82849999D01*
X144897002Y-83592998D02*
X144897002Y-83011998D01*
X144897002Y-83011998D02*
X144825999Y-82940995D01*
X142934000Y-84506000D02*
X143984000Y-84506000D01*
X144825999Y-82849999D02*
X144526000Y-82550000D01*
X134434000Y-83706000D02*
X136398000Y-83706000D01*
X136398000Y-83706000D02*
X141273998Y-83706000D01*
X134434000Y-85306000D02*
X135484000Y-85306000D01*
X135484000Y-85306000D02*
X136398000Y-84392000D01*
X136398000Y-84392000D02*
X136398000Y-83706000D01*
X141273998Y-83706000D02*
X142073998Y-84506000D01*
X142073998Y-84506000D02*
X142934000Y-84506000D01*
X169863589Y-91374000D02*
X169288000Y-91374000D01*
X170622000Y-90615589D02*
X169863589Y-91374000D01*
X170622000Y-90140000D02*
X170622000Y-90615589D01*
X171288000Y-89474000D02*
X170622000Y-90140000D01*
X172088000Y-89474000D02*
X171288000Y-89474000D01*
X169288000Y-91374000D02*
X169773002Y-91374000D01*
X171673002Y-89474000D02*
X172088000Y-89474000D01*
X169418000Y-94488000D02*
X169418000Y-91504000D01*
X169418000Y-91504000D02*
X169288000Y-91374000D01*
X169538000Y-98806000D02*
X169538000Y-94608000D01*
X169538000Y-94608000D02*
X169418000Y-94488000D01*
X173228000Y-101346000D02*
X171203000Y-101346000D01*
X171203000Y-101346000D02*
X169538000Y-99681000D01*
X169538000Y-99681000D02*
X169538000Y-98806000D01*
X173736000Y-100838000D02*
X173228000Y-101346000D01*
X173736000Y-99128000D02*
X173736000Y-100838000D01*
X176070000Y-98044000D02*
X174820000Y-98044000D01*
X174820000Y-98044000D02*
X173736000Y-99128000D01*
X153068000Y-130175000D02*
X154093000Y-130175000D01*
X154940000Y-114046000D02*
X156798000Y-112188000D01*
X154093000Y-130175000D02*
X154940000Y-129328000D01*
X154940000Y-129328000D02*
X154940000Y-114046000D01*
X156798000Y-112188000D02*
X156798000Y-94996000D01*
X161290000Y-83058000D02*
X162040000Y-83058000D01*
X162040000Y-83058000D02*
X164754000Y-85772000D01*
X164754000Y-85772000D02*
X165216000Y-85772000D01*
X165216000Y-85772000D02*
X166116000Y-85772000D01*
X154722000Y-88682000D02*
X158178000Y-92138000D01*
X158178000Y-92138000D02*
X158178000Y-93716000D01*
X154722000Y-87376000D02*
X154722000Y-88682000D01*
X161290000Y-83058000D02*
X159040000Y-83058000D01*
X159040000Y-83058000D02*
X154722000Y-87376000D01*
X154722000Y-87376000D02*
X147373254Y-87376000D01*
X132842000Y-83566000D02*
X132842000Y-83990264D01*
X132842000Y-83990264D02*
X133357736Y-84506000D01*
X133357736Y-84506000D02*
X133384000Y-84506000D01*
X133016000Y-76454000D02*
X133016000Y-81360000D01*
X133016000Y-81360000D02*
X132588000Y-81788000D01*
X147373254Y-87376000D02*
X146948990Y-87376000D01*
X123444000Y-107950000D02*
X122267000Y-107950000D01*
X122267000Y-107950000D02*
X121629000Y-108588000D01*
X132588000Y-86106000D02*
X132588000Y-86360000D01*
X142934000Y-86906000D02*
X144742000Y-86906000D01*
X144742000Y-86906000D02*
X144780000Y-86868000D01*
X134434000Y-86106000D02*
X141273998Y-86106000D01*
X141273998Y-86106000D02*
X142073998Y-86906000D01*
X142073998Y-86906000D02*
X142934000Y-86906000D01*
X132588000Y-85302000D02*
X133384000Y-84506000D01*
X133384000Y-84506000D02*
X134434000Y-84506000D01*
X132588000Y-86106000D02*
X132588000Y-85302000D01*
X134434000Y-86106000D02*
X132588000Y-86106000D01*
X158178000Y-93716000D02*
X156898000Y-94996000D01*
X156898000Y-94996000D02*
X156798000Y-94996000D01*
X168011001Y-89947001D02*
X168011001Y-87661999D01*
X168488000Y-90424000D02*
X168011001Y-89947001D01*
X169288000Y-90424000D02*
X168488000Y-90424000D01*
X169313000Y-86360000D02*
X169438000Y-86360000D01*
X168011001Y-87661999D02*
X169313000Y-86360000D01*
X166116000Y-85772000D02*
X168850000Y-85772000D01*
X168850000Y-85772000D02*
X169438000Y-86360000D01*
X147066000Y-68849000D02*
X139721000Y-68849000D01*
X133016000Y-75554000D02*
X133016000Y-76454000D01*
X139721000Y-68849000D02*
X133016000Y-75554000D01*
X159258000Y-114300000D02*
X159258000Y-114724264D01*
X159258000Y-114724264D02*
X162643736Y-118110000D01*
X162643736Y-118110000D02*
X165608000Y-118110000D01*
X146304000Y-111760000D02*
X146558000Y-111760000D01*
X139954000Y-105410000D02*
X139954000Y-95504000D01*
X139954000Y-95504000D02*
X140462000Y-94996000D01*
X146304000Y-111760000D02*
X139954000Y-105410000D01*
X164252000Y-126746000D02*
X164952000Y-126746000D01*
X164952000Y-126746000D02*
X167894000Y-123804000D01*
X167894000Y-123804000D02*
X167894000Y-120396000D01*
X165608000Y-118110000D02*
X167894000Y-120396000D01*
X138284000Y-94459010D02*
X138430000Y-94605010D01*
X138284000Y-89156000D02*
X138284000Y-94459010D01*
X133384000Y-86906000D02*
X134434000Y-86906000D01*
X133304998Y-86985002D02*
X133384000Y-86906000D01*
X131931002Y-86985002D02*
X133304998Y-86985002D01*
X129794000Y-84848000D02*
X131931002Y-86985002D01*
X129794000Y-82848000D02*
X129794000Y-84848000D01*
X125984000Y-81788000D02*
X128734000Y-81788000D01*
X128734000Y-81788000D02*
X129794000Y-82848000D01*
X132124000Y-88348000D02*
X132766000Y-87706000D01*
X132766000Y-87706000D02*
X134434000Y-87706000D01*
X129794000Y-88348000D02*
X132124000Y-88348000D01*
X125984000Y-89408000D02*
X128734000Y-89408000D01*
X128734000Y-89408000D02*
X129794000Y-88348000D01*
X149352000Y-122174000D02*
X149828000Y-122650000D01*
X149828000Y-122650000D02*
X152146000Y-122650000D01*
X145288000Y-128820000D02*
X145288000Y-128016000D01*
X147668000Y-130175000D02*
X146643000Y-130175000D01*
X146643000Y-130175000D02*
X145288000Y-128820000D01*
X162284000Y-107188000D02*
X162284000Y-106138000D01*
X162284000Y-106138000D02*
X160010000Y-103864000D01*
X160010000Y-103864000D02*
X159236000Y-103864000D01*
X159236000Y-112718000D02*
X159074000Y-112718000D01*
X159074000Y-112718000D02*
X157226000Y-114566000D01*
X157226000Y-114566000D02*
X157226000Y-115316000D01*
X157480000Y-102108000D02*
X159236000Y-103864000D01*
X159236000Y-103864000D02*
X159236000Y-112718000D01*
X159236000Y-112718000D02*
X160056000Y-113538000D01*
X160056000Y-113538000D02*
X162226000Y-113538000D01*
X147828000Y-92710000D02*
X148590000Y-93472000D01*
X148590000Y-93472000D02*
X150114000Y-93472000D01*
X150114000Y-93472000D02*
X153670000Y-97028000D01*
X153670000Y-97028000D02*
X153670000Y-98552000D01*
X147574000Y-83566000D02*
X147574000Y-86614000D01*
X143866000Y-82906000D02*
X144272000Y-83312000D01*
X142934000Y-82906000D02*
X143866000Y-82906000D01*
X175340000Y-109982000D02*
X175340000Y-110882000D01*
X175340000Y-110882000D02*
X175340000Y-113538000D01*
X129984000Y-110236000D02*
X121677000Y-110236000D01*
X121677000Y-110236000D02*
X120179000Y-108738000D01*
X120179000Y-108738000D02*
X120179000Y-108588000D01*
X132762000Y-108458000D02*
X131762000Y-108458000D01*
X131762000Y-108458000D02*
X129984000Y-110236000D01*
X126920000Y-100330000D02*
X125487000Y-100330000D01*
X125487000Y-100330000D02*
X120179000Y-105638000D01*
X120179000Y-105638000D02*
X120179000Y-105788000D01*
X121629000Y-105788000D02*
X127712000Y-105788000D01*
X127712000Y-105788000D02*
X129614000Y-103886000D01*
X129614000Y-103886000D02*
X129714000Y-103886000D01*
X155390011Y-125035600D02*
X157226000Y-123199611D01*
X157226000Y-123199611D02*
X157226000Y-117816000D01*
X153543000Y-131445000D02*
X153068000Y-131445000D01*
X155390011Y-129597989D02*
X153543000Y-131445000D01*
X155390011Y-125035600D02*
X155390011Y-129597989D01*
X146323989Y-88281015D02*
X145449004Y-89156000D01*
X147066000Y-73899000D02*
X147066000Y-75724000D01*
X142009000Y-89156000D02*
X141484000Y-89156000D01*
X145449004Y-89156000D02*
X142009000Y-89156000D01*
X146323988Y-84628002D02*
X146400987Y-84705001D01*
X145913002Y-84123389D02*
X146323988Y-84534375D01*
X146323988Y-84534375D02*
X146323988Y-84628002D01*
X146400987Y-84705001D02*
X146400987Y-86999001D01*
X146323989Y-87075999D02*
X146323989Y-88281015D01*
X145913002Y-76876998D02*
X145913002Y-84123389D01*
X147066000Y-75724000D02*
X145913002Y-76876998D01*
X146400987Y-86999001D02*
X146323989Y-87075999D01*
X145405002Y-85611951D02*
X145318800Y-85525749D01*
X145405002Y-87168002D02*
X145405002Y-85611951D01*
X142934000Y-87706000D02*
X144867004Y-87706000D01*
X144867004Y-87706000D02*
X145405002Y-87168002D01*
X146648991Y-84028001D02*
X146948990Y-84328000D01*
X146442022Y-78137978D02*
X146442022Y-83821032D01*
X149606000Y-74974000D02*
X146442022Y-78137978D01*
X149606000Y-73899000D02*
X149606000Y-74974000D01*
X146442022Y-83821032D02*
X146648991Y-84028001D01*
X145318800Y-85525749D02*
X145318800Y-85101485D01*
X145950976Y-86812601D02*
X145873978Y-86889599D01*
X145604609Y-88106293D02*
X145304610Y-88406292D01*
X147902000Y-71628000D02*
X146676998Y-71628000D01*
X145873978Y-86889599D02*
X145873978Y-87836924D01*
X145347013Y-82825598D02*
X145347013Y-84193811D01*
X145288000Y-82766585D02*
X145347013Y-82825598D01*
X145288000Y-73016998D02*
X145288000Y-82766585D01*
X145873977Y-84720775D02*
X145873977Y-84814402D01*
X145873978Y-87836924D02*
X145604609Y-88106293D01*
X146676998Y-71628000D02*
X145288000Y-73016998D01*
X149606000Y-69924000D02*
X147902000Y-71628000D01*
X149606000Y-68849000D02*
X149606000Y-69924000D01*
X145873977Y-84814402D02*
X145950976Y-84891401D01*
X145950976Y-84891401D02*
X145950976Y-86812601D01*
X145347013Y-84193811D02*
X145873977Y-84720775D01*
X143339736Y-90932000D02*
X141410000Y-90932000D01*
X141410000Y-90932000D02*
X140684000Y-90206000D01*
X140684000Y-90206000D02*
X140684000Y-89156000D01*
X144780000Y-89916000D02*
X144355736Y-89916000D01*
X144355736Y-89916000D02*
X143339736Y-90932000D01*
X143854991Y-79611402D02*
X144154990Y-79911401D01*
X138284000Y-78022000D02*
X142265589Y-78022000D01*
X142265589Y-78022000D02*
X143854991Y-79611402D01*
X152146000Y-74974000D02*
X148634000Y-78486000D01*
X152146000Y-73899000D02*
X152146000Y-74974000D01*
X147491296Y-78486000D02*
X147067032Y-78486000D01*
X148634000Y-78486000D02*
X147491296Y-78486000D01*
X135716000Y-76454000D02*
X136716000Y-76454000D01*
X136716000Y-76454000D02*
X138284000Y-78022000D01*
X138284000Y-78022000D02*
X138284000Y-79606000D01*
X138284000Y-79606000D02*
X138284000Y-80656000D01*
X173736000Y-92222000D02*
X173736000Y-95283000D01*
X173736000Y-95283000D02*
X171838000Y-97181000D01*
X171838000Y-97181000D02*
X171838000Y-98806000D01*
X172088000Y-91374000D02*
X172888000Y-91374000D01*
X172888000Y-91374000D02*
X173736000Y-92222000D01*
X131492000Y-113538000D02*
X132762000Y-113538000D01*
X131492000Y-113538000D02*
X127254000Y-113538000D01*
X127254000Y-113538000D02*
X125224756Y-115567244D01*
X125224756Y-115567244D02*
X123300634Y-115567244D01*
X167386000Y-88392000D02*
X166196000Y-88392000D01*
X166196000Y-88392000D02*
X166116000Y-88472000D01*
X169288000Y-89474000D02*
X169288000Y-88770000D01*
X169288000Y-88770000D02*
X168910000Y-88392000D01*
X166116000Y-88572000D02*
X166116000Y-88472000D01*
X166116000Y-91106000D02*
X166116000Y-88472000D01*
X135462000Y-113538000D02*
X135462000Y-112638000D01*
X135462000Y-112638000D02*
X137160000Y-110940000D01*
X137160000Y-110940000D02*
X137160000Y-102362000D01*
X137160000Y-102362000D02*
X136144000Y-101346000D01*
X133384000Y-82106000D02*
X134434000Y-82106000D01*
X132080000Y-83410000D02*
X133384000Y-82106000D01*
X132080000Y-84328000D02*
X132080000Y-83410000D01*
X133604000Y-98806000D02*
X133604000Y-90795010D01*
X132262989Y-89453999D02*
X131962990Y-89154000D01*
X133604000Y-90795010D02*
X132262989Y-89453999D01*
X172640000Y-109982000D02*
X172640000Y-109082000D01*
X172640000Y-109082000D02*
X160840000Y-97282000D01*
X160840000Y-97282000D02*
X159353002Y-97282000D01*
X144408990Y-97164990D02*
X152404387Y-97164990D01*
X141224000Y-93980000D02*
X144408990Y-97164990D01*
X152404387Y-97164990D02*
X152828651Y-97164990D01*
X159353002Y-97282000D02*
X158242000Y-97282000D01*
X135884000Y-89156000D02*
X135884000Y-92704000D01*
X135884000Y-92704000D02*
X135890000Y-92710000D01*
X132414000Y-103886000D02*
X132414000Y-102986000D01*
X132414000Y-102986000D02*
X136684000Y-98716000D01*
X136684000Y-98716000D02*
X136684000Y-90206000D01*
X136684000Y-90206000D02*
X136684000Y-89156000D01*
X139884000Y-94648998D02*
X139884000Y-90206000D01*
X139836999Y-94984591D02*
X139836999Y-94695999D01*
X139503989Y-95317600D02*
X139836999Y-94984591D01*
X139503989Y-96532422D02*
X139503989Y-95317600D01*
X135462000Y-100574411D02*
X139503989Y-96532422D01*
X139836999Y-94695999D02*
X139884000Y-94648998D01*
X135462000Y-108458000D02*
X135462000Y-100574411D01*
X139884000Y-90206000D02*
X139884000Y-89156000D01*
X137414000Y-96774000D02*
X139084000Y-95104000D01*
X139084000Y-95104000D02*
X139084000Y-89156000D01*
X129620000Y-100330000D02*
X133858000Y-100330000D01*
X133858000Y-100330000D02*
X135636000Y-98552000D01*
X144042000Y-104108000D02*
X147820000Y-100330000D01*
X147820000Y-100330000D02*
X153162000Y-100330000D01*
X153162000Y-100330000D02*
X154295002Y-99196998D01*
X147042000Y-111318996D02*
X147042000Y-107108000D01*
X147042000Y-107108000D02*
X144042000Y-104108000D01*
X152146000Y-116422996D02*
X147042000Y-111318996D01*
X152146000Y-118650000D02*
X152146000Y-116422996D01*
X154295002Y-96093002D02*
X154295002Y-99196998D01*
X154098000Y-95896000D02*
X154295002Y-96093002D01*
X154098000Y-94996000D02*
X154098000Y-95896000D01*
X147668000Y-127635000D02*
X146643000Y-127635000D01*
X146643000Y-127635000D02*
X141318000Y-122310000D01*
X141318000Y-122310000D02*
X141318000Y-117382000D01*
X141318000Y-117382000D02*
X141318000Y-116332000D01*
X153068000Y-127635000D02*
X153068000Y-127085000D01*
X153068000Y-127085000D02*
X146718000Y-120735000D01*
X146718000Y-120735000D02*
X146718000Y-117382000D01*
X146718000Y-117382000D02*
X146718000Y-116332000D01*
X179324000Y-104902000D02*
X180848000Y-104902000D01*
X176070000Y-101094000D02*
X176070000Y-101894000D01*
X176070000Y-101894000D02*
X179078000Y-104902000D01*
X179078000Y-104902000D02*
X179324000Y-104902000D01*
D33*
G36*
X164542033Y-66667766D02*
X167767261Y-68885110D01*
X167197381Y-68884613D01*
X166375628Y-69224155D01*
X165746364Y-69852321D01*
X165405389Y-70673481D01*
X165404613Y-71562619D01*
X165744155Y-72384372D01*
X166372321Y-73013636D01*
X167193481Y-73354611D01*
X168082619Y-73355387D01*
X168904372Y-73015845D01*
X169533636Y-72387679D01*
X169874611Y-71566519D01*
X169875387Y-70677381D01*
X169677466Y-70198376D01*
X176691897Y-75020797D01*
X184002616Y-85986875D01*
X186075583Y-96408384D01*
X185787939Y-105037701D01*
X183989528Y-114078923D01*
X181517915Y-117777954D01*
X175092862Y-126630249D01*
X169485578Y-130376916D01*
X161736236Y-134455517D01*
X156440022Y-135509000D01*
X144036754Y-135509000D01*
X133380634Y-132292058D01*
X132540578Y-131730750D01*
X146258000Y-131730750D01*
X146258000Y-131871310D01*
X146354673Y-132104699D01*
X146533302Y-132283327D01*
X146766691Y-132380000D01*
X147382250Y-132380000D01*
X147541000Y-132221250D01*
X147541000Y-131572000D01*
X147795000Y-131572000D01*
X147795000Y-132221250D01*
X147953750Y-132380000D01*
X148569309Y-132380000D01*
X148802698Y-132283327D01*
X148981327Y-132104699D01*
X149078000Y-131871310D01*
X149078000Y-131730750D01*
X148919250Y-131572000D01*
X147795000Y-131572000D01*
X147541000Y-131572000D01*
X146416750Y-131572000D01*
X146258000Y-131730750D01*
X132540578Y-131730750D01*
X128268800Y-128876440D01*
X124070570Y-124274534D01*
X126671612Y-124274534D01*
X126777039Y-124804550D01*
X127077269Y-125253877D01*
X127476123Y-125652731D01*
X127925450Y-125952962D01*
X128455466Y-126058388D01*
X128985482Y-125952962D01*
X129434809Y-125652731D01*
X129735040Y-125203404D01*
X129840466Y-124673388D01*
X129735040Y-124143372D01*
X129434809Y-123694045D01*
X129035955Y-123295191D01*
X128586628Y-122994961D01*
X128056612Y-122889534D01*
X127526596Y-122994961D01*
X127077269Y-123295191D01*
X126777039Y-123744518D01*
X126671612Y-124274534D01*
X124070570Y-124274534D01*
X119407893Y-119163523D01*
X118570699Y-117910573D01*
X133035573Y-117910573D01*
X133141000Y-118440589D01*
X133441230Y-118889916D01*
X133840084Y-119288770D01*
X134289411Y-119589001D01*
X134819427Y-119694427D01*
X135349443Y-119589001D01*
X135798770Y-119288770D01*
X136099001Y-118839443D01*
X136204427Y-118309427D01*
X136099001Y-117779411D01*
X135798770Y-117330084D01*
X135399916Y-116931230D01*
X134950589Y-116631000D01*
X134420573Y-116525573D01*
X133890557Y-116631000D01*
X133441230Y-116931230D01*
X133141000Y-117380557D01*
X133035573Y-117910573D01*
X118570699Y-117910573D01*
X117114409Y-115731081D01*
X116352069Y-112885008D01*
X124254139Y-112885008D01*
X124376270Y-113105377D01*
X125508501Y-113105377D01*
X125508501Y-111973146D01*
X125288132Y-111851015D01*
X124785950Y-112089097D01*
X124413104Y-112501233D01*
X124254139Y-112885008D01*
X116352069Y-112885008D01*
X114290370Y-105188000D01*
X119081560Y-105188000D01*
X119081560Y-106388000D01*
X119125838Y-106623317D01*
X119264910Y-106839441D01*
X119477110Y-106984431D01*
X119729000Y-107035440D01*
X120629000Y-107035440D01*
X120864317Y-106991162D01*
X120901728Y-106967088D01*
X120927110Y-106984431D01*
X121179000Y-107035440D01*
X122079000Y-107035440D01*
X122314317Y-106991162D01*
X122530441Y-106852090D01*
X122675431Y-106639890D01*
X122694039Y-106548000D01*
X127712000Y-106548000D01*
X128002839Y-106490148D01*
X128249401Y-106325401D01*
X129391362Y-105183440D01*
X130464000Y-105183440D01*
X130699317Y-105139162D01*
X130915441Y-105000090D01*
X131060431Y-104787890D01*
X131063081Y-104774803D01*
X131199910Y-104987441D01*
X131412110Y-105132431D01*
X131664000Y-105183440D01*
X133164000Y-105183440D01*
X133399317Y-105139162D01*
X133615441Y-105000090D01*
X133760431Y-104787890D01*
X133811440Y-104536000D01*
X133811440Y-103236000D01*
X133767162Y-103000683D01*
X133652425Y-102822377D01*
X134702000Y-101772802D01*
X134702000Y-107162442D01*
X134476683Y-107204838D01*
X134260559Y-107343910D01*
X134115569Y-107556110D01*
X134112919Y-107569197D01*
X133976090Y-107356559D01*
X133763890Y-107211569D01*
X133512000Y-107160560D01*
X132012000Y-107160560D01*
X131776683Y-107204838D01*
X131560559Y-107343910D01*
X131415569Y-107556110D01*
X131364560Y-107808000D01*
X131364560Y-107827080D01*
X131224599Y-107920599D01*
X129669198Y-109476000D01*
X122650758Y-109476000D01*
X122675431Y-109439890D01*
X122726440Y-109188000D01*
X122726440Y-108710000D01*
X122881537Y-108710000D01*
X122913673Y-108742192D01*
X123257201Y-108884838D01*
X123629167Y-108885162D01*
X123972943Y-108743117D01*
X124236192Y-108480327D01*
X124378838Y-108136799D01*
X124379162Y-107764833D01*
X124237117Y-107421057D01*
X123974327Y-107157808D01*
X123630799Y-107015162D01*
X123258833Y-107014838D01*
X122915057Y-107156883D01*
X122881882Y-107190000D01*
X122267000Y-107190000D01*
X121976160Y-107247852D01*
X121837413Y-107340560D01*
X121179000Y-107340560D01*
X120943683Y-107384838D01*
X120906272Y-107408912D01*
X120880890Y-107391569D01*
X120629000Y-107340560D01*
X119729000Y-107340560D01*
X119493683Y-107384838D01*
X119277559Y-107523910D01*
X119132569Y-107736110D01*
X119081560Y-107988000D01*
X119081560Y-109188000D01*
X119125838Y-109423317D01*
X119264910Y-109639441D01*
X119477110Y-109784431D01*
X119729000Y-109835440D01*
X120201638Y-109835440D01*
X121139599Y-110773401D01*
X121386161Y-110938148D01*
X121677000Y-110996000D01*
X129984000Y-110996000D01*
X130274839Y-110938148D01*
X130521401Y-110773401D01*
X131659271Y-109635531D01*
X131760110Y-109704431D01*
X132012000Y-109755440D01*
X133512000Y-109755440D01*
X133747317Y-109711162D01*
X133963441Y-109572090D01*
X134108431Y-109359890D01*
X134111081Y-109346803D01*
X134247910Y-109559441D01*
X134460110Y-109704431D01*
X134712000Y-109755440D01*
X136212000Y-109755440D01*
X136400000Y-109720065D01*
X136400000Y-110625198D01*
X134924599Y-112100599D01*
X134831080Y-112240560D01*
X134712000Y-112240560D01*
X134476683Y-112284838D01*
X134260559Y-112423910D01*
X134115569Y-112636110D01*
X134112919Y-112649197D01*
X133976090Y-112436559D01*
X133763890Y-112291569D01*
X133512000Y-112240560D01*
X132012000Y-112240560D01*
X131776683Y-112284838D01*
X131560559Y-112423910D01*
X131415569Y-112636110D01*
X131386836Y-112778000D01*
X127254000Y-112778000D01*
X126990939Y-112830326D01*
X126778781Y-112382826D01*
X126366645Y-112009980D01*
X125982870Y-111851015D01*
X125762501Y-111973146D01*
X125762501Y-113105377D01*
X126611821Y-113105377D01*
X126357821Y-113359377D01*
X125942109Y-113359377D01*
X125829250Y-113246518D01*
X125649642Y-113426126D01*
X125762501Y-113538985D01*
X125762501Y-113954697D01*
X125508501Y-114208697D01*
X125508501Y-113359377D01*
X124376270Y-113359377D01*
X124254139Y-113579746D01*
X124492221Y-114081928D01*
X124904357Y-114454774D01*
X125157549Y-114559649D01*
X124909954Y-114807244D01*
X124498165Y-114807244D01*
X124485644Y-114776941D01*
X124093004Y-114383615D01*
X123579734Y-114170487D01*
X123023973Y-114170002D01*
X122510331Y-114382234D01*
X122117005Y-114774874D01*
X121903877Y-115288144D01*
X121903392Y-115843905D01*
X122115624Y-116357547D01*
X122508264Y-116750873D01*
X123021534Y-116964001D01*
X123577295Y-116964486D01*
X124090937Y-116752254D01*
X124484263Y-116359614D01*
X124497704Y-116327244D01*
X125224756Y-116327244D01*
X125515595Y-116269392D01*
X125762157Y-116104645D01*
X126334802Y-115532000D01*
X138920560Y-115532000D01*
X138920560Y-117132000D01*
X138964838Y-117367317D01*
X139103910Y-117583441D01*
X139316110Y-117728431D01*
X139568000Y-117779440D01*
X140558000Y-117779440D01*
X140558000Y-122310000D01*
X140615852Y-122600839D01*
X140780599Y-122847401D01*
X145039999Y-127106801D01*
X144759057Y-127222883D01*
X144495808Y-127485673D01*
X144353162Y-127829201D01*
X144352838Y-128201167D01*
X144494883Y-128544943D01*
X144528000Y-128578118D01*
X144528000Y-128820000D01*
X144585852Y-129110839D01*
X144750599Y-129357401D01*
X146105599Y-130712401D01*
X146324331Y-130858553D01*
X146258000Y-131018690D01*
X146258000Y-131159250D01*
X146416750Y-131318000D01*
X147541000Y-131318000D01*
X147541000Y-131298000D01*
X147795000Y-131298000D01*
X147795000Y-131318000D01*
X148919250Y-131318000D01*
X149078000Y-131159250D01*
X149078000Y-131018690D01*
X148988194Y-130801878D01*
X149039431Y-130726890D01*
X149090440Y-130475000D01*
X149090440Y-129875000D01*
X149046162Y-129639683D01*
X148982322Y-129540472D01*
X149039431Y-129456890D01*
X149090440Y-129205000D01*
X149090440Y-128605000D01*
X149046162Y-128369683D01*
X148982322Y-128270472D01*
X149039431Y-128186890D01*
X149090440Y-127935000D01*
X149090440Y-127335000D01*
X149046162Y-127099683D01*
X148907090Y-126883559D01*
X148694890Y-126738569D01*
X148443000Y-126687560D01*
X146893000Y-126687560D01*
X146789784Y-126706982D01*
X142078000Y-121995198D01*
X142078000Y-117779440D01*
X143068000Y-117779440D01*
X143303317Y-117735162D01*
X143519441Y-117596090D01*
X143664431Y-117383890D01*
X143715440Y-117132000D01*
X143715440Y-115532000D01*
X143671162Y-115296683D01*
X143532090Y-115080559D01*
X143319890Y-114935569D01*
X143068000Y-114884560D01*
X139568000Y-114884560D01*
X139332683Y-114928838D01*
X139116559Y-115067910D01*
X138971569Y-115280110D01*
X138920560Y-115532000D01*
X126334802Y-115532000D01*
X127568802Y-114298000D01*
X131385258Y-114298000D01*
X131408838Y-114423317D01*
X131547910Y-114639441D01*
X131760110Y-114784431D01*
X132012000Y-114835440D01*
X133512000Y-114835440D01*
X133747317Y-114791162D01*
X133963441Y-114652090D01*
X134108431Y-114439890D01*
X134111081Y-114426803D01*
X134247910Y-114639441D01*
X134460110Y-114784431D01*
X134712000Y-114835440D01*
X136212000Y-114835440D01*
X136447317Y-114791162D01*
X136663441Y-114652090D01*
X136808431Y-114439890D01*
X136859440Y-114188000D01*
X136859440Y-112888000D01*
X136815162Y-112652683D01*
X136700425Y-112474377D01*
X137697401Y-111477401D01*
X137862148Y-111230839D01*
X137920000Y-110940000D01*
X137920000Y-102362000D01*
X137862148Y-102071161D01*
X137697401Y-101824599D01*
X137079122Y-101206320D01*
X137079162Y-101160833D01*
X136937117Y-100817057D01*
X136674327Y-100553808D01*
X136591711Y-100519502D01*
X139194000Y-97917213D01*
X139194000Y-105410000D01*
X139251852Y-105700839D01*
X139416599Y-105947401D01*
X145766599Y-112297401D01*
X145786802Y-112310900D01*
X146027673Y-112552192D01*
X146371201Y-112694838D01*
X146743167Y-112695162D01*
X147086943Y-112553117D01*
X147144181Y-112495979D01*
X151386000Y-116737798D01*
X151386000Y-117002560D01*
X151346000Y-117002560D01*
X151110683Y-117046838D01*
X150894559Y-117185910D01*
X150749569Y-117398110D01*
X150698560Y-117650000D01*
X150698560Y-119650000D01*
X150742838Y-119885317D01*
X150881910Y-120101441D01*
X151094110Y-120246431D01*
X151346000Y-120297440D01*
X152946000Y-120297440D01*
X153181317Y-120253162D01*
X153397441Y-120114090D01*
X153542431Y-119901890D01*
X153593440Y-119650000D01*
X153593440Y-117650000D01*
X153549162Y-117414683D01*
X153410090Y-117198559D01*
X153197890Y-117053569D01*
X152946000Y-117002560D01*
X152906000Y-117002560D01*
X152906000Y-116422996D01*
X152848148Y-116132157D01*
X152683401Y-115885595D01*
X147802000Y-111004194D01*
X147802000Y-109925900D01*
X147976916Y-110349229D01*
X148647242Y-111020726D01*
X149523513Y-111384585D01*
X150472325Y-111385413D01*
X151349229Y-111023084D01*
X152020726Y-110352758D01*
X152384585Y-109476487D01*
X152385413Y-108527675D01*
X152023084Y-107650771D01*
X151352758Y-106979274D01*
X150476487Y-106615415D01*
X149527675Y-106614587D01*
X148650771Y-106976916D01*
X147979274Y-107647242D01*
X147802000Y-108074166D01*
X147802000Y-107108000D01*
X147744148Y-106817161D01*
X147579401Y-106570599D01*
X146354919Y-105346117D01*
X146834302Y-105517144D01*
X147389368Y-105489362D01*
X147773143Y-105330397D01*
X147842608Y-105088213D01*
X147042000Y-104287605D01*
X147027858Y-104301748D01*
X146848253Y-104122143D01*
X146862395Y-104108000D01*
X147221605Y-104108000D01*
X148022213Y-104908608D01*
X148264397Y-104839143D01*
X148451144Y-104315698D01*
X148423362Y-103760632D01*
X148264397Y-103376857D01*
X148022213Y-103307392D01*
X147221605Y-104108000D01*
X146862395Y-104108000D01*
X146848253Y-104093858D01*
X147027858Y-103914253D01*
X147042000Y-103928395D01*
X147842608Y-103127787D01*
X147773143Y-102885603D01*
X147249698Y-102698856D01*
X146694632Y-102726638D01*
X146359240Y-102865562D01*
X148134802Y-101090000D01*
X153162000Y-101090000D01*
X153452839Y-101032148D01*
X153699401Y-100867401D01*
X154832403Y-99734399D01*
X154997150Y-99487837D01*
X155055002Y-99196998D01*
X155055002Y-96254490D01*
X155083317Y-96249162D01*
X155299441Y-96110090D01*
X155444431Y-95897890D01*
X155447081Y-95884803D01*
X155583910Y-96097441D01*
X155796110Y-96242431D01*
X156038000Y-96291415D01*
X156038000Y-111873198D01*
X154402599Y-113508599D01*
X154237852Y-113755161D01*
X154180000Y-114046000D01*
X154180000Y-126796722D01*
X154094890Y-126738569D01*
X153843000Y-126687560D01*
X153698920Y-126687560D01*
X153605401Y-126547599D01*
X151355242Y-124297440D01*
X152946000Y-124297440D01*
X153181317Y-124253162D01*
X153397441Y-124114090D01*
X153542431Y-123901890D01*
X153593440Y-123650000D01*
X153593440Y-121650000D01*
X153549162Y-121414683D01*
X153410090Y-121198559D01*
X153197890Y-121053569D01*
X152946000Y-121002560D01*
X151346000Y-121002560D01*
X151110683Y-121046838D01*
X150894559Y-121185910D01*
X150749569Y-121398110D01*
X150698560Y-121650000D01*
X150698560Y-121890000D01*
X150246325Y-121890000D01*
X150145117Y-121645057D01*
X149882327Y-121381808D01*
X149538799Y-121239162D01*
X149166833Y-121238838D01*
X148823057Y-121380883D01*
X148630703Y-121572901D01*
X147478000Y-120420198D01*
X147478000Y-117779440D01*
X148468000Y-117779440D01*
X148703317Y-117735162D01*
X148919441Y-117596090D01*
X149064431Y-117383890D01*
X149115440Y-117132000D01*
X149115440Y-115532000D01*
X149071162Y-115296683D01*
X148932090Y-115080559D01*
X148719890Y-114935569D01*
X148468000Y-114884560D01*
X144968000Y-114884560D01*
X144732683Y-114928838D01*
X144516559Y-115067910D01*
X144371569Y-115280110D01*
X144320560Y-115532000D01*
X144320560Y-117132000D01*
X144364838Y-117367317D01*
X144503910Y-117583441D01*
X144716110Y-117728431D01*
X144968000Y-117779440D01*
X145958000Y-117779440D01*
X145958000Y-120735000D01*
X146015852Y-121025839D01*
X146180599Y-121272401D01*
X151816209Y-126908011D01*
X151696569Y-127083110D01*
X151645560Y-127335000D01*
X151645560Y-127935000D01*
X151689838Y-128170317D01*
X151753678Y-128269528D01*
X151696569Y-128353110D01*
X151645560Y-128605000D01*
X151645560Y-129205000D01*
X151689838Y-129440317D01*
X151753678Y-129539528D01*
X151696569Y-129623110D01*
X151645560Y-129875000D01*
X151645560Y-130475000D01*
X151689838Y-130710317D01*
X151753678Y-130809528D01*
X151696569Y-130893110D01*
X151645560Y-131145000D01*
X151645560Y-131745000D01*
X151689838Y-131980317D01*
X151828910Y-132196441D01*
X152041110Y-132341431D01*
X152293000Y-132392440D01*
X153843000Y-132392440D01*
X154078317Y-132348162D01*
X154294441Y-132209090D01*
X154439431Y-131996890D01*
X154490440Y-131745000D01*
X154490440Y-131572362D01*
X155927412Y-130135390D01*
X156092159Y-129888828D01*
X156150011Y-129597989D01*
X156150011Y-127031750D01*
X157717000Y-127031750D01*
X157717000Y-127672310D01*
X157813673Y-127905699D01*
X157992302Y-128084327D01*
X158225691Y-128181000D01*
X159566250Y-128181000D01*
X159725000Y-128022250D01*
X159725000Y-126873000D01*
X159979000Y-126873000D01*
X159979000Y-128022250D01*
X160137750Y-128181000D01*
X161478309Y-128181000D01*
X161711698Y-128084327D01*
X161890327Y-127905699D01*
X161987000Y-127672310D01*
X161987000Y-127031750D01*
X161828250Y-126873000D01*
X159979000Y-126873000D01*
X159725000Y-126873000D01*
X157875750Y-126873000D01*
X157717000Y-127031750D01*
X156150011Y-127031750D01*
X156150011Y-125819690D01*
X157717000Y-125819690D01*
X157717000Y-126460250D01*
X157875750Y-126619000D01*
X159725000Y-126619000D01*
X159725000Y-125469750D01*
X159979000Y-125469750D01*
X159979000Y-126619000D01*
X161828250Y-126619000D01*
X161987000Y-126460250D01*
X161987000Y-125819690D01*
X161890327Y-125586301D01*
X161711698Y-125407673D01*
X161478309Y-125311000D01*
X160137750Y-125311000D01*
X159979000Y-125469750D01*
X159725000Y-125469750D01*
X159566250Y-125311000D01*
X158225691Y-125311000D01*
X157992302Y-125407673D01*
X157813673Y-125586301D01*
X157717000Y-125819690D01*
X156150011Y-125819690D01*
X156150011Y-125350402D01*
X157763401Y-123737012D01*
X157928148Y-123490450D01*
X157986000Y-123199611D01*
X157986000Y-118903279D01*
X158177441Y-118780090D01*
X158322431Y-118567890D01*
X158373440Y-118316000D01*
X158373440Y-117316000D01*
X158329162Y-117080683D01*
X158190090Y-116864559D01*
X157977890Y-116719569D01*
X157726000Y-116668560D01*
X156726000Y-116668560D01*
X156490683Y-116712838D01*
X156274559Y-116851910D01*
X156129569Y-117064110D01*
X156078560Y-117316000D01*
X156078560Y-118316000D01*
X156122838Y-118551317D01*
X156261910Y-118767441D01*
X156466000Y-118906890D01*
X156466000Y-122884809D01*
X155700000Y-123650809D01*
X155700000Y-114360802D01*
X157335401Y-112725401D01*
X157500148Y-112478839D01*
X157558000Y-112188000D01*
X157558000Y-103260802D01*
X158476000Y-104178802D01*
X158476000Y-112241198D01*
X156688599Y-114028599D01*
X156576253Y-114196737D01*
X156490683Y-114212838D01*
X156274559Y-114351910D01*
X156129569Y-114564110D01*
X156078560Y-114816000D01*
X156078560Y-115816000D01*
X156122838Y-116051317D01*
X156261910Y-116267441D01*
X156474110Y-116412431D01*
X156726000Y-116463440D01*
X157726000Y-116463440D01*
X157961317Y-116419162D01*
X158177441Y-116280090D01*
X158322431Y-116067890D01*
X158373440Y-115816000D01*
X158373440Y-114816000D01*
X158329162Y-114580683D01*
X158312309Y-114554493D01*
X158340029Y-114526773D01*
X158464883Y-114828943D01*
X158532245Y-114896422D01*
X158555852Y-115015103D01*
X158720599Y-115261665D01*
X162106335Y-118647401D01*
X162352897Y-118812148D01*
X162643736Y-118870000D01*
X165293198Y-118870000D01*
X166509817Y-120086619D01*
X166497243Y-120116900D01*
X166496758Y-120672661D01*
X166708990Y-121186303D01*
X167101630Y-121579629D01*
X167134000Y-121593070D01*
X167134000Y-123489198D01*
X165324638Y-125298560D01*
X162752000Y-125298560D01*
X162516683Y-125342838D01*
X162300559Y-125481910D01*
X162155569Y-125694110D01*
X162104560Y-125946000D01*
X162104560Y-127546000D01*
X162148838Y-127781317D01*
X162287910Y-127997441D01*
X162500110Y-128142431D01*
X162752000Y-128193440D01*
X165752000Y-128193440D01*
X165987317Y-128149162D01*
X166203441Y-128010090D01*
X166348431Y-127797890D01*
X166399440Y-127546000D01*
X166399440Y-126373362D01*
X168431401Y-124341401D01*
X168565559Y-124140619D01*
X172008613Y-124140619D01*
X172348155Y-124962372D01*
X172976321Y-125591636D01*
X173797481Y-125932611D01*
X174686619Y-125933387D01*
X175508372Y-125593845D01*
X176137636Y-124965679D01*
X176478611Y-124144519D01*
X176479387Y-123255381D01*
X176139845Y-122433628D01*
X175511679Y-121804364D01*
X174690519Y-121463389D01*
X173801381Y-121462613D01*
X172979628Y-121802155D01*
X172350364Y-122430321D01*
X172009389Y-123251481D01*
X172008613Y-124140619D01*
X168565559Y-124140619D01*
X168596148Y-124094840D01*
X168654000Y-123804000D01*
X168654000Y-121593531D01*
X168684303Y-121581010D01*
X169077629Y-121188370D01*
X169290757Y-120675100D01*
X169291242Y-120119339D01*
X169079010Y-119605697D01*
X168686370Y-119212371D01*
X168173100Y-118999243D01*
X167617339Y-118998758D01*
X167584945Y-119012143D01*
X166145401Y-117572599D01*
X165898839Y-117407852D01*
X165608000Y-117350000D01*
X162958538Y-117350000D01*
X160164231Y-114555693D01*
X160192838Y-114486799D01*
X160193002Y-114298000D01*
X160849258Y-114298000D01*
X160872838Y-114423317D01*
X161011910Y-114639441D01*
X161224110Y-114784431D01*
X161476000Y-114835440D01*
X162976000Y-114835440D01*
X163211317Y-114791162D01*
X163427441Y-114652090D01*
X163572431Y-114439890D01*
X163579191Y-114406510D01*
X163637673Y-114547699D01*
X163816302Y-114726327D01*
X164049691Y-114823000D01*
X164640250Y-114823000D01*
X164799000Y-114664250D01*
X164799000Y-113665000D01*
X165053000Y-113665000D01*
X165053000Y-114664250D01*
X165211750Y-114823000D01*
X165802309Y-114823000D01*
X166035698Y-114726327D01*
X166214327Y-114547699D01*
X166311000Y-114314310D01*
X166311000Y-113823750D01*
X171255000Y-113823750D01*
X171255000Y-114314310D01*
X171351673Y-114547699D01*
X171530302Y-114726327D01*
X171763691Y-114823000D01*
X172354250Y-114823000D01*
X172513000Y-114664250D01*
X172513000Y-113665000D01*
X171413750Y-113665000D01*
X171255000Y-113823750D01*
X166311000Y-113823750D01*
X166152250Y-113665000D01*
X165053000Y-113665000D01*
X164799000Y-113665000D01*
X164779000Y-113665000D01*
X164779000Y-113411000D01*
X164799000Y-113411000D01*
X164799000Y-112411750D01*
X165053000Y-112411750D01*
X165053000Y-113411000D01*
X166152250Y-113411000D01*
X166311000Y-113252250D01*
X166311000Y-112761690D01*
X171255000Y-112761690D01*
X171255000Y-113252250D01*
X171413750Y-113411000D01*
X172513000Y-113411000D01*
X172513000Y-112411750D01*
X172354250Y-112253000D01*
X171763691Y-112253000D01*
X171530302Y-112349673D01*
X171351673Y-112528301D01*
X171255000Y-112761690D01*
X166311000Y-112761690D01*
X166214327Y-112528301D01*
X166035698Y-112349673D01*
X165802309Y-112253000D01*
X165211750Y-112253000D01*
X165053000Y-112411750D01*
X164799000Y-112411750D01*
X164640250Y-112253000D01*
X164049691Y-112253000D01*
X163816302Y-112349673D01*
X163637673Y-112528301D01*
X163581346Y-112664287D01*
X163579162Y-112652683D01*
X163440090Y-112436559D01*
X163227890Y-112291569D01*
X162976000Y-112240560D01*
X161476000Y-112240560D01*
X161240683Y-112284838D01*
X161024559Y-112423910D01*
X160879569Y-112636110D01*
X160850836Y-112778000D01*
X160370802Y-112778000D01*
X159996000Y-112403198D01*
X159996000Y-104924802D01*
X160839035Y-105767837D01*
X160748683Y-105784838D01*
X160532559Y-105923910D01*
X160387569Y-106136110D01*
X160336560Y-106388000D01*
X160336560Y-107988000D01*
X160380838Y-108223317D01*
X160519910Y-108439441D01*
X160732110Y-108584431D01*
X160984000Y-108635440D01*
X163584000Y-108635440D01*
X163819317Y-108591162D01*
X164035441Y-108452090D01*
X164081969Y-108383994D01*
X164224302Y-108526327D01*
X164457691Y-108623000D01*
X165598250Y-108623000D01*
X165757000Y-108464250D01*
X165757000Y-107315000D01*
X166011000Y-107315000D01*
X166011000Y-108464250D01*
X166169750Y-108623000D01*
X167310309Y-108623000D01*
X167543698Y-108526327D01*
X167722327Y-108347699D01*
X167819000Y-108114310D01*
X167819000Y-107473750D01*
X167660250Y-107315000D01*
X166011000Y-107315000D01*
X165757000Y-107315000D01*
X165737000Y-107315000D01*
X165737000Y-107061000D01*
X165757000Y-107061000D01*
X165757000Y-105911750D01*
X166011000Y-105911750D01*
X166011000Y-107061000D01*
X167660250Y-107061000D01*
X167819000Y-106902250D01*
X167819000Y-106261690D01*
X167722327Y-106028301D01*
X167543698Y-105849673D01*
X167310309Y-105753000D01*
X166169750Y-105753000D01*
X166011000Y-105911750D01*
X165757000Y-105911750D01*
X165598250Y-105753000D01*
X164457691Y-105753000D01*
X164224302Y-105849673D01*
X164083064Y-105990910D01*
X164048090Y-105936559D01*
X163835890Y-105791569D01*
X163584000Y-105740560D01*
X162914920Y-105740560D01*
X162821401Y-105600599D01*
X160547401Y-103326599D01*
X160300839Y-103161852D01*
X160010000Y-103104000D01*
X159550802Y-103104000D01*
X158415122Y-101968320D01*
X158415162Y-101922833D01*
X158273117Y-101579057D01*
X158010327Y-101315808D01*
X157666799Y-101173162D01*
X157558000Y-101173067D01*
X157558000Y-97920251D01*
X157711673Y-98074192D01*
X158055201Y-98216838D01*
X158427167Y-98217162D01*
X158770943Y-98075117D01*
X158804118Y-98042000D01*
X160525198Y-98042000D01*
X171403061Y-108919863D01*
X171293569Y-109080110D01*
X171242560Y-109332000D01*
X171242560Y-110632000D01*
X171286838Y-110867317D01*
X171425910Y-111083441D01*
X171638110Y-111228431D01*
X171890000Y-111279440D01*
X173390000Y-111279440D01*
X173625317Y-111235162D01*
X173841441Y-111096090D01*
X173986431Y-110883890D01*
X173989081Y-110870803D01*
X174125910Y-111083441D01*
X174338110Y-111228431D01*
X174580000Y-111277415D01*
X174580000Y-112242442D01*
X174354683Y-112284838D01*
X174138559Y-112423910D01*
X173993569Y-112636110D01*
X173986809Y-112669490D01*
X173928327Y-112528301D01*
X173749698Y-112349673D01*
X173516309Y-112253000D01*
X172925750Y-112253000D01*
X172767000Y-112411750D01*
X172767000Y-113411000D01*
X172787000Y-113411000D01*
X172787000Y-113665000D01*
X172767000Y-113665000D01*
X172767000Y-114664250D01*
X172925750Y-114823000D01*
X173516309Y-114823000D01*
X173749698Y-114726327D01*
X173928327Y-114547699D01*
X173984654Y-114411713D01*
X173986838Y-114423317D01*
X174125910Y-114639441D01*
X174338110Y-114784431D01*
X174590000Y-114835440D01*
X176090000Y-114835440D01*
X176325317Y-114791162D01*
X176541441Y-114652090D01*
X176686431Y-114439890D01*
X176737440Y-114188000D01*
X176737440Y-112888000D01*
X176693162Y-112652683D01*
X176554090Y-112436559D01*
X176341890Y-112291569D01*
X176100000Y-112242585D01*
X176100000Y-111277558D01*
X176325317Y-111235162D01*
X176541441Y-111096090D01*
X176632915Y-110962213D01*
X180047392Y-110962213D01*
X180116857Y-111204397D01*
X180640302Y-111391144D01*
X181195368Y-111363362D01*
X181579143Y-111204397D01*
X181648608Y-110962213D01*
X180848000Y-110161605D01*
X180047392Y-110962213D01*
X176632915Y-110962213D01*
X176686431Y-110883890D01*
X176737440Y-110632000D01*
X176737440Y-109774302D01*
X179438856Y-109774302D01*
X179466638Y-110329368D01*
X179625603Y-110713143D01*
X179867787Y-110782608D01*
X180668395Y-109982000D01*
X181027605Y-109982000D01*
X181828213Y-110782608D01*
X182070397Y-110713143D01*
X182257144Y-110189698D01*
X182229362Y-109634632D01*
X182070397Y-109250857D01*
X181828213Y-109181392D01*
X181027605Y-109982000D01*
X180668395Y-109982000D01*
X179867787Y-109181392D01*
X179625603Y-109250857D01*
X179438856Y-109774302D01*
X176737440Y-109774302D01*
X176737440Y-109332000D01*
X176693162Y-109096683D01*
X176632099Y-109001787D01*
X180047392Y-109001787D01*
X180848000Y-109802395D01*
X181648608Y-109001787D01*
X181579143Y-108759603D01*
X181055698Y-108572856D01*
X180500632Y-108600638D01*
X180116857Y-108759603D01*
X180047392Y-109001787D01*
X176632099Y-109001787D01*
X176554090Y-108880559D01*
X176341890Y-108735569D01*
X176090000Y-108684560D01*
X174590000Y-108684560D01*
X174354683Y-108728838D01*
X174138559Y-108867910D01*
X173993569Y-109080110D01*
X173990919Y-109093197D01*
X173854090Y-108880559D01*
X173641890Y-108735569D01*
X173390000Y-108684560D01*
X173270920Y-108684560D01*
X173177401Y-108544599D01*
X161377401Y-96744599D01*
X161130839Y-96579852D01*
X160840000Y-96522000D01*
X158804463Y-96522000D01*
X158772327Y-96489808D01*
X158428799Y-96347162D01*
X158056833Y-96346838D01*
X157713057Y-96488883D01*
X157558000Y-96643670D01*
X157558000Y-96291558D01*
X157783317Y-96249162D01*
X157999441Y-96110090D01*
X158144431Y-95897890D01*
X158195440Y-95646000D01*
X158195440Y-94773362D01*
X158715401Y-94253401D01*
X158823412Y-94091750D01*
X164831000Y-94091750D01*
X164831000Y-94682309D01*
X164927673Y-94915698D01*
X165106301Y-95094327D01*
X165339690Y-95191000D01*
X165830250Y-95191000D01*
X165989000Y-95032250D01*
X165989000Y-93933000D01*
X166243000Y-93933000D01*
X166243000Y-95032250D01*
X166401750Y-95191000D01*
X166892310Y-95191000D01*
X167125699Y-95094327D01*
X167304327Y-94915698D01*
X167401000Y-94682309D01*
X167401000Y-94091750D01*
X167242250Y-93933000D01*
X166243000Y-93933000D01*
X165989000Y-93933000D01*
X164989750Y-93933000D01*
X164831000Y-94091750D01*
X158823412Y-94091750D01*
X158880148Y-94006840D01*
X158938000Y-93716000D01*
X158938000Y-92138000D01*
X158880148Y-91847161D01*
X158715401Y-91600599D01*
X155482000Y-88367198D01*
X155482000Y-87690802D01*
X158677755Y-84495047D01*
X158686838Y-84543317D01*
X158825910Y-84759441D01*
X159038110Y-84904431D01*
X159290000Y-84955440D01*
X162862638Y-84955440D01*
X164216599Y-86309401D01*
X164463161Y-86474148D01*
X164754000Y-86532000D01*
X164820442Y-86532000D01*
X164862838Y-86757317D01*
X165001910Y-86973441D01*
X165214110Y-87118431D01*
X165227197Y-87121081D01*
X165014559Y-87257910D01*
X164869569Y-87470110D01*
X164818560Y-87722000D01*
X164818560Y-89222000D01*
X164862838Y-89457317D01*
X165001910Y-89673441D01*
X165172709Y-89790143D01*
X165014559Y-89891910D01*
X164869569Y-90104110D01*
X164818560Y-90356000D01*
X164818560Y-91856000D01*
X164862838Y-92091317D01*
X165001910Y-92307441D01*
X165214110Y-92452431D01*
X165247490Y-92459191D01*
X165106301Y-92517673D01*
X164927673Y-92696302D01*
X164831000Y-92929691D01*
X164831000Y-93520250D01*
X164989750Y-93679000D01*
X165989000Y-93679000D01*
X165989000Y-93659000D01*
X166243000Y-93659000D01*
X166243000Y-93679000D01*
X167242250Y-93679000D01*
X167401000Y-93520250D01*
X167401000Y-92929691D01*
X167304327Y-92696302D01*
X167125699Y-92517673D01*
X166989713Y-92461346D01*
X167001317Y-92459162D01*
X167217441Y-92320090D01*
X167362431Y-92107890D01*
X167413440Y-91856000D01*
X167413440Y-90394366D01*
X167473600Y-90484402D01*
X167950599Y-90961401D01*
X168093963Y-91057194D01*
X168090560Y-91074000D01*
X168090560Y-91674000D01*
X168134838Y-91909317D01*
X168273910Y-92125441D01*
X168486110Y-92270431D01*
X168658000Y-92305240D01*
X168658000Y-93217442D01*
X168432683Y-93259838D01*
X168216559Y-93398910D01*
X168071569Y-93611110D01*
X168020560Y-93863000D01*
X168020560Y-95113000D01*
X168064838Y-95348317D01*
X168203910Y-95564441D01*
X168416110Y-95709431D01*
X168668000Y-95760440D01*
X168778000Y-95760440D01*
X168778000Y-96843721D01*
X168586559Y-96966910D01*
X168441569Y-97179110D01*
X168390560Y-97431000D01*
X168390560Y-100181000D01*
X168434838Y-100416317D01*
X168573910Y-100632441D01*
X168786110Y-100777431D01*
X169038000Y-100828440D01*
X169610638Y-100828440D01*
X170665599Y-101883401D01*
X170912161Y-102048148D01*
X171203000Y-102106000D01*
X173228000Y-102106000D01*
X173518839Y-102048148D01*
X173765401Y-101883401D01*
X174273401Y-101375401D01*
X174417861Y-101159201D01*
X174422560Y-101152168D01*
X174422560Y-101644000D01*
X174466838Y-101879317D01*
X174605910Y-102095441D01*
X174818110Y-102240431D01*
X175070000Y-102291440D01*
X175439080Y-102291440D01*
X175532599Y-102431401D01*
X178540599Y-105439401D01*
X178787160Y-105604148D01*
X179078000Y-105662000D01*
X179650469Y-105662000D01*
X179662990Y-105692303D01*
X180055630Y-106085629D01*
X180568900Y-106298757D01*
X181124661Y-106299242D01*
X181638303Y-106087010D01*
X182031629Y-105694370D01*
X182244757Y-105181100D01*
X182245242Y-104625339D01*
X182033010Y-104111697D01*
X181640370Y-103718371D01*
X181127100Y-103505243D01*
X180571339Y-103504758D01*
X180057697Y-103716990D01*
X179664371Y-104109630D01*
X179650930Y-104142000D01*
X179392802Y-104142000D01*
X177422536Y-102171734D01*
X177521441Y-102108090D01*
X177666431Y-101895890D01*
X177717440Y-101644000D01*
X177717440Y-100544000D01*
X180422560Y-100544000D01*
X180422560Y-101644000D01*
X180466838Y-101879317D01*
X180605910Y-102095441D01*
X180818110Y-102240431D01*
X181070000Y-102291440D01*
X183070000Y-102291440D01*
X183305317Y-102247162D01*
X183521441Y-102108090D01*
X183666431Y-101895890D01*
X183717440Y-101644000D01*
X183717440Y-100544000D01*
X183673162Y-100308683D01*
X183534090Y-100092559D01*
X183321890Y-99947569D01*
X183070000Y-99896560D01*
X181070000Y-99896560D01*
X180834683Y-99940838D01*
X180618559Y-100079910D01*
X180473569Y-100292110D01*
X180422560Y-100544000D01*
X177717440Y-100544000D01*
X177673162Y-100308683D01*
X177534090Y-100092559D01*
X177321890Y-99947569D01*
X177070000Y-99896560D01*
X175070000Y-99896560D01*
X174834683Y-99940838D01*
X174618559Y-100079910D01*
X174496000Y-100259281D01*
X174496000Y-99442802D01*
X174776680Y-99162123D01*
X174818110Y-99190431D01*
X175070000Y-99241440D01*
X177070000Y-99241440D01*
X177305317Y-99197162D01*
X177521441Y-99058090D01*
X177666431Y-98845890D01*
X177717440Y-98594000D01*
X177717440Y-97494000D01*
X180422560Y-97494000D01*
X180422560Y-98594000D01*
X180466838Y-98829317D01*
X180605910Y-99045441D01*
X180818110Y-99190431D01*
X181070000Y-99241440D01*
X183070000Y-99241440D01*
X183305317Y-99197162D01*
X183521441Y-99058090D01*
X183666431Y-98845890D01*
X183717440Y-98594000D01*
X183717440Y-97494000D01*
X183673162Y-97258683D01*
X183534090Y-97042559D01*
X183321890Y-96897569D01*
X183070000Y-96846560D01*
X181070000Y-96846560D01*
X180834683Y-96890838D01*
X180618559Y-97029910D01*
X180473569Y-97242110D01*
X180422560Y-97494000D01*
X177717440Y-97494000D01*
X177673162Y-97258683D01*
X177534090Y-97042559D01*
X177321890Y-96897569D01*
X177070000Y-96846560D01*
X175070000Y-96846560D01*
X174834683Y-96890838D01*
X174618559Y-97029910D01*
X174473569Y-97242110D01*
X174441511Y-97400417D01*
X174282599Y-97506598D01*
X173198599Y-98590599D01*
X173033852Y-98837161D01*
X172985440Y-99080542D01*
X172985440Y-97431000D01*
X172941162Y-97195683D01*
X172924309Y-97169493D01*
X174273401Y-95820401D01*
X174430366Y-95585486D01*
X174466838Y-95779317D01*
X174605910Y-95995441D01*
X174818110Y-96140431D01*
X175070000Y-96191440D01*
X177070000Y-96191440D01*
X177305317Y-96147162D01*
X177521441Y-96008090D01*
X177666431Y-95795890D01*
X177717440Y-95544000D01*
X177717440Y-94444000D01*
X180422560Y-94444000D01*
X180422560Y-95544000D01*
X180466838Y-95779317D01*
X180605910Y-95995441D01*
X180818110Y-96140431D01*
X181070000Y-96191440D01*
X183070000Y-96191440D01*
X183305317Y-96147162D01*
X183521441Y-96008090D01*
X183666431Y-95795890D01*
X183717440Y-95544000D01*
X183717440Y-94444000D01*
X183673162Y-94208683D01*
X183534090Y-93992559D01*
X183321890Y-93847569D01*
X183070000Y-93796560D01*
X181070000Y-93796560D01*
X180834683Y-93840838D01*
X180618559Y-93979910D01*
X180473569Y-94192110D01*
X180422560Y-94444000D01*
X177717440Y-94444000D01*
X177673162Y-94208683D01*
X177534090Y-93992559D01*
X177321890Y-93847569D01*
X177070000Y-93796560D01*
X176830000Y-93796560D01*
X176830000Y-93738802D01*
X178114802Y-92454000D01*
X179650469Y-92454000D01*
X179662990Y-92484303D01*
X180055630Y-92877629D01*
X180568900Y-93090757D01*
X181124661Y-93091242D01*
X181638303Y-92879010D01*
X182031629Y-92486370D01*
X182244757Y-91973100D01*
X182245242Y-91417339D01*
X182033010Y-90903697D01*
X181640370Y-90510371D01*
X181127100Y-90297243D01*
X180571339Y-90296758D01*
X180057697Y-90508990D01*
X179664371Y-90901630D01*
X179650930Y-90934000D01*
X177800000Y-90934000D01*
X177589407Y-90975890D01*
X177509160Y-90991852D01*
X177262599Y-91156599D01*
X175532599Y-92886599D01*
X175367852Y-93133161D01*
X175310000Y-93424000D01*
X175310000Y-93796560D01*
X175070000Y-93796560D01*
X174834683Y-93840838D01*
X174618559Y-93979910D01*
X174496000Y-94159281D01*
X174496000Y-92222000D01*
X174438148Y-91931161D01*
X174273401Y-91684599D01*
X173425401Y-90836599D01*
X173273000Y-90734768D01*
X173273000Y-90709750D01*
X173114250Y-90551000D01*
X172997360Y-90551000D01*
X172889890Y-90477569D01*
X172638000Y-90426560D01*
X171941000Y-90426560D01*
X171941000Y-90421440D01*
X172638000Y-90421440D01*
X172873317Y-90377162D01*
X172997892Y-90297000D01*
X173114250Y-90297000D01*
X173273000Y-90138250D01*
X173273000Y-89997691D01*
X173250931Y-89944411D01*
X173285440Y-89774000D01*
X173285440Y-89174000D01*
X173241162Y-88938683D01*
X173102090Y-88722559D01*
X172889890Y-88577569D01*
X172638000Y-88526560D01*
X171538000Y-88526560D01*
X171302683Y-88570838D01*
X171086559Y-88709910D01*
X171051640Y-88761015D01*
X170997160Y-88771852D01*
X170750599Y-88936599D01*
X170485440Y-89201758D01*
X170485440Y-89174000D01*
X170441162Y-88938683D01*
X170302090Y-88722559D01*
X170089890Y-88577569D01*
X170006358Y-88560653D01*
X169990148Y-88479161D01*
X169845114Y-88262101D01*
X169845162Y-88206833D01*
X169703117Y-87863057D01*
X169472902Y-87632440D01*
X170188000Y-87632440D01*
X170423317Y-87588162D01*
X170639441Y-87449090D01*
X170685969Y-87380994D01*
X170828302Y-87523327D01*
X171061691Y-87620000D01*
X171652250Y-87620000D01*
X171811000Y-87461250D01*
X171811000Y-86487000D01*
X172065000Y-86487000D01*
X172065000Y-87461250D01*
X172223750Y-87620000D01*
X172814309Y-87620000D01*
X172876564Y-87594213D01*
X180047392Y-87594213D01*
X180116857Y-87836397D01*
X180640302Y-88023144D01*
X181195368Y-87995362D01*
X181579143Y-87836397D01*
X181648608Y-87594213D01*
X180848000Y-86793605D01*
X180047392Y-87594213D01*
X172876564Y-87594213D01*
X173047698Y-87523327D01*
X173226327Y-87344699D01*
X173323000Y-87111310D01*
X173323000Y-86645750D01*
X173164250Y-86487000D01*
X172065000Y-86487000D01*
X171811000Y-86487000D01*
X171791000Y-86487000D01*
X171791000Y-86406302D01*
X179438856Y-86406302D01*
X179466638Y-86961368D01*
X179625603Y-87345143D01*
X179867787Y-87414608D01*
X180668395Y-86614000D01*
X181027605Y-86614000D01*
X181828213Y-87414608D01*
X182070397Y-87345143D01*
X182257144Y-86821698D01*
X182229362Y-86266632D01*
X182070397Y-85882857D01*
X181828213Y-85813392D01*
X181027605Y-86614000D01*
X180668395Y-86614000D01*
X179867787Y-85813392D01*
X179625603Y-85882857D01*
X179438856Y-86406302D01*
X171791000Y-86406302D01*
X171791000Y-86233000D01*
X171811000Y-86233000D01*
X171811000Y-85258750D01*
X172065000Y-85258750D01*
X172065000Y-86233000D01*
X173164250Y-86233000D01*
X173323000Y-86074250D01*
X173323000Y-85633787D01*
X180047392Y-85633787D01*
X180848000Y-86434395D01*
X181648608Y-85633787D01*
X181579143Y-85391603D01*
X181055698Y-85204856D01*
X180500632Y-85232638D01*
X180116857Y-85391603D01*
X180047392Y-85633787D01*
X173323000Y-85633787D01*
X173323000Y-85608690D01*
X173226327Y-85375301D01*
X173047698Y-85196673D01*
X172814309Y-85100000D01*
X172223750Y-85100000D01*
X172065000Y-85258750D01*
X171811000Y-85258750D01*
X171652250Y-85100000D01*
X171061691Y-85100000D01*
X170828302Y-85196673D01*
X170687064Y-85337910D01*
X170652090Y-85283559D01*
X170439890Y-85138569D01*
X170188000Y-85087560D01*
X169167341Y-85087560D01*
X169140839Y-85069852D01*
X168850000Y-85012000D01*
X167411558Y-85012000D01*
X167369162Y-84786683D01*
X167230090Y-84570559D01*
X167017890Y-84425569D01*
X166766000Y-84374560D01*
X165466000Y-84374560D01*
X165230683Y-84418838D01*
X165014559Y-84557910D01*
X164869569Y-84770110D01*
X164862385Y-84805583D01*
X163937440Y-83880638D01*
X163937440Y-81808000D01*
X163893162Y-81572683D01*
X163754090Y-81356559D01*
X163541890Y-81211569D01*
X163290000Y-81160560D01*
X159290000Y-81160560D01*
X159054683Y-81204838D01*
X158838559Y-81343910D01*
X158693569Y-81556110D01*
X158642560Y-81808000D01*
X158642560Y-82427080D01*
X158502599Y-82520599D01*
X154407198Y-86616000D01*
X148508999Y-86616000D01*
X148509162Y-86428833D01*
X148367117Y-86085057D01*
X148334000Y-86051882D01*
X148334000Y-84128463D01*
X148366192Y-84096327D01*
X148508838Y-83752799D01*
X148509162Y-83380833D01*
X148493840Y-83343750D01*
X150655000Y-83343750D01*
X150655000Y-84434310D01*
X150751673Y-84667699D01*
X150930302Y-84846327D01*
X151163691Y-84943000D01*
X153004250Y-84943000D01*
X153163000Y-84784250D01*
X153163000Y-83185000D01*
X153417000Y-83185000D01*
X153417000Y-84784250D01*
X153575750Y-84943000D01*
X155416309Y-84943000D01*
X155649698Y-84846327D01*
X155828327Y-84667699D01*
X155925000Y-84434310D01*
X155925000Y-83343750D01*
X155766250Y-83185000D01*
X153417000Y-83185000D01*
X153163000Y-83185000D01*
X150813750Y-83185000D01*
X150655000Y-83343750D01*
X148493840Y-83343750D01*
X148367117Y-83037057D01*
X148104327Y-82773808D01*
X147760799Y-82631162D01*
X147388833Y-82630838D01*
X147202022Y-82708027D01*
X147202022Y-81681690D01*
X150655000Y-81681690D01*
X150655000Y-82772250D01*
X150813750Y-82931000D01*
X153163000Y-82931000D01*
X153163000Y-81331750D01*
X153417000Y-81331750D01*
X153417000Y-82931000D01*
X155766250Y-82931000D01*
X155925000Y-82772250D01*
X155925000Y-81681690D01*
X155828327Y-81448301D01*
X155649698Y-81269673D01*
X155416309Y-81173000D01*
X153575750Y-81173000D01*
X153417000Y-81331750D01*
X153163000Y-81331750D01*
X153004250Y-81173000D01*
X151163691Y-81173000D01*
X150930302Y-81269673D01*
X150751673Y-81448301D01*
X150655000Y-81681690D01*
X147202022Y-81681690D01*
X147202022Y-79421118D01*
X147252199Y-79421162D01*
X147595975Y-79279117D01*
X147629150Y-79246000D01*
X148634000Y-79246000D01*
X148924839Y-79188148D01*
X149171401Y-79023401D01*
X152073362Y-76121440D01*
X152646000Y-76121440D01*
X152881317Y-76077162D01*
X153097441Y-75938090D01*
X153242431Y-75725890D01*
X153293440Y-75474000D01*
X153293440Y-72324000D01*
X153249162Y-72088683D01*
X153110090Y-71872559D01*
X152897890Y-71727569D01*
X152646000Y-71676560D01*
X151646000Y-71676560D01*
X151410683Y-71720838D01*
X151194559Y-71859910D01*
X151049569Y-72072110D01*
X150998560Y-72324000D01*
X150998560Y-75046638D01*
X150753440Y-75291758D01*
X150753440Y-72324000D01*
X150709162Y-72088683D01*
X150570090Y-71872559D01*
X150357890Y-71727569D01*
X150106000Y-71676560D01*
X149106000Y-71676560D01*
X148887042Y-71717760D01*
X149533362Y-71071440D01*
X150106000Y-71071440D01*
X150341317Y-71027162D01*
X150557441Y-70888090D01*
X150702431Y-70675890D01*
X150753440Y-70424000D01*
X150753440Y-69134750D01*
X151011000Y-69134750D01*
X151011000Y-70550309D01*
X151107673Y-70783698D01*
X151286301Y-70962327D01*
X151519690Y-71059000D01*
X151860250Y-71059000D01*
X152019000Y-70900250D01*
X152019000Y-68976000D01*
X152273000Y-68976000D01*
X152273000Y-70900250D01*
X152431750Y-71059000D01*
X152772310Y-71059000D01*
X153005699Y-70962327D01*
X153184327Y-70783698D01*
X153281000Y-70550309D01*
X153281000Y-69134750D01*
X153122250Y-68976000D01*
X152273000Y-68976000D01*
X152019000Y-68976000D01*
X151169750Y-68976000D01*
X151011000Y-69134750D01*
X150753440Y-69134750D01*
X150753440Y-67274000D01*
X150729674Y-67147691D01*
X151011000Y-67147691D01*
X151011000Y-68563250D01*
X151169750Y-68722000D01*
X152019000Y-68722000D01*
X152019000Y-66797750D01*
X152273000Y-66797750D01*
X152273000Y-68722000D01*
X153122250Y-68722000D01*
X153281000Y-68563250D01*
X153281000Y-67147691D01*
X153184327Y-66914302D01*
X153005699Y-66735673D01*
X152772310Y-66639000D01*
X152431750Y-66639000D01*
X152273000Y-66797750D01*
X152019000Y-66797750D01*
X151860250Y-66639000D01*
X151519690Y-66639000D01*
X151286301Y-66735673D01*
X151107673Y-66914302D01*
X151011000Y-67147691D01*
X150729674Y-67147691D01*
X150709162Y-67038683D01*
X150570090Y-66822559D01*
X150357890Y-66677569D01*
X150106000Y-66626560D01*
X149106000Y-66626560D01*
X148870683Y-66670838D01*
X148654559Y-66809910D01*
X148509569Y-67022110D01*
X148458560Y-67274000D01*
X148458560Y-69996638D01*
X148213440Y-70241758D01*
X148213440Y-67274000D01*
X148169162Y-67038683D01*
X148030090Y-66822559D01*
X147817890Y-66677569D01*
X147566000Y-66626560D01*
X146566000Y-66626560D01*
X146330683Y-66670838D01*
X146114559Y-66809910D01*
X145969569Y-67022110D01*
X145918560Y-67274000D01*
X145918560Y-68089000D01*
X139721000Y-68089000D01*
X139430161Y-68146852D01*
X139183599Y-68311599D01*
X132478599Y-75016599D01*
X132385080Y-75156560D01*
X132266000Y-75156560D01*
X132030683Y-75200838D01*
X131814559Y-75339910D01*
X131669569Y-75552110D01*
X131618560Y-75804000D01*
X131618560Y-77104000D01*
X131662838Y-77339317D01*
X131801910Y-77555441D01*
X132014110Y-77700431D01*
X132256000Y-77749415D01*
X132256000Y-80913508D01*
X132059057Y-80994883D01*
X131795808Y-81257673D01*
X131653162Y-81601201D01*
X131652838Y-81973167D01*
X131794883Y-82316943D01*
X131946437Y-82468761D01*
X131542599Y-82872599D01*
X131377852Y-83119161D01*
X131320000Y-83410000D01*
X131320000Y-83765537D01*
X131287808Y-83797673D01*
X131145162Y-84141201D01*
X131144838Y-84513167D01*
X131286883Y-84856943D01*
X131549673Y-85120192D01*
X131840170Y-85240818D01*
X131828000Y-85302000D01*
X131828000Y-85797537D01*
X131823165Y-85802363D01*
X130941827Y-84921025D01*
X130990431Y-84849890D01*
X131041440Y-84598000D01*
X131041440Y-81098000D01*
X130997162Y-80862683D01*
X130858090Y-80646559D01*
X130645890Y-80501569D01*
X130394000Y-80450560D01*
X129194000Y-80450560D01*
X128958683Y-80494838D01*
X128742559Y-80633910D01*
X128597569Y-80846110D01*
X128560735Y-81028000D01*
X127356038Y-81028000D01*
X127337162Y-80927683D01*
X127198090Y-80711559D01*
X126985890Y-80566569D01*
X126734000Y-80515560D01*
X125234000Y-80515560D01*
X124998683Y-80559838D01*
X124782559Y-80698910D01*
X124736031Y-80767006D01*
X124593698Y-80624673D01*
X124360309Y-80528000D01*
X123769750Y-80528000D01*
X123611000Y-80686750D01*
X123611000Y-81661000D01*
X123631000Y-81661000D01*
X123631000Y-81915000D01*
X123611000Y-81915000D01*
X123611000Y-82889250D01*
X123769750Y-83048000D01*
X124360309Y-83048000D01*
X124593698Y-82951327D01*
X124734936Y-82810090D01*
X124769910Y-82864441D01*
X124982110Y-83009431D01*
X125234000Y-83060440D01*
X126734000Y-83060440D01*
X126969317Y-83016162D01*
X127185441Y-82877090D01*
X127330431Y-82664890D01*
X127354102Y-82548000D01*
X128419198Y-82548000D01*
X128546560Y-82675362D01*
X128546560Y-84598000D01*
X128590838Y-84833317D01*
X128729910Y-85049441D01*
X128942110Y-85194431D01*
X129158242Y-85238199D01*
X129256599Y-85385401D01*
X129821758Y-85950560D01*
X129194000Y-85950560D01*
X128958683Y-85994838D01*
X128742559Y-86133910D01*
X128597569Y-86346110D01*
X128546560Y-86598000D01*
X128546560Y-88520638D01*
X128419198Y-88648000D01*
X127356038Y-88648000D01*
X127337162Y-88547683D01*
X127198090Y-88331559D01*
X126985890Y-88186569D01*
X126734000Y-88135560D01*
X125234000Y-88135560D01*
X124998683Y-88179838D01*
X124782559Y-88318910D01*
X124736031Y-88387006D01*
X124593698Y-88244673D01*
X124360309Y-88148000D01*
X123769750Y-88148000D01*
X123611000Y-88306750D01*
X123611000Y-89281000D01*
X123631000Y-89281000D01*
X123631000Y-89535000D01*
X123611000Y-89535000D01*
X123611000Y-90509250D01*
X123769750Y-90668000D01*
X124360309Y-90668000D01*
X124593698Y-90571327D01*
X124734936Y-90430090D01*
X124769910Y-90484441D01*
X124982110Y-90629431D01*
X125234000Y-90680440D01*
X126734000Y-90680440D01*
X126969317Y-90636162D01*
X127185441Y-90497090D01*
X127330431Y-90284890D01*
X127354102Y-90168000D01*
X128559731Y-90168000D01*
X128590838Y-90333317D01*
X128729910Y-90549441D01*
X128942110Y-90694431D01*
X129194000Y-90745440D01*
X130394000Y-90745440D01*
X130629317Y-90701162D01*
X130845441Y-90562090D01*
X130990431Y-90349890D01*
X131041440Y-90098000D01*
X131041440Y-89372111D01*
X131169873Y-89682943D01*
X131432663Y-89946192D01*
X131776191Y-90088838D01*
X131823067Y-90088879D01*
X132844000Y-91109812D01*
X132844000Y-98243537D01*
X132811808Y-98275673D01*
X132669162Y-98619201D01*
X132668838Y-98991167D01*
X132810883Y-99334943D01*
X133045530Y-99570000D01*
X130996742Y-99570000D01*
X130973162Y-99444683D01*
X130834090Y-99228559D01*
X130621890Y-99083569D01*
X130370000Y-99032560D01*
X128870000Y-99032560D01*
X128634683Y-99076838D01*
X128418559Y-99215910D01*
X128273569Y-99428110D01*
X128270919Y-99441197D01*
X128134090Y-99228559D01*
X127921890Y-99083569D01*
X127670000Y-99032560D01*
X126170000Y-99032560D01*
X125934683Y-99076838D01*
X125718559Y-99215910D01*
X125573569Y-99428110D01*
X125544836Y-99570000D01*
X125487000Y-99570000D01*
X125196161Y-99627852D01*
X124949599Y-99792599D01*
X120201638Y-104540560D01*
X119729000Y-104540560D01*
X119493683Y-104584838D01*
X119277559Y-104723910D01*
X119132569Y-104936110D01*
X119081560Y-105188000D01*
X114290370Y-105188000D01*
X114102284Y-104485815D01*
X113718283Y-102555312D01*
X114171512Y-99790614D01*
X114182155Y-99816372D01*
X114810321Y-100445636D01*
X115631481Y-100786611D01*
X116520619Y-100787387D01*
X117342372Y-100447845D01*
X117971636Y-99819679D01*
X118312611Y-98998519D01*
X118313387Y-98109381D01*
X117973845Y-97287628D01*
X117345679Y-96658364D01*
X116524519Y-96317389D01*
X115635381Y-96316613D01*
X114813628Y-96656155D01*
X114660259Y-96809256D01*
X114963380Y-94960213D01*
X117055392Y-94960213D01*
X117124857Y-95202397D01*
X117648302Y-95389144D01*
X118203368Y-95361362D01*
X118587143Y-95202397D01*
X118656608Y-94960213D01*
X117856000Y-94159605D01*
X117055392Y-94960213D01*
X114963380Y-94960213D01*
X115158120Y-93772302D01*
X116446856Y-93772302D01*
X116474638Y-94327368D01*
X116633603Y-94711143D01*
X116875787Y-94780608D01*
X117676395Y-93980000D01*
X118035605Y-93980000D01*
X118836213Y-94780608D01*
X119078397Y-94711143D01*
X119265144Y-94187698D01*
X119237362Y-93632632D01*
X119078397Y-93248857D01*
X118836213Y-93179392D01*
X118035605Y-93980000D01*
X117676395Y-93980000D01*
X116875787Y-93179392D01*
X116633603Y-93248857D01*
X116446856Y-93772302D01*
X115158120Y-93772302D01*
X115284761Y-92999787D01*
X117055392Y-92999787D01*
X117856000Y-93800395D01*
X118656608Y-92999787D01*
X118587143Y-92757603D01*
X118063698Y-92570856D01*
X117508632Y-92598638D01*
X117124857Y-92757603D01*
X117055392Y-92999787D01*
X115284761Y-92999787D01*
X115826735Y-89693750D01*
X122099000Y-89693750D01*
X122099000Y-90159310D01*
X122195673Y-90392699D01*
X122374302Y-90571327D01*
X122607691Y-90668000D01*
X123198250Y-90668000D01*
X123357000Y-90509250D01*
X123357000Y-89535000D01*
X122257750Y-89535000D01*
X122099000Y-89693750D01*
X115826735Y-89693750D01*
X115996745Y-88656690D01*
X122099000Y-88656690D01*
X122099000Y-89122250D01*
X122257750Y-89281000D01*
X123357000Y-89281000D01*
X123357000Y-88306750D01*
X123198250Y-88148000D01*
X122607691Y-88148000D01*
X122374302Y-88244673D01*
X122195673Y-88423301D01*
X122099000Y-88656690D01*
X115996745Y-88656690D01*
X116200107Y-87416185D01*
X118936476Y-82073750D01*
X122099000Y-82073750D01*
X122099000Y-82539310D01*
X122195673Y-82772699D01*
X122374302Y-82951327D01*
X122607691Y-83048000D01*
X123198250Y-83048000D01*
X123357000Y-82889250D01*
X123357000Y-81915000D01*
X122257750Y-81915000D01*
X122099000Y-82073750D01*
X118936476Y-82073750D01*
X119467653Y-81036690D01*
X122099000Y-81036690D01*
X122099000Y-81502250D01*
X122257750Y-81661000D01*
X123357000Y-81661000D01*
X123357000Y-80686750D01*
X123198250Y-80528000D01*
X122607691Y-80528000D01*
X122374302Y-80624673D01*
X122195673Y-80803301D01*
X122099000Y-81036690D01*
X119467653Y-81036690D01*
X120103165Y-79795929D01*
X122518945Y-76180460D01*
X128948570Y-70669352D01*
X133623690Y-67545537D01*
X148594399Y-63630121D01*
X164542033Y-66667766D01*
X164542033Y-66667766D01*
G37*
X164542033Y-66667766D02*
X167767261Y-68885110D01*
X167197381Y-68884613D01*
X166375628Y-69224155D01*
X165746364Y-69852321D01*
X165405389Y-70673481D01*
X165404613Y-71562619D01*
X165744155Y-72384372D01*
X166372321Y-73013636D01*
X167193481Y-73354611D01*
X168082619Y-73355387D01*
X168904372Y-73015845D01*
X169533636Y-72387679D01*
X169874611Y-71566519D01*
X169875387Y-70677381D01*
X169677466Y-70198376D01*
X176691897Y-75020797D01*
X184002616Y-85986875D01*
X186075583Y-96408384D01*
X185787939Y-105037701D01*
X183989528Y-114078923D01*
X181517915Y-117777954D01*
X175092862Y-126630249D01*
X169485578Y-130376916D01*
X161736236Y-134455517D01*
X156440022Y-135509000D01*
X144036754Y-135509000D01*
X133380634Y-132292058D01*
X132540578Y-131730750D01*
X146258000Y-131730750D01*
X146258000Y-131871310D01*
X146354673Y-132104699D01*
X146533302Y-132283327D01*
X146766691Y-132380000D01*
X147382250Y-132380000D01*
X147541000Y-132221250D01*
X147541000Y-131572000D01*
X147795000Y-131572000D01*
X147795000Y-132221250D01*
X147953750Y-132380000D01*
X148569309Y-132380000D01*
X148802698Y-132283327D01*
X148981327Y-132104699D01*
X149078000Y-131871310D01*
X149078000Y-131730750D01*
X148919250Y-131572000D01*
X147795000Y-131572000D01*
X147541000Y-131572000D01*
X146416750Y-131572000D01*
X146258000Y-131730750D01*
X132540578Y-131730750D01*
X128268800Y-128876440D01*
X124070570Y-124274534D01*
X126671612Y-124274534D01*
X126777039Y-124804550D01*
X127077269Y-125253877D01*
X127476123Y-125652731D01*
X127925450Y-125952962D01*
X128455466Y-126058388D01*
X128985482Y-125952962D01*
X129434809Y-125652731D01*
X129735040Y-125203404D01*
X129840466Y-124673388D01*
X129735040Y-124143372D01*
X129434809Y-123694045D01*
X129035955Y-123295191D01*
X128586628Y-122994961D01*
X128056612Y-122889534D01*
X127526596Y-122994961D01*
X127077269Y-123295191D01*
X126777039Y-123744518D01*
X126671612Y-124274534D01*
X124070570Y-124274534D01*
X119407893Y-119163523D01*
X118570699Y-117910573D01*
X133035573Y-117910573D01*
X133141000Y-118440589D01*
X133441230Y-118889916D01*
X133840084Y-119288770D01*
X134289411Y-119589001D01*
X134819427Y-119694427D01*
X135349443Y-119589001D01*
X135798770Y-119288770D01*
X136099001Y-118839443D01*
X136204427Y-118309427D01*
X136099001Y-117779411D01*
X135798770Y-117330084D01*
X135399916Y-116931230D01*
X134950589Y-116631000D01*
X134420573Y-116525573D01*
X133890557Y-116631000D01*
X133441230Y-116931230D01*
X133141000Y-117380557D01*
X133035573Y-117910573D01*
X118570699Y-117910573D01*
X117114409Y-115731081D01*
X116352069Y-112885008D01*
X124254139Y-112885008D01*
X124376270Y-113105377D01*
X125508501Y-113105377D01*
X125508501Y-111973146D01*
X125288132Y-111851015D01*
X124785950Y-112089097D01*
X124413104Y-112501233D01*
X124254139Y-112885008D01*
X116352069Y-112885008D01*
X114290370Y-105188000D01*
X119081560Y-105188000D01*
X119081560Y-106388000D01*
X119125838Y-106623317D01*
X119264910Y-106839441D01*
X119477110Y-106984431D01*
X119729000Y-107035440D01*
X120629000Y-107035440D01*
X120864317Y-106991162D01*
X120901728Y-106967088D01*
X120927110Y-106984431D01*
X121179000Y-107035440D01*
X122079000Y-107035440D01*
X122314317Y-106991162D01*
X122530441Y-106852090D01*
X122675431Y-106639890D01*
X122694039Y-106548000D01*
X127712000Y-106548000D01*
X128002839Y-106490148D01*
X128249401Y-106325401D01*
X129391362Y-105183440D01*
X130464000Y-105183440D01*
X130699317Y-105139162D01*
X130915441Y-105000090D01*
X131060431Y-104787890D01*
X131063081Y-104774803D01*
X131199910Y-104987441D01*
X131412110Y-105132431D01*
X131664000Y-105183440D01*
X133164000Y-105183440D01*
X133399317Y-105139162D01*
X133615441Y-105000090D01*
X133760431Y-104787890D01*
X133811440Y-104536000D01*
X133811440Y-103236000D01*
X133767162Y-103000683D01*
X133652425Y-102822377D01*
X134702000Y-101772802D01*
X134702000Y-107162442D01*
X134476683Y-107204838D01*
X134260559Y-107343910D01*
X134115569Y-107556110D01*
X134112919Y-107569197D01*
X133976090Y-107356559D01*
X133763890Y-107211569D01*
X133512000Y-107160560D01*
X132012000Y-107160560D01*
X131776683Y-107204838D01*
X131560559Y-107343910D01*
X131415569Y-107556110D01*
X131364560Y-107808000D01*
X131364560Y-107827080D01*
X131224599Y-107920599D01*
X129669198Y-109476000D01*
X122650758Y-109476000D01*
X122675431Y-109439890D01*
X122726440Y-109188000D01*
X122726440Y-108710000D01*
X122881537Y-108710000D01*
X122913673Y-108742192D01*
X123257201Y-108884838D01*
X123629167Y-108885162D01*
X123972943Y-108743117D01*
X124236192Y-108480327D01*
X124378838Y-108136799D01*
X124379162Y-107764833D01*
X124237117Y-107421057D01*
X123974327Y-107157808D01*
X123630799Y-107015162D01*
X123258833Y-107014838D01*
X122915057Y-107156883D01*
X122881882Y-107190000D01*
X122267000Y-107190000D01*
X121976160Y-107247852D01*
X121837413Y-107340560D01*
X121179000Y-107340560D01*
X120943683Y-107384838D01*
X120906272Y-107408912D01*
X120880890Y-107391569D01*
X120629000Y-107340560D01*
X119729000Y-107340560D01*
X119493683Y-107384838D01*
X119277559Y-107523910D01*
X119132569Y-107736110D01*
X119081560Y-107988000D01*
X119081560Y-109188000D01*
X119125838Y-109423317D01*
X119264910Y-109639441D01*
X119477110Y-109784431D01*
X119729000Y-109835440D01*
X120201638Y-109835440D01*
X121139599Y-110773401D01*
X121386161Y-110938148D01*
X121677000Y-110996000D01*
X129984000Y-110996000D01*
X130274839Y-110938148D01*
X130521401Y-110773401D01*
X131659271Y-109635531D01*
X131760110Y-109704431D01*
X132012000Y-109755440D01*
X133512000Y-109755440D01*
X133747317Y-109711162D01*
X133963441Y-109572090D01*
X134108431Y-109359890D01*
X134111081Y-109346803D01*
X134247910Y-109559441D01*
X134460110Y-109704431D01*
X134712000Y-109755440D01*
X136212000Y-109755440D01*
X136400000Y-109720065D01*
X136400000Y-110625198D01*
X134924599Y-112100599D01*
X134831080Y-112240560D01*
X134712000Y-112240560D01*
X134476683Y-112284838D01*
X134260559Y-112423910D01*
X134115569Y-112636110D01*
X134112919Y-112649197D01*
X133976090Y-112436559D01*
X133763890Y-112291569D01*
X133512000Y-112240560D01*
X132012000Y-112240560D01*
X131776683Y-112284838D01*
X131560559Y-112423910D01*
X131415569Y-112636110D01*
X131386836Y-112778000D01*
X127254000Y-112778000D01*
X126990939Y-112830326D01*
X126778781Y-112382826D01*
X126366645Y-112009980D01*
X125982870Y-111851015D01*
X125762501Y-111973146D01*
X125762501Y-113105377D01*
X126611821Y-113105377D01*
X126357821Y-113359377D01*
X125942109Y-113359377D01*
X125829250Y-113246518D01*
X125649642Y-113426126D01*
X125762501Y-113538985D01*
X125762501Y-113954697D01*
X125508501Y-114208697D01*
X125508501Y-113359377D01*
X124376270Y-113359377D01*
X124254139Y-113579746D01*
X124492221Y-114081928D01*
X124904357Y-114454774D01*
X125157549Y-114559649D01*
X124909954Y-114807244D01*
X124498165Y-114807244D01*
X124485644Y-114776941D01*
X124093004Y-114383615D01*
X123579734Y-114170487D01*
X123023973Y-114170002D01*
X122510331Y-114382234D01*
X122117005Y-114774874D01*
X121903877Y-115288144D01*
X121903392Y-115843905D01*
X122115624Y-116357547D01*
X122508264Y-116750873D01*
X123021534Y-116964001D01*
X123577295Y-116964486D01*
X124090937Y-116752254D01*
X124484263Y-116359614D01*
X124497704Y-116327244D01*
X125224756Y-116327244D01*
X125515595Y-116269392D01*
X125762157Y-116104645D01*
X126334802Y-115532000D01*
X138920560Y-115532000D01*
X138920560Y-117132000D01*
X138964838Y-117367317D01*
X139103910Y-117583441D01*
X139316110Y-117728431D01*
X139568000Y-117779440D01*
X140558000Y-117779440D01*
X140558000Y-122310000D01*
X140615852Y-122600839D01*
X140780599Y-122847401D01*
X145039999Y-127106801D01*
X144759057Y-127222883D01*
X144495808Y-127485673D01*
X144353162Y-127829201D01*
X144352838Y-128201167D01*
X144494883Y-128544943D01*
X144528000Y-128578118D01*
X144528000Y-128820000D01*
X144585852Y-129110839D01*
X144750599Y-129357401D01*
X146105599Y-130712401D01*
X146324331Y-130858553D01*
X146258000Y-131018690D01*
X146258000Y-131159250D01*
X146416750Y-131318000D01*
X147541000Y-131318000D01*
X147541000Y-131298000D01*
X147795000Y-131298000D01*
X147795000Y-131318000D01*
X148919250Y-131318000D01*
X149078000Y-131159250D01*
X149078000Y-131018690D01*
X148988194Y-130801878D01*
X149039431Y-130726890D01*
X149090440Y-130475000D01*
X149090440Y-129875000D01*
X149046162Y-129639683D01*
X148982322Y-129540472D01*
X149039431Y-129456890D01*
X149090440Y-129205000D01*
X149090440Y-128605000D01*
X149046162Y-128369683D01*
X148982322Y-128270472D01*
X149039431Y-128186890D01*
X149090440Y-127935000D01*
X149090440Y-127335000D01*
X149046162Y-127099683D01*
X148907090Y-126883559D01*
X148694890Y-126738569D01*
X148443000Y-126687560D01*
X146893000Y-126687560D01*
X146789784Y-126706982D01*
X142078000Y-121995198D01*
X142078000Y-117779440D01*
X143068000Y-117779440D01*
X143303317Y-117735162D01*
X143519441Y-117596090D01*
X143664431Y-117383890D01*
X143715440Y-117132000D01*
X143715440Y-115532000D01*
X143671162Y-115296683D01*
X143532090Y-115080559D01*
X143319890Y-114935569D01*
X143068000Y-114884560D01*
X139568000Y-114884560D01*
X139332683Y-114928838D01*
X139116559Y-115067910D01*
X138971569Y-115280110D01*
X138920560Y-115532000D01*
X126334802Y-115532000D01*
X127568802Y-114298000D01*
X131385258Y-114298000D01*
X131408838Y-114423317D01*
X131547910Y-114639441D01*
X131760110Y-114784431D01*
X132012000Y-114835440D01*
X133512000Y-114835440D01*
X133747317Y-114791162D01*
X133963441Y-114652090D01*
X134108431Y-114439890D01*
X134111081Y-114426803D01*
X134247910Y-114639441D01*
X134460110Y-114784431D01*
X134712000Y-114835440D01*
X136212000Y-114835440D01*
X136447317Y-114791162D01*
X136663441Y-114652090D01*
X136808431Y-114439890D01*
X136859440Y-114188000D01*
X136859440Y-112888000D01*
X136815162Y-112652683D01*
X136700425Y-112474377D01*
X137697401Y-111477401D01*
X137862148Y-111230839D01*
X137920000Y-110940000D01*
X137920000Y-102362000D01*
X137862148Y-102071161D01*
X137697401Y-101824599D01*
X137079122Y-101206320D01*
X137079162Y-101160833D01*
X136937117Y-100817057D01*
X136674327Y-100553808D01*
X136591711Y-100519502D01*
X139194000Y-97917213D01*
X139194000Y-105410000D01*
X139251852Y-105700839D01*
X139416599Y-105947401D01*
X145766599Y-112297401D01*
X145786802Y-112310900D01*
X146027673Y-112552192D01*
X146371201Y-112694838D01*
X146743167Y-112695162D01*
X147086943Y-112553117D01*
X147144181Y-112495979D01*
X151386000Y-116737798D01*
X151386000Y-117002560D01*
X151346000Y-117002560D01*
X151110683Y-117046838D01*
X150894559Y-117185910D01*
X150749569Y-117398110D01*
X150698560Y-117650000D01*
X150698560Y-119650000D01*
X150742838Y-119885317D01*
X150881910Y-120101441D01*
X151094110Y-120246431D01*
X151346000Y-120297440D01*
X152946000Y-120297440D01*
X153181317Y-120253162D01*
X153397441Y-120114090D01*
X153542431Y-119901890D01*
X153593440Y-119650000D01*
X153593440Y-117650000D01*
X153549162Y-117414683D01*
X153410090Y-117198559D01*
X153197890Y-117053569D01*
X152946000Y-117002560D01*
X152906000Y-117002560D01*
X152906000Y-116422996D01*
X152848148Y-116132157D01*
X152683401Y-115885595D01*
X147802000Y-111004194D01*
X147802000Y-109925900D01*
X147976916Y-110349229D01*
X148647242Y-111020726D01*
X149523513Y-111384585D01*
X150472325Y-111385413D01*
X151349229Y-111023084D01*
X152020726Y-110352758D01*
X152384585Y-109476487D01*
X152385413Y-108527675D01*
X152023084Y-107650771D01*
X151352758Y-106979274D01*
X150476487Y-106615415D01*
X149527675Y-106614587D01*
X148650771Y-106976916D01*
X147979274Y-107647242D01*
X147802000Y-108074166D01*
X147802000Y-107108000D01*
X147744148Y-106817161D01*
X147579401Y-106570599D01*
X146354919Y-105346117D01*
X146834302Y-105517144D01*
X147389368Y-105489362D01*
X147773143Y-105330397D01*
X147842608Y-105088213D01*
X147042000Y-104287605D01*
X147027858Y-104301748D01*
X146848253Y-104122143D01*
X146862395Y-104108000D01*
X147221605Y-104108000D01*
X148022213Y-104908608D01*
X148264397Y-104839143D01*
X148451144Y-104315698D01*
X148423362Y-103760632D01*
X148264397Y-103376857D01*
X148022213Y-103307392D01*
X147221605Y-104108000D01*
X146862395Y-104108000D01*
X146848253Y-104093858D01*
X147027858Y-103914253D01*
X147042000Y-103928395D01*
X147842608Y-103127787D01*
X147773143Y-102885603D01*
X147249698Y-102698856D01*
X146694632Y-102726638D01*
X146359240Y-102865562D01*
X148134802Y-101090000D01*
X153162000Y-101090000D01*
X153452839Y-101032148D01*
X153699401Y-100867401D01*
X154832403Y-99734399D01*
X154997150Y-99487837D01*
X155055002Y-99196998D01*
X155055002Y-96254490D01*
X155083317Y-96249162D01*
X155299441Y-96110090D01*
X155444431Y-95897890D01*
X155447081Y-95884803D01*
X155583910Y-96097441D01*
X155796110Y-96242431D01*
X156038000Y-96291415D01*
X156038000Y-111873198D01*
X154402599Y-113508599D01*
X154237852Y-113755161D01*
X154180000Y-114046000D01*
X154180000Y-126796722D01*
X154094890Y-126738569D01*
X153843000Y-126687560D01*
X153698920Y-126687560D01*
X153605401Y-126547599D01*
X151355242Y-124297440D01*
X152946000Y-124297440D01*
X153181317Y-124253162D01*
X153397441Y-124114090D01*
X153542431Y-123901890D01*
X153593440Y-123650000D01*
X153593440Y-121650000D01*
X153549162Y-121414683D01*
X153410090Y-121198559D01*
X153197890Y-121053569D01*
X152946000Y-121002560D01*
X151346000Y-121002560D01*
X151110683Y-121046838D01*
X150894559Y-121185910D01*
X150749569Y-121398110D01*
X150698560Y-121650000D01*
X150698560Y-121890000D01*
X150246325Y-121890000D01*
X150145117Y-121645057D01*
X149882327Y-121381808D01*
X149538799Y-121239162D01*
X149166833Y-121238838D01*
X148823057Y-121380883D01*
X148630703Y-121572901D01*
X147478000Y-120420198D01*
X147478000Y-117779440D01*
X148468000Y-117779440D01*
X148703317Y-117735162D01*
X148919441Y-117596090D01*
X149064431Y-117383890D01*
X149115440Y-117132000D01*
X149115440Y-115532000D01*
X149071162Y-115296683D01*
X148932090Y-115080559D01*
X148719890Y-114935569D01*
X148468000Y-114884560D01*
X144968000Y-114884560D01*
X144732683Y-114928838D01*
X144516559Y-115067910D01*
X144371569Y-115280110D01*
X144320560Y-115532000D01*
X144320560Y-117132000D01*
X144364838Y-117367317D01*
X144503910Y-117583441D01*
X144716110Y-117728431D01*
X144968000Y-117779440D01*
X145958000Y-117779440D01*
X145958000Y-120735000D01*
X146015852Y-121025839D01*
X146180599Y-121272401D01*
X151816209Y-126908011D01*
X151696569Y-127083110D01*
X151645560Y-127335000D01*
X151645560Y-127935000D01*
X151689838Y-128170317D01*
X151753678Y-128269528D01*
X151696569Y-128353110D01*
X151645560Y-128605000D01*
X151645560Y-129205000D01*
X151689838Y-129440317D01*
X151753678Y-129539528D01*
X151696569Y-129623110D01*
X151645560Y-129875000D01*
X151645560Y-130475000D01*
X151689838Y-130710317D01*
X151753678Y-130809528D01*
X151696569Y-130893110D01*
X151645560Y-131145000D01*
X151645560Y-131745000D01*
X151689838Y-131980317D01*
X151828910Y-132196441D01*
X152041110Y-132341431D01*
X152293000Y-132392440D01*
X153843000Y-132392440D01*
X154078317Y-132348162D01*
X154294441Y-132209090D01*
X154439431Y-131996890D01*
X154490440Y-131745000D01*
X154490440Y-131572362D01*
X155927412Y-130135390D01*
X156092159Y-129888828D01*
X156150011Y-129597989D01*
X156150011Y-127031750D01*
X157717000Y-127031750D01*
X157717000Y-127672310D01*
X157813673Y-127905699D01*
X157992302Y-128084327D01*
X158225691Y-128181000D01*
X159566250Y-128181000D01*
X159725000Y-128022250D01*
X159725000Y-126873000D01*
X159979000Y-126873000D01*
X159979000Y-128022250D01*
X160137750Y-128181000D01*
X161478309Y-128181000D01*
X161711698Y-128084327D01*
X161890327Y-127905699D01*
X161987000Y-127672310D01*
X161987000Y-127031750D01*
X161828250Y-126873000D01*
X159979000Y-126873000D01*
X159725000Y-126873000D01*
X157875750Y-126873000D01*
X157717000Y-127031750D01*
X156150011Y-127031750D01*
X156150011Y-125819690D01*
X157717000Y-125819690D01*
X157717000Y-126460250D01*
X157875750Y-126619000D01*
X159725000Y-126619000D01*
X159725000Y-125469750D01*
X159979000Y-125469750D01*
X159979000Y-126619000D01*
X161828250Y-126619000D01*
X161987000Y-126460250D01*
X161987000Y-125819690D01*
X161890327Y-125586301D01*
X161711698Y-125407673D01*
X161478309Y-125311000D01*
X160137750Y-125311000D01*
X159979000Y-125469750D01*
X159725000Y-125469750D01*
X159566250Y-125311000D01*
X158225691Y-125311000D01*
X157992302Y-125407673D01*
X157813673Y-125586301D01*
X157717000Y-125819690D01*
X156150011Y-125819690D01*
X156150011Y-125350402D01*
X157763401Y-123737012D01*
X157928148Y-123490450D01*
X157986000Y-123199611D01*
X157986000Y-118903279D01*
X158177441Y-118780090D01*
X158322431Y-118567890D01*
X158373440Y-118316000D01*
X158373440Y-117316000D01*
X158329162Y-117080683D01*
X158190090Y-116864559D01*
X157977890Y-116719569D01*
X157726000Y-116668560D01*
X156726000Y-116668560D01*
X156490683Y-116712838D01*
X156274559Y-116851910D01*
X156129569Y-117064110D01*
X156078560Y-117316000D01*
X156078560Y-118316000D01*
X156122838Y-118551317D01*
X156261910Y-118767441D01*
X156466000Y-118906890D01*
X156466000Y-122884809D01*
X155700000Y-123650809D01*
X155700000Y-114360802D01*
X157335401Y-112725401D01*
X157500148Y-112478839D01*
X157558000Y-112188000D01*
X157558000Y-103260802D01*
X158476000Y-104178802D01*
X158476000Y-112241198D01*
X156688599Y-114028599D01*
X156576253Y-114196737D01*
X156490683Y-114212838D01*
X156274559Y-114351910D01*
X156129569Y-114564110D01*
X156078560Y-114816000D01*
X156078560Y-115816000D01*
X156122838Y-116051317D01*
X156261910Y-116267441D01*
X156474110Y-116412431D01*
X156726000Y-116463440D01*
X157726000Y-116463440D01*
X157961317Y-116419162D01*
X158177441Y-116280090D01*
X158322431Y-116067890D01*
X158373440Y-115816000D01*
X158373440Y-114816000D01*
X158329162Y-114580683D01*
X158312309Y-114554493D01*
X158340029Y-114526773D01*
X158464883Y-114828943D01*
X158532245Y-114896422D01*
X158555852Y-115015103D01*
X158720599Y-115261665D01*
X162106335Y-118647401D01*
X162352897Y-118812148D01*
X162643736Y-118870000D01*
X165293198Y-118870000D01*
X166509817Y-120086619D01*
X166497243Y-120116900D01*
X166496758Y-120672661D01*
X166708990Y-121186303D01*
X167101630Y-121579629D01*
X167134000Y-121593070D01*
X167134000Y-123489198D01*
X165324638Y-125298560D01*
X162752000Y-125298560D01*
X162516683Y-125342838D01*
X162300559Y-125481910D01*
X162155569Y-125694110D01*
X162104560Y-125946000D01*
X162104560Y-127546000D01*
X162148838Y-127781317D01*
X162287910Y-127997441D01*
X162500110Y-128142431D01*
X162752000Y-128193440D01*
X165752000Y-128193440D01*
X165987317Y-128149162D01*
X166203441Y-128010090D01*
X166348431Y-127797890D01*
X166399440Y-127546000D01*
X166399440Y-126373362D01*
X168431401Y-124341401D01*
X168565559Y-124140619D01*
X172008613Y-124140619D01*
X172348155Y-124962372D01*
X172976321Y-125591636D01*
X173797481Y-125932611D01*
X174686619Y-125933387D01*
X175508372Y-125593845D01*
X176137636Y-124965679D01*
X176478611Y-124144519D01*
X176479387Y-123255381D01*
X176139845Y-122433628D01*
X175511679Y-121804364D01*
X174690519Y-121463389D01*
X173801381Y-121462613D01*
X172979628Y-121802155D01*
X172350364Y-122430321D01*
X172009389Y-123251481D01*
X172008613Y-124140619D01*
X168565559Y-124140619D01*
X168596148Y-124094840D01*
X168654000Y-123804000D01*
X168654000Y-121593531D01*
X168684303Y-121581010D01*
X169077629Y-121188370D01*
X169290757Y-120675100D01*
X169291242Y-120119339D01*
X169079010Y-119605697D01*
X168686370Y-119212371D01*
X168173100Y-118999243D01*
X167617339Y-118998758D01*
X167584945Y-119012143D01*
X166145401Y-117572599D01*
X165898839Y-117407852D01*
X165608000Y-117350000D01*
X162958538Y-117350000D01*
X160164231Y-114555693D01*
X160192838Y-114486799D01*
X160193002Y-114298000D01*
X160849258Y-114298000D01*
X160872838Y-114423317D01*
X161011910Y-114639441D01*
X161224110Y-114784431D01*
X161476000Y-114835440D01*
X162976000Y-114835440D01*
X163211317Y-114791162D01*
X163427441Y-114652090D01*
X163572431Y-114439890D01*
X163579191Y-114406510D01*
X163637673Y-114547699D01*
X163816302Y-114726327D01*
X164049691Y-114823000D01*
X164640250Y-114823000D01*
X164799000Y-114664250D01*
X164799000Y-113665000D01*
X165053000Y-113665000D01*
X165053000Y-114664250D01*
X165211750Y-114823000D01*
X165802309Y-114823000D01*
X166035698Y-114726327D01*
X166214327Y-114547699D01*
X166311000Y-114314310D01*
X166311000Y-113823750D01*
X171255000Y-113823750D01*
X171255000Y-114314310D01*
X171351673Y-114547699D01*
X171530302Y-114726327D01*
X171763691Y-114823000D01*
X172354250Y-114823000D01*
X172513000Y-114664250D01*
X172513000Y-113665000D01*
X171413750Y-113665000D01*
X171255000Y-113823750D01*
X166311000Y-113823750D01*
X166152250Y-113665000D01*
X165053000Y-113665000D01*
X164799000Y-113665000D01*
X164779000Y-113665000D01*
X164779000Y-113411000D01*
X164799000Y-113411000D01*
X164799000Y-112411750D01*
X165053000Y-112411750D01*
X165053000Y-113411000D01*
X166152250Y-113411000D01*
X166311000Y-113252250D01*
X166311000Y-112761690D01*
X171255000Y-112761690D01*
X171255000Y-113252250D01*
X171413750Y-113411000D01*
X172513000Y-113411000D01*
X172513000Y-112411750D01*
X172354250Y-112253000D01*
X171763691Y-112253000D01*
X171530302Y-112349673D01*
X171351673Y-112528301D01*
X171255000Y-112761690D01*
X166311000Y-112761690D01*
X166214327Y-112528301D01*
X166035698Y-112349673D01*
X165802309Y-112253000D01*
X165211750Y-112253000D01*
X165053000Y-112411750D01*
X164799000Y-112411750D01*
X164640250Y-112253000D01*
X164049691Y-112253000D01*
X163816302Y-112349673D01*
X163637673Y-112528301D01*
X163581346Y-112664287D01*
X163579162Y-112652683D01*
X163440090Y-112436559D01*
X163227890Y-112291569D01*
X162976000Y-112240560D01*
X161476000Y-112240560D01*
X161240683Y-112284838D01*
X161024559Y-112423910D01*
X160879569Y-112636110D01*
X160850836Y-112778000D01*
X160370802Y-112778000D01*
X159996000Y-112403198D01*
X159996000Y-104924802D01*
X160839035Y-105767837D01*
X160748683Y-105784838D01*
X160532559Y-105923910D01*
X160387569Y-106136110D01*
X160336560Y-106388000D01*
X160336560Y-107988000D01*
X160380838Y-108223317D01*
X160519910Y-108439441D01*
X160732110Y-108584431D01*
X160984000Y-108635440D01*
X163584000Y-108635440D01*
X163819317Y-108591162D01*
X164035441Y-108452090D01*
X164081969Y-108383994D01*
X164224302Y-108526327D01*
X164457691Y-108623000D01*
X165598250Y-108623000D01*
X165757000Y-108464250D01*
X165757000Y-107315000D01*
X166011000Y-107315000D01*
X166011000Y-108464250D01*
X166169750Y-108623000D01*
X167310309Y-108623000D01*
X167543698Y-108526327D01*
X167722327Y-108347699D01*
X167819000Y-108114310D01*
X167819000Y-107473750D01*
X167660250Y-107315000D01*
X166011000Y-107315000D01*
X165757000Y-107315000D01*
X165737000Y-107315000D01*
X165737000Y-107061000D01*
X165757000Y-107061000D01*
X165757000Y-105911750D01*
X166011000Y-105911750D01*
X166011000Y-107061000D01*
X167660250Y-107061000D01*
X167819000Y-106902250D01*
X167819000Y-106261690D01*
X167722327Y-106028301D01*
X167543698Y-105849673D01*
X167310309Y-105753000D01*
X166169750Y-105753000D01*
X166011000Y-105911750D01*
X165757000Y-105911750D01*
X165598250Y-105753000D01*
X164457691Y-105753000D01*
X164224302Y-105849673D01*
X164083064Y-105990910D01*
X164048090Y-105936559D01*
X163835890Y-105791569D01*
X163584000Y-105740560D01*
X162914920Y-105740560D01*
X162821401Y-105600599D01*
X160547401Y-103326599D01*
X160300839Y-103161852D01*
X160010000Y-103104000D01*
X159550802Y-103104000D01*
X158415122Y-101968320D01*
X158415162Y-101922833D01*
X158273117Y-101579057D01*
X158010327Y-101315808D01*
X157666799Y-101173162D01*
X157558000Y-101173067D01*
X157558000Y-97920251D01*
X157711673Y-98074192D01*
X158055201Y-98216838D01*
X158427167Y-98217162D01*
X158770943Y-98075117D01*
X158804118Y-98042000D01*
X160525198Y-98042000D01*
X171403061Y-108919863D01*
X171293569Y-109080110D01*
X171242560Y-109332000D01*
X171242560Y-110632000D01*
X171286838Y-110867317D01*
X171425910Y-111083441D01*
X171638110Y-111228431D01*
X171890000Y-111279440D01*
X173390000Y-111279440D01*
X173625317Y-111235162D01*
X173841441Y-111096090D01*
X173986431Y-110883890D01*
X173989081Y-110870803D01*
X174125910Y-111083441D01*
X174338110Y-111228431D01*
X174580000Y-111277415D01*
X174580000Y-112242442D01*
X174354683Y-112284838D01*
X174138559Y-112423910D01*
X173993569Y-112636110D01*
X173986809Y-112669490D01*
X173928327Y-112528301D01*
X173749698Y-112349673D01*
X173516309Y-112253000D01*
X172925750Y-112253000D01*
X172767000Y-112411750D01*
X172767000Y-113411000D01*
X172787000Y-113411000D01*
X172787000Y-113665000D01*
X172767000Y-113665000D01*
X172767000Y-114664250D01*
X172925750Y-114823000D01*
X173516309Y-114823000D01*
X173749698Y-114726327D01*
X173928327Y-114547699D01*
X173984654Y-114411713D01*
X173986838Y-114423317D01*
X174125910Y-114639441D01*
X174338110Y-114784431D01*
X174590000Y-114835440D01*
X176090000Y-114835440D01*
X176325317Y-114791162D01*
X176541441Y-114652090D01*
X176686431Y-114439890D01*
X176737440Y-114188000D01*
X176737440Y-112888000D01*
X176693162Y-112652683D01*
X176554090Y-112436559D01*
X176341890Y-112291569D01*
X176100000Y-112242585D01*
X176100000Y-111277558D01*
X176325317Y-111235162D01*
X176541441Y-111096090D01*
X176632915Y-110962213D01*
X180047392Y-110962213D01*
X180116857Y-111204397D01*
X180640302Y-111391144D01*
X181195368Y-111363362D01*
X181579143Y-111204397D01*
X181648608Y-110962213D01*
X180848000Y-110161605D01*
X180047392Y-110962213D01*
X176632915Y-110962213D01*
X176686431Y-110883890D01*
X176737440Y-110632000D01*
X176737440Y-109774302D01*
X179438856Y-109774302D01*
X179466638Y-110329368D01*
X179625603Y-110713143D01*
X179867787Y-110782608D01*
X180668395Y-109982000D01*
X181027605Y-109982000D01*
X181828213Y-110782608D01*
X182070397Y-110713143D01*
X182257144Y-110189698D01*
X182229362Y-109634632D01*
X182070397Y-109250857D01*
X181828213Y-109181392D01*
X181027605Y-109982000D01*
X180668395Y-109982000D01*
X179867787Y-109181392D01*
X179625603Y-109250857D01*
X179438856Y-109774302D01*
X176737440Y-109774302D01*
X176737440Y-109332000D01*
X176693162Y-109096683D01*
X176632099Y-109001787D01*
X180047392Y-109001787D01*
X180848000Y-109802395D01*
X181648608Y-109001787D01*
X181579143Y-108759603D01*
X181055698Y-108572856D01*
X180500632Y-108600638D01*
X180116857Y-108759603D01*
X180047392Y-109001787D01*
X176632099Y-109001787D01*
X176554090Y-108880559D01*
X176341890Y-108735569D01*
X176090000Y-108684560D01*
X174590000Y-108684560D01*
X174354683Y-108728838D01*
X174138559Y-108867910D01*
X173993569Y-109080110D01*
X173990919Y-109093197D01*
X173854090Y-108880559D01*
X173641890Y-108735569D01*
X173390000Y-108684560D01*
X173270920Y-108684560D01*
X173177401Y-108544599D01*
X161377401Y-96744599D01*
X161130839Y-96579852D01*
X160840000Y-96522000D01*
X158804463Y-96522000D01*
X158772327Y-96489808D01*
X158428799Y-96347162D01*
X158056833Y-96346838D01*
X157713057Y-96488883D01*
X157558000Y-96643670D01*
X157558000Y-96291558D01*
X157783317Y-96249162D01*
X157999441Y-96110090D01*
X158144431Y-95897890D01*
X158195440Y-95646000D01*
X158195440Y-94773362D01*
X158715401Y-94253401D01*
X158823412Y-94091750D01*
X164831000Y-94091750D01*
X164831000Y-94682309D01*
X164927673Y-94915698D01*
X165106301Y-95094327D01*
X165339690Y-95191000D01*
X165830250Y-95191000D01*
X165989000Y-95032250D01*
X165989000Y-93933000D01*
X166243000Y-93933000D01*
X166243000Y-95032250D01*
X166401750Y-95191000D01*
X166892310Y-95191000D01*
X167125699Y-95094327D01*
X167304327Y-94915698D01*
X167401000Y-94682309D01*
X167401000Y-94091750D01*
X167242250Y-93933000D01*
X166243000Y-93933000D01*
X165989000Y-93933000D01*
X164989750Y-93933000D01*
X164831000Y-94091750D01*
X158823412Y-94091750D01*
X158880148Y-94006840D01*
X158938000Y-93716000D01*
X158938000Y-92138000D01*
X158880148Y-91847161D01*
X158715401Y-91600599D01*
X155482000Y-88367198D01*
X155482000Y-87690802D01*
X158677755Y-84495047D01*
X158686838Y-84543317D01*
X158825910Y-84759441D01*
X159038110Y-84904431D01*
X159290000Y-84955440D01*
X162862638Y-84955440D01*
X164216599Y-86309401D01*
X164463161Y-86474148D01*
X164754000Y-86532000D01*
X164820442Y-86532000D01*
X164862838Y-86757317D01*
X165001910Y-86973441D01*
X165214110Y-87118431D01*
X165227197Y-87121081D01*
X165014559Y-87257910D01*
X164869569Y-87470110D01*
X164818560Y-87722000D01*
X164818560Y-89222000D01*
X164862838Y-89457317D01*
X165001910Y-89673441D01*
X165172709Y-89790143D01*
X165014559Y-89891910D01*
X164869569Y-90104110D01*
X164818560Y-90356000D01*
X164818560Y-91856000D01*
X164862838Y-92091317D01*
X165001910Y-92307441D01*
X165214110Y-92452431D01*
X165247490Y-92459191D01*
X165106301Y-92517673D01*
X164927673Y-92696302D01*
X164831000Y-92929691D01*
X164831000Y-93520250D01*
X164989750Y-93679000D01*
X165989000Y-93679000D01*
X165989000Y-93659000D01*
X166243000Y-93659000D01*
X166243000Y-93679000D01*
X167242250Y-93679000D01*
X167401000Y-93520250D01*
X167401000Y-92929691D01*
X167304327Y-92696302D01*
X167125699Y-92517673D01*
X166989713Y-92461346D01*
X167001317Y-92459162D01*
X167217441Y-92320090D01*
X167362431Y-92107890D01*
X167413440Y-91856000D01*
X167413440Y-90394366D01*
X167473600Y-90484402D01*
X167950599Y-90961401D01*
X168093963Y-91057194D01*
X168090560Y-91074000D01*
X168090560Y-91674000D01*
X168134838Y-91909317D01*
X168273910Y-92125441D01*
X168486110Y-92270431D01*
X168658000Y-92305240D01*
X168658000Y-93217442D01*
X168432683Y-93259838D01*
X168216559Y-93398910D01*
X168071569Y-93611110D01*
X168020560Y-93863000D01*
X168020560Y-95113000D01*
X168064838Y-95348317D01*
X168203910Y-95564441D01*
X168416110Y-95709431D01*
X168668000Y-95760440D01*
X168778000Y-95760440D01*
X168778000Y-96843721D01*
X168586559Y-96966910D01*
X168441569Y-97179110D01*
X168390560Y-97431000D01*
X168390560Y-100181000D01*
X168434838Y-100416317D01*
X168573910Y-100632441D01*
X168786110Y-100777431D01*
X169038000Y-100828440D01*
X169610638Y-100828440D01*
X170665599Y-101883401D01*
X170912161Y-102048148D01*
X171203000Y-102106000D01*
X173228000Y-102106000D01*
X173518839Y-102048148D01*
X173765401Y-101883401D01*
X174273401Y-101375401D01*
X174417861Y-101159201D01*
X174422560Y-101152168D01*
X174422560Y-101644000D01*
X174466838Y-101879317D01*
X174605910Y-102095441D01*
X174818110Y-102240431D01*
X175070000Y-102291440D01*
X175439080Y-102291440D01*
X175532599Y-102431401D01*
X178540599Y-105439401D01*
X178787160Y-105604148D01*
X179078000Y-105662000D01*
X179650469Y-105662000D01*
X179662990Y-105692303D01*
X180055630Y-106085629D01*
X180568900Y-106298757D01*
X181124661Y-106299242D01*
X181638303Y-106087010D01*
X182031629Y-105694370D01*
X182244757Y-105181100D01*
X182245242Y-104625339D01*
X182033010Y-104111697D01*
X181640370Y-103718371D01*
X181127100Y-103505243D01*
X180571339Y-103504758D01*
X180057697Y-103716990D01*
X179664371Y-104109630D01*
X179650930Y-104142000D01*
X179392802Y-104142000D01*
X177422536Y-102171734D01*
X177521441Y-102108090D01*
X177666431Y-101895890D01*
X177717440Y-101644000D01*
X177717440Y-100544000D01*
X180422560Y-100544000D01*
X180422560Y-101644000D01*
X180466838Y-101879317D01*
X180605910Y-102095441D01*
X180818110Y-102240431D01*
X181070000Y-102291440D01*
X183070000Y-102291440D01*
X183305317Y-102247162D01*
X183521441Y-102108090D01*
X183666431Y-101895890D01*
X183717440Y-101644000D01*
X183717440Y-100544000D01*
X183673162Y-100308683D01*
X183534090Y-100092559D01*
X183321890Y-99947569D01*
X183070000Y-99896560D01*
X181070000Y-99896560D01*
X180834683Y-99940838D01*
X180618559Y-100079910D01*
X180473569Y-100292110D01*
X180422560Y-100544000D01*
X177717440Y-100544000D01*
X177673162Y-100308683D01*
X177534090Y-100092559D01*
X177321890Y-99947569D01*
X177070000Y-99896560D01*
X175070000Y-99896560D01*
X174834683Y-99940838D01*
X174618559Y-100079910D01*
X174496000Y-100259281D01*
X174496000Y-99442802D01*
X174776680Y-99162123D01*
X174818110Y-99190431D01*
X175070000Y-99241440D01*
X177070000Y-99241440D01*
X177305317Y-99197162D01*
X177521441Y-99058090D01*
X177666431Y-98845890D01*
X177717440Y-98594000D01*
X177717440Y-97494000D01*
X180422560Y-97494000D01*
X180422560Y-98594000D01*
X180466838Y-98829317D01*
X180605910Y-99045441D01*
X180818110Y-99190431D01*
X181070000Y-99241440D01*
X183070000Y-99241440D01*
X183305317Y-99197162D01*
X183521441Y-99058090D01*
X183666431Y-98845890D01*
X183717440Y-98594000D01*
X183717440Y-97494000D01*
X183673162Y-97258683D01*
X183534090Y-97042559D01*
X183321890Y-96897569D01*
X183070000Y-96846560D01*
X181070000Y-96846560D01*
X180834683Y-96890838D01*
X180618559Y-97029910D01*
X180473569Y-97242110D01*
X180422560Y-97494000D01*
X177717440Y-97494000D01*
X177673162Y-97258683D01*
X177534090Y-97042559D01*
X177321890Y-96897569D01*
X177070000Y-96846560D01*
X175070000Y-96846560D01*
X174834683Y-96890838D01*
X174618559Y-97029910D01*
X174473569Y-97242110D01*
X174441511Y-97400417D01*
X174282599Y-97506598D01*
X173198599Y-98590599D01*
X173033852Y-98837161D01*
X172985440Y-99080542D01*
X172985440Y-97431000D01*
X172941162Y-97195683D01*
X172924309Y-97169493D01*
X174273401Y-95820401D01*
X174430366Y-95585486D01*
X174466838Y-95779317D01*
X174605910Y-95995441D01*
X174818110Y-96140431D01*
X175070000Y-96191440D01*
X177070000Y-96191440D01*
X177305317Y-96147162D01*
X177521441Y-96008090D01*
X177666431Y-95795890D01*
X177717440Y-95544000D01*
X177717440Y-94444000D01*
X180422560Y-94444000D01*
X180422560Y-95544000D01*
X180466838Y-95779317D01*
X180605910Y-95995441D01*
X180818110Y-96140431D01*
X181070000Y-96191440D01*
X183070000Y-96191440D01*
X183305317Y-96147162D01*
X183521441Y-96008090D01*
X183666431Y-95795890D01*
X183717440Y-95544000D01*
X183717440Y-94444000D01*
X183673162Y-94208683D01*
X183534090Y-93992559D01*
X183321890Y-93847569D01*
X183070000Y-93796560D01*
X181070000Y-93796560D01*
X180834683Y-93840838D01*
X180618559Y-93979910D01*
X180473569Y-94192110D01*
X180422560Y-94444000D01*
X177717440Y-94444000D01*
X177673162Y-94208683D01*
X177534090Y-93992559D01*
X177321890Y-93847569D01*
X177070000Y-93796560D01*
X176830000Y-93796560D01*
X176830000Y-93738802D01*
X178114802Y-92454000D01*
X179650469Y-92454000D01*
X179662990Y-92484303D01*
X180055630Y-92877629D01*
X180568900Y-93090757D01*
X181124661Y-93091242D01*
X181638303Y-92879010D01*
X182031629Y-92486370D01*
X182244757Y-91973100D01*
X182245242Y-91417339D01*
X182033010Y-90903697D01*
X181640370Y-90510371D01*
X181127100Y-90297243D01*
X180571339Y-90296758D01*
X180057697Y-90508990D01*
X179664371Y-90901630D01*
X179650930Y-90934000D01*
X177800000Y-90934000D01*
X177589407Y-90975890D01*
X177509160Y-90991852D01*
X177262599Y-91156599D01*
X175532599Y-92886599D01*
X175367852Y-93133161D01*
X175310000Y-93424000D01*
X175310000Y-93796560D01*
X175070000Y-93796560D01*
X174834683Y-93840838D01*
X174618559Y-93979910D01*
X174496000Y-94159281D01*
X174496000Y-92222000D01*
X174438148Y-91931161D01*
X174273401Y-91684599D01*
X173425401Y-90836599D01*
X173273000Y-90734768D01*
X173273000Y-90709750D01*
X173114250Y-90551000D01*
X172997360Y-90551000D01*
X172889890Y-90477569D01*
X172638000Y-90426560D01*
X171941000Y-90426560D01*
X171941000Y-90421440D01*
X172638000Y-90421440D01*
X172873317Y-90377162D01*
X172997892Y-90297000D01*
X173114250Y-90297000D01*
X173273000Y-90138250D01*
X173273000Y-89997691D01*
X173250931Y-89944411D01*
X173285440Y-89774000D01*
X173285440Y-89174000D01*
X173241162Y-88938683D01*
X173102090Y-88722559D01*
X172889890Y-88577569D01*
X172638000Y-88526560D01*
X171538000Y-88526560D01*
X171302683Y-88570838D01*
X171086559Y-88709910D01*
X171051640Y-88761015D01*
X170997160Y-88771852D01*
X170750599Y-88936599D01*
X170485440Y-89201758D01*
X170485440Y-89174000D01*
X170441162Y-88938683D01*
X170302090Y-88722559D01*
X170089890Y-88577569D01*
X170006358Y-88560653D01*
X169990148Y-88479161D01*
X169845114Y-88262101D01*
X169845162Y-88206833D01*
X169703117Y-87863057D01*
X169472902Y-87632440D01*
X170188000Y-87632440D01*
X170423317Y-87588162D01*
X170639441Y-87449090D01*
X170685969Y-87380994D01*
X170828302Y-87523327D01*
X171061691Y-87620000D01*
X171652250Y-87620000D01*
X171811000Y-87461250D01*
X171811000Y-86487000D01*
X172065000Y-86487000D01*
X172065000Y-87461250D01*
X172223750Y-87620000D01*
X172814309Y-87620000D01*
X172876564Y-87594213D01*
X180047392Y-87594213D01*
X180116857Y-87836397D01*
X180640302Y-88023144D01*
X181195368Y-87995362D01*
X181579143Y-87836397D01*
X181648608Y-87594213D01*
X180848000Y-86793605D01*
X180047392Y-87594213D01*
X172876564Y-87594213D01*
X173047698Y-87523327D01*
X173226327Y-87344699D01*
X173323000Y-87111310D01*
X173323000Y-86645750D01*
X173164250Y-86487000D01*
X172065000Y-86487000D01*
X171811000Y-86487000D01*
X171791000Y-86487000D01*
X171791000Y-86406302D01*
X179438856Y-86406302D01*
X179466638Y-86961368D01*
X179625603Y-87345143D01*
X179867787Y-87414608D01*
X180668395Y-86614000D01*
X181027605Y-86614000D01*
X181828213Y-87414608D01*
X182070397Y-87345143D01*
X182257144Y-86821698D01*
X182229362Y-86266632D01*
X182070397Y-85882857D01*
X181828213Y-85813392D01*
X181027605Y-86614000D01*
X180668395Y-86614000D01*
X179867787Y-85813392D01*
X179625603Y-85882857D01*
X179438856Y-86406302D01*
X171791000Y-86406302D01*
X171791000Y-86233000D01*
X171811000Y-86233000D01*
X171811000Y-85258750D01*
X172065000Y-85258750D01*
X172065000Y-86233000D01*
X173164250Y-86233000D01*
X173323000Y-86074250D01*
X173323000Y-85633787D01*
X180047392Y-85633787D01*
X180848000Y-86434395D01*
X181648608Y-85633787D01*
X181579143Y-85391603D01*
X181055698Y-85204856D01*
X180500632Y-85232638D01*
X180116857Y-85391603D01*
X180047392Y-85633787D01*
X173323000Y-85633787D01*
X173323000Y-85608690D01*
X173226327Y-85375301D01*
X173047698Y-85196673D01*
X172814309Y-85100000D01*
X172223750Y-85100000D01*
X172065000Y-85258750D01*
X171811000Y-85258750D01*
X171652250Y-85100000D01*
X171061691Y-85100000D01*
X170828302Y-85196673D01*
X170687064Y-85337910D01*
X170652090Y-85283559D01*
X170439890Y-85138569D01*
X170188000Y-85087560D01*
X169167341Y-85087560D01*
X169140839Y-85069852D01*
X168850000Y-85012000D01*
X167411558Y-85012000D01*
X167369162Y-84786683D01*
X167230090Y-84570559D01*
X167017890Y-84425569D01*
X166766000Y-84374560D01*
X165466000Y-84374560D01*
X165230683Y-84418838D01*
X165014559Y-84557910D01*
X164869569Y-84770110D01*
X164862385Y-84805583D01*
X163937440Y-83880638D01*
X163937440Y-81808000D01*
X163893162Y-81572683D01*
X163754090Y-81356559D01*
X163541890Y-81211569D01*
X163290000Y-81160560D01*
X159290000Y-81160560D01*
X159054683Y-81204838D01*
X158838559Y-81343910D01*
X158693569Y-81556110D01*
X158642560Y-81808000D01*
X158642560Y-82427080D01*
X158502599Y-82520599D01*
X154407198Y-86616000D01*
X148508999Y-86616000D01*
X148509162Y-86428833D01*
X148367117Y-86085057D01*
X148334000Y-86051882D01*
X148334000Y-84128463D01*
X148366192Y-84096327D01*
X148508838Y-83752799D01*
X148509162Y-83380833D01*
X148493840Y-83343750D01*
X150655000Y-83343750D01*
X150655000Y-84434310D01*
X150751673Y-84667699D01*
X150930302Y-84846327D01*
X151163691Y-84943000D01*
X153004250Y-84943000D01*
X153163000Y-84784250D01*
X153163000Y-83185000D01*
X153417000Y-83185000D01*
X153417000Y-84784250D01*
X153575750Y-84943000D01*
X155416309Y-84943000D01*
X155649698Y-84846327D01*
X155828327Y-84667699D01*
X155925000Y-84434310D01*
X155925000Y-83343750D01*
X155766250Y-83185000D01*
X153417000Y-83185000D01*
X153163000Y-83185000D01*
X150813750Y-83185000D01*
X150655000Y-83343750D01*
X148493840Y-83343750D01*
X148367117Y-83037057D01*
X148104327Y-82773808D01*
X147760799Y-82631162D01*
X147388833Y-82630838D01*
X147202022Y-82708027D01*
X147202022Y-81681690D01*
X150655000Y-81681690D01*
X150655000Y-82772250D01*
X150813750Y-82931000D01*
X153163000Y-82931000D01*
X153163000Y-81331750D01*
X153417000Y-81331750D01*
X153417000Y-82931000D01*
X155766250Y-82931000D01*
X155925000Y-82772250D01*
X155925000Y-81681690D01*
X155828327Y-81448301D01*
X155649698Y-81269673D01*
X155416309Y-81173000D01*
X153575750Y-81173000D01*
X153417000Y-81331750D01*
X153163000Y-81331750D01*
X153004250Y-81173000D01*
X151163691Y-81173000D01*
X150930302Y-81269673D01*
X150751673Y-81448301D01*
X150655000Y-81681690D01*
X147202022Y-81681690D01*
X147202022Y-79421118D01*
X147252199Y-79421162D01*
X147595975Y-79279117D01*
X147629150Y-79246000D01*
X148634000Y-79246000D01*
X148924839Y-79188148D01*
X149171401Y-79023401D01*
X152073362Y-76121440D01*
X152646000Y-76121440D01*
X152881317Y-76077162D01*
X153097441Y-75938090D01*
X153242431Y-75725890D01*
X153293440Y-75474000D01*
X153293440Y-72324000D01*
X153249162Y-72088683D01*
X153110090Y-71872559D01*
X152897890Y-71727569D01*
X152646000Y-71676560D01*
X151646000Y-71676560D01*
X151410683Y-71720838D01*
X151194559Y-71859910D01*
X151049569Y-72072110D01*
X150998560Y-72324000D01*
X150998560Y-75046638D01*
X150753440Y-75291758D01*
X150753440Y-72324000D01*
X150709162Y-72088683D01*
X150570090Y-71872559D01*
X150357890Y-71727569D01*
X150106000Y-71676560D01*
X149106000Y-71676560D01*
X148887042Y-71717760D01*
X149533362Y-71071440D01*
X150106000Y-71071440D01*
X150341317Y-71027162D01*
X150557441Y-70888090D01*
X150702431Y-70675890D01*
X150753440Y-70424000D01*
X150753440Y-69134750D01*
X151011000Y-69134750D01*
X151011000Y-70550309D01*
X151107673Y-70783698D01*
X151286301Y-70962327D01*
X151519690Y-71059000D01*
X151860250Y-71059000D01*
X152019000Y-70900250D01*
X152019000Y-68976000D01*
X152273000Y-68976000D01*
X152273000Y-70900250D01*
X152431750Y-71059000D01*
X152772310Y-71059000D01*
X153005699Y-70962327D01*
X153184327Y-70783698D01*
X153281000Y-70550309D01*
X153281000Y-69134750D01*
X153122250Y-68976000D01*
X152273000Y-68976000D01*
X152019000Y-68976000D01*
X151169750Y-68976000D01*
X151011000Y-69134750D01*
X150753440Y-69134750D01*
X150753440Y-67274000D01*
X150729674Y-67147691D01*
X151011000Y-67147691D01*
X151011000Y-68563250D01*
X151169750Y-68722000D01*
X152019000Y-68722000D01*
X152019000Y-66797750D01*
X152273000Y-66797750D01*
X152273000Y-68722000D01*
X153122250Y-68722000D01*
X153281000Y-68563250D01*
X153281000Y-67147691D01*
X153184327Y-66914302D01*
X153005699Y-66735673D01*
X152772310Y-66639000D01*
X152431750Y-66639000D01*
X152273000Y-66797750D01*
X152019000Y-66797750D01*
X151860250Y-66639000D01*
X151519690Y-66639000D01*
X151286301Y-66735673D01*
X151107673Y-66914302D01*
X151011000Y-67147691D01*
X150729674Y-67147691D01*
X150709162Y-67038683D01*
X150570090Y-66822559D01*
X150357890Y-66677569D01*
X150106000Y-66626560D01*
X149106000Y-66626560D01*
X148870683Y-66670838D01*
X148654559Y-66809910D01*
X148509569Y-67022110D01*
X148458560Y-67274000D01*
X148458560Y-69996638D01*
X148213440Y-70241758D01*
X148213440Y-67274000D01*
X148169162Y-67038683D01*
X148030090Y-66822559D01*
X147817890Y-66677569D01*
X147566000Y-66626560D01*
X146566000Y-66626560D01*
X146330683Y-66670838D01*
X146114559Y-66809910D01*
X145969569Y-67022110D01*
X145918560Y-67274000D01*
X145918560Y-68089000D01*
X139721000Y-68089000D01*
X139430161Y-68146852D01*
X139183599Y-68311599D01*
X132478599Y-75016599D01*
X132385080Y-75156560D01*
X132266000Y-75156560D01*
X132030683Y-75200838D01*
X131814559Y-75339910D01*
X131669569Y-75552110D01*
X131618560Y-75804000D01*
X131618560Y-77104000D01*
X131662838Y-77339317D01*
X131801910Y-77555441D01*
X132014110Y-77700431D01*
X132256000Y-77749415D01*
X132256000Y-80913508D01*
X132059057Y-80994883D01*
X131795808Y-81257673D01*
X131653162Y-81601201D01*
X131652838Y-81973167D01*
X131794883Y-82316943D01*
X131946437Y-82468761D01*
X131542599Y-82872599D01*
X131377852Y-83119161D01*
X131320000Y-83410000D01*
X131320000Y-83765537D01*
X131287808Y-83797673D01*
X131145162Y-84141201D01*
X131144838Y-84513167D01*
X131286883Y-84856943D01*
X131549673Y-85120192D01*
X131840170Y-85240818D01*
X131828000Y-85302000D01*
X131828000Y-85797537D01*
X131823165Y-85802363D01*
X130941827Y-84921025D01*
X130990431Y-84849890D01*
X131041440Y-84598000D01*
X131041440Y-81098000D01*
X130997162Y-80862683D01*
X130858090Y-80646559D01*
X130645890Y-80501569D01*
X130394000Y-80450560D01*
X129194000Y-80450560D01*
X128958683Y-80494838D01*
X128742559Y-80633910D01*
X128597569Y-80846110D01*
X128560735Y-81028000D01*
X127356038Y-81028000D01*
X127337162Y-80927683D01*
X127198090Y-80711559D01*
X126985890Y-80566569D01*
X126734000Y-80515560D01*
X125234000Y-80515560D01*
X124998683Y-80559838D01*
X124782559Y-80698910D01*
X124736031Y-80767006D01*
X124593698Y-80624673D01*
X124360309Y-80528000D01*
X123769750Y-80528000D01*
X123611000Y-80686750D01*
X123611000Y-81661000D01*
X123631000Y-81661000D01*
X123631000Y-81915000D01*
X123611000Y-81915000D01*
X123611000Y-82889250D01*
X123769750Y-83048000D01*
X124360309Y-83048000D01*
X124593698Y-82951327D01*
X124734936Y-82810090D01*
X124769910Y-82864441D01*
X124982110Y-83009431D01*
X125234000Y-83060440D01*
X126734000Y-83060440D01*
X126969317Y-83016162D01*
X127185441Y-82877090D01*
X127330431Y-82664890D01*
X127354102Y-82548000D01*
X128419198Y-82548000D01*
X128546560Y-82675362D01*
X128546560Y-84598000D01*
X128590838Y-84833317D01*
X128729910Y-85049441D01*
X128942110Y-85194431D01*
X129158242Y-85238199D01*
X129256599Y-85385401D01*
X129821758Y-85950560D01*
X129194000Y-85950560D01*
X128958683Y-85994838D01*
X128742559Y-86133910D01*
X128597569Y-86346110D01*
X128546560Y-86598000D01*
X128546560Y-88520638D01*
X128419198Y-88648000D01*
X127356038Y-88648000D01*
X127337162Y-88547683D01*
X127198090Y-88331559D01*
X126985890Y-88186569D01*
X126734000Y-88135560D01*
X125234000Y-88135560D01*
X124998683Y-88179838D01*
X124782559Y-88318910D01*
X124736031Y-88387006D01*
X124593698Y-88244673D01*
X124360309Y-88148000D01*
X123769750Y-88148000D01*
X123611000Y-88306750D01*
X123611000Y-89281000D01*
X123631000Y-89281000D01*
X123631000Y-89535000D01*
X123611000Y-89535000D01*
X123611000Y-90509250D01*
X123769750Y-90668000D01*
X124360309Y-90668000D01*
X124593698Y-90571327D01*
X124734936Y-90430090D01*
X124769910Y-90484441D01*
X124982110Y-90629431D01*
X125234000Y-90680440D01*
X126734000Y-90680440D01*
X126969317Y-90636162D01*
X127185441Y-90497090D01*
X127330431Y-90284890D01*
X127354102Y-90168000D01*
X128559731Y-90168000D01*
X128590838Y-90333317D01*
X128729910Y-90549441D01*
X128942110Y-90694431D01*
X129194000Y-90745440D01*
X130394000Y-90745440D01*
X130629317Y-90701162D01*
X130845441Y-90562090D01*
X130990431Y-90349890D01*
X131041440Y-90098000D01*
X131041440Y-89372111D01*
X131169873Y-89682943D01*
X131432663Y-89946192D01*
X131776191Y-90088838D01*
X131823067Y-90088879D01*
X132844000Y-91109812D01*
X132844000Y-98243537D01*
X132811808Y-98275673D01*
X132669162Y-98619201D01*
X132668838Y-98991167D01*
X132810883Y-99334943D01*
X133045530Y-99570000D01*
X130996742Y-99570000D01*
X130973162Y-99444683D01*
X130834090Y-99228559D01*
X130621890Y-99083569D01*
X130370000Y-99032560D01*
X128870000Y-99032560D01*
X128634683Y-99076838D01*
X128418559Y-99215910D01*
X128273569Y-99428110D01*
X128270919Y-99441197D01*
X128134090Y-99228559D01*
X127921890Y-99083569D01*
X127670000Y-99032560D01*
X126170000Y-99032560D01*
X125934683Y-99076838D01*
X125718559Y-99215910D01*
X125573569Y-99428110D01*
X125544836Y-99570000D01*
X125487000Y-99570000D01*
X125196161Y-99627852D01*
X124949599Y-99792599D01*
X120201638Y-104540560D01*
X119729000Y-104540560D01*
X119493683Y-104584838D01*
X119277559Y-104723910D01*
X119132569Y-104936110D01*
X119081560Y-105188000D01*
X114290370Y-105188000D01*
X114102284Y-104485815D01*
X113718283Y-102555312D01*
X114171512Y-99790614D01*
X114182155Y-99816372D01*
X114810321Y-100445636D01*
X115631481Y-100786611D01*
X116520619Y-100787387D01*
X117342372Y-100447845D01*
X117971636Y-99819679D01*
X118312611Y-98998519D01*
X118313387Y-98109381D01*
X117973845Y-97287628D01*
X117345679Y-96658364D01*
X116524519Y-96317389D01*
X115635381Y-96316613D01*
X114813628Y-96656155D01*
X114660259Y-96809256D01*
X114963380Y-94960213D01*
X117055392Y-94960213D01*
X117124857Y-95202397D01*
X117648302Y-95389144D01*
X118203368Y-95361362D01*
X118587143Y-95202397D01*
X118656608Y-94960213D01*
X117856000Y-94159605D01*
X117055392Y-94960213D01*
X114963380Y-94960213D01*
X115158120Y-93772302D01*
X116446856Y-93772302D01*
X116474638Y-94327368D01*
X116633603Y-94711143D01*
X116875787Y-94780608D01*
X117676395Y-93980000D01*
X118035605Y-93980000D01*
X118836213Y-94780608D01*
X119078397Y-94711143D01*
X119265144Y-94187698D01*
X119237362Y-93632632D01*
X119078397Y-93248857D01*
X118836213Y-93179392D01*
X118035605Y-93980000D01*
X117676395Y-93980000D01*
X116875787Y-93179392D01*
X116633603Y-93248857D01*
X116446856Y-93772302D01*
X115158120Y-93772302D01*
X115284761Y-92999787D01*
X117055392Y-92999787D01*
X117856000Y-93800395D01*
X118656608Y-92999787D01*
X118587143Y-92757603D01*
X118063698Y-92570856D01*
X117508632Y-92598638D01*
X117124857Y-92757603D01*
X117055392Y-92999787D01*
X115284761Y-92999787D01*
X115826735Y-89693750D01*
X122099000Y-89693750D01*
X122099000Y-90159310D01*
X122195673Y-90392699D01*
X122374302Y-90571327D01*
X122607691Y-90668000D01*
X123198250Y-90668000D01*
X123357000Y-90509250D01*
X123357000Y-89535000D01*
X122257750Y-89535000D01*
X122099000Y-89693750D01*
X115826735Y-89693750D01*
X115996745Y-88656690D01*
X122099000Y-88656690D01*
X122099000Y-89122250D01*
X122257750Y-89281000D01*
X123357000Y-89281000D01*
X123357000Y-88306750D01*
X123198250Y-88148000D01*
X122607691Y-88148000D01*
X122374302Y-88244673D01*
X122195673Y-88423301D01*
X122099000Y-88656690D01*
X115996745Y-88656690D01*
X116200107Y-87416185D01*
X118936476Y-82073750D01*
X122099000Y-82073750D01*
X122099000Y-82539310D01*
X122195673Y-82772699D01*
X122374302Y-82951327D01*
X122607691Y-83048000D01*
X123198250Y-83048000D01*
X123357000Y-82889250D01*
X123357000Y-81915000D01*
X122257750Y-81915000D01*
X122099000Y-82073750D01*
X118936476Y-82073750D01*
X119467653Y-81036690D01*
X122099000Y-81036690D01*
X122099000Y-81502250D01*
X122257750Y-81661000D01*
X123357000Y-81661000D01*
X123357000Y-80686750D01*
X123198250Y-80528000D01*
X122607691Y-80528000D01*
X122374302Y-80624673D01*
X122195673Y-80803301D01*
X122099000Y-81036690D01*
X119467653Y-81036690D01*
X120103165Y-79795929D01*
X122518945Y-76180460D01*
X128948570Y-70669352D01*
X133623690Y-67545537D01*
X148594399Y-63630121D01*
X164542033Y-66667766D01*
G36*
X170890560Y-91674000D02*
X170934838Y-91909317D01*
X171073910Y-92125441D01*
X171286110Y-92270431D01*
X171538000Y-92321440D01*
X172638000Y-92321440D01*
X172741216Y-92302018D01*
X172976000Y-92536802D01*
X172976000Y-93303259D01*
X172794309Y-93228000D01*
X172203750Y-93228000D01*
X172045000Y-93386750D01*
X172045000Y-94361000D01*
X172065000Y-94361000D01*
X172065000Y-94615000D01*
X172045000Y-94615000D01*
X172045000Y-95589250D01*
X172199974Y-95744224D01*
X171300599Y-96643599D01*
X171188253Y-96811737D01*
X171102683Y-96827838D01*
X170886559Y-96966910D01*
X170741569Y-97179110D01*
X170690560Y-97431000D01*
X170690560Y-99758758D01*
X170685440Y-99753638D01*
X170685440Y-97431000D01*
X170641162Y-97195683D01*
X170502090Y-96979559D01*
X170298000Y-96840110D01*
X170298000Y-95735979D01*
X170403317Y-95716162D01*
X170619441Y-95577090D01*
X170665969Y-95508994D01*
X170808302Y-95651327D01*
X171041691Y-95748000D01*
X171632250Y-95748000D01*
X171791000Y-95589250D01*
X171791000Y-94615000D01*
X171771000Y-94615000D01*
X171771000Y-94361000D01*
X171791000Y-94361000D01*
X171791000Y-93386750D01*
X171632250Y-93228000D01*
X171041691Y-93228000D01*
X170808302Y-93324673D01*
X170667064Y-93465910D01*
X170632090Y-93411559D01*
X170419890Y-93266569D01*
X170178000Y-93217585D01*
X170178000Y-92209800D01*
X170289441Y-92138090D01*
X170434431Y-91925890D01*
X170446602Y-91865789D01*
X170890560Y-91421831D01*
X170890560Y-91674000D01*
X170890560Y-91674000D01*
G37*
X170890560Y-91674000D02*
X170934838Y-91909317D01*
X171073910Y-92125441D01*
X171286110Y-92270431D01*
X171538000Y-92321440D01*
X172638000Y-92321440D01*
X172741216Y-92302018D01*
X172976000Y-92536802D01*
X172976000Y-93303259D01*
X172794309Y-93228000D01*
X172203750Y-93228000D01*
X172045000Y-93386750D01*
X172045000Y-94361000D01*
X172065000Y-94361000D01*
X172065000Y-94615000D01*
X172045000Y-94615000D01*
X172045000Y-95589250D01*
X172199974Y-95744224D01*
X171300599Y-96643599D01*
X171188253Y-96811737D01*
X171102683Y-96827838D01*
X170886559Y-96966910D01*
X170741569Y-97179110D01*
X170690560Y-97431000D01*
X170690560Y-99758758D01*
X170685440Y-99753638D01*
X170685440Y-97431000D01*
X170641162Y-97195683D01*
X170502090Y-96979559D01*
X170298000Y-96840110D01*
X170298000Y-95735979D01*
X170403317Y-95716162D01*
X170619441Y-95577090D01*
X170665969Y-95508994D01*
X170808302Y-95651327D01*
X171041691Y-95748000D01*
X171632250Y-95748000D01*
X171791000Y-95589250D01*
X171791000Y-94615000D01*
X171771000Y-94615000D01*
X171771000Y-94361000D01*
X171791000Y-94361000D01*
X171791000Y-93386750D01*
X171632250Y-93228000D01*
X171041691Y-93228000D01*
X170808302Y-93324673D01*
X170667064Y-93465910D01*
X170632090Y-93411559D01*
X170419890Y-93266569D01*
X170178000Y-93217585D01*
X170178000Y-92209800D01*
X170289441Y-92138090D01*
X170434431Y-91925890D01*
X170446602Y-91865789D01*
X170890560Y-91421831D01*
X170890560Y-91674000D01*
G36*
X141209000Y-82103440D02*
X141486560Y-82103440D01*
X141486560Y-82381000D01*
X141510944Y-82510589D01*
X141486560Y-82631000D01*
X141486560Y-83181000D01*
X141510944Y-83310589D01*
X141486560Y-83431000D01*
X141486560Y-83981000D01*
X141506450Y-84086705D01*
X141499000Y-84104690D01*
X141499000Y-84220250D01*
X141595401Y-84316651D01*
X141669910Y-84432441D01*
X141777397Y-84505884D01*
X141682559Y-84566910D01*
X141593505Y-84697245D01*
X141499000Y-84791750D01*
X141499000Y-84907310D01*
X141507468Y-84927753D01*
X141486560Y-85031000D01*
X141486560Y-85388282D01*
X141273998Y-85346000D01*
X135648975Y-85346000D01*
X135590603Y-85306116D01*
X135685441Y-85245090D01*
X135774495Y-85114755D01*
X135869000Y-85020250D01*
X135869000Y-84904690D01*
X135860532Y-84884247D01*
X135881440Y-84781000D01*
X135881440Y-84231000D01*
X135861550Y-84125295D01*
X135869000Y-84107310D01*
X135869000Y-83991750D01*
X135772599Y-83895349D01*
X135698090Y-83779559D01*
X135590603Y-83706116D01*
X135685441Y-83645090D01*
X135774495Y-83514755D01*
X135869000Y-83420250D01*
X135869000Y-83304690D01*
X135860532Y-83284247D01*
X135881440Y-83181000D01*
X135881440Y-82631000D01*
X135857056Y-82501411D01*
X135881440Y-82381000D01*
X135881440Y-82103440D01*
X136159000Y-82103440D01*
X136288589Y-82079056D01*
X136409000Y-82103440D01*
X136959000Y-82103440D01*
X137088589Y-82079056D01*
X137209000Y-82103440D01*
X137759000Y-82103440D01*
X137888589Y-82079056D01*
X138009000Y-82103440D01*
X138559000Y-82103440D01*
X138688589Y-82079056D01*
X138809000Y-82103440D01*
X139359000Y-82103440D01*
X139488589Y-82079056D01*
X139609000Y-82103440D01*
X140159000Y-82103440D01*
X140288589Y-82079056D01*
X140409000Y-82103440D01*
X140959000Y-82103440D01*
X141088589Y-82079056D01*
X141209000Y-82103440D01*
X141209000Y-82103440D01*
G37*
X141209000Y-82103440D02*
X141486560Y-82103440D01*
X141486560Y-82381000D01*
X141510944Y-82510589D01*
X141486560Y-82631000D01*
X141486560Y-83181000D01*
X141510944Y-83310589D01*
X141486560Y-83431000D01*
X141486560Y-83981000D01*
X141506450Y-84086705D01*
X141499000Y-84104690D01*
X141499000Y-84220250D01*
X141595401Y-84316651D01*
X141669910Y-84432441D01*
X141777397Y-84505884D01*
X141682559Y-84566910D01*
X141593505Y-84697245D01*
X141499000Y-84791750D01*
X141499000Y-84907310D01*
X141507468Y-84927753D01*
X141486560Y-85031000D01*
X141486560Y-85388282D01*
X141273998Y-85346000D01*
X135648975Y-85346000D01*
X135590603Y-85306116D01*
X135685441Y-85245090D01*
X135774495Y-85114755D01*
X135869000Y-85020250D01*
X135869000Y-84904690D01*
X135860532Y-84884247D01*
X135881440Y-84781000D01*
X135881440Y-84231000D01*
X135861550Y-84125295D01*
X135869000Y-84107310D01*
X135869000Y-83991750D01*
X135772599Y-83895349D01*
X135698090Y-83779559D01*
X135590603Y-83706116D01*
X135685441Y-83645090D01*
X135774495Y-83514755D01*
X135869000Y-83420250D01*
X135869000Y-83304690D01*
X135860532Y-83284247D01*
X135881440Y-83181000D01*
X135881440Y-82631000D01*
X135857056Y-82501411D01*
X135881440Y-82381000D01*
X135881440Y-82103440D01*
X136159000Y-82103440D01*
X136288589Y-82079056D01*
X136409000Y-82103440D01*
X136959000Y-82103440D01*
X137088589Y-82079056D01*
X137209000Y-82103440D01*
X137759000Y-82103440D01*
X137888589Y-82079056D01*
X138009000Y-82103440D01*
X138559000Y-82103440D01*
X138688589Y-82079056D01*
X138809000Y-82103440D01*
X139359000Y-82103440D01*
X139488589Y-82079056D01*
X139609000Y-82103440D01*
X140159000Y-82103440D01*
X140288589Y-82079056D01*
X140409000Y-82103440D01*
X140959000Y-82103440D01*
X141088589Y-82079056D01*
X141209000Y-82103440D01*
M02*
