  0
SECTION
  2
HEADER
  9
$ANGBASE
  50
0.0
  9
$ANGDIR
  70
  1
  9
$MEASUREMENT
  70
0
  0
ENDSEC
  0
SECTION
  2
TABLES
  0
TABLE
  2
LTYPE
  70
1
  0
LTYPE
  2
CONTINUOUS
  70
0
  3
Solid line
  72
65
  73
0
  40
0.0
  0
ENDTAB
  0
TABLE
  2
STYLE
  70
4
  0
STYLE
  2
KICAD
  70
0
  40
0
  41
1
  42
1
  50
0
  71
0
  3
isocp.shx
  0
STYLE
  2
KICADB
  70
0
  40
0
  41
1
  42
1
  50
0
  71
0
  3
isocp.shx
  0
STYLE
  2
KICADI
  70
0
  40
0
  41
1
  42
1
  50
15
  71
0
  3
isocp.shx
  0
STYLE
  2
KICADBI
  70
0
  40
0
  41
1
  42
1
  50
15
  71
0
  3
isocp.shx
  0
ENDTAB
  0
TABLE
  2
LAYER
  70
30
  0
LAYER
  2
BLACK
  70
0
  62
7
  6
CONTINUOUS
  0
LAYER
  2
GRAY1
  70
0
  62
251
  6
CONTINUOUS
  0
LAYER
  2
GRAY2
  70
0
  62
8
  6
CONTINUOUS
  0
LAYER
  2
GRAY3
  70
0
  62
9
  6
CONTINUOUS
  0
LAYER
  2
WHITE
  70
0
  62
7
  6
CONTINUOUS
  0
LAYER
  2
LYELLOW
  70
0
  62
51
  6
CONTINUOUS
  0
LAYER
  2
BLUE1
  70
0
  62
178
  6
CONTINUOUS
  0
LAYER
  2
GREEN1
  70
0
  62
98
  6
CONTINUOUS
  0
LAYER
  2
CYAN1
  70
0
  62
138
  6
CONTINUOUS
  0
LAYER
  2
RED1
  70
0
  62
18
  6
CONTINUOUS
  0
LAYER
  2
MAGENTA1
  70
0
  62
228
  6
CONTINUOUS
  0
LAYER
  2
BROWN1
  70
0
  62
58
  6
CONTINUOUS
  0
LAYER
  2
BLUE2
  70
0
  62
5
  6
CONTINUOUS
  0
LAYER
  2
GREEN2
  70
0
  62
3
  6
CONTINUOUS
  0
LAYER
  2
CYAN2
  70
0
  62
4
  6
CONTINUOUS
  0
LAYER
  2
RED2
  70
0
  62
1
  6
CONTINUOUS
  0
LAYER
  2
MAGENTA2
  70
0
  62
6
  6
CONTINUOUS
  0
LAYER
  2
BROWN2
  70
0
  62
54
  6
CONTINUOUS
  0
LAYER
  2
BLUE3
  70
0
  62
171
  6
CONTINUOUS
  0
LAYER
  2
GREEN3
  70
0
  62
91
  6
CONTINUOUS
  0
LAYER
  2
CYAN3
  70
0
  62
131
  6
CONTINUOUS
  0
LAYER
  2
RED3
  70
0
  62
11
  6
CONTINUOUS
  0
LAYER
  2
MAGENTA3
  70
0
  62
221
  6
CONTINUOUS
  0
LAYER
  2
YELLOW3
  70
0
  62
2
  6
CONTINUOUS
  0
LAYER
  2
BLUE4
  70
0
  62
5
  6
CONTINUOUS
  0
LAYER
  2
GREEN4
  70
0
  62
3
  6
CONTINUOUS
  0
LAYER
  2
CYAN4
  70
0
  62
4
  6
CONTINUOUS
  0
LAYER
  2
RED4
  70
0
  62
1
  6
CONTINUOUS
  0
LAYER
  2
MAGENTA4
  70
0
  62
6
  6
CONTINUOUS
  0
LAYER
  2
YELLOW4
  70
0
  62
2
  6
CONTINUOUS
  0
ENDTAB
  0
ENDSEC
  0
SECTION
  2
ENTITIES
0
LINE
8
Black
10
177.002
20
-166.007
11
177.002
21
-198.007
0
LINE
8
Black
10
177.002
20
-198.007
11
285.002
21
-198.007
0
LINE
8
Black
10
285.002
20
-198.007
11
285.002
21
-166.007
0
LINE
8
Black
10
285.002
20
-166.007
11
177.002
21
-166.007
0
LINE
8
Black
10
10
20
-10
11
10
21
-200.007
0
LINE
8
Black
10
10
20
-200.007
11
287.002
21
-200.007
0
LINE
8
Black
10
287.002
20
-200.007
11
287.002
21
-10
0
LINE
8
Black
10
287.002
20
-10
11
10
21
-10
0
LINE
8
Black
10
12
20
-12
11
12
21
-198.007
0
LINE
8
Black
10
12
20
-198.007
11
285.002
21
-198.007
0
LINE
8
Black
10
285.002
20
-198.007
11
285.002
21
-12
0
LINE
8
Black
10
285.002
20
-12
11
12
21
-12
0
LINE
8
Black
10
60
20
-12
11
60
21
-10
0
LINE
8
Black
10
110
20
-12
11
110
21
-10
0
LINE
8
Black
10
160
20
-12
11
160
21
-10
0
LINE
8
Black
10
210
20
-12
11
210
21
-10
0
LINE
8
Black
10
260
20
-12
11
260
21
-10
0
LINE
8
Black
10
35.9905
20
-11.5881
11
35.2476
21
-11.5881
0
LINE
8
Black
10
35.619
20
-11.5881
11
35.619
21
-10.2881
0
LINE
8
Black
10
35.619
20
-10.2881
11
35.4952
21
-10.4738
0
LINE
8
Black
10
35.4952
20
-10.4738
11
35.3714
21
-10.5976
0
LINE
8
Black
10
35.3714
20
-10.5976
11
35.2476
21
-10.6595
0
LINE
8
Black
10
85.2476
20
-10.4119
11
85.3095
21
-10.35
0
LINE
8
Black
10
85.3095
20
-10.35
11
85.4333
21
-10.2881
0
LINE
8
Black
10
85.4333
20
-10.2881
11
85.7429
21
-10.2881
0
LINE
8
Black
10
85.7429
20
-10.2881
11
85.8667
21
-10.35
0
LINE
8
Black
10
85.8667
20
-10.35
11
85.9286
21
-10.4119
0
LINE
8
Black
10
85.9286
20
-10.4119
11
85.9905
21
-10.5357
0
LINE
8
Black
10
85.9905
20
-10.5357
11
85.9905
21
-10.6595
0
LINE
8
Black
10
85.9905
20
-10.6595
11
85.9286
21
-10.8452
0
LINE
8
Black
10
85.9286
20
-10.8452
11
85.1857
21
-11.5881
0
LINE
8
Black
10
85.1857
20
-11.5881
11
85.9905
21
-11.5881
0
LINE
8
Black
10
135.186
20
-10.2881
11
135.99
21
-10.2881
0
LINE
8
Black
10
135.99
20
-10.2881
11
135.557
21
-10.7833
0
LINE
8
Black
10
135.557
20
-10.7833
11
135.743
21
-10.7833
0
LINE
8
Black
10
135.743
20
-10.7833
11
135.867
21
-10.8452
0
LINE
8
Black
10
135.867
20
-10.8452
11
135.929
21
-10.9071
0
LINE
8
Black
10
135.929
20
-10.9071
11
135.99
21
-11.031
0
LINE
8
Black
10
135.99
20
-11.031
11
135.99
21
-11.3405
0
LINE
8
Black
10
135.99
20
-11.3405
11
135.929
21
-11.4643
0
LINE
8
Black
10
135.929
20
-11.4643
11
135.867
21
-11.5262
0
LINE
8
Black
10
135.867
20
-11.5262
11
135.743
21
-11.5881
0
LINE
8
Black
10
135.743
20
-11.5881
11
135.371
21
-11.5881
0
LINE
8
Black
10
135.371
20
-11.5881
11
135.248
21
-11.5262
0
LINE
8
Black
10
135.248
20
-11.5262
11
135.186
21
-11.4643
0
LINE
8
Black
10
185.867
20
-10.7214
11
185.867
21
-11.5881
0
LINE
8
Black
10
185.557
20
-10.2262
11
185.248
21
-11.1548
0
LINE
8
Black
10
185.248
20
-11.1548
11
186.052
21
-11.1548
0
LINE
8
Black
10
235.929
20
-10.2881
11
235.31
21
-10.2881
0
LINE
8
Black
10
235.31
20
-10.2881
11
235.248
21
-10.9071
0
LINE
8
Black
10
235.248
20
-10.9071
11
235.31
21
-10.8452
0
LINE
8
Black
10
235.31
20
-10.8452
11
235.433
21
-10.7833
0
LINE
8
Black
10
235.433
20
-10.7833
11
235.743
21
-10.7833
0
LINE
8
Black
10
235.743
20
-10.7833
11
235.867
21
-10.8452
0
LINE
8
Black
10
235.867
20
-10.8452
11
235.929
21
-10.9071
0
LINE
8
Black
10
235.929
20
-10.9071
11
235.99
21
-11.031
0
LINE
8
Black
10
235.99
20
-11.031
11
235.99
21
-11.3405
0
LINE
8
Black
10
235.99
20
-11.3405
11
235.929
21
-11.4643
0
LINE
8
Black
10
235.929
20
-11.4643
11
235.867
21
-11.5262
0
LINE
8
Black
10
235.867
20
-11.5262
11
235.743
21
-11.5881
0
LINE
8
Black
10
235.743
20
-11.5881
11
235.433
21
-11.5881
0
LINE
8
Black
10
235.433
20
-11.5881
11
235.31
21
-11.5262
0
LINE
8
Black
10
235.31
20
-11.5262
11
235.248
21
-11.4643
0
LINE
8
Black
10
285.867
20
-10.2881
11
285.619
21
-10.2881
0
LINE
8
Black
10
285.619
20
-10.2881
11
285.495
21
-10.35
0
LINE
8
Black
10
285.495
20
-10.35
11
285.433
21
-10.4119
0
LINE
8
Black
10
285.433
20
-10.4119
11
285.31
21
-10.5976
0
LINE
8
Black
10
285.31
20
-10.5976
11
285.248
21
-10.8452
0
LINE
8
Black
10
285.248
20
-10.8452
11
285.248
21
-11.3405
0
LINE
8
Black
10
285.248
20
-11.3405
11
285.31
21
-11.4643
0
LINE
8
Black
10
285.31
20
-11.4643
11
285.371
21
-11.5262
0
LINE
8
Black
10
285.371
20
-11.5262
11
285.495
21
-11.5881
0
LINE
8
Black
10
285.495
20
-11.5881
11
285.743
21
-11.5881
0
LINE
8
Black
10
285.743
20
-11.5881
11
285.867
21
-11.5262
0
LINE
8
Black
10
285.867
20
-11.5262
11
285.929
21
-11.4643
0
LINE
8
Black
10
285.929
20
-11.4643
11
285.99
21
-11.3405
0
LINE
8
Black
10
285.99
20
-11.3405
11
285.99
21
-11.031
0
LINE
8
Black
10
285.99
20
-11.031
11
285.929
21
-10.9071
0
LINE
8
Black
10
285.929
20
-10.9071
11
285.867
21
-10.8452
0
LINE
8
Black
10
285.867
20
-10.8452
11
285.743
21
-10.7833
0
LINE
8
Black
10
285.743
20
-10.7833
11
285.495
21
-10.7833
0
LINE
8
Black
10
285.495
20
-10.7833
11
285.371
21
-10.8452
0
LINE
8
Black
10
285.371
20
-10.8452
11
285.31
21
-10.9071
0
LINE
8
Black
10
285.31
20
-10.9071
11
285.248
21
-11.031
0
LINE
8
Black
10
60
20
-198.007
11
60
21
-200.007
0
LINE
8
Black
10
110
20
-198.007
11
110
21
-200.007
0
LINE
8
Black
10
160
20
-198.007
11
160
21
-200.007
0
LINE
8
Black
10
210
20
-198.007
11
210
21
-200.007
0
LINE
8
Black
10
260
20
-198.007
11
260
21
-200.007
0
LINE
8
Black
10
35.9905
20
-199.595
11
35.2476
21
-199.595
0
LINE
8
Black
10
35.619
20
-199.595
11
35.619
21
-198.295
0
LINE
8
Black
10
35.619
20
-198.295
11
35.4952
21
-198.481
0
LINE
8
Black
10
35.4952
20
-198.481
11
35.3714
21
-198.605
0
LINE
8
Black
10
35.3714
20
-198.605
11
35.2476
21
-198.667
0
LINE
8
Black
10
85.2476
20
-198.419
11
85.3095
21
-198.357
0
LINE
8
Black
10
85.3095
20
-198.357
11
85.4333
21
-198.295
0
LINE
8
Black
10
85.4333
20
-198.295
11
85.7429
21
-198.295
0
LINE
8
Black
10
85.7429
20
-198.295
11
85.8667
21
-198.357
0
LINE
8
Black
10
85.8667
20
-198.357
11
85.9286
21
-198.419
0
LINE
8
Black
10
85.9286
20
-198.419
11
85.9905
21
-198.543
0
LINE
8
Black
10
85.9905
20
-198.543
11
85.9905
21
-198.667
0
LINE
8
Black
10
85.9905
20
-198.667
11
85.9286
21
-198.852
0
LINE
8
Black
10
85.9286
20
-198.852
11
85.1857
21
-199.595
0
LINE
8
Black
10
85.1857
20
-199.595
11
85.9905
21
-199.595
0
LINE
8
Black
10
135.186
20
-198.295
11
135.99
21
-198.295
0
LINE
8
Black
10
135.99
20
-198.295
11
135.557
21
-198.791
0
LINE
8
Black
10
135.557
20
-198.791
11
135.743
21
-198.791
0
LINE
8
Black
10
135.743
20
-198.791
11
135.867
21
-198.852
0
LINE
8
Black
10
135.867
20
-198.852
11
135.929
21
-198.914
0
LINE
8
Black
10
135.929
20
-198.914
11
135.99
21
-199.038
0
LINE
8
Black
10
135.99
20
-199.038
11
135.99
21
-199.348
0
LINE
8
Black
10
135.99
20
-199.348
11
135.929
21
-199.471
0
LINE
8
Black
10
135.929
20
-199.471
11
135.867
21
-199.533
0
LINE
8
Black
10
135.867
20
-199.533
11
135.743
21
-199.595
0
LINE
8
Black
10
135.743
20
-199.595
11
135.371
21
-199.595
0
LINE
8
Black
10
135.371
20
-199.595
11
135.248
21
-199.533
0
LINE
8
Black
10
135.248
20
-199.533
11
135.186
21
-199.471
0
LINE
8
Black
10
185.867
20
-198.729
11
185.867
21
-199.595
0
LINE
8
Black
10
185.557
20
-198.233
11
185.248
21
-199.162
0
LINE
8
Black
10
185.248
20
-199.162
11
186.052
21
-199.162
0
LINE
8
Black
10
235.929
20
-198.295
11
235.31
21
-198.295
0
LINE
8
Black
10
235.31
20
-198.295
11
235.248
21
-198.914
0
LINE
8
Black
10
235.248
20
-198.914
11
235.31
21
-198.852
0
LINE
8
Black
10
235.31
20
-198.852
11
235.433
21
-198.791
0
LINE
8
Black
10
235.433
20
-198.791
11
235.743
21
-198.791
0
LINE
8
Black
10
235.743
20
-198.791
11
235.867
21
-198.852
0
LINE
8
Black
10
235.867
20
-198.852
11
235.929
21
-198.914
0
LINE
8
Black
10
235.929
20
-198.914
11
235.99
21
-199.038
0
LINE
8
Black
10
235.99
20
-199.038
11
235.99
21
-199.348
0
LINE
8
Black
10
235.99
20
-199.348
11
235.929
21
-199.471
0
LINE
8
Black
10
235.929
20
-199.471
11
235.867
21
-199.533
0
LINE
8
Black
10
235.867
20
-199.533
11
235.743
21
-199.595
0
LINE
8
Black
10
235.743
20
-199.595
11
235.433
21
-199.595
0
LINE
8
Black
10
235.433
20
-199.595
11
235.31
21
-199.533
0
LINE
8
Black
10
235.31
20
-199.533
11
235.248
21
-199.471
0
LINE
8
Black
10
285.867
20
-198.295
11
285.619
21
-198.295
0
LINE
8
Black
10
285.619
20
-198.295
11
285.495
21
-198.357
0
LINE
8
Black
10
285.495
20
-198.357
11
285.433
21
-198.419
0
LINE
8
Black
10
285.433
20
-198.419
11
285.31
21
-198.605
0
LINE
8
Black
10
285.31
20
-198.605
11
285.248
21
-198.852
0
LINE
8
Black
10
285.248
20
-198.852
11
285.248
21
-199.348
0
LINE
8
Black
10
285.248
20
-199.348
11
285.31
21
-199.471
0
LINE
8
Black
10
285.31
20
-199.471
11
285.371
21
-199.533
0
LINE
8
Black
10
285.371
20
-199.533
11
285.495
21
-199.595
0
LINE
8
Black
10
285.495
20
-199.595
11
285.743
21
-199.595
0
LINE
8
Black
10
285.743
20
-199.595
11
285.867
21
-199.533
0
LINE
8
Black
10
285.867
20
-199.533
11
285.929
21
-199.471
0
LINE
8
Black
10
285.929
20
-199.471
11
285.99
21
-199.348
0
LINE
8
Black
10
285.99
20
-199.348
11
285.99
21
-199.038
0
LINE
8
Black
10
285.99
20
-199.038
11
285.929
21
-198.914
0
LINE
8
Black
10
285.929
20
-198.914
11
285.867
21
-198.852
0
LINE
8
Black
10
285.867
20
-198.852
11
285.743
21
-198.791
0
LINE
8
Black
10
285.743
20
-198.791
11
285.495
21
-198.791
0
LINE
8
Black
10
285.495
20
-198.791
11
285.371
21
-198.852
0
LINE
8
Black
10
285.371
20
-198.852
11
285.31
21
-198.914
0
LINE
8
Black
10
285.31
20
-198.914
11
285.248
21
-199.038
0
LINE
8
Black
10
10
20
-60
11
12
21
-60
0
LINE
8
Black
10
10
20
-110
11
12
21
-110
0
LINE
8
Black
10
10
20
-160
11
12
21
-160
0
LINE
8
Black
10
10.6905
20
-35.2167
11
11.3095
21
-35.2167
0
LINE
8
Black
10
10.5667
20
-35.5881
11
11
21
-34.2881
0
LINE
8
Black
10
11
20
-34.2881
11
11.4333
21
-35.5881
0
LINE
8
Black
10
11.0929
20
-84.9071
11
11.2786
21
-84.969
0
LINE
8
Black
10
11.2786
20
-84.969
11
11.3405
21
-85.031
0
LINE
8
Black
10
11.3405
20
-85.031
11
11.4024
21
-85.1548
0
LINE
8
Black
10
11.4024
20
-85.1548
11
11.4024
21
-85.3405
0
LINE
8
Black
10
11.4024
20
-85.3405
11
11.3405
21
-85.4643
0
LINE
8
Black
10
11.3405
20
-85.4643
11
11.2786
21
-85.5262
0
LINE
8
Black
10
11.2786
20
-85.5262
11
11.1548
21
-85.5881
0
LINE
8
Black
10
11.1548
20
-85.5881
11
10.6595
21
-85.5881
0
LINE
8
Black
10
10.6595
20
-85.5881
11
10.6595
21
-84.2881
0
LINE
8
Black
10
10.6595
20
-84.2881
11
11.0929
21
-84.2881
0
LINE
8
Black
10
11.0929
20
-84.2881
11
11.2167
21
-84.35
0
LINE
8
Black
10
11.2167
20
-84.35
11
11.2786
21
-84.4119
0
LINE
8
Black
10
11.2786
20
-84.4119
11
11.3405
21
-84.5357
0
LINE
8
Black
10
11.3405
20
-84.5357
11
11.3405
21
-84.6595
0
LINE
8
Black
10
11.3405
20
-84.6595
11
11.2786
21
-84.7833
0
LINE
8
Black
10
11.2786
20
-84.7833
11
11.2167
21
-84.8452
0
LINE
8
Black
10
11.2167
20
-84.8452
11
11.0929
21
-84.9071
0
LINE
8
Black
10
11.0929
20
-84.9071
11
10.6595
21
-84.9071
0
LINE
8
Black
10
11.4024
20
-135.464
11
11.3405
21
-135.526
0
LINE
8
Black
10
11.3405
20
-135.526
11
11.1548
21
-135.588
0
LINE
8
Black
10
11.1548
20
-135.588
11
11.031
21
-135.588
0
LINE
8
Black
10
11.031
20
-135.588
11
10.8452
21
-135.526
0
LINE
8
Black
10
10.8452
20
-135.526
11
10.7214
21
-135.402
0
LINE
8
Black
10
10.7214
20
-135.402
11
10.6595
21
-135.279
0
LINE
8
Black
10
10.6595
20
-135.279
11
10.5976
21
-135.031
0
LINE
8
Black
10
10.5976
20
-135.031
11
10.5976
21
-134.845
0
LINE
8
Black
10
10.5976
20
-134.845
11
10.6595
21
-134.598
0
LINE
8
Black
10
10.6595
20
-134.598
11
10.7214
21
-134.474
0
LINE
8
Black
10
10.7214
20
-134.474
11
10.8452
21
-134.35
0
LINE
8
Black
10
10.8452
20
-134.35
11
11.031
21
-134.288
0
LINE
8
Black
10
11.031
20
-134.288
11
11.1548
21
-134.288
0
LINE
8
Black
10
11.1548
20
-134.288
11
11.3405
21
-134.35
0
LINE
8
Black
10
11.3405
20
-134.35
11
11.4024
21
-134.412
0
LINE
8
Black
10
10.6595
20
-185.588
11
10.6595
21
-184.288
0
LINE
8
Black
10
10.6595
20
-184.288
11
10.969
21
-184.288
0
LINE
8
Black
10
10.969
20
-184.288
11
11.1548
21
-184.35
0
LINE
8
Black
10
11.1548
20
-184.35
11
11.2786
21
-184.474
0
LINE
8
Black
10
11.2786
20
-184.474
11
11.3405
21
-184.598
0
LINE
8
Black
10
11.3405
20
-184.598
11
11.4024
21
-184.845
0
LINE
8
Black
10
11.4024
20
-184.845
11
11.4024
21
-185.031
0
LINE
8
Black
10
11.4024
20
-185.031
11
11.3405
21
-185.279
0
LINE
8
Black
10
11.3405
20
-185.279
11
11.2786
21
-185.402
0
LINE
8
Black
10
11.2786
20
-185.402
11
11.1548
21
-185.526
0
LINE
8
Black
10
11.1548
20
-185.526
11
10.969
21
-185.588
0
LINE
8
Black
10
10.969
20
-185.588
11
10.6595
21
-185.588
0
LINE
8
Black
10
287.002
20
-60
11
285.002
21
-60
0
LINE
8
Black
10
287.002
20
-110
11
285.002
21
-110
0
LINE
8
Black
10
287.002
20
-160
11
285.002
21
-160
0
LINE
8
Black
10
285.693
20
-35.2167
11
286.312
21
-35.2167
0
LINE
8
Black
10
285.569
20
-35.5881
11
286.002
21
-34.2881
0
LINE
8
Black
10
286.002
20
-34.2881
11
286.436
21
-35.5881
0
LINE
8
Black
10
286.095
20
-84.9071
11
286.281
21
-84.969
0
LINE
8
Black
10
286.281
20
-84.969
11
286.343
21
-85.031
0
LINE
8
Black
10
286.343
20
-85.031
11
286.405
21
-85.1548
0
LINE
8
Black
10
286.405
20
-85.1548
11
286.405
21
-85.3405
0
LINE
8
Black
10
286.405
20
-85.3405
11
286.343
21
-85.4643
0
LINE
8
Black
10
286.343
20
-85.4643
11
286.281
21
-85.5262
0
LINE
8
Black
10
286.281
20
-85.5262
11
286.157
21
-85.5881
0
LINE
8
Black
10
286.157
20
-85.5881
11
285.662
21
-85.5881
0
LINE
8
Black
10
285.662
20
-85.5881
11
285.662
21
-84.2881
0
LINE
8
Black
10
285.662
20
-84.2881
11
286.095
21
-84.2881
0
LINE
8
Black
10
286.095
20
-84.2881
11
286.219
21
-84.35
0
LINE
8
Black
10
286.219
20
-84.35
11
286.281
21
-84.4119
0
LINE
8
Black
10
286.281
20
-84.4119
11
286.343
21
-84.5357
0
LINE
8
Black
10
286.343
20
-84.5357
11
286.343
21
-84.6595
0
LINE
8
Black
10
286.343
20
-84.6595
11
286.281
21
-84.7833
0
LINE
8
Black
10
286.281
20
-84.7833
11
286.219
21
-84.8452
0
LINE
8
Black
10
286.219
20
-84.8452
11
286.095
21
-84.9071
0
LINE
8
Black
10
286.095
20
-84.9071
11
285.662
21
-84.9071
0
LINE
8
Black
10
286.405
20
-135.464
11
286.343
21
-135.526
0
LINE
8
Black
10
286.343
20
-135.526
11
286.157
21
-135.588
0
LINE
8
Black
10
286.157
20
-135.588
11
286.033
21
-135.588
0
LINE
8
Black
10
286.033
20
-135.588
11
285.847
21
-135.526
0
LINE
8
Black
10
285.847
20
-135.526
11
285.724
21
-135.402
0
LINE
8
Black
10
285.724
20
-135.402
11
285.662
21
-135.279
0
LINE
8
Black
10
285.662
20
-135.279
11
285.6
21
-135.031
0
LINE
8
Black
10
285.6
20
-135.031
11
285.6
21
-134.845
0
LINE
8
Black
10
285.6
20
-134.845
11
285.662
21
-134.598
0
LINE
8
Black
10
285.662
20
-134.598
11
285.724
21
-134.474
0
LINE
8
Black
10
285.724
20
-134.474
11
285.847
21
-134.35
0
LINE
8
Black
10
285.847
20
-134.35
11
286.033
21
-134.288
0
LINE
8
Black
10
286.033
20
-134.288
11
286.157
21
-134.288
0
LINE
8
Black
10
286.157
20
-134.288
11
286.343
21
-134.35
0
LINE
8
Black
10
286.343
20
-134.35
11
286.405
21
-134.412
0
LINE
8
Black
10
285.662
20
-185.588
11
285.662
21
-184.288
0
LINE
8
Black
10
285.662
20
-184.288
11
285.971
21
-184.288
0
LINE
8
Black
10
285.971
20
-184.288
11
286.157
21
-184.35
0
LINE
8
Black
10
286.157
20
-184.35
11
286.281
21
-184.474
0
LINE
8
Black
10
286.281
20
-184.474
11
286.343
21
-184.598
0
LINE
8
Black
10
286.343
20
-184.598
11
286.405
21
-184.845
0
LINE
8
Black
10
286.405
20
-184.845
11
286.405
21
-185.031
0
LINE
8
Black
10
286.405
20
-185.031
11
286.343
21
-185.279
0
LINE
8
Black
10
286.343
20
-185.279
11
286.281
21
-185.402
0
LINE
8
Black
10
286.281
20
-185.402
11
286.157
21
-185.526
0
LINE
8
Black
10
286.157
20
-185.526
11
285.971
21
-185.588
0
LINE
8
Black
10
285.971
20
-185.588
11
285.662
21
-185.588
0
LINE
8
Black
10
200.359
20
-193.786
11
200.359
21
-192.286
0
LINE
8
Black
10
200.359
20
-192.286
11
200.716
21
-192.286
0
LINE
8
Black
10
200.716
20
-192.286
11
200.931
21
-192.357
0
LINE
8
Black
10
200.931
20
-192.357
11
201.074
21
-192.5
0
LINE
8
Black
10
201.074
20
-192.5
11
201.145
21
-192.643
0
LINE
8
Black
10
201.145
20
-192.643
11
201.216
21
-192.929
0
LINE
8
Black
10
201.216
20
-192.929
11
201.216
21
-193.143
0
LINE
8
Black
10
201.216
20
-193.143
11
201.145
21
-193.429
0
LINE
8
Black
10
201.145
20
-193.429
11
201.074
21
-193.571
0
LINE
8
Black
10
201.074
20
-193.571
11
200.931
21
-193.714
0
LINE
8
Black
10
200.931
20
-193.714
11
200.716
21
-193.786
0
LINE
8
Black
10
200.716
20
-193.786
11
200.359
21
-193.786
0
LINE
8
Black
10
202.502
20
-193.786
11
202.502
21
-193
0
LINE
8
Black
10
202.502
20
-193
11
202.431
21
-192.857
0
LINE
8
Black
10
202.431
20
-192.857
11
202.288
21
-192.786
0
LINE
8
Black
10
202.288
20
-192.786
11
202.002
21
-192.786
0
LINE
8
Black
10
202.002
20
-192.786
11
201.859
21
-192.857
0
LINE
8
Black
10
202.502
20
-193.714
11
202.359
21
-193.786
0
LINE
8
Black
10
202.359
20
-193.786
11
202.002
21
-193.786
0
LINE
8
Black
10
202.002
20
-193.786
11
201.859
21
-193.714
0
LINE
8
Black
10
201.859
20
-193.714
11
201.788
21
-193.571
0
LINE
8
Black
10
201.788
20
-193.571
11
201.788
21
-193.429
0
LINE
8
Black
10
201.788
20
-193.429
11
201.859
21
-193.286
0
LINE
8
Black
10
201.859
20
-193.286
11
202.002
21
-193.214
0
LINE
8
Black
10
202.002
20
-193.214
11
202.359
21
-193.214
0
LINE
8
Black
10
202.359
20
-193.214
11
202.502
21
-193.143
0
LINE
8
Black
10
203.002
20
-192.786
11
203.574
21
-192.786
0
LINE
8
Black
10
203.216
20
-192.286
11
203.216
21
-193.571
0
LINE
8
Black
10
203.216
20
-193.571
11
203.288
21
-193.714
0
LINE
8
Black
10
203.288
20
-193.714
11
203.431
21
-193.786
0
LINE
8
Black
10
203.431
20
-193.786
11
203.574
21
-193.786
0
LINE
8
Black
10
204.645
20
-193.714
11
204.502
21
-193.786
0
LINE
8
Black
10
204.502
20
-193.786
11
204.216
21
-193.786
0
LINE
8
Black
10
204.216
20
-193.786
11
204.074
21
-193.714
0
LINE
8
Black
10
204.074
20
-193.714
11
204.002
21
-193.571
0
LINE
8
Black
10
204.002
20
-193.571
11
204.002
21
-193
0
LINE
8
Black
10
204.002
20
-193
11
204.074
21
-192.857
0
LINE
8
Black
10
204.074
20
-192.857
11
204.216
21
-192.786
0
LINE
8
Black
10
204.216
20
-192.786
11
204.502
21
-192.786
0
LINE
8
Black
10
204.502
20
-192.786
11
204.645
21
-192.857
0
LINE
8
Black
10
204.645
20
-192.857
11
204.716
21
-193
0
LINE
8
Black
10
204.716
20
-193
11
204.716
21
-193.143
0
LINE
8
Black
10
204.716
20
-193.143
11
204.002
21
-193.286
0
LINE
8
Black
10
205.359
20
-193.643
11
205.431
21
-193.714
0
LINE
8
Black
10
205.431
20
-193.714
11
205.359
21
-193.786
0
LINE
8
Black
10
205.359
20
-193.786
11
205.288
21
-193.714
0
LINE
8
Black
10
205.288
20
-193.714
11
205.359
21
-193.643
0
LINE
8
Black
10
205.359
20
-193.643
11
205.359
21
-193.786
0
LINE
8
Black
10
205.359
20
-192.857
11
205.431
21
-192.929
0
LINE
8
Black
10
205.431
20
-192.929
11
205.359
21
-193
0
LINE
8
Black
10
205.359
20
-193
11
205.288
21
-192.929
0
LINE
8
Black
10
205.288
20
-192.929
11
205.359
21
-192.857
0
LINE
8
Black
10
205.359
20
-192.857
11
205.359
21
-193
0
LINE
8
Black
10
177.002
20
-194.507
11
285.002
21
-194.507
0
LINE
8
Black
10
178.359
20
-196.586
11
178.359
21
-195.086
0
LINE
8
Black
10
179.216
20
-196.586
11
178.574
21
-195.729
0
LINE
8
Black
10
179.216
20
-195.086
11
178.359
21
-195.943
0
LINE
8
Black
10
179.859
20
-196.586
11
179.859
21
-195.586
0
LINE
8
Black
10
179.859
20
-195.086
11
179.788
21
-195.157
0
LINE
8
Black
10
179.788
20
-195.157
11
179.859
21
-195.229
0
LINE
8
Black
10
179.859
20
-195.229
11
179.931
21
-195.157
0
LINE
8
Black
10
179.931
20
-195.157
11
179.859
21
-195.086
0
LINE
8
Black
10
179.859
20
-195.086
11
179.859
21
-195.229
0
LINE
8
Black
10
181.431
20
-196.443
11
181.359
21
-196.514
0
LINE
8
Black
10
181.359
20
-196.514
11
181.145
21
-196.586
0
LINE
8
Black
10
181.145
20
-196.586
11
181.002
21
-196.586
0
LINE
8
Black
10
181.002
20
-196.586
11
180.788
21
-196.514
0
LINE
8
Black
10
180.788
20
-196.514
11
180.645
21
-196.371
0
LINE
8
Black
10
180.645
20
-196.371
11
180.574
21
-196.229
0
LINE
8
Black
10
180.574
20
-196.229
11
180.502
21
-195.943
0
LINE
8
Black
10
180.502
20
-195.943
11
180.502
21
-195.729
0
LINE
8
Black
10
180.502
20
-195.729
11
180.574
21
-195.443
0
LINE
8
Black
10
180.574
20
-195.443
11
180.645
21
-195.3
0
LINE
8
Black
10
180.645
20
-195.3
11
180.788
21
-195.157
0
LINE
8
Black
10
180.788
20
-195.157
11
181.002
21
-195.086
0
LINE
8
Black
10
181.002
20
-195.086
11
181.145
21
-195.086
0
LINE
8
Black
10
181.145
20
-195.086
11
181.359
21
-195.157
0
LINE
8
Black
10
181.359
20
-195.157
11
181.431
21
-195.229
0
LINE
8
Black
10
182.716
20
-196.586
11
182.716
21
-195.8
0
LINE
8
Black
10
182.716
20
-195.8
11
182.645
21
-195.657
0
LINE
8
Black
10
182.645
20
-195.657
11
182.502
21
-195.586
0
LINE
8
Black
10
182.502
20
-195.586
11
182.216
21
-195.586
0
LINE
8
Black
10
182.216
20
-195.586
11
182.074
21
-195.657
0
LINE
8
Black
10
182.716
20
-196.514
11
182.574
21
-196.586
0
LINE
8
Black
10
182.574
20
-196.586
11
182.216
21
-196.586
0
LINE
8
Black
10
182.216
20
-196.586
11
182.074
21
-196.514
0
LINE
8
Black
10
182.074
20
-196.514
11
182.002
21
-196.371
0
LINE
8
Black
10
182.002
20
-196.371
11
182.002
21
-196.229
0
LINE
8
Black
10
182.002
20
-196.229
11
182.074
21
-196.086
0
LINE
8
Black
10
182.074
20
-196.086
11
182.216
21
-196.014
0
LINE
8
Black
10
182.216
20
-196.014
11
182.574
21
-196.014
0
LINE
8
Black
10
182.574
20
-196.014
11
182.716
21
-195.943
0
LINE
8
Black
10
184.074
20
-196.586
11
184.074
21
-195.086
0
LINE
8
Black
10
184.074
20
-196.514
11
183.931
21
-196.586
0
LINE
8
Black
10
183.931
20
-196.586
11
183.645
21
-196.586
0
LINE
8
Black
10
183.645
20
-196.586
11
183.502
21
-196.514
0
LINE
8
Black
10
183.502
20
-196.514
11
183.431
21
-196.443
0
LINE
8
Black
10
183.431
20
-196.443
11
183.359
21
-196.3
0
LINE
8
Black
10
183.359
20
-196.3
11
183.359
21
-195.871
0
LINE
8
Black
10
183.359
20
-195.871
11
183.431
21
-195.729
0
LINE
8
Black
10
183.431
20
-195.729
11
183.502
21
-195.657
0
LINE
8
Black
10
183.502
20
-195.657
11
183.645
21
-195.586
0
LINE
8
Black
10
183.645
20
-195.586
11
183.931
21
-195.586
0
LINE
8
Black
10
183.931
20
-195.586
11
184.074
21
-195.657
0
LINE
8
Black
10
185.931
20
-195.8
11
186.431
21
-195.8
0
LINE
8
Black
10
186.645
20
-196.586
11
185.931
21
-196.586
0
LINE
8
Black
10
185.931
20
-196.586
11
185.931
21
-195.086
0
LINE
8
Black
10
185.931
20
-195.086
11
186.645
21
-195.086
0
LINE
8
Black
10
187.288
20
-196.443
11
187.359
21
-196.514
0
LINE
8
Black
10
187.359
20
-196.514
11
187.288
21
-196.586
0
LINE
8
Black
10
187.288
20
-196.586
11
187.216
21
-196.514
0
LINE
8
Black
10
187.216
20
-196.514
11
187.288
21
-196.443
0
LINE
8
Black
10
187.288
20
-196.443
11
187.288
21
-196.586
0
LINE
8
Black
10
188.002
20
-196.586
11
188.002
21
-195.086
0
LINE
8
Black
10
188.002
20
-195.086
11
188.359
21
-195.086
0
LINE
8
Black
10
188.359
20
-195.086
11
188.574
21
-195.157
0
LINE
8
Black
10
188.574
20
-195.157
11
188.716
21
-195.3
0
LINE
8
Black
10
188.716
20
-195.3
11
188.788
21
-195.443
0
LINE
8
Black
10
188.788
20
-195.443
11
188.859
21
-195.729
0
LINE
8
Black
10
188.859
20
-195.729
11
188.859
21
-195.943
0
LINE
8
Black
10
188.859
20
-195.943
11
188.788
21
-196.229
0
LINE
8
Black
10
188.788
20
-196.229
11
188.716
21
-196.371
0
LINE
8
Black
10
188.716
20
-196.371
11
188.574
21
-196.514
0
LINE
8
Black
10
188.574
20
-196.514
11
188.359
21
-196.586
0
LINE
8
Black
10
188.359
20
-196.586
11
188.002
21
-196.586
0
LINE
8
Black
10
189.502
20
-196.443
11
189.574
21
-196.514
0
LINE
8
Black
10
189.574
20
-196.514
11
189.502
21
-196.586
0
LINE
8
Black
10
189.502
20
-196.586
11
189.431
21
-196.514
0
LINE
8
Black
10
189.431
20
-196.514
11
189.502
21
-196.443
0
LINE
8
Black
10
189.502
20
-196.443
11
189.502
21
-196.586
0
LINE
8
Black
10
190.145
20
-196.157
11
190.859
21
-196.157
0
LINE
8
Black
10
190.002
20
-196.586
11
190.502
21
-195.086
0
LINE
8
Black
10
190.502
20
-195.086
11
191.002
21
-196.586
0
LINE
8
Black
10
191.502
20
-196.443
11
191.574
21
-196.514
0
LINE
8
Black
10
191.574
20
-196.514
11
191.502
21
-196.586
0
LINE
8
Black
10
191.502
20
-196.586
11
191.431
21
-196.514
0
LINE
8
Black
10
191.431
20
-196.514
11
191.502
21
-196.443
0
LINE
8
Black
10
191.502
20
-196.443
11
191.502
21
-196.586
0
LINE
8
Black
10
194.502
20
-196.586
11
194.502
21
-195.086
0
LINE
8
Black
10
194.645
20
-196.014
11
195.074
21
-196.586
0
LINE
8
Black
10
195.074
20
-195.586
11
194.502
21
-196.157
0
LINE
8
Black
10
195.716
20
-196.586
11
195.716
21
-195.586
0
LINE
8
Black
10
195.716
20
-195.086
11
195.645
21
-195.157
0
LINE
8
Black
10
195.645
20
-195.157
11
195.716
21
-195.229
0
LINE
8
Black
10
195.716
20
-195.229
11
195.788
21
-195.157
0
LINE
8
Black
10
195.788
20
-195.157
11
195.716
21
-195.086
0
LINE
8
Black
10
195.716
20
-195.086
11
195.716
21
-195.229
0
LINE
8
Black
10
197.074
20
-196.514
11
196.931
21
-196.586
0
LINE
8
Black
10
196.931
20
-196.586
11
196.645
21
-196.586
0
LINE
8
Black
10
196.645
20
-196.586
11
196.502
21
-196.514
0
LINE
8
Black
10
196.502
20
-196.514
11
196.431
21
-196.443
0
LINE
8
Black
10
196.431
20
-196.443
11
196.359
21
-196.3
0
LINE
8
Black
10
196.359
20
-196.3
11
196.359
21
-195.871
0
LINE
8
Black
10
196.359
20
-195.871
11
196.431
21
-195.729
0
LINE
8
Black
10
196.431
20
-195.729
11
196.502
21
-195.657
0
LINE
8
Black
10
196.502
20
-195.657
11
196.645
21
-195.586
0
LINE
8
Black
10
196.645
20
-195.586
11
196.931
21
-195.586
0
LINE
8
Black
10
196.931
20
-195.586
11
197.074
21
-195.657
0
LINE
8
Black
10
198.359
20
-196.586
11
198.359
21
-195.8
0
LINE
8
Black
10
198.359
20
-195.8
11
198.288
21
-195.657
0
LINE
8
Black
10
198.288
20
-195.657
11
198.145
21
-195.586
0
LINE
8
Black
10
198.145
20
-195.586
11
197.859
21
-195.586
0
LINE
8
Black
10
197.859
20
-195.586
11
197.716
21
-195.657
0
LINE
8
Black
10
198.359
20
-196.514
11
198.216
21
-196.586
0
LINE
8
Black
10
198.216
20
-196.586
11
197.859
21
-196.586
0
LINE
8
Black
10
197.859
20
-196.586
11
197.716
21
-196.514
0
LINE
8
Black
10
197.716
20
-196.514
11
197.645
21
-196.371
0
LINE
8
Black
10
197.645
20
-196.371
11
197.645
21
-196.229
0
LINE
8
Black
10
197.645
20
-196.229
11
197.716
21
-196.086
0
LINE
8
Black
10
197.716
20
-196.086
11
197.859
21
-196.014
0
LINE
8
Black
10
197.859
20
-196.014
11
198.216
21
-196.014
0
LINE
8
Black
10
198.216
20
-196.014
11
198.359
21
-195.943
0
LINE
8
Black
10
199.716
20
-196.586
11
199.716
21
-195.086
0
LINE
8
Black
10
199.716
20
-196.514
11
199.574
21
-196.586
0
LINE
8
Black
10
199.574
20
-196.586
11
199.288
21
-196.586
0
LINE
8
Black
10
199.288
20
-196.586
11
199.145
21
-196.514
0
LINE
8
Black
10
199.145
20
-196.514
11
199.074
21
-196.443
0
LINE
8
Black
10
199.074
20
-196.443
11
199.002
21
-196.3
0
LINE
8
Black
10
199.002
20
-196.3
11
199.002
21
-195.871
0
LINE
8
Black
10
199.002
20
-195.871
11
199.074
21
-195.729
0
LINE
8
Black
10
199.074
20
-195.729
11
199.145
21
-195.657
0
LINE
8
Black
10
199.145
20
-195.657
11
199.288
21
-195.586
0
LINE
8
Black
10
199.288
20
-195.586
11
199.574
21
-195.586
0
LINE
8
Black
10
199.574
20
-195.586
11
199.716
21
-195.657
0
LINE
8
Black
10
202.216
20
-195.586
11
202.216
21
-196.586
0
LINE
8
Black
10
201.859
20
-195.014
11
201.502
21
-196.086
0
LINE
8
Black
10
201.502
20
-196.086
11
202.431
21
-196.086
0
LINE
8
Black
10
203.002
20
-196.443
11
203.074
21
-196.514
0
LINE
8
Black
10
203.074
20
-196.514
11
203.002
21
-196.586
0
LINE
8
Black
10
203.002
20
-196.586
11
202.931
21
-196.514
0
LINE
8
Black
10
202.931
20
-196.514
11
203.002
21
-196.443
0
LINE
8
Black
10
203.002
20
-196.443
11
203.002
21
-196.586
0
LINE
8
Black
10
204.002
20
-195.086
11
204.145
21
-195.086
0
LINE
8
Black
10
204.145
20
-195.086
11
204.288
21
-195.157
0
LINE
8
Black
10
204.288
20
-195.157
11
204.359
21
-195.229
0
LINE
8
Black
10
204.359
20
-195.229
11
204.431
21
-195.371
0
LINE
8
Black
10
204.431
20
-195.371
11
204.502
21
-195.657
0
LINE
8
Black
10
204.502
20
-195.657
11
204.502
21
-196.014
0
LINE
8
Black
10
204.502
20
-196.014
11
204.431
21
-196.3
0
LINE
8
Black
10
204.431
20
-196.3
11
204.359
21
-196.443
0
LINE
8
Black
10
204.359
20
-196.443
11
204.288
21
-196.514
0
LINE
8
Black
10
204.288
20
-196.514
11
204.145
21
-196.586
0
LINE
8
Black
10
204.145
20
-196.586
11
204.002
21
-196.586
0
LINE
8
Black
10
204.002
20
-196.586
11
203.859
21
-196.514
0
LINE
8
Black
10
203.859
20
-196.514
11
203.788
21
-196.443
0
LINE
8
Black
10
203.788
20
-196.443
11
203.716
21
-196.3
0
LINE
8
Black
10
203.716
20
-196.3
11
203.645
21
-196.014
0
LINE
8
Black
10
203.645
20
-196.014
11
203.645
21
-195.657
0
LINE
8
Black
10
203.645
20
-195.657
11
203.716
21
-195.371
0
LINE
8
Black
10
203.716
20
-195.371
11
203.788
21
-195.229
0
LINE
8
Black
10
203.788
20
-195.229
11
203.859
21
-195.157
0
LINE
8
Black
10
203.859
20
-195.157
11
204.002
21
-195.086
0
LINE
8
Black
10
205.145
20
-196.443
11
205.216
21
-196.514
0
LINE
8
Black
10
205.216
20
-196.514
11
205.145
21
-196.586
0
LINE
8
Black
10
205.145
20
-196.586
11
205.074
21
-196.514
0
LINE
8
Black
10
205.074
20
-196.514
11
205.145
21
-196.443
0
LINE
8
Black
10
205.145
20
-196.443
11
205.145
21
-196.586
0
LINE
8
Black
10
205.716
20
-195.086
11
206.716
21
-195.086
0
LINE
8
Black
10
206.716
20
-195.086
11
206.074
21
-196.586
0
LINE
8
Black
10
177.002
20
-191.507
11
285.002
21
-191.507
0
LINE
8
Black
10
264.216
20
-193.786
11
263.716
21
-193.071
0
LINE
8
Black
10
263.359
20
-193.786
11
263.359
21
-192.286
0
LINE
8
Black
10
263.359
20
-192.286
11
263.931
21
-192.286
0
LINE
8
Black
10
263.931
20
-192.286
11
264.074
21
-192.357
0
LINE
8
Black
10
264.074
20
-192.357
11
264.145
21
-192.429
0
LINE
8
Black
10
264.145
20
-192.429
11
264.216
21
-192.571
0
LINE
8
Black
10
264.216
20
-192.571
11
264.216
21
-192.786
0
LINE
8
Black
10
264.216
20
-192.786
11
264.145
21
-192.929
0
LINE
8
Black
10
264.145
20
-192.929
11
264.074
21
-193
0
LINE
8
Black
10
264.074
20
-193
11
263.931
21
-193.071
0
LINE
8
Black
10
263.931
20
-193.071
11
263.359
21
-193.071
0
LINE
8
Black
10
265.431
20
-193.714
11
265.288
21
-193.786
0
LINE
8
Black
10
265.288
20
-193.786
11
265.002
21
-193.786
0
LINE
8
Black
10
265.002
20
-193.786
11
264.859
21
-193.714
0
LINE
8
Black
10
264.859
20
-193.714
11
264.788
21
-193.571
0
LINE
8
Black
10
264.788
20
-193.571
11
264.788
21
-193
0
LINE
8
Black
10
264.788
20
-193
11
264.859
21
-192.857
0
LINE
8
Black
10
264.859
20
-192.857
11
265.002
21
-192.786
0
LINE
8
Black
10
265.002
20
-192.786
11
265.288
21
-192.786
0
LINE
8
Black
10
265.288
20
-192.786
11
265.431
21
-192.857
0
LINE
8
Black
10
265.431
20
-192.857
11
265.502
21
-193
0
LINE
8
Black
10
265.502
20
-193
11
265.502
21
-193.143
0
LINE
8
Black
10
265.502
20
-193.143
11
264.788
21
-193.286
0
LINE
8
Black
10
266.002
20
-192.786
11
266.359
21
-193.786
0
LINE
8
Black
10
266.359
20
-193.786
11
266.716
21
-192.786
0
LINE
8
Black
10
267.288
20
-193.643
11
267.359
21
-193.714
0
LINE
8
Black
10
267.359
20
-193.714
11
267.288
21
-193.786
0
LINE
8
Black
10
267.288
20
-193.786
11
267.216
21
-193.714
0
LINE
8
Black
10
267.216
20
-193.714
11
267.288
21
-193.643
0
LINE
8
Black
10
267.288
20
-193.643
11
267.288
21
-193.786
0
LINE
8
Black
10
267.288
20
-192.857
11
267.359
21
-192.929
0
LINE
8
Black
10
267.359
20
-192.929
11
267.288
21
-193
0
LINE
8
Black
10
267.288
20
-193
11
267.216
21
-192.929
0
LINE
8
Black
10
267.216
20
-192.929
11
267.288
21
-192.857
0
LINE
8
Black
10
267.288
20
-192.857
11
267.288
21
-193
0
LINE
8
Black
10
178.288
20
-193.714
11
178.502
21
-193.786
0
LINE
8
Black
10
178.502
20
-193.786
11
178.859
21
-193.786
0
LINE
8
Black
10
178.859
20
-193.786
11
179.002
21
-193.714
0
LINE
8
Black
10
179.002
20
-193.714
11
179.074
21
-193.643
0
LINE
8
Black
10
179.074
20
-193.643
11
179.145
21
-193.5
0
LINE
8
Black
10
179.145
20
-193.5
11
179.145
21
-193.357
0
LINE
8
Black
10
179.145
20
-193.357
11
179.074
21
-193.214
0
LINE
8
Black
10
179.074
20
-193.214
11
179.002
21
-193.143
0
LINE
8
Black
10
179.002
20
-193.143
11
178.859
21
-193.071
0
LINE
8
Black
10
178.859
20
-193.071
11
178.574
21
-193
0
LINE
8
Black
10
178.574
20
-193
11
178.431
21
-192.929
0
LINE
8
Black
10
178.431
20
-192.929
11
178.359
21
-192.857
0
LINE
8
Black
10
178.359
20
-192.857
11
178.288
21
-192.714
0
LINE
8
Black
10
178.288
20
-192.714
11
178.288
21
-192.571
0
LINE
8
Black
10
178.288
20
-192.571
11
178.359
21
-192.429
0
LINE
8
Black
10
178.359
20
-192.429
11
178.431
21
-192.357
0
LINE
8
Black
10
178.431
20
-192.357
11
178.574
21
-192.286
0
LINE
8
Black
10
178.574
20
-192.286
11
178.931
21
-192.286
0
LINE
8
Black
10
178.931
20
-192.286
11
179.145
21
-192.357
0
LINE
8
Black
10
179.788
20
-193.786
11
179.788
21
-192.786
0
LINE
8
Black
10
179.788
20
-192.286
11
179.716
21
-192.357
0
LINE
8
Black
10
179.716
20
-192.357
11
179.788
21
-192.429
0
LINE
8
Black
10
179.788
20
-192.429
11
179.859
21
-192.357
0
LINE
8
Black
10
179.859
20
-192.357
11
179.788
21
-192.286
0
LINE
8
Black
10
179.788
20
-192.286
11
179.788
21
-192.429
0
LINE
8
Black
10
180.359
20
-192.786
11
181.145
21
-192.786
0
LINE
8
Black
10
181.145
20
-192.786
11
180.359
21
-193.786
0
LINE
8
Black
10
180.359
20
-193.786
11
181.145
21
-193.786
0
LINE
8
Black
10
182.288
20
-193.714
11
182.145
21
-193.786
0
LINE
8
Black
10
182.145
20
-193.786
11
181.859
21
-193.786
0
LINE
8
Black
10
181.859
20
-193.786
11
181.716
21
-193.714
0
LINE
8
Black
10
181.716
20
-193.714
11
181.645
21
-193.571
0
LINE
8
Black
10
181.645
20
-193.571
11
181.645
21
-193
0
LINE
8
Black
10
181.645
20
-193
11
181.716
21
-192.857
0
LINE
8
Black
10
181.716
20
-192.857
11
181.859
21
-192.786
0
LINE
8
Black
10
181.859
20
-192.786
11
182.145
21
-192.786
0
LINE
8
Black
10
182.145
20
-192.786
11
182.288
21
-192.857
0
LINE
8
Black
10
182.288
20
-192.857
11
182.359
21
-193
0
LINE
8
Black
10
182.359
20
-193
11
182.359
21
-193.143
0
LINE
8
Black
10
182.359
20
-193.143
11
181.645
21
-193.286
0
LINE
8
Black
10
183.002
20
-193.643
11
183.074
21
-193.714
0
LINE
8
Black
10
183.074
20
-193.714
11
183.002
21
-193.786
0
LINE
8
Black
10
183.002
20
-193.786
11
182.931
21
-193.714
0
LINE
8
Black
10
182.931
20
-193.714
11
183.002
21
-193.643
0
LINE
8
Black
10
183.002
20
-193.643
11
183.002
21
-193.786
0
LINE
8
Black
10
183.002
20
-192.857
11
183.074
21
-192.929
0
LINE
8
Black
10
183.074
20
-192.929
11
183.002
21
-193
0
LINE
8
Black
10
183.002
20
-193
11
182.931
21
-192.929
0
LINE
8
Black
10
182.931
20
-192.929
11
183.002
21
-192.857
0
LINE
8
Black
10
183.002
20
-192.857
11
183.002
21
-193
0
LINE
8
Black
10
184.788
20
-193.357
11
185.502
21
-193.357
0
LINE
8
Black
10
184.645
20
-193.786
11
185.145
21
-192.286
0
LINE
8
Black
10
185.145
20
-192.286
11
185.645
21
-193.786
0
LINE
8
Black
10
186.788
20
-192.786
11
186.788
21
-193.786
0
LINE
8
Black
10
186.431
20
-192.214
11
186.074
21
-193.286
0
LINE
8
Black
10
186.074
20
-193.286
11
187.002
21
-193.286
0
LINE
8
Black
10
263.359
20
-196.586
11
263.359
21
-195.086
0
LINE
8
Black
10
264.716
20
-196.586
11
264.716
21
-195.086
0
LINE
8
Black
10
264.716
20
-196.514
11
264.574
21
-196.586
0
LINE
8
Black
10
264.574
20
-196.586
11
264.288
21
-196.586
0
LINE
8
Black
10
264.288
20
-196.586
11
264.145
21
-196.514
0
LINE
8
Black
10
264.145
20
-196.514
11
264.074
21
-196.443
0
LINE
8
Black
10
264.074
20
-196.443
11
264.002
21
-196.3
0
LINE
8
Black
10
264.002
20
-196.3
11
264.002
21
-195.871
0
LINE
8
Black
10
264.002
20
-195.871
11
264.074
21
-195.729
0
LINE
8
Black
10
264.074
20
-195.729
11
264.145
21
-195.657
0
LINE
8
Black
10
264.145
20
-195.657
11
264.288
21
-195.586
0
LINE
8
Black
10
264.288
20
-195.586
11
264.574
21
-195.586
0
LINE
8
Black
10
264.574
20
-195.586
11
264.716
21
-195.657
0
LINE
8
Black
10
265.431
20
-196.443
11
265.502
21
-196.514
0
LINE
8
Black
10
265.502
20
-196.514
11
265.431
21
-196.586
0
LINE
8
Black
10
265.431
20
-196.586
11
265.359
21
-196.514
0
LINE
8
Black
10
265.359
20
-196.514
11
265.431
21
-196.443
0
LINE
8
Black
10
265.431
20
-196.443
11
265.431
21
-196.586
0
LINE
8
Black
10
265.431
20
-195.657
11
265.502
21
-195.729
0
LINE
8
Black
10
265.502
20
-195.729
11
265.431
21
-195.8
0
LINE
8
Black
10
265.431
20
-195.8
11
265.359
21
-195.729
0
LINE
8
Black
10
265.359
20
-195.729
11
265.431
21
-195.657
0
LINE
8
Black
10
265.431
20
-195.657
11
265.431
21
-195.8
0
LINE
8
Black
10
268.074
20
-196.586
11
267.216
21
-196.586
0
LINE
8
Black
10
267.645
20
-196.586
11
267.645
21
-195.086
0
LINE
8
Black
10
267.645
20
-195.086
11
267.502
21
-195.3
0
LINE
8
Black
10
267.502
20
-195.3
11
267.359
21
-195.443
0
LINE
8
Black
10
267.359
20
-195.443
11
267.216
21
-195.514
0
LINE
8
Black
10
269.788
20
-195.014
11
268.502
21
-196.943
0
LINE
8
Black
10
271.074
20
-196.586
11
270.216
21
-196.586
0
LINE
8
Black
10
270.645
20
-196.586
11
270.645
21
-195.086
0
LINE
8
Black
10
270.645
20
-195.086
11
270.502
21
-195.3
0
LINE
8
Black
10
270.502
20
-195.3
11
270.359
21
-195.443
0
LINE
8
Black
10
270.359
20
-195.443
11
270.216
21
-195.514
0
LINE
8
Black
10
177.002
20
-187.507
11
285.002
21
-187.507
0
LINE
8
Black
10
178.455
20
-188.212
11
179.597
21
-188.212
0
LINE
8
Black
10
178.776
20
-190.212
11
179.026
21
-188.212
0
LINE
8
Black
10
180.014
20
-190.212
11
180.181
21
-188.879
0
LINE
8
Black
10
180.264
20
-188.212
11
180.157
21
-188.307
0
LINE
8
Black
10
180.157
20
-188.307
11
180.24
21
-188.402
0
LINE
8
Black
10
180.24
20
-188.402
11
180.347
21
-188.307
0
LINE
8
Black
10
180.347
20
-188.307
11
180.264
21
-188.212
0
LINE
8
Black
10
180.264
20
-188.212
11
180.24
21
-188.402
0
LINE
8
Black
10
180.847
20
-188.879
11
181.609
21
-188.879
0
LINE
8
Black
10
181.216
20
-188.212
11
181.002
21
-189.926
0
LINE
8
Black
10
181.002
20
-189.926
11
181.074
21
-190.117
0
LINE
8
Black
10
181.074
20
-190.117
11
181.252
21
-190.212
0
LINE
8
Black
10
181.252
20
-190.212
11
181.443
21
-190.212
0
LINE
8
Black
10
182.395
20
-190.212
11
182.216
21
-190.117
0
LINE
8
Black
10
182.216
20
-190.117
11
182.145
21
-189.926
0
LINE
8
Black
10
182.145
20
-189.926
11
182.359
21
-188.212
0
LINE
8
Black
10
183.931
20
-190.117
11
183.728
21
-190.212
0
LINE
8
Black
10
183.728
20
-190.212
11
183.347
21
-190.212
0
LINE
8
Black
10
183.347
20
-190.212
11
183.169
21
-190.117
0
LINE
8
Black
10
183.169
20
-190.117
11
183.097
21
-189.926
0
LINE
8
Black
10
183.097
20
-189.926
11
183.193
21
-189.164
0
LINE
8
Black
10
183.193
20
-189.164
11
183.312
21
-188.974
0
LINE
8
Black
10
183.312
20
-188.974
11
183.514
21
-188.879
0
LINE
8
Black
10
183.514
20
-188.879
11
183.895
21
-188.879
0
LINE
8
Black
10
183.895
20
-188.879
11
184.074
21
-188.974
0
LINE
8
Black
10
184.074
20
-188.974
11
184.145
21
-189.164
0
LINE
8
Black
10
184.145
20
-189.164
11
184.121
21
-189.355
0
LINE
8
Black
10
184.121
20
-189.355
11
183.145
21
-189.545
0
LINE
8
Black
10
184.895
20
-190.021
11
184.978
21
-190.117
0
LINE
8
Black
10
184.978
20
-190.117
11
184.871
21
-190.212
0
LINE
8
Black
10
184.871
20
-190.212
11
184.788
21
-190.117
0
LINE
8
Black
10
184.788
20
-190.117
11
184.895
21
-190.021
0
LINE
8
Black
10
184.895
20
-190.021
11
184.871
21
-190.212
0
LINE
8
Black
10
185.026
20
-188.974
11
185.109
21
-189.069
0
LINE
8
Black
10
185.109
20
-189.069
11
185.002
21
-189.164
0
LINE
8
Black
10
185.002
20
-189.164
11
184.919
21
-189.069
0
LINE
8
Black
10
184.919
20
-189.069
11
185.026
21
-188.974
0
LINE
8
Black
10
185.026
20
-188.974
11
185.002
21
-189.164
0
LINE
8
Black
10
178.859
20
-185.6
11
178.359
21
-185.6
0
LINE
8
Black
10
178.359
20
-186.386
11
178.359
21
-184.886
0
LINE
8
Black
10
178.359
20
-184.886
11
179.074
21
-184.886
0
LINE
8
Black
10
179.645
20
-186.386
11
179.645
21
-185.386
0
LINE
8
Black
10
179.645
20
-184.886
11
179.574
21
-184.957
0
LINE
8
Black
10
179.574
20
-184.957
11
179.645
21
-185.029
0
LINE
8
Black
10
179.645
20
-185.029
11
179.716
21
-184.957
0
LINE
8
Black
10
179.716
20
-184.957
11
179.645
21
-184.886
0
LINE
8
Black
10
179.645
20
-184.886
11
179.645
21
-185.029
0
LINE
8
Black
10
180.574
20
-186.386
11
180.431
21
-186.314
0
LINE
8
Black
10
180.431
20
-186.314
11
180.359
21
-186.171
0
LINE
8
Black
10
180.359
20
-186.171
11
180.359
21
-184.886
0
LINE
8
Black
10
181.716
20
-186.314
11
181.574
21
-186.386
0
LINE
8
Black
10
181.574
20
-186.386
11
181.288
21
-186.386
0
LINE
8
Black
10
181.288
20
-186.386
11
181.145
21
-186.314
0
LINE
8
Black
10
181.145
20
-186.314
11
181.074
21
-186.171
0
LINE
8
Black
10
181.074
20
-186.171
11
181.074
21
-185.6
0
LINE
8
Black
10
181.074
20
-185.6
11
181.145
21
-185.457
0
LINE
8
Black
10
181.145
20
-185.457
11
181.288
21
-185.386
0
LINE
8
Black
10
181.288
20
-185.386
11
181.574
21
-185.386
0
LINE
8
Black
10
181.574
20
-185.386
11
181.716
21
-185.457
0
LINE
8
Black
10
181.716
20
-185.457
11
181.788
21
-185.6
0
LINE
8
Black
10
181.788
20
-185.6
11
181.788
21
-185.743
0
LINE
8
Black
10
181.788
20
-185.743
11
181.074
21
-185.886
0
LINE
8
Black
10
182.431
20
-186.243
11
182.502
21
-186.314
0
LINE
8
Black
10
182.502
20
-186.314
11
182.431
21
-186.386
0
LINE
8
Black
10
182.431
20
-186.386
11
182.359
21
-186.314
0
LINE
8
Black
10
182.359
20
-186.314
11
182.431
21
-186.243
0
LINE
8
Black
10
182.431
20
-186.243
11
182.431
21
-186.386
0
LINE
8
Black
10
182.431
20
-185.457
11
182.502
21
-185.529
0
LINE
8
Black
10
182.502
20
-185.529
11
182.431
21
-185.6
0
LINE
8
Black
10
182.431
20
-185.6
11
182.359
21
-185.529
0
LINE
8
Black
10
182.359
20
-185.529
11
182.431
21
-185.457
0
LINE
8
Black
10
182.431
20
-185.457
11
182.431
21
-185.6
0
LINE
8
Black
10
184.502
20
-186.386
11
184.359
21
-186.314
0
LINE
8
Black
10
184.359
20
-186.314
11
184.288
21
-186.243
0
LINE
8
Black
10
184.288
20
-186.243
11
184.216
21
-186.1
0
LINE
8
Black
10
184.216
20
-186.1
11
184.216
21
-185.671
0
LINE
8
Black
10
184.216
20
-185.671
11
184.288
21
-185.529
0
LINE
8
Black
10
184.288
20
-185.529
11
184.359
21
-185.457
0
LINE
8
Black
10
184.359
20
-185.457
11
184.502
21
-185.386
0
LINE
8
Black
10
184.502
20
-185.386
11
184.716
21
-185.386
0
LINE
8
Black
10
184.716
20
-185.386
11
184.859
21
-185.457
0
LINE
8
Black
10
184.859
20
-185.457
11
184.931
21
-185.529
0
LINE
8
Black
10
184.931
20
-185.529
11
185.002
21
-185.671
0
LINE
8
Black
10
185.002
20
-185.671
11
185.002
21
-186.1
0
LINE
8
Black
10
185.002
20
-186.1
11
184.931
21
-186.243
0
LINE
8
Black
10
184.931
20
-186.243
11
184.859
21
-186.314
0
LINE
8
Black
10
184.859
20
-186.314
11
184.716
21
-186.386
0
LINE
8
Black
10
184.716
20
-186.386
11
184.502
21
-186.386
0
LINE
8
Black
10
185.431
20
-185.386
11
186.002
21
-185.386
0
LINE
8
Black
10
185.645
20
-184.886
11
185.645
21
-186.171
0
LINE
8
Black
10
185.645
20
-186.171
11
185.716
21
-186.314
0
LINE
8
Black
10
185.716
20
-186.314
11
185.859
21
-186.386
0
LINE
8
Black
10
185.859
20
-186.386
11
186.002
21
-186.386
0
LINE
8
Black
10
186.502
20
-186.386
11
186.502
21
-184.886
0
LINE
8
Black
10
187.145
20
-186.386
11
187.145
21
-185.6
0
LINE
8
Black
10
187.145
20
-185.6
11
187.074
21
-185.457
0
LINE
8
Black
10
187.074
20
-185.457
11
186.931
21
-185.386
0
LINE
8
Black
10
186.931
20
-185.386
11
186.716
21
-185.386
0
LINE
8
Black
10
186.716
20
-185.386
11
186.574
21
-185.457
0
LINE
8
Black
10
186.574
20
-185.457
11
186.502
21
-185.529
0
LINE
8
Black
10
188.431
20
-186.314
11
188.288
21
-186.386
0
LINE
8
Black
10
188.288
20
-186.386
11
188.002
21
-186.386
0
LINE
8
Black
10
188.002
20
-186.386
11
187.859
21
-186.314
0
LINE
8
Black
10
187.859
20
-186.314
11
187.788
21
-186.171
0
LINE
8
Black
10
187.788
20
-186.171
11
187.788
21
-185.6
0
LINE
8
Black
10
187.788
20
-185.6
11
187.859
21
-185.457
0
LINE
8
Black
10
187.859
20
-185.457
11
188.002
21
-185.386
0
LINE
8
Black
10
188.002
20
-185.386
11
188.288
21
-185.386
0
LINE
8
Black
10
188.288
20
-185.386
11
188.431
21
-185.457
0
LINE
8
Black
10
188.431
20
-185.457
11
188.502
21
-185.6
0
LINE
8
Black
10
188.502
20
-185.6
11
188.502
21
-185.743
0
LINE
8
Black
10
188.502
20
-185.743
11
187.788
21
-185.886
0
LINE
8
Black
10
189.145
20
-186.386
11
189.145
21
-185.386
0
LINE
8
Black
10
189.145
20
-185.671
11
189.216
21
-185.529
0
LINE
8
Black
10
189.216
20
-185.529
11
189.288
21
-185.457
0
LINE
8
Black
10
189.288
20
-185.457
11
189.431
21
-185.386
0
LINE
8
Black
10
189.431
20
-185.386
11
189.574
21
-185.386
0
LINE
8
Black
10
190.074
20
-186.386
11
190.074
21
-185.386
0
LINE
8
Black
10
190.074
20
-184.886
11
190.002
21
-184.957
0
LINE
8
Black
10
190.002
20
-184.957
11
190.074
21
-185.029
0
LINE
8
Black
10
190.074
20
-185.029
11
190.145
21
-184.957
0
LINE
8
Black
10
190.145
20
-184.957
11
190.074
21
-184.886
0
LINE
8
Black
10
190.074
20
-184.886
11
190.074
21
-185.029
0
LINE
8
Black
10
190.788
20
-185.386
11
190.788
21
-186.386
0
LINE
8
Black
10
190.788
20
-185.529
11
190.859
21
-185.457
0
LINE
8
Black
10
190.859
20
-185.457
11
191.002
21
-185.386
0
LINE
8
Black
10
191.002
20
-185.386
11
191.216
21
-185.386
0
LINE
8
Black
10
191.216
20
-185.386
11
191.359
21
-185.457
0
LINE
8
Black
10
191.359
20
-185.457
11
191.431
21
-185.6
0
LINE
8
Black
10
191.431
20
-185.6
11
191.431
21
-186.386
0
LINE
8
Black
10
192.788
20
-185.386
11
192.788
21
-186.6
0
LINE
8
Black
10
192.788
20
-186.6
11
192.716
21
-186.743
0
LINE
8
Black
10
192.716
20
-186.743
11
192.645
21
-186.814
0
LINE
8
Black
10
192.645
20
-186.814
11
192.502
21
-186.886
0
LINE
8
Black
10
192.502
20
-186.886
11
192.288
21
-186.886
0
LINE
8
Black
10
192.288
20
-186.886
11
192.145
21
-186.814
0
LINE
8
Black
10
192.788
20
-186.314
11
192.645
21
-186.386
0
LINE
8
Black
10
192.645
20
-186.386
11
192.359
21
-186.386
0
LINE
8
Black
10
192.359
20
-186.386
11
192.216
21
-186.314
0
LINE
8
Black
10
192.216
20
-186.314
11
192.145
21
-186.243
0
LINE
8
Black
10
192.145
20
-186.243
11
192.074
21
-186.1
0
LINE
8
Black
10
192.074
20
-186.1
11
192.074
21
-185.671
0
LINE
8
Black
10
192.074
20
-185.671
11
192.145
21
-185.529
0
LINE
8
Black
10
192.145
20
-185.529
11
192.216
21
-185.457
0
LINE
8
Black
10
192.216
20
-185.457
11
192.359
21
-185.386
0
LINE
8
Black
10
192.359
20
-185.386
11
192.645
21
-185.386
0
LINE
8
Black
10
192.645
20
-185.386
11
192.788
21
-185.457
0
LINE
8
Black
10
193.502
20
-186.386
11
193.502
21
-185.386
0
LINE
8
Black
10
193.502
20
-185.529
11
193.574
21
-185.457
0
LINE
8
Black
10
193.574
20
-185.457
11
193.716
21
-185.386
0
LINE
8
Black
10
193.716
20
-185.386
11
193.931
21
-185.386
0
LINE
8
Black
10
193.931
20
-185.386
11
194.074
21
-185.457
0
LINE
8
Black
10
194.074
20
-185.457
11
194.145
21
-185.6
0
LINE
8
Black
10
194.145
20
-185.6
11
194.145
21
-186.386
0
LINE
8
Black
10
194.145
20
-185.6
11
194.216
21
-185.457
0
LINE
8
Black
10
194.216
20
-185.457
11
194.359
21
-185.386
0
LINE
8
Black
10
194.359
20
-185.386
11
194.574
21
-185.386
0
LINE
8
Black
10
194.574
20
-185.386
11
194.716
21
-185.457
0
LINE
8
Black
10
194.716
20
-185.457
11
194.788
21
-185.6
0
LINE
8
Black
10
194.788
20
-185.6
11
194.788
21
-186.386
0
LINE
8
Black
10
196.145
20
-186.386
11
196.145
21
-185.6
0
LINE
8
Black
10
196.145
20
-185.6
11
196.074
21
-185.457
0
LINE
8
Black
10
196.074
20
-185.457
11
195.931
21
-185.386
0
LINE
8
Black
10
195.931
20
-185.386
11
195.645
21
-185.386
0
LINE
8
Black
10
195.645
20
-185.386
11
195.502
21
-185.457
0
LINE
8
Black
10
196.145
20
-186.314
11
196.002
21
-186.386
0
LINE
8
Black
10
196.002
20
-186.386
11
195.645
21
-186.386
0
LINE
8
Black
10
195.645
20
-186.386
11
195.502
21
-186.314
0
LINE
8
Black
10
195.502
20
-186.314
11
195.431
21
-186.171
0
LINE
8
Black
10
195.431
20
-186.171
11
195.431
21
-186.029
0
LINE
8
Black
10
195.431
20
-186.029
11
195.502
21
-185.886
0
LINE
8
Black
10
195.502
20
-185.886
11
195.645
21
-185.814
0
LINE
8
Black
10
195.645
20
-185.814
11
196.002
21
-185.814
0
LINE
8
Black
10
196.002
20
-185.814
11
196.145
21
-185.743
0
LINE
8
Black
10
197.502
20
-186.314
11
197.359
21
-186.386
0
LINE
8
Black
10
197.359
20
-186.386
11
197.074
21
-186.386
0
LINE
8
Black
10
197.074
20
-186.386
11
196.931
21
-186.314
0
LINE
8
Black
10
196.931
20
-186.314
11
196.859
21
-186.243
0
LINE
8
Black
10
196.859
20
-186.243
11
196.788
21
-186.1
0
LINE
8
Black
10
196.788
20
-186.1
11
196.788
21
-185.671
0
LINE
8
Black
10
196.788
20
-185.671
11
196.859
21
-185.529
0
LINE
8
Black
10
196.859
20
-185.529
11
196.931
21
-185.457
0
LINE
8
Black
10
196.931
20
-185.457
11
197.074
21
-185.386
0
LINE
8
Black
10
197.074
20
-185.386
11
197.359
21
-185.386
0
LINE
8
Black
10
197.359
20
-185.386
11
197.502
21
-185.457
0
LINE
8
Black
10
198.145
20
-186.386
11
198.145
21
-184.886
0
LINE
8
Black
10
198.788
20
-186.386
11
198.788
21
-185.6
0
LINE
8
Black
10
198.788
20
-185.6
11
198.716
21
-185.457
0
LINE
8
Black
10
198.716
20
-185.457
11
198.574
21
-185.386
0
LINE
8
Black
10
198.574
20
-185.386
11
198.359
21
-185.386
0
LINE
8
Black
10
198.359
20
-185.386
11
198.216
21
-185.457
0
LINE
8
Black
10
198.216
20
-185.457
11
198.145
21
-185.529
0
LINE
8
Black
10
199.502
20
-186.386
11
199.502
21
-185.386
0
LINE
8
Black
10
199.502
20
-184.886
11
199.431
21
-184.957
0
LINE
8
Black
10
199.431
20
-184.957
11
199.502
21
-185.029
0
LINE
8
Black
10
199.502
20
-185.029
11
199.574
21
-184.957
0
LINE
8
Black
10
199.574
20
-184.957
11
199.502
21
-184.886
0
LINE
8
Black
10
199.502
20
-184.886
11
199.502
21
-185.029
0
LINE
8
Black
10
200.216
20
-185.386
11
200.216
21
-186.386
0
LINE
8
Black
10
200.216
20
-185.529
11
200.288
21
-185.457
0
LINE
8
Black
10
200.288
20
-185.457
11
200.431
21
-185.386
0
LINE
8
Black
10
200.431
20
-185.386
11
200.645
21
-185.386
0
LINE
8
Black
10
200.645
20
-185.386
11
200.788
21
-185.457
0
LINE
8
Black
10
200.788
20
-185.457
11
200.859
21
-185.6
0
LINE
8
Black
10
200.859
20
-185.6
11
200.859
21
-186.386
0
LINE
8
Black
10
202.145
20
-186.314
11
202.002
21
-186.386
0
LINE
8
Black
10
202.002
20
-186.386
11
201.716
21
-186.386
0
LINE
8
Black
10
201.716
20
-186.386
11
201.574
21
-186.314
0
LINE
8
Black
10
201.574
20
-186.314
11
201.502
21
-186.171
0
LINE
8
Black
10
201.502
20
-186.171
11
201.502
21
-185.6
0
LINE
8
Black
10
201.502
20
-185.6
11
201.574
21
-185.457
0
LINE
8
Black
10
201.574
20
-185.457
11
201.716
21
-185.386
0
LINE
8
Black
10
201.716
20
-185.386
11
202.002
21
-185.386
0
LINE
8
Black
10
202.002
20
-185.386
11
202.145
21
-185.457
0
LINE
8
Black
10
202.145
20
-185.457
11
202.216
21
-185.6
0
LINE
8
Black
10
202.216
20
-185.6
11
202.216
21
-185.743
0
LINE
8
Black
10
202.216
20
-185.743
11
201.502
21
-185.886
0
LINE
8
Black
10
202.788
20
-186.314
11
202.931
21
-186.386
0
LINE
8
Black
10
202.931
20
-186.386
11
203.216
21
-186.386
0
LINE
8
Black
10
203.216
20
-186.386
11
203.359
21
-186.314
0
LINE
8
Black
10
203.359
20
-186.314
11
203.431
21
-186.171
0
LINE
8
Black
10
203.431
20
-186.171
11
203.431
21
-186.1
0
LINE
8
Black
10
203.431
20
-186.1
11
203.359
21
-185.957
0
LINE
8
Black
10
203.359
20
-185.957
11
203.216
21
-185.886
0
LINE
8
Black
10
203.216
20
-185.886
11
203.002
21
-185.886
0
LINE
8
Black
10
203.002
20
-185.886
11
202.859
21
-185.814
0
LINE
8
Black
10
202.859
20
-185.814
11
202.788
21
-185.671
0
LINE
8
Black
10
202.788
20
-185.671
11
202.788
21
-185.6
0
LINE
8
Black
10
202.788
20
-185.6
11
202.859
21
-185.457
0
LINE
8
Black
10
202.859
20
-185.457
11
203.002
21
-185.386
0
LINE
8
Black
10
203.002
20
-185.386
11
203.216
21
-185.386
0
LINE
8
Black
10
203.216
20
-185.386
11
203.359
21
-185.457
0
LINE
8
Black
10
204.359
20
-184.886
11
204.502
21
-184.886
0
LINE
8
Black
10
204.502
20
-184.886
11
204.645
21
-184.957
0
LINE
8
Black
10
204.645
20
-184.957
11
204.716
21
-185.029
0
LINE
8
Black
10
204.716
20
-185.029
11
204.788
21
-185.171
0
LINE
8
Black
10
204.788
20
-185.171
11
204.859
21
-185.457
0
LINE
8
Black
10
204.859
20
-185.457
11
204.859
21
-185.814
0
LINE
8
Black
10
204.859
20
-185.814
11
204.788
21
-186.1
0
LINE
8
Black
10
204.788
20
-186.1
11
204.716
21
-186.243
0
LINE
8
Black
10
204.716
20
-186.243
11
204.645
21
-186.314
0
LINE
8
Black
10
204.645
20
-186.314
11
204.502
21
-186.386
0
LINE
8
Black
10
204.502
20
-186.386
11
204.359
21
-186.386
0
LINE
8
Black
10
204.359
20
-186.386
11
204.216
21
-186.314
0
LINE
8
Black
10
204.216
20
-186.314
11
204.145
21
-186.243
0
LINE
8
Black
10
204.145
20
-186.243
11
204.074
21
-186.1
0
LINE
8
Black
10
204.074
20
-186.1
11
204.002
21
-185.814
0
LINE
8
Black
10
204.002
20
-185.814
11
204.002
21
-185.457
0
LINE
8
Black
10
204.002
20
-185.457
11
204.074
21
-185.171
0
LINE
8
Black
10
204.074
20
-185.171
11
204.145
21
-185.029
0
LINE
8
Black
10
204.145
20
-185.029
11
204.216
21
-184.957
0
LINE
8
Black
10
204.216
20
-184.957
11
204.359
21
-184.886
0
LINE
8
Black
10
205.431
20
-185.029
11
205.502
21
-184.957
0
LINE
8
Black
10
205.502
20
-184.957
11
205.645
21
-184.886
0
LINE
8
Black
10
205.645
20
-184.886
11
206.002
21
-184.886
0
LINE
8
Black
10
206.002
20
-184.886
11
206.145
21
-184.957
0
LINE
8
Black
10
206.145
20
-184.957
11
206.216
21
-185.029
0
LINE
8
Black
10
206.216
20
-185.029
11
206.288
21
-185.171
0
LINE
8
Black
10
206.288
20
-185.171
11
206.288
21
-185.314
0
LINE
8
Black
10
206.288
20
-185.314
11
206.216
21
-185.529
0
LINE
8
Black
10
206.216
20
-185.529
11
205.359
21
-186.386
0
LINE
8
Black
10
205.359
20
-186.386
11
206.288
21
-186.386
0
LINE
8
Black
10
207.574
20
-186.314
11
207.431
21
-186.386
0
LINE
8
Black
10
207.431
20
-186.386
11
207.145
21
-186.386
0
LINE
8
Black
10
207.145
20
-186.386
11
207.002
21
-186.314
0
LINE
8
Black
10
207.002
20
-186.314
11
206.931
21
-186.243
0
LINE
8
Black
10
206.931
20
-186.243
11
206.859
21
-186.1
0
LINE
8
Black
10
206.859
20
-186.1
11
206.859
21
-185.671
0
LINE
8
Black
10
206.859
20
-185.671
11
206.931
21
-185.529
0
LINE
8
Black
10
206.931
20
-185.529
11
207.002
21
-185.457
0
LINE
8
Black
10
207.002
20
-185.457
11
207.145
21
-185.386
0
LINE
8
Black
10
207.145
20
-185.386
11
207.431
21
-185.386
0
LINE
8
Black
10
207.431
20
-185.386
11
207.574
21
-185.457
0
LINE
8
Black
10
208.216
20
-186.243
11
208.288
21
-186.314
0
LINE
8
Black
10
208.288
20
-186.314
11
208.216
21
-186.386
0
LINE
8
Black
10
208.216
20
-186.386
11
208.145
21
-186.314
0
LINE
8
Black
10
208.145
20
-186.314
11
208.216
21
-186.243
0
LINE
8
Black
10
208.216
20
-186.243
11
208.216
21
-186.386
0
LINE
8
Black
10
208.931
20
-186.386
11
208.931
21
-184.886
0
LINE
8
Black
10
209.074
20
-185.814
11
209.502
21
-186.386
0
LINE
8
Black
10
209.502
20
-185.386
11
208.931
21
-185.957
0
LINE
8
Black
10
210.145
20
-186.386
11
210.145
21
-185.386
0
LINE
8
Black
10
210.145
20
-184.886
11
210.074
21
-184.957
0
LINE
8
Black
10
210.074
20
-184.957
11
210.145
21
-185.029
0
LINE
8
Black
10
210.145
20
-185.029
11
210.216
21
-184.957
0
LINE
8
Black
10
210.216
20
-184.957
11
210.145
21
-184.886
0
LINE
8
Black
10
210.145
20
-184.886
11
210.145
21
-185.029
0
LINE
8
Black
10
211.502
20
-186.314
11
211.359
21
-186.386
0
LINE
8
Black
10
211.359
20
-186.386
11
211.074
21
-186.386
0
LINE
8
Black
10
211.074
20
-186.386
11
210.931
21
-186.314
0
LINE
8
Black
10
210.931
20
-186.314
11
210.859
21
-186.243
0
LINE
8
Black
10
210.859
20
-186.243
11
210.788
21
-186.1
0
LINE
8
Black
10
210.788
20
-186.1
11
210.788
21
-185.671
0
LINE
8
Black
10
210.788
20
-185.671
11
210.859
21
-185.529
0
LINE
8
Black
10
210.859
20
-185.529
11
210.931
21
-185.457
0
LINE
8
Black
10
210.931
20
-185.457
11
211.074
21
-185.386
0
LINE
8
Black
10
211.074
20
-185.386
11
211.359
21
-185.386
0
LINE
8
Black
10
211.359
20
-185.386
11
211.502
21
-185.457
0
LINE
8
Black
10
212.788
20
-186.386
11
212.788
21
-185.6
0
LINE
8
Black
10
212.788
20
-185.6
11
212.716
21
-185.457
0
LINE
8
Black
10
212.716
20
-185.457
11
212.574
21
-185.386
0
LINE
8
Black
10
212.574
20
-185.386
11
212.288
21
-185.386
0
LINE
8
Black
10
212.288
20
-185.386
11
212.145
21
-185.457
0
LINE
8
Black
10
212.788
20
-186.314
11
212.645
21
-186.386
0
LINE
8
Black
10
212.645
20
-186.386
11
212.288
21
-186.386
0
LINE
8
Black
10
212.288
20
-186.386
11
212.145
21
-186.314
0
LINE
8
Black
10
212.145
20
-186.314
11
212.074
21
-186.171
0
LINE
8
Black
10
212.074
20
-186.171
11
212.074
21
-186.029
0
LINE
8
Black
10
212.074
20
-186.029
11
212.145
21
-185.886
0
LINE
8
Black
10
212.145
20
-185.886
11
212.288
21
-185.814
0
LINE
8
Black
10
212.288
20
-185.814
11
212.645
21
-185.814
0
LINE
8
Black
10
212.645
20
-185.814
11
212.788
21
-185.743
0
LINE
8
Black
10
214.145
20
-186.386
11
214.145
21
-184.886
0
LINE
8
Black
10
214.145
20
-186.314
11
214.002
21
-186.386
0
LINE
8
Black
10
214.002
20
-186.386
11
213.716
21
-186.386
0
LINE
8
Black
10
213.716
20
-186.386
11
213.574
21
-186.314
0
LINE
8
Black
10
213.574
20
-186.314
11
213.502
21
-186.243
0
LINE
8
Black
10
213.502
20
-186.243
11
213.431
21
-186.1
0
LINE
8
Black
10
213.431
20
-186.1
11
213.431
21
-185.671
0
LINE
8
Black
10
213.431
20
-185.671
11
213.502
21
-185.529
0
LINE
8
Black
10
213.502
20
-185.529
11
213.574
21
-185.457
0
LINE
8
Black
10
213.574
20
-185.457
11
213.716
21
-185.386
0
LINE
8
Black
10
213.716
20
-185.386
11
214.002
21
-185.386
0
LINE
8
Black
10
214.002
20
-185.386
11
214.145
21
-185.457
0
LINE
8
Black
10
214.502
20
-186.529
11
215.645
21
-186.529
0
LINE
8
Black
10
216.002
20
-185.386
11
216.002
21
-186.886
0
LINE
8
Black
10
216.002
20
-185.457
11
216.145
21
-185.386
0
LINE
8
Black
10
216.145
20
-185.386
11
216.431
21
-185.386
0
LINE
8
Black
10
216.431
20
-185.386
11
216.574
21
-185.457
0
LINE
8
Black
10
216.574
20
-185.457
11
216.645
21
-185.529
0
LINE
8
Black
10
216.645
20
-185.529
11
216.716
21
-185.671
0
LINE
8
Black
10
216.716
20
-185.671
11
216.716
21
-186.1
0
LINE
8
Black
10
216.716
20
-186.1
11
216.645
21
-186.243
0
LINE
8
Black
10
216.645
20
-186.243
11
216.574
21
-186.314
0
LINE
8
Black
10
216.574
20
-186.314
11
216.431
21
-186.386
0
LINE
8
Black
10
216.431
20
-186.386
11
216.145
21
-186.386
0
LINE
8
Black
10
216.145
20
-186.386
11
216.002
21
-186.314
0
LINE
8
Black
10
218.002
20
-186.314
11
217.859
21
-186.386
0
LINE
8
Black
10
217.859
20
-186.386
11
217.574
21
-186.386
0
LINE
8
Black
10
217.574
20
-186.386
11
217.431
21
-186.314
0
LINE
8
Black
10
217.431
20
-186.314
11
217.359
21
-186.243
0
LINE
8
Black
10
217.359
20
-186.243
11
217.288
21
-186.1
0
LINE
8
Black
10
217.288
20
-186.1
11
217.288
21
-185.671
0
LINE
8
Black
10
217.288
20
-185.671
11
217.359
21
-185.529
0
LINE
8
Black
10
217.359
20
-185.529
11
217.431
21
-185.457
0
LINE
8
Black
10
217.431
20
-185.457
11
217.574
21
-185.386
0
LINE
8
Black
10
217.574
20
-185.386
11
217.859
21
-185.386
0
LINE
8
Black
10
217.859
20
-185.386
11
218.002
21
-185.457
0
LINE
8
Black
10
218.645
20
-186.386
11
218.645
21
-184.886
0
LINE
8
Black
10
218.645
20
-185.457
11
218.788
21
-185.386
0
LINE
8
Black
10
218.788
20
-185.386
11
219.074
21
-185.386
0
LINE
8
Black
10
219.074
20
-185.386
11
219.216
21
-185.457
0
LINE
8
Black
10
219.216
20
-185.457
11
219.288
21
-185.529
0
LINE
8
Black
10
219.288
20
-185.529
11
219.359
21
-185.671
0
LINE
8
Black
10
219.359
20
-185.671
11
219.359
21
-186.1
0
LINE
8
Black
10
219.359
20
-186.1
11
219.288
21
-186.243
0
LINE
8
Black
10
219.288
20
-186.243
11
219.216
21
-186.314
0
LINE
8
Black
10
219.216
20
-186.314
11
219.074
21
-186.386
0
LINE
8
Black
10
219.074
20
-186.386
11
218.788
21
-186.386
0
LINE
8
Black
10
218.788
20
-186.386
11
218.645
21
-186.314
0
LINE
8
Black
10
177.002
20
-181.507
11
285.002
21
-181.507
0
LINE
8
Black
10
178.288
20
-183.614
11
178.502
21
-183.686
0
LINE
8
Black
10
178.502
20
-183.686
11
178.859
21
-183.686
0
LINE
8
Black
10
178.859
20
-183.686
11
179.002
21
-183.614
0
LINE
8
Black
10
179.002
20
-183.614
11
179.074
21
-183.543
0
LINE
8
Black
10
179.074
20
-183.543
11
179.145
21
-183.4
0
LINE
8
Black
10
179.145
20
-183.4
11
179.145
21
-183.257
0
LINE
8
Black
10
179.145
20
-183.257
11
179.074
21
-183.114
0
LINE
8
Black
10
179.074
20
-183.114
11
179.002
21
-183.043
0
LINE
8
Black
10
179.002
20
-183.043
11
178.859
21
-182.971
0
LINE
8
Black
10
178.859
20
-182.971
11
178.574
21
-182.9
0
LINE
8
Black
10
178.574
20
-182.9
11
178.431
21
-182.829
0
LINE
8
Black
10
178.431
20
-182.829
11
178.359
21
-182.757
0
LINE
8
Black
10
178.359
20
-182.757
11
178.288
21
-182.614
0
LINE
8
Black
10
178.288
20
-182.614
11
178.288
21
-182.471
0
LINE
8
Black
10
178.288
20
-182.471
11
178.359
21
-182.329
0
LINE
8
Black
10
178.359
20
-182.329
11
178.431
21
-182.257
0
LINE
8
Black
10
178.431
20
-182.257
11
178.574
21
-182.186
0
LINE
8
Black
10
178.574
20
-182.186
11
178.931
21
-182.186
0
LINE
8
Black
10
178.931
20
-182.186
11
179.145
21
-182.257
0
LINE
8
Black
10
179.788
20
-183.686
11
179.788
21
-182.186
0
LINE
8
Black
10
180.431
20
-183.686
11
180.431
21
-182.9
0
LINE
8
Black
10
180.431
20
-182.9
11
180.359
21
-182.757
0
LINE
8
Black
10
180.359
20
-182.757
11
180.216
21
-182.686
0
LINE
8
Black
10
180.216
20
-182.686
11
180.002
21
-182.686
0
LINE
8
Black
10
180.002
20
-182.686
11
179.859
21
-182.757
0
LINE
8
Black
10
179.859
20
-182.757
11
179.788
21
-182.829
0
LINE
8
Black
10
181.716
20
-183.614
11
181.574
21
-183.686
0
LINE
8
Black
10
181.574
20
-183.686
11
181.288
21
-183.686
0
LINE
8
Black
10
181.288
20
-183.686
11
181.145
21
-183.614
0
LINE
8
Black
10
181.145
20
-183.614
11
181.074
21
-183.471
0
LINE
8
Black
10
181.074
20
-183.471
11
181.074
21
-182.9
0
LINE
8
Black
10
181.074
20
-182.9
11
181.145
21
-182.757
0
LINE
8
Black
10
181.145
20
-182.757
11
181.288
21
-182.686
0
LINE
8
Black
10
181.288
20
-182.686
11
181.574
21
-182.686
0
LINE
8
Black
10
181.574
20
-182.686
11
181.716
21
-182.757
0
LINE
8
Black
10
181.716
20
-182.757
11
181.788
21
-182.9
0
LINE
8
Black
10
181.788
20
-182.9
11
181.788
21
-183.043
0
LINE
8
Black
10
181.788
20
-183.043
11
181.074
21
-183.186
0
LINE
8
Black
10
183.002
20
-183.614
11
182.859
21
-183.686
0
LINE
8
Black
10
182.859
20
-183.686
11
182.574
21
-183.686
0
LINE
8
Black
10
182.574
20
-183.686
11
182.431
21
-183.614
0
LINE
8
Black
10
182.431
20
-183.614
11
182.359
21
-183.471
0
LINE
8
Black
10
182.359
20
-183.471
11
182.359
21
-182.9
0
LINE
8
Black
10
182.359
20
-182.9
11
182.431
21
-182.757
0
LINE
8
Black
10
182.431
20
-182.757
11
182.574
21
-182.686
0
LINE
8
Black
10
182.574
20
-182.686
11
182.859
21
-182.686
0
LINE
8
Black
10
182.859
20
-182.686
11
183.002
21
-182.757
0
LINE
8
Black
10
183.002
20
-182.757
11
183.074
21
-182.9
0
LINE
8
Black
10
183.074
20
-182.9
11
183.074
21
-183.043
0
LINE
8
Black
10
183.074
20
-183.043
11
182.359
21
-183.186
0
LINE
8
Black
10
183.502
20
-182.686
11
184.074
21
-182.686
0
LINE
8
Black
10
183.716
20
-182.186
11
183.716
21
-183.471
0
LINE
8
Black
10
183.716
20
-183.471
11
183.788
21
-183.614
0
LINE
8
Black
10
183.788
20
-183.614
11
183.931
21
-183.686
0
LINE
8
Black
10
183.931
20
-183.686
11
184.074
21
-183.686
0
LINE
8
Black
10
184.574
20
-183.543
11
184.645
21
-183.614
0
LINE
8
Black
10
184.645
20
-183.614
11
184.574
21
-183.686
0
LINE
8
Black
10
184.574
20
-183.686
11
184.502
21
-183.614
0
LINE
8
Black
10
184.502
20
-183.614
11
184.574
21
-183.543
0
LINE
8
Black
10
184.574
20
-183.543
11
184.574
21
-183.686
0
LINE
8
Black
10
184.574
20
-182.757
11
184.645
21
-182.829
0
LINE
8
Black
10
184.645
20
-182.829
11
184.574
21
-182.9
0
LINE
8
Black
10
184.574
20
-182.9
11
184.502
21
-182.829
0
LINE
8
Black
10
184.502
20
-182.829
11
184.574
21
-182.757
0
LINE
8
Black
10
184.574
20
-182.757
11
184.574
21
-182.9
0
LINE
8
Black
10
197.002
20
-191.507
11
197.002
21
-194.507
0
LINE
8
Black
10
261.002
20
-191.507
11
261.002
21
-198.007
0
LINE
8
Black
10
173.039
20
-119.332
11
165.037
21
-126.046
0
LINE
8
Black
10
165.037
20
-126.046
11
155.222
21
-129.618
0
LINE
8
Black
10
155.222
20
-129.618
11
144.778
21
-129.618
0
LINE
8
Black
10
144.778
20
-129.618
11
134.963
21
-126.046
0
LINE
8
Black
10
134.963
20
-126.046
11
126.961
21
-119.332
0
LINE
8
Black
10
126.961
20
-119.332
11
121.739
21
-110.286
0
LINE
8
Black
10
121.739
20
-110.286
11
119.925
21
-100
0
LINE
8
Black
10
119.925
20
-100
11
121.739
21
-89.7137
0
LINE
8
Black
10
121.739
20
-89.7137
11
126.961
21
-80.6682
0
LINE
8
Black
10
126.961
20
-80.6682
11
134.963
21
-73.9543
0
LINE
8
Black
10
134.963
20
-73.9543
11
144.778
21
-70.3819
0
LINE
8
Black
10
144.778
20
-70.3819
11
155.222
21
-70.3819
0
LINE
8
Black
10
155.222
20
-70.3819
11
165.037
21
-73.9543
0
LINE
8
Black
10
165.037
20
-73.9543
11
173.039
21
-80.6682
0
LINE
8
Black
10
173.039
20
-80.6682
11
178.261
21
-89.7137
0
LINE
8
Black
10
178.261
20
-89.7137
11
180.075
21
-100
0
LINE
8
Black
10
180.075
20
-100
11
178.261
21
-110.286
0
LINE
8
Black
10
178.261
20
-110.286
11
173.039
21
-119.332
0
LINE
8
Black
10
172.924
20
-80.7646
11
164.963
21
-74.0842
0
LINE
8
Black
10
164.963
20
-74.0842
11
155.196
21
-70.5296
0
LINE
8
Black
10
155.196
20
-70.5296
11
144.804
21
-70.5296
0
LINE
8
Black
10
144.804
20
-70.5296
11
135.037
21
-74.0842
0
LINE
8
Black
10
135.037
20
-74.0842
11
127.076
21
-80.7646
0
LINE
8
Black
10
127.076
20
-80.7646
11
121.88
21
-89.765
0
LINE
8
Black
10
121.88
20
-89.765
11
120.075
21
-100
0
LINE
8
Black
10
120.075
20
-100
11
121.88
21
-110.235
0
LINE
8
Black
10
121.88
20
-110.235
11
127.076
21
-119.235
0
LINE
8
Black
10
127.076
20
-119.235
11
135.037
21
-125.916
0
LINE
8
Black
10
135.037
20
-125.916
11
144.804
21
-129.47
0
LINE
8
Black
10
144.804
20
-129.47
11
155.196
21
-129.47
0
LINE
8
Black
10
155.196
20
-129.47
11
164.963
21
-125.916
0
LINE
8
Black
10
164.963
20
-125.916
11
172.924
21
-119.235
0
LINE
8
Black
10
172.924
20
-119.235
11
178.12
21
-110.235
0
LINE
8
Black
10
178.12
20
-110.235
11
179.925
21
-100
0
LINE
8
Black
10
179.925
20
-100
11
178.12
21
-89.765
0
LINE
8
Black
10
178.12
20
-89.765
11
172.924
21
-80.7646
  0
ENDSEC
  0
EOF
