  0
SECTION
  2
HEADER
  9
$ANGBASE
  50
0.0
  9
$ANGDIR
  70
  1
  9
$MEASUREMENT
  70
0
  0
ENDSEC
  0
SECTION
  2
TABLES
  0
TABLE
  2
LTYPE
  70
1
  0
LTYPE
  2
CONTINUOUS
  70
0
  3
Solid line
  72
65
  73
0
  40
0.0
  0
ENDTAB
  0
TABLE
  2
STYLE
  70
4
  0
STYLE
  2
KICAD
  70
0
  40
0
  41
1
  42
1
  50
0
  71
0
  3
isocp.shx
  0
STYLE
  2
KICADB
  70
0
  40
0
  41
1
  42
1
  50
0
  71
0
  3
isocp.shx
  0
STYLE
  2
KICADI
  70
0
  40
0
  41
1
  42
1
  50
15
  71
0
  3
isocp.shx
  0
STYLE
  2
KICADBI
  70
0
  40
0
  41
1
  42
1
  50
15
  71
0
  3
isocp.shx
  0
ENDTAB
  0
TABLE
  2
LAYER
  70
30
  0
LAYER
  2
BLACK
  70
0
  62
7
  6
CONTINUOUS
  0
LAYER
  2
GRAY1
  70
0
  62
251
  6
CONTINUOUS
  0
LAYER
  2
GRAY2
  70
0
  62
8
  6
CONTINUOUS
  0
LAYER
  2
GRAY3
  70
0
  62
9
  6
CONTINUOUS
  0
LAYER
  2
WHITE
  70
0
  62
7
  6
CONTINUOUS
  0
LAYER
  2
LYELLOW
  70
0
  62
51
  6
CONTINUOUS
  0
LAYER
  2
BLUE1
  70
0
  62
178
  6
CONTINUOUS
  0
LAYER
  2
GREEN1
  70
0
  62
98
  6
CONTINUOUS
  0
LAYER
  2
CYAN1
  70
0
  62
138
  6
CONTINUOUS
  0
LAYER
  2
RED1
  70
0
  62
18
  6
CONTINUOUS
  0
LAYER
  2
MAGENTA1
  70
0
  62
228
  6
CONTINUOUS
  0
LAYER
  2
BROWN1
  70
0
  62
58
  6
CONTINUOUS
  0
LAYER
  2
BLUE2
  70
0
  62
5
  6
CONTINUOUS
  0
LAYER
  2
GREEN2
  70
0
  62
3
  6
CONTINUOUS
  0
LAYER
  2
CYAN2
  70
0
  62
4
  6
CONTINUOUS
  0
LAYER
  2
RED2
  70
0
  62
1
  6
CONTINUOUS
  0
LAYER
  2
MAGENTA2
  70
0
  62
6
  6
CONTINUOUS
  0
LAYER
  2
BROWN2
  70
0
  62
54
  6
CONTINUOUS
  0
LAYER
  2
BLUE3
  70
0
  62
171
  6
CONTINUOUS
  0
LAYER
  2
GREEN3
  70
0
  62
91
  6
CONTINUOUS
  0
LAYER
  2
CYAN3
  70
0
  62
131
  6
CONTINUOUS
  0
LAYER
  2
RED3
  70
0
  62
11
  6
CONTINUOUS
  0
LAYER
  2
MAGENTA3
  70
0
  62
221
  6
CONTINUOUS
  0
LAYER
  2
YELLOW3
  70
0
  62
2
  6
CONTINUOUS
  0
LAYER
  2
BLUE4
  70
0
  62
5
  6
CONTINUOUS
  0
LAYER
  2
GREEN4
  70
0
  62
3
  6
CONTINUOUS
  0
LAYER
  2
CYAN4
  70
0
  62
4
  6
CONTINUOUS
  0
LAYER
  2
RED4
  70
0
  62
1
  6
CONTINUOUS
  0
LAYER
  2
MAGENTA4
  70
0
  62
6
  6
CONTINUOUS
  0
LAYER
  2
YELLOW4
  70
0
  62
2
  6
CONTINUOUS
  0
ENDTAB
  0
ENDSEC
  0
SECTION
  2
ENTITIES
0
LINE
8
Black
10
177.002
20
-166.007
11
177.002
21
-198.007
0
LINE
8
Black
10
177.002
20
-198.007
11
285.002
21
-198.007
0
LINE
8
Black
10
285.002
20
-198.007
11
285.002
21
-166.007
0
LINE
8
Black
10
285.002
20
-166.007
11
177.002
21
-166.007
0
LINE
8
Black
10
10
20
-10
11
10
21
-200.007
0
LINE
8
Black
10
10
20
-200.007
11
287.002
21
-200.007
0
LINE
8
Black
10
287.002
20
-200.007
11
287.002
21
-10
0
LINE
8
Black
10
287.002
20
-10
11
10
21
-10
0
LINE
8
Black
10
12
20
-12
11
12
21
-198.007
0
LINE
8
Black
10
12
20
-198.007
11
285.002
21
-198.007
0
LINE
8
Black
10
285.002
20
-198.007
11
285.002
21
-12
0
LINE
8
Black
10
285.002
20
-12
11
12
21
-12
0
LINE
8
Black
10
60
20
-12
11
60
21
-10
0
LINE
8
Black
10
110
20
-12
11
110
21
-10
0
LINE
8
Black
10
160
20
-12
11
160
21
-10
0
LINE
8
Black
10
210
20
-12
11
210
21
-10
0
LINE
8
Black
10
260
20
-12
11
260
21
-10
0
LINE
8
Black
10
35.9905
20
-11.5881
11
35.2476
21
-11.5881
0
LINE
8
Black
10
35.619
20
-11.5881
11
35.619
21
-10.2881
0
LINE
8
Black
10
35.619
20
-10.2881
11
35.4952
21
-10.4738
0
LINE
8
Black
10
35.4952
20
-10.4738
11
35.3714
21
-10.5976
0
LINE
8
Black
10
35.3714
20
-10.5976
11
35.2476
21
-10.6595
0
LINE
8
Black
10
85.2476
20
-10.4119
11
85.3095
21
-10.35
0
LINE
8
Black
10
85.3095
20
-10.35
11
85.4333
21
-10.2881
0
LINE
8
Black
10
85.4333
20
-10.2881
11
85.7429
21
-10.2881
0
LINE
8
Black
10
85.7429
20
-10.2881
11
85.8667
21
-10.35
0
LINE
8
Black
10
85.8667
20
-10.35
11
85.9286
21
-10.4119
0
LINE
8
Black
10
85.9286
20
-10.4119
11
85.9905
21
-10.5357
0
LINE
8
Black
10
85.9905
20
-10.5357
11
85.9905
21
-10.6595
0
LINE
8
Black
10
85.9905
20
-10.6595
11
85.9286
21
-10.8452
0
LINE
8
Black
10
85.9286
20
-10.8452
11
85.1857
21
-11.5881
0
LINE
8
Black
10
85.1857
20
-11.5881
11
85.9905
21
-11.5881
0
LINE
8
Black
10
135.186
20
-10.2881
11
135.99
21
-10.2881
0
LINE
8
Black
10
135.99
20
-10.2881
11
135.557
21
-10.7833
0
LINE
8
Black
10
135.557
20
-10.7833
11
135.743
21
-10.7833
0
LINE
8
Black
10
135.743
20
-10.7833
11
135.867
21
-10.8452
0
LINE
8
Black
10
135.867
20
-10.8452
11
135.929
21
-10.9071
0
LINE
8
Black
10
135.929
20
-10.9071
11
135.99
21
-11.031
0
LINE
8
Black
10
135.99
20
-11.031
11
135.99
21
-11.3405
0
LINE
8
Black
10
135.99
20
-11.3405
11
135.929
21
-11.4643
0
LINE
8
Black
10
135.929
20
-11.4643
11
135.867
21
-11.5262
0
LINE
8
Black
10
135.867
20
-11.5262
11
135.743
21
-11.5881
0
LINE
8
Black
10
135.743
20
-11.5881
11
135.371
21
-11.5881
0
LINE
8
Black
10
135.371
20
-11.5881
11
135.248
21
-11.5262
0
LINE
8
Black
10
135.248
20
-11.5262
11
135.186
21
-11.4643
0
LINE
8
Black
10
185.867
20
-10.7214
11
185.867
21
-11.5881
0
LINE
8
Black
10
185.557
20
-10.2262
11
185.248
21
-11.1548
0
LINE
8
Black
10
185.248
20
-11.1548
11
186.052
21
-11.1548
0
LINE
8
Black
10
235.929
20
-10.2881
11
235.31
21
-10.2881
0
LINE
8
Black
10
235.31
20
-10.2881
11
235.248
21
-10.9071
0
LINE
8
Black
10
235.248
20
-10.9071
11
235.31
21
-10.8452
0
LINE
8
Black
10
235.31
20
-10.8452
11
235.433
21
-10.7833
0
LINE
8
Black
10
235.433
20
-10.7833
11
235.743
21
-10.7833
0
LINE
8
Black
10
235.743
20
-10.7833
11
235.867
21
-10.8452
0
LINE
8
Black
10
235.867
20
-10.8452
11
235.929
21
-10.9071
0
LINE
8
Black
10
235.929
20
-10.9071
11
235.99
21
-11.031
0
LINE
8
Black
10
235.99
20
-11.031
11
235.99
21
-11.3405
0
LINE
8
Black
10
235.99
20
-11.3405
11
235.929
21
-11.4643
0
LINE
8
Black
10
235.929
20
-11.4643
11
235.867
21
-11.5262
0
LINE
8
Black
10
235.867
20
-11.5262
11
235.743
21
-11.5881
0
LINE
8
Black
10
235.743
20
-11.5881
11
235.433
21
-11.5881
0
LINE
8
Black
10
235.433
20
-11.5881
11
235.31
21
-11.5262
0
LINE
8
Black
10
235.31
20
-11.5262
11
235.248
21
-11.4643
0
LINE
8
Black
10
285.867
20
-10.2881
11
285.619
21
-10.2881
0
LINE
8
Black
10
285.619
20
-10.2881
11
285.495
21
-10.35
0
LINE
8
Black
10
285.495
20
-10.35
11
285.433
21
-10.4119
0
LINE
8
Black
10
285.433
20
-10.4119
11
285.31
21
-10.5976
0
LINE
8
Black
10
285.31
20
-10.5976
11
285.248
21
-10.8452
0
LINE
8
Black
10
285.248
20
-10.8452
11
285.248
21
-11.3405
0
LINE
8
Black
10
285.248
20
-11.3405
11
285.31
21
-11.4643
0
LINE
8
Black
10
285.31
20
-11.4643
11
285.371
21
-11.5262
0
LINE
8
Black
10
285.371
20
-11.5262
11
285.495
21
-11.5881
0
LINE
8
Black
10
285.495
20
-11.5881
11
285.743
21
-11.5881
0
LINE
8
Black
10
285.743
20
-11.5881
11
285.867
21
-11.5262
0
LINE
8
Black
10
285.867
20
-11.5262
11
285.929
21
-11.4643
0
LINE
8
Black
10
285.929
20
-11.4643
11
285.99
21
-11.3405
0
LINE
8
Black
10
285.99
20
-11.3405
11
285.99
21
-11.031
0
LINE
8
Black
10
285.99
20
-11.031
11
285.929
21
-10.9071
0
LINE
8
Black
10
285.929
20
-10.9071
11
285.867
21
-10.8452
0
LINE
8
Black
10
285.867
20
-10.8452
11
285.743
21
-10.7833
0
LINE
8
Black
10
285.743
20
-10.7833
11
285.495
21
-10.7833
0
LINE
8
Black
10
285.495
20
-10.7833
11
285.371
21
-10.8452
0
LINE
8
Black
10
285.371
20
-10.8452
11
285.31
21
-10.9071
0
LINE
8
Black
10
285.31
20
-10.9071
11
285.248
21
-11.031
0
LINE
8
Black
10
60
20
-198.007
11
60
21
-200.007
0
LINE
8
Black
10
110
20
-198.007
11
110
21
-200.007
0
LINE
8
Black
10
160
20
-198.007
11
160
21
-200.007
0
LINE
8
Black
10
210
20
-198.007
11
210
21
-200.007
0
LINE
8
Black
10
260
20
-198.007
11
260
21
-200.007
0
LINE
8
Black
10
35.9905
20
-199.595
11
35.2476
21
-199.595
0
LINE
8
Black
10
35.619
20
-199.595
11
35.619
21
-198.295
0
LINE
8
Black
10
35.619
20
-198.295
11
35.4952
21
-198.481
0
LINE
8
Black
10
35.4952
20
-198.481
11
35.3714
21
-198.605
0
LINE
8
Black
10
35.3714
20
-198.605
11
35.2476
21
-198.667
0
LINE
8
Black
10
85.2476
20
-198.419
11
85.3095
21
-198.357
0
LINE
8
Black
10
85.3095
20
-198.357
11
85.4333
21
-198.295
0
LINE
8
Black
10
85.4333
20
-198.295
11
85.7429
21
-198.295
0
LINE
8
Black
10
85.7429
20
-198.295
11
85.8667
21
-198.357
0
LINE
8
Black
10
85.8667
20
-198.357
11
85.9286
21
-198.419
0
LINE
8
Black
10
85.9286
20
-198.419
11
85.9905
21
-198.543
0
LINE
8
Black
10
85.9905
20
-198.543
11
85.9905
21
-198.667
0
LINE
8
Black
10
85.9905
20
-198.667
11
85.9286
21
-198.852
0
LINE
8
Black
10
85.9286
20
-198.852
11
85.1857
21
-199.595
0
LINE
8
Black
10
85.1857
20
-199.595
11
85.9905
21
-199.595
0
LINE
8
Black
10
135.186
20
-198.295
11
135.99
21
-198.295
0
LINE
8
Black
10
135.99
20
-198.295
11
135.557
21
-198.791
0
LINE
8
Black
10
135.557
20
-198.791
11
135.743
21
-198.791
0
LINE
8
Black
10
135.743
20
-198.791
11
135.867
21
-198.852
0
LINE
8
Black
10
135.867
20
-198.852
11
135.929
21
-198.914
0
LINE
8
Black
10
135.929
20
-198.914
11
135.99
21
-199.038
0
LINE
8
Black
10
135.99
20
-199.038
11
135.99
21
-199.348
0
LINE
8
Black
10
135.99
20
-199.348
11
135.929
21
-199.471
0
LINE
8
Black
10
135.929
20
-199.471
11
135.867
21
-199.533
0
LINE
8
Black
10
135.867
20
-199.533
11
135.743
21
-199.595
0
LINE
8
Black
10
135.743
20
-199.595
11
135.371
21
-199.595
0
LINE
8
Black
10
135.371
20
-199.595
11
135.248
21
-199.533
0
LINE
8
Black
10
135.248
20
-199.533
11
135.186
21
-199.471
0
LINE
8
Black
10
185.867
20
-198.729
11
185.867
21
-199.595
0
LINE
8
Black
10
185.557
20
-198.233
11
185.248
21
-199.162
0
LINE
8
Black
10
185.248
20
-199.162
11
186.052
21
-199.162
0
LINE
8
Black
10
235.929
20
-198.295
11
235.31
21
-198.295
0
LINE
8
Black
10
235.31
20
-198.295
11
235.248
21
-198.914
0
LINE
8
Black
10
235.248
20
-198.914
11
235.31
21
-198.852
0
LINE
8
Black
10
235.31
20
-198.852
11
235.433
21
-198.791
0
LINE
8
Black
10
235.433
20
-198.791
11
235.743
21
-198.791
0
LINE
8
Black
10
235.743
20
-198.791
11
235.867
21
-198.852
0
LINE
8
Black
10
235.867
20
-198.852
11
235.929
21
-198.914
0
LINE
8
Black
10
235.929
20
-198.914
11
235.99
21
-199.038
0
LINE
8
Black
10
235.99
20
-199.038
11
235.99
21
-199.348
0
LINE
8
Black
10
235.99
20
-199.348
11
235.929
21
-199.471
0
LINE
8
Black
10
235.929
20
-199.471
11
235.867
21
-199.533
0
LINE
8
Black
10
235.867
20
-199.533
11
235.743
21
-199.595
0
LINE
8
Black
10
235.743
20
-199.595
11
235.433
21
-199.595
0
LINE
8
Black
10
235.433
20
-199.595
11
235.31
21
-199.533
0
LINE
8
Black
10
235.31
20
-199.533
11
235.248
21
-199.471
0
LINE
8
Black
10
285.867
20
-198.295
11
285.619
21
-198.295
0
LINE
8
Black
10
285.619
20
-198.295
11
285.495
21
-198.357
0
LINE
8
Black
10
285.495
20
-198.357
11
285.433
21
-198.419
0
LINE
8
Black
10
285.433
20
-198.419
11
285.31
21
-198.605
0
LINE
8
Black
10
285.31
20
-198.605
11
285.248
21
-198.852
0
LINE
8
Black
10
285.248
20
-198.852
11
285.248
21
-199.348
0
LINE
8
Black
10
285.248
20
-199.348
11
285.31
21
-199.471
0
LINE
8
Black
10
285.31
20
-199.471
11
285.371
21
-199.533
0
LINE
8
Black
10
285.371
20
-199.533
11
285.495
21
-199.595
0
LINE
8
Black
10
285.495
20
-199.595
11
285.743
21
-199.595
0
LINE
8
Black
10
285.743
20
-199.595
11
285.867
21
-199.533
0
LINE
8
Black
10
285.867
20
-199.533
11
285.929
21
-199.471
0
LINE
8
Black
10
285.929
20
-199.471
11
285.99
21
-199.348
0
LINE
8
Black
10
285.99
20
-199.348
11
285.99
21
-199.038
0
LINE
8
Black
10
285.99
20
-199.038
11
285.929
21
-198.914
0
LINE
8
Black
10
285.929
20
-198.914
11
285.867
21
-198.852
0
LINE
8
Black
10
285.867
20
-198.852
11
285.743
21
-198.791
0
LINE
8
Black
10
285.743
20
-198.791
11
285.495
21
-198.791
0
LINE
8
Black
10
285.495
20
-198.791
11
285.371
21
-198.852
0
LINE
8
Black
10
285.371
20
-198.852
11
285.31
21
-198.914
0
LINE
8
Black
10
285.31
20
-198.914
11
285.248
21
-199.038
0
LINE
8
Black
10
10
20
-60
11
12
21
-60
0
LINE
8
Black
10
10
20
-110
11
12
21
-110
0
LINE
8
Black
10
10
20
-160
11
12
21
-160
0
LINE
8
Black
10
10.6905
20
-35.2167
11
11.3095
21
-35.2167
0
LINE
8
Black
10
10.5667
20
-35.5881
11
11
21
-34.2881
0
LINE
8
Black
10
11
20
-34.2881
11
11.4333
21
-35.5881
0
LINE
8
Black
10
11.0929
20
-84.9071
11
11.2786
21
-84.969
0
LINE
8
Black
10
11.2786
20
-84.969
11
11.3405
21
-85.031
0
LINE
8
Black
10
11.3405
20
-85.031
11
11.4024
21
-85.1548
0
LINE
8
Black
10
11.4024
20
-85.1548
11
11.4024
21
-85.3405
0
LINE
8
Black
10
11.4024
20
-85.3405
11
11.3405
21
-85.4643
0
LINE
8
Black
10
11.3405
20
-85.4643
11
11.2786
21
-85.5262
0
LINE
8
Black
10
11.2786
20
-85.5262
11
11.1548
21
-85.5881
0
LINE
8
Black
10
11.1548
20
-85.5881
11
10.6595
21
-85.5881
0
LINE
8
Black
10
10.6595
20
-85.5881
11
10.6595
21
-84.2881
0
LINE
8
Black
10
10.6595
20
-84.2881
11
11.0929
21
-84.2881
0
LINE
8
Black
10
11.0929
20
-84.2881
11
11.2167
21
-84.35
0
LINE
8
Black
10
11.2167
20
-84.35
11
11.2786
21
-84.4119
0
LINE
8
Black
10
11.2786
20
-84.4119
11
11.3405
21
-84.5357
0
LINE
8
Black
10
11.3405
20
-84.5357
11
11.3405
21
-84.6595
0
LINE
8
Black
10
11.3405
20
-84.6595
11
11.2786
21
-84.7833
0
LINE
8
Black
10
11.2786
20
-84.7833
11
11.2167
21
-84.8452
0
LINE
8
Black
10
11.2167
20
-84.8452
11
11.0929
21
-84.9071
0
LINE
8
Black
10
11.0929
20
-84.9071
11
10.6595
21
-84.9071
0
LINE
8
Black
10
11.4024
20
-135.464
11
11.3405
21
-135.526
0
LINE
8
Black
10
11.3405
20
-135.526
11
11.1548
21
-135.588
0
LINE
8
Black
10
11.1548
20
-135.588
11
11.031
21
-135.588
0
LINE
8
Black
10
11.031
20
-135.588
11
10.8452
21
-135.526
0
LINE
8
Black
10
10.8452
20
-135.526
11
10.7214
21
-135.402
0
LINE
8
Black
10
10.7214
20
-135.402
11
10.6595
21
-135.279
0
LINE
8
Black
10
10.6595
20
-135.279
11
10.5976
21
-135.031
0
LINE
8
Black
10
10.5976
20
-135.031
11
10.5976
21
-134.845
0
LINE
8
Black
10
10.5976
20
-134.845
11
10.6595
21
-134.598
0
LINE
8
Black
10
10.6595
20
-134.598
11
10.7214
21
-134.474
0
LINE
8
Black
10
10.7214
20
-134.474
11
10.8452
21
-134.35
0
LINE
8
Black
10
10.8452
20
-134.35
11
11.031
21
-134.288
0
LINE
8
Black
10
11.031
20
-134.288
11
11.1548
21
-134.288
0
LINE
8
Black
10
11.1548
20
-134.288
11
11.3405
21
-134.35
0
LINE
8
Black
10
11.3405
20
-134.35
11
11.4024
21
-134.412
0
LINE
8
Black
10
10.6595
20
-185.588
11
10.6595
21
-184.288
0
LINE
8
Black
10
10.6595
20
-184.288
11
10.969
21
-184.288
0
LINE
8
Black
10
10.969
20
-184.288
11
11.1548
21
-184.35
0
LINE
8
Black
10
11.1548
20
-184.35
11
11.2786
21
-184.474
0
LINE
8
Black
10
11.2786
20
-184.474
11
11.3405
21
-184.598
0
LINE
8
Black
10
11.3405
20
-184.598
11
11.4024
21
-184.845
0
LINE
8
Black
10
11.4024
20
-184.845
11
11.4024
21
-185.031
0
LINE
8
Black
10
11.4024
20
-185.031
11
11.3405
21
-185.279
0
LINE
8
Black
10
11.3405
20
-185.279
11
11.2786
21
-185.402
0
LINE
8
Black
10
11.2786
20
-185.402
11
11.1548
21
-185.526
0
LINE
8
Black
10
11.1548
20
-185.526
11
10.969
21
-185.588
0
LINE
8
Black
10
10.969
20
-185.588
11
10.6595
21
-185.588
0
LINE
8
Black
10
287.002
20
-60
11
285.002
21
-60
0
LINE
8
Black
10
287.002
20
-110
11
285.002
21
-110
0
LINE
8
Black
10
287.002
20
-160
11
285.002
21
-160
0
LINE
8
Black
10
285.693
20
-35.2167
11
286.312
21
-35.2167
0
LINE
8
Black
10
285.569
20
-35.5881
11
286.002
21
-34.2881
0
LINE
8
Black
10
286.002
20
-34.2881
11
286.436
21
-35.5881
0
LINE
8
Black
10
286.095
20
-84.9071
11
286.281
21
-84.969
0
LINE
8
Black
10
286.281
20
-84.969
11
286.343
21
-85.031
0
LINE
8
Black
10
286.343
20
-85.031
11
286.405
21
-85.1548
0
LINE
8
Black
10
286.405
20
-85.1548
11
286.405
21
-85.3405
0
LINE
8
Black
10
286.405
20
-85.3405
11
286.343
21
-85.4643
0
LINE
8
Black
10
286.343
20
-85.4643
11
286.281
21
-85.5262
0
LINE
8
Black
10
286.281
20
-85.5262
11
286.157
21
-85.5881
0
LINE
8
Black
10
286.157
20
-85.5881
11
285.662
21
-85.5881
0
LINE
8
Black
10
285.662
20
-85.5881
11
285.662
21
-84.2881
0
LINE
8
Black
10
285.662
20
-84.2881
11
286.095
21
-84.2881
0
LINE
8
Black
10
286.095
20
-84.2881
11
286.219
21
-84.35
0
LINE
8
Black
10
286.219
20
-84.35
11
286.281
21
-84.4119
0
LINE
8
Black
10
286.281
20
-84.4119
11
286.343
21
-84.5357
0
LINE
8
Black
10
286.343
20
-84.5357
11
286.343
21
-84.6595
0
LINE
8
Black
10
286.343
20
-84.6595
11
286.281
21
-84.7833
0
LINE
8
Black
10
286.281
20
-84.7833
11
286.219
21
-84.8452
0
LINE
8
Black
10
286.219
20
-84.8452
11
286.095
21
-84.9071
0
LINE
8
Black
10
286.095
20
-84.9071
11
285.662
21
-84.9071
0
LINE
8
Black
10
286.405
20
-135.464
11
286.343
21
-135.526
0
LINE
8
Black
10
286.343
20
-135.526
11
286.157
21
-135.588
0
LINE
8
Black
10
286.157
20
-135.588
11
286.033
21
-135.588
0
LINE
8
Black
10
286.033
20
-135.588
11
285.847
21
-135.526
0
LINE
8
Black
10
285.847
20
-135.526
11
285.724
21
-135.402
0
LINE
8
Black
10
285.724
20
-135.402
11
285.662
21
-135.279
0
LINE
8
Black
10
285.662
20
-135.279
11
285.6
21
-135.031
0
LINE
8
Black
10
285.6
20
-135.031
11
285.6
21
-134.845
0
LINE
8
Black
10
285.6
20
-134.845
11
285.662
21
-134.598
0
LINE
8
Black
10
285.662
20
-134.598
11
285.724
21
-134.474
0
LINE
8
Black
10
285.724
20
-134.474
11
285.847
21
-134.35
0
LINE
8
Black
10
285.847
20
-134.35
11
286.033
21
-134.288
0
LINE
8
Black
10
286.033
20
-134.288
11
286.157
21
-134.288
0
LINE
8
Black
10
286.157
20
-134.288
11
286.343
21
-134.35
0
LINE
8
Black
10
286.343
20
-134.35
11
286.405
21
-134.412
0
LINE
8
Black
10
285.662
20
-185.588
11
285.662
21
-184.288
0
LINE
8
Black
10
285.662
20
-184.288
11
285.971
21
-184.288
0
LINE
8
Black
10
285.971
20
-184.288
11
286.157
21
-184.35
0
LINE
8
Black
10
286.157
20
-184.35
11
286.281
21
-184.474
0
LINE
8
Black
10
286.281
20
-184.474
11
286.343
21
-184.598
0
LINE
8
Black
10
286.343
20
-184.598
11
286.405
21
-184.845
0
LINE
8
Black
10
286.405
20
-184.845
11
286.405
21
-185.031
0
LINE
8
Black
10
286.405
20
-185.031
11
286.343
21
-185.279
0
LINE
8
Black
10
286.343
20
-185.279
11
286.281
21
-185.402
0
LINE
8
Black
10
286.281
20
-185.402
11
286.157
21
-185.526
0
LINE
8
Black
10
286.157
20
-185.526
11
285.971
21
-185.588
0
LINE
8
Black
10
285.971
20
-185.588
11
285.662
21
-185.588
0
LINE
8
Black
10
200.359
20
-193.786
11
200.359
21
-192.286
0
LINE
8
Black
10
200.359
20
-192.286
11
200.716
21
-192.286
0
LINE
8
Black
10
200.716
20
-192.286
11
200.931
21
-192.357
0
LINE
8
Black
10
200.931
20
-192.357
11
201.074
21
-192.5
0
LINE
8
Black
10
201.074
20
-192.5
11
201.145
21
-192.643
0
LINE
8
Black
10
201.145
20
-192.643
11
201.216
21
-192.929
0
LINE
8
Black
10
201.216
20
-192.929
11
201.216
21
-193.143
0
LINE
8
Black
10
201.216
20
-193.143
11
201.145
21
-193.429
0
LINE
8
Black
10
201.145
20
-193.429
11
201.074
21
-193.571
0
LINE
8
Black
10
201.074
20
-193.571
11
200.931
21
-193.714
0
LINE
8
Black
10
200.931
20
-193.714
11
200.716
21
-193.786
0
LINE
8
Black
10
200.716
20
-193.786
11
200.359
21
-193.786
0
LINE
8
Black
10
202.502
20
-193.786
11
202.502
21
-193
0
LINE
8
Black
10
202.502
20
-193
11
202.431
21
-192.857
0
LINE
8
Black
10
202.431
20
-192.857
11
202.288
21
-192.786
0
LINE
8
Black
10
202.288
20
-192.786
11
202.002
21
-192.786
0
LINE
8
Black
10
202.002
20
-192.786
11
201.859
21
-192.857
0
LINE
8
Black
10
202.502
20
-193.714
11
202.359
21
-193.786
0
LINE
8
Black
10
202.359
20
-193.786
11
202.002
21
-193.786
0
LINE
8
Black
10
202.002
20
-193.786
11
201.859
21
-193.714
0
LINE
8
Black
10
201.859
20
-193.714
11
201.788
21
-193.571
0
LINE
8
Black
10
201.788
20
-193.571
11
201.788
21
-193.429
0
LINE
8
Black
10
201.788
20
-193.429
11
201.859
21
-193.286
0
LINE
8
Black
10
201.859
20
-193.286
11
202.002
21
-193.214
0
LINE
8
Black
10
202.002
20
-193.214
11
202.359
21
-193.214
0
LINE
8
Black
10
202.359
20
-193.214
11
202.502
21
-193.143
0
LINE
8
Black
10
203.002
20
-192.786
11
203.574
21
-192.786
0
LINE
8
Black
10
203.216
20
-192.286
11
203.216
21
-193.571
0
LINE
8
Black
10
203.216
20
-193.571
11
203.288
21
-193.714
0
LINE
8
Black
10
203.288
20
-193.714
11
203.431
21
-193.786
0
LINE
8
Black
10
203.431
20
-193.786
11
203.574
21
-193.786
0
LINE
8
Black
10
204.645
20
-193.714
11
204.502
21
-193.786
0
LINE
8
Black
10
204.502
20
-193.786
11
204.216
21
-193.786
0
LINE
8
Black
10
204.216
20
-193.786
11
204.074
21
-193.714
0
LINE
8
Black
10
204.074
20
-193.714
11
204.002
21
-193.571
0
LINE
8
Black
10
204.002
20
-193.571
11
204.002
21
-193
0
LINE
8
Black
10
204.002
20
-193
11
204.074
21
-192.857
0
LINE
8
Black
10
204.074
20
-192.857
11
204.216
21
-192.786
0
LINE
8
Black
10
204.216
20
-192.786
11
204.502
21
-192.786
0
LINE
8
Black
10
204.502
20
-192.786
11
204.645
21
-192.857
0
LINE
8
Black
10
204.645
20
-192.857
11
204.716
21
-193
0
LINE
8
Black
10
204.716
20
-193
11
204.716
21
-193.143
0
LINE
8
Black
10
204.716
20
-193.143
11
204.002
21
-193.286
0
LINE
8
Black
10
205.359
20
-193.643
11
205.431
21
-193.714
0
LINE
8
Black
10
205.431
20
-193.714
11
205.359
21
-193.786
0
LINE
8
Black
10
205.359
20
-193.786
11
205.288
21
-193.714
0
LINE
8
Black
10
205.288
20
-193.714
11
205.359
21
-193.643
0
LINE
8
Black
10
205.359
20
-193.643
11
205.359
21
-193.786
0
LINE
8
Black
10
205.359
20
-192.857
11
205.431
21
-192.929
0
LINE
8
Black
10
205.431
20
-192.929
11
205.359
21
-193
0
LINE
8
Black
10
205.359
20
-193
11
205.288
21
-192.929
0
LINE
8
Black
10
205.288
20
-192.929
11
205.359
21
-192.857
0
LINE
8
Black
10
205.359
20
-192.857
11
205.359
21
-193
0
LINE
8
Black
10
177.002
20
-194.507
11
285.002
21
-194.507
0
LINE
8
Black
10
178.359
20
-196.586
11
178.359
21
-195.086
0
LINE
8
Black
10
179.216
20
-196.586
11
178.574
21
-195.729
0
LINE
8
Black
10
179.216
20
-195.086
11
178.359
21
-195.943
0
LINE
8
Black
10
179.859
20
-196.586
11
179.859
21
-195.586
0
LINE
8
Black
10
179.859
20
-195.086
11
179.788
21
-195.157
0
LINE
8
Black
10
179.788
20
-195.157
11
179.859
21
-195.229
0
LINE
8
Black
10
179.859
20
-195.229
11
179.931
21
-195.157
0
LINE
8
Black
10
179.931
20
-195.157
11
179.859
21
-195.086
0
LINE
8
Black
10
179.859
20
-195.086
11
179.859
21
-195.229
0
LINE
8
Black
10
181.431
20
-196.443
11
181.359
21
-196.514
0
LINE
8
Black
10
181.359
20
-196.514
11
181.145
21
-196.586
0
LINE
8
Black
10
181.145
20
-196.586
11
181.002
21
-196.586
0
LINE
8
Black
10
181.002
20
-196.586
11
180.788
21
-196.514
0
LINE
8
Black
10
180.788
20
-196.514
11
180.645
21
-196.371
0
LINE
8
Black
10
180.645
20
-196.371
11
180.574
21
-196.229
0
LINE
8
Black
10
180.574
20
-196.229
11
180.502
21
-195.943
0
LINE
8
Black
10
180.502
20
-195.943
11
180.502
21
-195.729
0
LINE
8
Black
10
180.502
20
-195.729
11
180.574
21
-195.443
0
LINE
8
Black
10
180.574
20
-195.443
11
180.645
21
-195.3
0
LINE
8
Black
10
180.645
20
-195.3
11
180.788
21
-195.157
0
LINE
8
Black
10
180.788
20
-195.157
11
181.002
21
-195.086
0
LINE
8
Black
10
181.002
20
-195.086
11
181.145
21
-195.086
0
LINE
8
Black
10
181.145
20
-195.086
11
181.359
21
-195.157
0
LINE
8
Black
10
181.359
20
-195.157
11
181.431
21
-195.229
0
LINE
8
Black
10
182.716
20
-196.586
11
182.716
21
-195.8
0
LINE
8
Black
10
182.716
20
-195.8
11
182.645
21
-195.657
0
LINE
8
Black
10
182.645
20
-195.657
11
182.502
21
-195.586
0
LINE
8
Black
10
182.502
20
-195.586
11
182.216
21
-195.586
0
LINE
8
Black
10
182.216
20
-195.586
11
182.074
21
-195.657
0
LINE
8
Black
10
182.716
20
-196.514
11
182.574
21
-196.586
0
LINE
8
Black
10
182.574
20
-196.586
11
182.216
21
-196.586
0
LINE
8
Black
10
182.216
20
-196.586
11
182.074
21
-196.514
0
LINE
8
Black
10
182.074
20
-196.514
11
182.002
21
-196.371
0
LINE
8
Black
10
182.002
20
-196.371
11
182.002
21
-196.229
0
LINE
8
Black
10
182.002
20
-196.229
11
182.074
21
-196.086
0
LINE
8
Black
10
182.074
20
-196.086
11
182.216
21
-196.014
0
LINE
8
Black
10
182.216
20
-196.014
11
182.574
21
-196.014
0
LINE
8
Black
10
182.574
20
-196.014
11
182.716
21
-195.943
0
LINE
8
Black
10
184.074
20
-196.586
11
184.074
21
-195.086
0
LINE
8
Black
10
184.074
20
-196.514
11
183.931
21
-196.586
0
LINE
8
Black
10
183.931
20
-196.586
11
183.645
21
-196.586
0
LINE
8
Black
10
183.645
20
-196.586
11
183.502
21
-196.514
0
LINE
8
Black
10
183.502
20
-196.514
11
183.431
21
-196.443
0
LINE
8
Black
10
183.431
20
-196.443
11
183.359
21
-196.3
0
LINE
8
Black
10
183.359
20
-196.3
11
183.359
21
-195.871
0
LINE
8
Black
10
183.359
20
-195.871
11
183.431
21
-195.729
0
LINE
8
Black
10
183.431
20
-195.729
11
183.502
21
-195.657
0
LINE
8
Black
10
183.502
20
-195.657
11
183.645
21
-195.586
0
LINE
8
Black
10
183.645
20
-195.586
11
183.931
21
-195.586
0
LINE
8
Black
10
183.931
20
-195.586
11
184.074
21
-195.657
0
LINE
8
Black
10
185.931
20
-195.8
11
186.431
21
-195.8
0
LINE
8
Black
10
186.645
20
-196.586
11
185.931
21
-196.586
0
LINE
8
Black
10
185.931
20
-196.586
11
185.931
21
-195.086
0
LINE
8
Black
10
185.931
20
-195.086
11
186.645
21
-195.086
0
LINE
8
Black
10
187.288
20
-196.443
11
187.359
21
-196.514
0
LINE
8
Black
10
187.359
20
-196.514
11
187.288
21
-196.586
0
LINE
8
Black
10
187.288
20
-196.586
11
187.216
21
-196.514
0
LINE
8
Black
10
187.216
20
-196.514
11
187.288
21
-196.443
0
LINE
8
Black
10
187.288
20
-196.443
11
187.288
21
-196.586
0
LINE
8
Black
10
188.002
20
-196.586
11
188.002
21
-195.086
0
LINE
8
Black
10
188.002
20
-195.086
11
188.359
21
-195.086
0
LINE
8
Black
10
188.359
20
-195.086
11
188.574
21
-195.157
0
LINE
8
Black
10
188.574
20
-195.157
11
188.716
21
-195.3
0
LINE
8
Black
10
188.716
20
-195.3
11
188.788
21
-195.443
0
LINE
8
Black
10
188.788
20
-195.443
11
188.859
21
-195.729
0
LINE
8
Black
10
188.859
20
-195.729
11
188.859
21
-195.943
0
LINE
8
Black
10
188.859
20
-195.943
11
188.788
21
-196.229
0
LINE
8
Black
10
188.788
20
-196.229
11
188.716
21
-196.371
0
LINE
8
Black
10
188.716
20
-196.371
11
188.574
21
-196.514
0
LINE
8
Black
10
188.574
20
-196.514
11
188.359
21
-196.586
0
LINE
8
Black
10
188.359
20
-196.586
11
188.002
21
-196.586
0
LINE
8
Black
10
189.502
20
-196.443
11
189.574
21
-196.514
0
LINE
8
Black
10
189.574
20
-196.514
11
189.502
21
-196.586
0
LINE
8
Black
10
189.502
20
-196.586
11
189.431
21
-196.514
0
LINE
8
Black
10
189.431
20
-196.514
11
189.502
21
-196.443
0
LINE
8
Black
10
189.502
20
-196.443
11
189.502
21
-196.586
0
LINE
8
Black
10
190.145
20
-196.157
11
190.859
21
-196.157
0
LINE
8
Black
10
190.002
20
-196.586
11
190.502
21
-195.086
0
LINE
8
Black
10
190.502
20
-195.086
11
191.002
21
-196.586
0
LINE
8
Black
10
191.502
20
-196.443
11
191.574
21
-196.514
0
LINE
8
Black
10
191.574
20
-196.514
11
191.502
21
-196.586
0
LINE
8
Black
10
191.502
20
-196.586
11
191.431
21
-196.514
0
LINE
8
Black
10
191.431
20
-196.514
11
191.502
21
-196.443
0
LINE
8
Black
10
191.502
20
-196.443
11
191.502
21
-196.586
0
LINE
8
Black
10
194.502
20
-196.586
11
194.502
21
-195.086
0
LINE
8
Black
10
194.645
20
-196.014
11
195.074
21
-196.586
0
LINE
8
Black
10
195.074
20
-195.586
11
194.502
21
-196.157
0
LINE
8
Black
10
195.716
20
-196.586
11
195.716
21
-195.586
0
LINE
8
Black
10
195.716
20
-195.086
11
195.645
21
-195.157
0
LINE
8
Black
10
195.645
20
-195.157
11
195.716
21
-195.229
0
LINE
8
Black
10
195.716
20
-195.229
11
195.788
21
-195.157
0
LINE
8
Black
10
195.788
20
-195.157
11
195.716
21
-195.086
0
LINE
8
Black
10
195.716
20
-195.086
11
195.716
21
-195.229
0
LINE
8
Black
10
197.074
20
-196.514
11
196.931
21
-196.586
0
LINE
8
Black
10
196.931
20
-196.586
11
196.645
21
-196.586
0
LINE
8
Black
10
196.645
20
-196.586
11
196.502
21
-196.514
0
LINE
8
Black
10
196.502
20
-196.514
11
196.431
21
-196.443
0
LINE
8
Black
10
196.431
20
-196.443
11
196.359
21
-196.3
0
LINE
8
Black
10
196.359
20
-196.3
11
196.359
21
-195.871
0
LINE
8
Black
10
196.359
20
-195.871
11
196.431
21
-195.729
0
LINE
8
Black
10
196.431
20
-195.729
11
196.502
21
-195.657
0
LINE
8
Black
10
196.502
20
-195.657
11
196.645
21
-195.586
0
LINE
8
Black
10
196.645
20
-195.586
11
196.931
21
-195.586
0
LINE
8
Black
10
196.931
20
-195.586
11
197.074
21
-195.657
0
LINE
8
Black
10
198.359
20
-196.586
11
198.359
21
-195.8
0
LINE
8
Black
10
198.359
20
-195.8
11
198.288
21
-195.657
0
LINE
8
Black
10
198.288
20
-195.657
11
198.145
21
-195.586
0
LINE
8
Black
10
198.145
20
-195.586
11
197.859
21
-195.586
0
LINE
8
Black
10
197.859
20
-195.586
11
197.716
21
-195.657
0
LINE
8
Black
10
198.359
20
-196.514
11
198.216
21
-196.586
0
LINE
8
Black
10
198.216
20
-196.586
11
197.859
21
-196.586
0
LINE
8
Black
10
197.859
20
-196.586
11
197.716
21
-196.514
0
LINE
8
Black
10
197.716
20
-196.514
11
197.645
21
-196.371
0
LINE
8
Black
10
197.645
20
-196.371
11
197.645
21
-196.229
0
LINE
8
Black
10
197.645
20
-196.229
11
197.716
21
-196.086
0
LINE
8
Black
10
197.716
20
-196.086
11
197.859
21
-196.014
0
LINE
8
Black
10
197.859
20
-196.014
11
198.216
21
-196.014
0
LINE
8
Black
10
198.216
20
-196.014
11
198.359
21
-195.943
0
LINE
8
Black
10
199.716
20
-196.586
11
199.716
21
-195.086
0
LINE
8
Black
10
199.716
20
-196.514
11
199.574
21
-196.586
0
LINE
8
Black
10
199.574
20
-196.586
11
199.288
21
-196.586
0
LINE
8
Black
10
199.288
20
-196.586
11
199.145
21
-196.514
0
LINE
8
Black
10
199.145
20
-196.514
11
199.074
21
-196.443
0
LINE
8
Black
10
199.074
20
-196.443
11
199.002
21
-196.3
0
LINE
8
Black
10
199.002
20
-196.3
11
199.002
21
-195.871
0
LINE
8
Black
10
199.002
20
-195.871
11
199.074
21
-195.729
0
LINE
8
Black
10
199.074
20
-195.729
11
199.145
21
-195.657
0
LINE
8
Black
10
199.145
20
-195.657
11
199.288
21
-195.586
0
LINE
8
Black
10
199.288
20
-195.586
11
199.574
21
-195.586
0
LINE
8
Black
10
199.574
20
-195.586
11
199.716
21
-195.657
0
LINE
8
Black
10
202.216
20
-195.586
11
202.216
21
-196.586
0
LINE
8
Black
10
201.859
20
-195.014
11
201.502
21
-196.086
0
LINE
8
Black
10
201.502
20
-196.086
11
202.431
21
-196.086
0
LINE
8
Black
10
203.002
20
-196.443
11
203.074
21
-196.514
0
LINE
8
Black
10
203.074
20
-196.514
11
203.002
21
-196.586
0
LINE
8
Black
10
203.002
20
-196.586
11
202.931
21
-196.514
0
LINE
8
Black
10
202.931
20
-196.514
11
203.002
21
-196.443
0
LINE
8
Black
10
203.002
20
-196.443
11
203.002
21
-196.586
0
LINE
8
Black
10
204.002
20
-195.086
11
204.145
21
-195.086
0
LINE
8
Black
10
204.145
20
-195.086
11
204.288
21
-195.157
0
LINE
8
Black
10
204.288
20
-195.157
11
204.359
21
-195.229
0
LINE
8
Black
10
204.359
20
-195.229
11
204.431
21
-195.371
0
LINE
8
Black
10
204.431
20
-195.371
11
204.502
21
-195.657
0
LINE
8
Black
10
204.502
20
-195.657
11
204.502
21
-196.014
0
LINE
8
Black
10
204.502
20
-196.014
11
204.431
21
-196.3
0
LINE
8
Black
10
204.431
20
-196.3
11
204.359
21
-196.443
0
LINE
8
Black
10
204.359
20
-196.443
11
204.288
21
-196.514
0
LINE
8
Black
10
204.288
20
-196.514
11
204.145
21
-196.586
0
LINE
8
Black
10
204.145
20
-196.586
11
204.002
21
-196.586
0
LINE
8
Black
10
204.002
20
-196.586
11
203.859
21
-196.514
0
LINE
8
Black
10
203.859
20
-196.514
11
203.788
21
-196.443
0
LINE
8
Black
10
203.788
20
-196.443
11
203.716
21
-196.3
0
LINE
8
Black
10
203.716
20
-196.3
11
203.645
21
-196.014
0
LINE
8
Black
10
203.645
20
-196.014
11
203.645
21
-195.657
0
LINE
8
Black
10
203.645
20
-195.657
11
203.716
21
-195.371
0
LINE
8
Black
10
203.716
20
-195.371
11
203.788
21
-195.229
0
LINE
8
Black
10
203.788
20
-195.229
11
203.859
21
-195.157
0
LINE
8
Black
10
203.859
20
-195.157
11
204.002
21
-195.086
0
LINE
8
Black
10
205.145
20
-196.443
11
205.216
21
-196.514
0
LINE
8
Black
10
205.216
20
-196.514
11
205.145
21
-196.586
0
LINE
8
Black
10
205.145
20
-196.586
11
205.074
21
-196.514
0
LINE
8
Black
10
205.074
20
-196.514
11
205.145
21
-196.443
0
LINE
8
Black
10
205.145
20
-196.443
11
205.145
21
-196.586
0
LINE
8
Black
10
205.716
20
-195.086
11
206.716
21
-195.086
0
LINE
8
Black
10
206.716
20
-195.086
11
206.074
21
-196.586
0
LINE
8
Black
10
177.002
20
-191.507
11
285.002
21
-191.507
0
LINE
8
Black
10
264.216
20
-193.786
11
263.716
21
-193.071
0
LINE
8
Black
10
263.359
20
-193.786
11
263.359
21
-192.286
0
LINE
8
Black
10
263.359
20
-192.286
11
263.931
21
-192.286
0
LINE
8
Black
10
263.931
20
-192.286
11
264.074
21
-192.357
0
LINE
8
Black
10
264.074
20
-192.357
11
264.145
21
-192.429
0
LINE
8
Black
10
264.145
20
-192.429
11
264.216
21
-192.571
0
LINE
8
Black
10
264.216
20
-192.571
11
264.216
21
-192.786
0
LINE
8
Black
10
264.216
20
-192.786
11
264.145
21
-192.929
0
LINE
8
Black
10
264.145
20
-192.929
11
264.074
21
-193
0
LINE
8
Black
10
264.074
20
-193
11
263.931
21
-193.071
0
LINE
8
Black
10
263.931
20
-193.071
11
263.359
21
-193.071
0
LINE
8
Black
10
265.431
20
-193.714
11
265.288
21
-193.786
0
LINE
8
Black
10
265.288
20
-193.786
11
265.002
21
-193.786
0
LINE
8
Black
10
265.002
20
-193.786
11
264.859
21
-193.714
0
LINE
8
Black
10
264.859
20
-193.714
11
264.788
21
-193.571
0
LINE
8
Black
10
264.788
20
-193.571
11
264.788
21
-193
0
LINE
8
Black
10
264.788
20
-193
11
264.859
21
-192.857
0
LINE
8
Black
10
264.859
20
-192.857
11
265.002
21
-192.786
0
LINE
8
Black
10
265.002
20
-192.786
11
265.288
21
-192.786
0
LINE
8
Black
10
265.288
20
-192.786
11
265.431
21
-192.857
0
LINE
8
Black
10
265.431
20
-192.857
11
265.502
21
-193
0
LINE
8
Black
10
265.502
20
-193
11
265.502
21
-193.143
0
LINE
8
Black
10
265.502
20
-193.143
11
264.788
21
-193.286
0
LINE
8
Black
10
266.002
20
-192.786
11
266.359
21
-193.786
0
LINE
8
Black
10
266.359
20
-193.786
11
266.716
21
-192.786
0
LINE
8
Black
10
267.288
20
-193.643
11
267.359
21
-193.714
0
LINE
8
Black
10
267.359
20
-193.714
11
267.288
21
-193.786
0
LINE
8
Black
10
267.288
20
-193.786
11
267.216
21
-193.714
0
LINE
8
Black
10
267.216
20
-193.714
11
267.288
21
-193.643
0
LINE
8
Black
10
267.288
20
-193.643
11
267.288
21
-193.786
0
LINE
8
Black
10
267.288
20
-192.857
11
267.359
21
-192.929
0
LINE
8
Black
10
267.359
20
-192.929
11
267.288
21
-193
0
LINE
8
Black
10
267.288
20
-193
11
267.216
21
-192.929
0
LINE
8
Black
10
267.216
20
-192.929
11
267.288
21
-192.857
0
LINE
8
Black
10
267.288
20
-192.857
11
267.288
21
-193
0
LINE
8
Black
10
178.288
20
-193.714
11
178.502
21
-193.786
0
LINE
8
Black
10
178.502
20
-193.786
11
178.859
21
-193.786
0
LINE
8
Black
10
178.859
20
-193.786
11
179.002
21
-193.714
0
LINE
8
Black
10
179.002
20
-193.714
11
179.074
21
-193.643
0
LINE
8
Black
10
179.074
20
-193.643
11
179.145
21
-193.5
0
LINE
8
Black
10
179.145
20
-193.5
11
179.145
21
-193.357
0
LINE
8
Black
10
179.145
20
-193.357
11
179.074
21
-193.214
0
LINE
8
Black
10
179.074
20
-193.214
11
179.002
21
-193.143
0
LINE
8
Black
10
179.002
20
-193.143
11
178.859
21
-193.071
0
LINE
8
Black
10
178.859
20
-193.071
11
178.574
21
-193
0
LINE
8
Black
10
178.574
20
-193
11
178.431
21
-192.929
0
LINE
8
Black
10
178.431
20
-192.929
11
178.359
21
-192.857
0
LINE
8
Black
10
178.359
20
-192.857
11
178.288
21
-192.714
0
LINE
8
Black
10
178.288
20
-192.714
11
178.288
21
-192.571
0
LINE
8
Black
10
178.288
20
-192.571
11
178.359
21
-192.429
0
LINE
8
Black
10
178.359
20
-192.429
11
178.431
21
-192.357
0
LINE
8
Black
10
178.431
20
-192.357
11
178.574
21
-192.286
0
LINE
8
Black
10
178.574
20
-192.286
11
178.931
21
-192.286
0
LINE
8
Black
10
178.931
20
-192.286
11
179.145
21
-192.357
0
LINE
8
Black
10
179.788
20
-193.786
11
179.788
21
-192.786
0
LINE
8
Black
10
179.788
20
-192.286
11
179.716
21
-192.357
0
LINE
8
Black
10
179.716
20
-192.357
11
179.788
21
-192.429
0
LINE
8
Black
10
179.788
20
-192.429
11
179.859
21
-192.357
0
LINE
8
Black
10
179.859
20
-192.357
11
179.788
21
-192.286
0
LINE
8
Black
10
179.788
20
-192.286
11
179.788
21
-192.429
0
LINE
8
Black
10
180.359
20
-192.786
11
181.145
21
-192.786
0
LINE
8
Black
10
181.145
20
-192.786
11
180.359
21
-193.786
0
LINE
8
Black
10
180.359
20
-193.786
11
181.145
21
-193.786
0
LINE
8
Black
10
182.288
20
-193.714
11
182.145
21
-193.786
0
LINE
8
Black
10
182.145
20
-193.786
11
181.859
21
-193.786
0
LINE
8
Black
10
181.859
20
-193.786
11
181.716
21
-193.714
0
LINE
8
Black
10
181.716
20
-193.714
11
181.645
21
-193.571
0
LINE
8
Black
10
181.645
20
-193.571
11
181.645
21
-193
0
LINE
8
Black
10
181.645
20
-193
11
181.716
21
-192.857
0
LINE
8
Black
10
181.716
20
-192.857
11
181.859
21
-192.786
0
LINE
8
Black
10
181.859
20
-192.786
11
182.145
21
-192.786
0
LINE
8
Black
10
182.145
20
-192.786
11
182.288
21
-192.857
0
LINE
8
Black
10
182.288
20
-192.857
11
182.359
21
-193
0
LINE
8
Black
10
182.359
20
-193
11
182.359
21
-193.143
0
LINE
8
Black
10
182.359
20
-193.143
11
181.645
21
-193.286
0
LINE
8
Black
10
183.002
20
-193.643
11
183.074
21
-193.714
0
LINE
8
Black
10
183.074
20
-193.714
11
183.002
21
-193.786
0
LINE
8
Black
10
183.002
20
-193.786
11
182.931
21
-193.714
0
LINE
8
Black
10
182.931
20
-193.714
11
183.002
21
-193.643
0
LINE
8
Black
10
183.002
20
-193.643
11
183.002
21
-193.786
0
LINE
8
Black
10
183.002
20
-192.857
11
183.074
21
-192.929
0
LINE
8
Black
10
183.074
20
-192.929
11
183.002
21
-193
0
LINE
8
Black
10
183.002
20
-193
11
182.931
21
-192.929
0
LINE
8
Black
10
182.931
20
-192.929
11
183.002
21
-192.857
0
LINE
8
Black
10
183.002
20
-192.857
11
183.002
21
-193
0
LINE
8
Black
10
184.788
20
-193.357
11
185.502
21
-193.357
0
LINE
8
Black
10
184.645
20
-193.786
11
185.145
21
-192.286
0
LINE
8
Black
10
185.145
20
-192.286
11
185.645
21
-193.786
0
LINE
8
Black
10
186.788
20
-192.786
11
186.788
21
-193.786
0
LINE
8
Black
10
186.431
20
-192.214
11
186.074
21
-193.286
0
LINE
8
Black
10
186.074
20
-193.286
11
187.002
21
-193.286
0
LINE
8
Black
10
263.359
20
-196.586
11
263.359
21
-195.086
0
LINE
8
Black
10
264.716
20
-196.586
11
264.716
21
-195.086
0
LINE
8
Black
10
264.716
20
-196.514
11
264.574
21
-196.586
0
LINE
8
Black
10
264.574
20
-196.586
11
264.288
21
-196.586
0
LINE
8
Black
10
264.288
20
-196.586
11
264.145
21
-196.514
0
LINE
8
Black
10
264.145
20
-196.514
11
264.074
21
-196.443
0
LINE
8
Black
10
264.074
20
-196.443
11
264.002
21
-196.3
0
LINE
8
Black
10
264.002
20
-196.3
11
264.002
21
-195.871
0
LINE
8
Black
10
264.002
20
-195.871
11
264.074
21
-195.729
0
LINE
8
Black
10
264.074
20
-195.729
11
264.145
21
-195.657
0
LINE
8
Black
10
264.145
20
-195.657
11
264.288
21
-195.586
0
LINE
8
Black
10
264.288
20
-195.586
11
264.574
21
-195.586
0
LINE
8
Black
10
264.574
20
-195.586
11
264.716
21
-195.657
0
LINE
8
Black
10
265.431
20
-196.443
11
265.502
21
-196.514
0
LINE
8
Black
10
265.502
20
-196.514
11
265.431
21
-196.586
0
LINE
8
Black
10
265.431
20
-196.586
11
265.359
21
-196.514
0
LINE
8
Black
10
265.359
20
-196.514
11
265.431
21
-196.443
0
LINE
8
Black
10
265.431
20
-196.443
11
265.431
21
-196.586
0
LINE
8
Black
10
265.431
20
-195.657
11
265.502
21
-195.729
0
LINE
8
Black
10
265.502
20
-195.729
11
265.431
21
-195.8
0
LINE
8
Black
10
265.431
20
-195.8
11
265.359
21
-195.729
0
LINE
8
Black
10
265.359
20
-195.729
11
265.431
21
-195.657
0
LINE
8
Black
10
265.431
20
-195.657
11
265.431
21
-195.8
0
LINE
8
Black
10
268.074
20
-196.586
11
267.216
21
-196.586
0
LINE
8
Black
10
267.645
20
-196.586
11
267.645
21
-195.086
0
LINE
8
Black
10
267.645
20
-195.086
11
267.502
21
-195.3
0
LINE
8
Black
10
267.502
20
-195.3
11
267.359
21
-195.443
0
LINE
8
Black
10
267.359
20
-195.443
11
267.216
21
-195.514
0
LINE
8
Black
10
269.788
20
-195.014
11
268.502
21
-196.943
0
LINE
8
Black
10
271.074
20
-196.586
11
270.216
21
-196.586
0
LINE
8
Black
10
270.645
20
-196.586
11
270.645
21
-195.086
0
LINE
8
Black
10
270.645
20
-195.086
11
270.502
21
-195.3
0
LINE
8
Black
10
270.502
20
-195.3
11
270.359
21
-195.443
0
LINE
8
Black
10
270.359
20
-195.443
11
270.216
21
-195.514
0
LINE
8
Black
10
177.002
20
-187.507
11
285.002
21
-187.507
0
LINE
8
Black
10
178.455
20
-188.212
11
179.597
21
-188.212
0
LINE
8
Black
10
178.776
20
-190.212
11
179.026
21
-188.212
0
LINE
8
Black
10
180.014
20
-190.212
11
180.181
21
-188.879
0
LINE
8
Black
10
180.264
20
-188.212
11
180.157
21
-188.307
0
LINE
8
Black
10
180.157
20
-188.307
11
180.24
21
-188.402
0
LINE
8
Black
10
180.24
20
-188.402
11
180.347
21
-188.307
0
LINE
8
Black
10
180.347
20
-188.307
11
180.264
21
-188.212
0
LINE
8
Black
10
180.264
20
-188.212
11
180.24
21
-188.402
0
LINE
8
Black
10
180.847
20
-188.879
11
181.609
21
-188.879
0
LINE
8
Black
10
181.216
20
-188.212
11
181.002
21
-189.926
0
LINE
8
Black
10
181.002
20
-189.926
11
181.074
21
-190.117
0
LINE
8
Black
10
181.074
20
-190.117
11
181.252
21
-190.212
0
LINE
8
Black
10
181.252
20
-190.212
11
181.443
21
-190.212
0
LINE
8
Black
10
182.395
20
-190.212
11
182.216
21
-190.117
0
LINE
8
Black
10
182.216
20
-190.117
11
182.145
21
-189.926
0
LINE
8
Black
10
182.145
20
-189.926
11
182.359
21
-188.212
0
LINE
8
Black
10
183.931
20
-190.117
11
183.728
21
-190.212
0
LINE
8
Black
10
183.728
20
-190.212
11
183.347
21
-190.212
0
LINE
8
Black
10
183.347
20
-190.212
11
183.169
21
-190.117
0
LINE
8
Black
10
183.169
20
-190.117
11
183.097
21
-189.926
0
LINE
8
Black
10
183.097
20
-189.926
11
183.193
21
-189.164
0
LINE
8
Black
10
183.193
20
-189.164
11
183.312
21
-188.974
0
LINE
8
Black
10
183.312
20
-188.974
11
183.514
21
-188.879
0
LINE
8
Black
10
183.514
20
-188.879
11
183.895
21
-188.879
0
LINE
8
Black
10
183.895
20
-188.879
11
184.074
21
-188.974
0
LINE
8
Black
10
184.074
20
-188.974
11
184.145
21
-189.164
0
LINE
8
Black
10
184.145
20
-189.164
11
184.121
21
-189.355
0
LINE
8
Black
10
184.121
20
-189.355
11
183.145
21
-189.545
0
LINE
8
Black
10
184.895
20
-190.021
11
184.978
21
-190.117
0
LINE
8
Black
10
184.978
20
-190.117
11
184.871
21
-190.212
0
LINE
8
Black
10
184.871
20
-190.212
11
184.788
21
-190.117
0
LINE
8
Black
10
184.788
20
-190.117
11
184.895
21
-190.021
0
LINE
8
Black
10
184.895
20
-190.021
11
184.871
21
-190.212
0
LINE
8
Black
10
185.026
20
-188.974
11
185.109
21
-189.069
0
LINE
8
Black
10
185.109
20
-189.069
11
185.002
21
-189.164
0
LINE
8
Black
10
185.002
20
-189.164
11
184.919
21
-189.069
0
LINE
8
Black
10
184.919
20
-189.069
11
185.026
21
-188.974
0
LINE
8
Black
10
185.026
20
-188.974
11
185.002
21
-189.164
0
LINE
8
Black
10
178.859
20
-185.6
11
178.359
21
-185.6
0
LINE
8
Black
10
178.359
20
-186.386
11
178.359
21
-184.886
0
LINE
8
Black
10
178.359
20
-184.886
11
179.074
21
-184.886
0
LINE
8
Black
10
179.645
20
-186.386
11
179.645
21
-185.386
0
LINE
8
Black
10
179.645
20
-184.886
11
179.574
21
-184.957
0
LINE
8
Black
10
179.574
20
-184.957
11
179.645
21
-185.029
0
LINE
8
Black
10
179.645
20
-185.029
11
179.716
21
-184.957
0
LINE
8
Black
10
179.716
20
-184.957
11
179.645
21
-184.886
0
LINE
8
Black
10
179.645
20
-184.886
11
179.645
21
-185.029
0
LINE
8
Black
10
180.574
20
-186.386
11
180.431
21
-186.314
0
LINE
8
Black
10
180.431
20
-186.314
11
180.359
21
-186.171
0
LINE
8
Black
10
180.359
20
-186.171
11
180.359
21
-184.886
0
LINE
8
Black
10
181.716
20
-186.314
11
181.574
21
-186.386
0
LINE
8
Black
10
181.574
20
-186.386
11
181.288
21
-186.386
0
LINE
8
Black
10
181.288
20
-186.386
11
181.145
21
-186.314
0
LINE
8
Black
10
181.145
20
-186.314
11
181.074
21
-186.171
0
LINE
8
Black
10
181.074
20
-186.171
11
181.074
21
-185.6
0
LINE
8
Black
10
181.074
20
-185.6
11
181.145
21
-185.457
0
LINE
8
Black
10
181.145
20
-185.457
11
181.288
21
-185.386
0
LINE
8
Black
10
181.288
20
-185.386
11
181.574
21
-185.386
0
LINE
8
Black
10
181.574
20
-185.386
11
181.716
21
-185.457
0
LINE
8
Black
10
181.716
20
-185.457
11
181.788
21
-185.6
0
LINE
8
Black
10
181.788
20
-185.6
11
181.788
21
-185.743
0
LINE
8
Black
10
181.788
20
-185.743
11
181.074
21
-185.886
0
LINE
8
Black
10
182.431
20
-186.243
11
182.502
21
-186.314
0
LINE
8
Black
10
182.502
20
-186.314
11
182.431
21
-186.386
0
LINE
8
Black
10
182.431
20
-186.386
11
182.359
21
-186.314
0
LINE
8
Black
10
182.359
20
-186.314
11
182.431
21
-186.243
0
LINE
8
Black
10
182.431
20
-186.243
11
182.431
21
-186.386
0
LINE
8
Black
10
182.431
20
-185.457
11
182.502
21
-185.529
0
LINE
8
Black
10
182.502
20
-185.529
11
182.431
21
-185.6
0
LINE
8
Black
10
182.431
20
-185.6
11
182.359
21
-185.529
0
LINE
8
Black
10
182.359
20
-185.529
11
182.431
21
-185.457
0
LINE
8
Black
10
182.431
20
-185.457
11
182.431
21
-185.6
0
LINE
8
Black
10
184.502
20
-186.386
11
184.359
21
-186.314
0
LINE
8
Black
10
184.359
20
-186.314
11
184.288
21
-186.243
0
LINE
8
Black
10
184.288
20
-186.243
11
184.216
21
-186.1
0
LINE
8
Black
10
184.216
20
-186.1
11
184.216
21
-185.671
0
LINE
8
Black
10
184.216
20
-185.671
11
184.288
21
-185.529
0
LINE
8
Black
10
184.288
20
-185.529
11
184.359
21
-185.457
0
LINE
8
Black
10
184.359
20
-185.457
11
184.502
21
-185.386
0
LINE
8
Black
10
184.502
20
-185.386
11
184.716
21
-185.386
0
LINE
8
Black
10
184.716
20
-185.386
11
184.859
21
-185.457
0
LINE
8
Black
10
184.859
20
-185.457
11
184.931
21
-185.529
0
LINE
8
Black
10
184.931
20
-185.529
11
185.002
21
-185.671
0
LINE
8
Black
10
185.002
20
-185.671
11
185.002
21
-186.1
0
LINE
8
Black
10
185.002
20
-186.1
11
184.931
21
-186.243
0
LINE
8
Black
10
184.931
20
-186.243
11
184.859
21
-186.314
0
LINE
8
Black
10
184.859
20
-186.314
11
184.716
21
-186.386
0
LINE
8
Black
10
184.716
20
-186.386
11
184.502
21
-186.386
0
LINE
8
Black
10
185.431
20
-185.386
11
186.002
21
-185.386
0
LINE
8
Black
10
185.645
20
-184.886
11
185.645
21
-186.171
0
LINE
8
Black
10
185.645
20
-186.171
11
185.716
21
-186.314
0
LINE
8
Black
10
185.716
20
-186.314
11
185.859
21
-186.386
0
LINE
8
Black
10
185.859
20
-186.386
11
186.002
21
-186.386
0
LINE
8
Black
10
186.502
20
-186.386
11
186.502
21
-184.886
0
LINE
8
Black
10
187.145
20
-186.386
11
187.145
21
-185.6
0
LINE
8
Black
10
187.145
20
-185.6
11
187.074
21
-185.457
0
LINE
8
Black
10
187.074
20
-185.457
11
186.931
21
-185.386
0
LINE
8
Black
10
186.931
20
-185.386
11
186.716
21
-185.386
0
LINE
8
Black
10
186.716
20
-185.386
11
186.574
21
-185.457
0
LINE
8
Black
10
186.574
20
-185.457
11
186.502
21
-185.529
0
LINE
8
Black
10
188.431
20
-186.314
11
188.288
21
-186.386
0
LINE
8
Black
10
188.288
20
-186.386
11
188.002
21
-186.386
0
LINE
8
Black
10
188.002
20
-186.386
11
187.859
21
-186.314
0
LINE
8
Black
10
187.859
20
-186.314
11
187.788
21
-186.171
0
LINE
8
Black
10
187.788
20
-186.171
11
187.788
21
-185.6
0
LINE
8
Black
10
187.788
20
-185.6
11
187.859
21
-185.457
0
LINE
8
Black
10
187.859
20
-185.457
11
188.002
21
-185.386
0
LINE
8
Black
10
188.002
20
-185.386
11
188.288
21
-185.386
0
LINE
8
Black
10
188.288
20
-185.386
11
188.431
21
-185.457
0
LINE
8
Black
10
188.431
20
-185.457
11
188.502
21
-185.6
0
LINE
8
Black
10
188.502
20
-185.6
11
188.502
21
-185.743
0
LINE
8
Black
10
188.502
20
-185.743
11
187.788
21
-185.886
0
LINE
8
Black
10
189.145
20
-186.386
11
189.145
21
-185.386
0
LINE
8
Black
10
189.145
20
-185.671
11
189.216
21
-185.529
0
LINE
8
Black
10
189.216
20
-185.529
11
189.288
21
-185.457
0
LINE
8
Black
10
189.288
20
-185.457
11
189.431
21
-185.386
0
LINE
8
Black
10
189.431
20
-185.386
11
189.574
21
-185.386
0
LINE
8
Black
10
190.074
20
-186.386
11
190.074
21
-185.386
0
LINE
8
Black
10
190.074
20
-184.886
11
190.002
21
-184.957
0
LINE
8
Black
10
190.002
20
-184.957
11
190.074
21
-185.029
0
LINE
8
Black
10
190.074
20
-185.029
11
190.145
21
-184.957
0
LINE
8
Black
10
190.145
20
-184.957
11
190.074
21
-184.886
0
LINE
8
Black
10
190.074
20
-184.886
11
190.074
21
-185.029
0
LINE
8
Black
10
190.788
20
-185.386
11
190.788
21
-186.386
0
LINE
8
Black
10
190.788
20
-185.529
11
190.859
21
-185.457
0
LINE
8
Black
10
190.859
20
-185.457
11
191.002
21
-185.386
0
LINE
8
Black
10
191.002
20
-185.386
11
191.216
21
-185.386
0
LINE
8
Black
10
191.216
20
-185.386
11
191.359
21
-185.457
0
LINE
8
Black
10
191.359
20
-185.457
11
191.431
21
-185.6
0
LINE
8
Black
10
191.431
20
-185.6
11
191.431
21
-186.386
0
LINE
8
Black
10
192.788
20
-185.386
11
192.788
21
-186.6
0
LINE
8
Black
10
192.788
20
-186.6
11
192.716
21
-186.743
0
LINE
8
Black
10
192.716
20
-186.743
11
192.645
21
-186.814
0
LINE
8
Black
10
192.645
20
-186.814
11
192.502
21
-186.886
0
LINE
8
Black
10
192.502
20
-186.886
11
192.288
21
-186.886
0
LINE
8
Black
10
192.288
20
-186.886
11
192.145
21
-186.814
0
LINE
8
Black
10
192.788
20
-186.314
11
192.645
21
-186.386
0
LINE
8
Black
10
192.645
20
-186.386
11
192.359
21
-186.386
0
LINE
8
Black
10
192.359
20
-186.386
11
192.216
21
-186.314
0
LINE
8
Black
10
192.216
20
-186.314
11
192.145
21
-186.243
0
LINE
8
Black
10
192.145
20
-186.243
11
192.074
21
-186.1
0
LINE
8
Black
10
192.074
20
-186.1
11
192.074
21
-185.671
0
LINE
8
Black
10
192.074
20
-185.671
11
192.145
21
-185.529
0
LINE
8
Black
10
192.145
20
-185.529
11
192.216
21
-185.457
0
LINE
8
Black
10
192.216
20
-185.457
11
192.359
21
-185.386
0
LINE
8
Black
10
192.359
20
-185.386
11
192.645
21
-185.386
0
LINE
8
Black
10
192.645
20
-185.386
11
192.788
21
-185.457
0
LINE
8
Black
10
193.502
20
-186.386
11
193.502
21
-185.386
0
LINE
8
Black
10
193.502
20
-185.529
11
193.574
21
-185.457
0
LINE
8
Black
10
193.574
20
-185.457
11
193.716
21
-185.386
0
LINE
8
Black
10
193.716
20
-185.386
11
193.931
21
-185.386
0
LINE
8
Black
10
193.931
20
-185.386
11
194.074
21
-185.457
0
LINE
8
Black
10
194.074
20
-185.457
11
194.145
21
-185.6
0
LINE
8
Black
10
194.145
20
-185.6
11
194.145
21
-186.386
0
LINE
8
Black
10
194.145
20
-185.6
11
194.216
21
-185.457
0
LINE
8
Black
10
194.216
20
-185.457
11
194.359
21
-185.386
0
LINE
8
Black
10
194.359
20
-185.386
11
194.574
21
-185.386
0
LINE
8
Black
10
194.574
20
-185.386
11
194.716
21
-185.457
0
LINE
8
Black
10
194.716
20
-185.457
11
194.788
21
-185.6
0
LINE
8
Black
10
194.788
20
-185.6
11
194.788
21
-186.386
0
LINE
8
Black
10
196.145
20
-186.386
11
196.145
21
-185.6
0
LINE
8
Black
10
196.145
20
-185.6
11
196.074
21
-185.457
0
LINE
8
Black
10
196.074
20
-185.457
11
195.931
21
-185.386
0
LINE
8
Black
10
195.931
20
-185.386
11
195.645
21
-185.386
0
LINE
8
Black
10
195.645
20
-185.386
11
195.502
21
-185.457
0
LINE
8
Black
10
196.145
20
-186.314
11
196.002
21
-186.386
0
LINE
8
Black
10
196.002
20
-186.386
11
195.645
21
-186.386
0
LINE
8
Black
10
195.645
20
-186.386
11
195.502
21
-186.314
0
LINE
8
Black
10
195.502
20
-186.314
11
195.431
21
-186.171
0
LINE
8
Black
10
195.431
20
-186.171
11
195.431
21
-186.029
0
LINE
8
Black
10
195.431
20
-186.029
11
195.502
21
-185.886
0
LINE
8
Black
10
195.502
20
-185.886
11
195.645
21
-185.814
0
LINE
8
Black
10
195.645
20
-185.814
11
196.002
21
-185.814
0
LINE
8
Black
10
196.002
20
-185.814
11
196.145
21
-185.743
0
LINE
8
Black
10
197.502
20
-186.314
11
197.359
21
-186.386
0
LINE
8
Black
10
197.359
20
-186.386
11
197.074
21
-186.386
0
LINE
8
Black
10
197.074
20
-186.386
11
196.931
21
-186.314
0
LINE
8
Black
10
196.931
20
-186.314
11
196.859
21
-186.243
0
LINE
8
Black
10
196.859
20
-186.243
11
196.788
21
-186.1
0
LINE
8
Black
10
196.788
20
-186.1
11
196.788
21
-185.671
0
LINE
8
Black
10
196.788
20
-185.671
11
196.859
21
-185.529
0
LINE
8
Black
10
196.859
20
-185.529
11
196.931
21
-185.457
0
LINE
8
Black
10
196.931
20
-185.457
11
197.074
21
-185.386
0
LINE
8
Black
10
197.074
20
-185.386
11
197.359
21
-185.386
0
LINE
8
Black
10
197.359
20
-185.386
11
197.502
21
-185.457
0
LINE
8
Black
10
198.145
20
-186.386
11
198.145
21
-184.886
0
LINE
8
Black
10
198.788
20
-186.386
11
198.788
21
-185.6
0
LINE
8
Black
10
198.788
20
-185.6
11
198.716
21
-185.457
0
LINE
8
Black
10
198.716
20
-185.457
11
198.574
21
-185.386
0
LINE
8
Black
10
198.574
20
-185.386
11
198.359
21
-185.386
0
LINE
8
Black
10
198.359
20
-185.386
11
198.216
21
-185.457
0
LINE
8
Black
10
198.216
20
-185.457
11
198.145
21
-185.529
0
LINE
8
Black
10
199.502
20
-186.386
11
199.502
21
-185.386
0
LINE
8
Black
10
199.502
20
-184.886
11
199.431
21
-184.957
0
LINE
8
Black
10
199.431
20
-184.957
11
199.502
21
-185.029
0
LINE
8
Black
10
199.502
20
-185.029
11
199.574
21
-184.957
0
LINE
8
Black
10
199.574
20
-184.957
11
199.502
21
-184.886
0
LINE
8
Black
10
199.502
20
-184.886
11
199.502
21
-185.029
0
LINE
8
Black
10
200.216
20
-185.386
11
200.216
21
-186.386
0
LINE
8
Black
10
200.216
20
-185.529
11
200.288
21
-185.457
0
LINE
8
Black
10
200.288
20
-185.457
11
200.431
21
-185.386
0
LINE
8
Black
10
200.431
20
-185.386
11
200.645
21
-185.386
0
LINE
8
Black
10
200.645
20
-185.386
11
200.788
21
-185.457
0
LINE
8
Black
10
200.788
20
-185.457
11
200.859
21
-185.6
0
LINE
8
Black
10
200.859
20
-185.6
11
200.859
21
-186.386
0
LINE
8
Black
10
202.145
20
-186.314
11
202.002
21
-186.386
0
LINE
8
Black
10
202.002
20
-186.386
11
201.716
21
-186.386
0
LINE
8
Black
10
201.716
20
-186.386
11
201.574
21
-186.314
0
LINE
8
Black
10
201.574
20
-186.314
11
201.502
21
-186.171
0
LINE
8
Black
10
201.502
20
-186.171
11
201.502
21
-185.6
0
LINE
8
Black
10
201.502
20
-185.6
11
201.574
21
-185.457
0
LINE
8
Black
10
201.574
20
-185.457
11
201.716
21
-185.386
0
LINE
8
Black
10
201.716
20
-185.386
11
202.002
21
-185.386
0
LINE
8
Black
10
202.002
20
-185.386
11
202.145
21
-185.457
0
LINE
8
Black
10
202.145
20
-185.457
11
202.216
21
-185.6
0
LINE
8
Black
10
202.216
20
-185.6
11
202.216
21
-185.743
0
LINE
8
Black
10
202.216
20
-185.743
11
201.502
21
-185.886
0
LINE
8
Black
10
202.788
20
-186.314
11
202.931
21
-186.386
0
LINE
8
Black
10
202.931
20
-186.386
11
203.216
21
-186.386
0
LINE
8
Black
10
203.216
20
-186.386
11
203.359
21
-186.314
0
LINE
8
Black
10
203.359
20
-186.314
11
203.431
21
-186.171
0
LINE
8
Black
10
203.431
20
-186.171
11
203.431
21
-186.1
0
LINE
8
Black
10
203.431
20
-186.1
11
203.359
21
-185.957
0
LINE
8
Black
10
203.359
20
-185.957
11
203.216
21
-185.886
0
LINE
8
Black
10
203.216
20
-185.886
11
203.002
21
-185.886
0
LINE
8
Black
10
203.002
20
-185.886
11
202.859
21
-185.814
0
LINE
8
Black
10
202.859
20
-185.814
11
202.788
21
-185.671
0
LINE
8
Black
10
202.788
20
-185.671
11
202.788
21
-185.6
0
LINE
8
Black
10
202.788
20
-185.6
11
202.859
21
-185.457
0
LINE
8
Black
10
202.859
20
-185.457
11
203.002
21
-185.386
0
LINE
8
Black
10
203.002
20
-185.386
11
203.216
21
-185.386
0
LINE
8
Black
10
203.216
20
-185.386
11
203.359
21
-185.457
0
LINE
8
Black
10
204.359
20
-184.886
11
204.502
21
-184.886
0
LINE
8
Black
10
204.502
20
-184.886
11
204.645
21
-184.957
0
LINE
8
Black
10
204.645
20
-184.957
11
204.716
21
-185.029
0
LINE
8
Black
10
204.716
20
-185.029
11
204.788
21
-185.171
0
LINE
8
Black
10
204.788
20
-185.171
11
204.859
21
-185.457
0
LINE
8
Black
10
204.859
20
-185.457
11
204.859
21
-185.814
0
LINE
8
Black
10
204.859
20
-185.814
11
204.788
21
-186.1
0
LINE
8
Black
10
204.788
20
-186.1
11
204.716
21
-186.243
0
LINE
8
Black
10
204.716
20
-186.243
11
204.645
21
-186.314
0
LINE
8
Black
10
204.645
20
-186.314
11
204.502
21
-186.386
0
LINE
8
Black
10
204.502
20
-186.386
11
204.359
21
-186.386
0
LINE
8
Black
10
204.359
20
-186.386
11
204.216
21
-186.314
0
LINE
8
Black
10
204.216
20
-186.314
11
204.145
21
-186.243
0
LINE
8
Black
10
204.145
20
-186.243
11
204.074
21
-186.1
0
LINE
8
Black
10
204.074
20
-186.1
11
204.002
21
-185.814
0
LINE
8
Black
10
204.002
20
-185.814
11
204.002
21
-185.457
0
LINE
8
Black
10
204.002
20
-185.457
11
204.074
21
-185.171
0
LINE
8
Black
10
204.074
20
-185.171
11
204.145
21
-185.029
0
LINE
8
Black
10
204.145
20
-185.029
11
204.216
21
-184.957
0
LINE
8
Black
10
204.216
20
-184.957
11
204.359
21
-184.886
0
LINE
8
Black
10
205.431
20
-185.029
11
205.502
21
-184.957
0
LINE
8
Black
10
205.502
20
-184.957
11
205.645
21
-184.886
0
LINE
8
Black
10
205.645
20
-184.886
11
206.002
21
-184.886
0
LINE
8
Black
10
206.002
20
-184.886
11
206.145
21
-184.957
0
LINE
8
Black
10
206.145
20
-184.957
11
206.216
21
-185.029
0
LINE
8
Black
10
206.216
20
-185.029
11
206.288
21
-185.171
0
LINE
8
Black
10
206.288
20
-185.171
11
206.288
21
-185.314
0
LINE
8
Black
10
206.288
20
-185.314
11
206.216
21
-185.529
0
LINE
8
Black
10
206.216
20
-185.529
11
205.359
21
-186.386
0
LINE
8
Black
10
205.359
20
-186.386
11
206.288
21
-186.386
0
LINE
8
Black
10
207.574
20
-186.314
11
207.431
21
-186.386
0
LINE
8
Black
10
207.431
20
-186.386
11
207.145
21
-186.386
0
LINE
8
Black
10
207.145
20
-186.386
11
207.002
21
-186.314
0
LINE
8
Black
10
207.002
20
-186.314
11
206.931
21
-186.243
0
LINE
8
Black
10
206.931
20
-186.243
11
206.859
21
-186.1
0
LINE
8
Black
10
206.859
20
-186.1
11
206.859
21
-185.671
0
LINE
8
Black
10
206.859
20
-185.671
11
206.931
21
-185.529
0
LINE
8
Black
10
206.931
20
-185.529
11
207.002
21
-185.457
0
LINE
8
Black
10
207.002
20
-185.457
11
207.145
21
-185.386
0
LINE
8
Black
10
207.145
20
-185.386
11
207.431
21
-185.386
0
LINE
8
Black
10
207.431
20
-185.386
11
207.574
21
-185.457
0
LINE
8
Black
10
208.216
20
-186.243
11
208.288
21
-186.314
0
LINE
8
Black
10
208.288
20
-186.314
11
208.216
21
-186.386
0
LINE
8
Black
10
208.216
20
-186.386
11
208.145
21
-186.314
0
LINE
8
Black
10
208.145
20
-186.314
11
208.216
21
-186.243
0
LINE
8
Black
10
208.216
20
-186.243
11
208.216
21
-186.386
0
LINE
8
Black
10
208.931
20
-186.386
11
208.931
21
-184.886
0
LINE
8
Black
10
209.074
20
-185.814
11
209.502
21
-186.386
0
LINE
8
Black
10
209.502
20
-185.386
11
208.931
21
-185.957
0
LINE
8
Black
10
210.145
20
-186.386
11
210.145
21
-185.386
0
LINE
8
Black
10
210.145
20
-184.886
11
210.074
21
-184.957
0
LINE
8
Black
10
210.074
20
-184.957
11
210.145
21
-185.029
0
LINE
8
Black
10
210.145
20
-185.029
11
210.216
21
-184.957
0
LINE
8
Black
10
210.216
20
-184.957
11
210.145
21
-184.886
0
LINE
8
Black
10
210.145
20
-184.886
11
210.145
21
-185.029
0
LINE
8
Black
10
211.502
20
-186.314
11
211.359
21
-186.386
0
LINE
8
Black
10
211.359
20
-186.386
11
211.074
21
-186.386
0
LINE
8
Black
10
211.074
20
-186.386
11
210.931
21
-186.314
0
LINE
8
Black
10
210.931
20
-186.314
11
210.859
21
-186.243
0
LINE
8
Black
10
210.859
20
-186.243
11
210.788
21
-186.1
0
LINE
8
Black
10
210.788
20
-186.1
11
210.788
21
-185.671
0
LINE
8
Black
10
210.788
20
-185.671
11
210.859
21
-185.529
0
LINE
8
Black
10
210.859
20
-185.529
11
210.931
21
-185.457
0
LINE
8
Black
10
210.931
20
-185.457
11
211.074
21
-185.386
0
LINE
8
Black
10
211.074
20
-185.386
11
211.359
21
-185.386
0
LINE
8
Black
10
211.359
20
-185.386
11
211.502
21
-185.457
0
LINE
8
Black
10
212.788
20
-186.386
11
212.788
21
-185.6
0
LINE
8
Black
10
212.788
20
-185.6
11
212.716
21
-185.457
0
LINE
8
Black
10
212.716
20
-185.457
11
212.574
21
-185.386
0
LINE
8
Black
10
212.574
20
-185.386
11
212.288
21
-185.386
0
LINE
8
Black
10
212.288
20
-185.386
11
212.145
21
-185.457
0
LINE
8
Black
10
212.788
20
-186.314
11
212.645
21
-186.386
0
LINE
8
Black
10
212.645
20
-186.386
11
212.288
21
-186.386
0
LINE
8
Black
10
212.288
20
-186.386
11
212.145
21
-186.314
0
LINE
8
Black
10
212.145
20
-186.314
11
212.074
21
-186.171
0
LINE
8
Black
10
212.074
20
-186.171
11
212.074
21
-186.029
0
LINE
8
Black
10
212.074
20
-186.029
11
212.145
21
-185.886
0
LINE
8
Black
10
212.145
20
-185.886
11
212.288
21
-185.814
0
LINE
8
Black
10
212.288
20
-185.814
11
212.645
21
-185.814
0
LINE
8
Black
10
212.645
20
-185.814
11
212.788
21
-185.743
0
LINE
8
Black
10
214.145
20
-186.386
11
214.145
21
-184.886
0
LINE
8
Black
10
214.145
20
-186.314
11
214.002
21
-186.386
0
LINE
8
Black
10
214.002
20
-186.386
11
213.716
21
-186.386
0
LINE
8
Black
10
213.716
20
-186.386
11
213.574
21
-186.314
0
LINE
8
Black
10
213.574
20
-186.314
11
213.502
21
-186.243
0
LINE
8
Black
10
213.502
20
-186.243
11
213.431
21
-186.1
0
LINE
8
Black
10
213.431
20
-186.1
11
213.431
21
-185.671
0
LINE
8
Black
10
213.431
20
-185.671
11
213.502
21
-185.529
0
LINE
8
Black
10
213.502
20
-185.529
11
213.574
21
-185.457
0
LINE
8
Black
10
213.574
20
-185.457
11
213.716
21
-185.386
0
LINE
8
Black
10
213.716
20
-185.386
11
214.002
21
-185.386
0
LINE
8
Black
10
214.002
20
-185.386
11
214.145
21
-185.457
0
LINE
8
Black
10
214.502
20
-186.529
11
215.645
21
-186.529
0
LINE
8
Black
10
216.002
20
-185.386
11
216.002
21
-186.886
0
LINE
8
Black
10
216.002
20
-185.457
11
216.145
21
-185.386
0
LINE
8
Black
10
216.145
20
-185.386
11
216.431
21
-185.386
0
LINE
8
Black
10
216.431
20
-185.386
11
216.574
21
-185.457
0
LINE
8
Black
10
216.574
20
-185.457
11
216.645
21
-185.529
0
LINE
8
Black
10
216.645
20
-185.529
11
216.716
21
-185.671
0
LINE
8
Black
10
216.716
20
-185.671
11
216.716
21
-186.1
0
LINE
8
Black
10
216.716
20
-186.1
11
216.645
21
-186.243
0
LINE
8
Black
10
216.645
20
-186.243
11
216.574
21
-186.314
0
LINE
8
Black
10
216.574
20
-186.314
11
216.431
21
-186.386
0
LINE
8
Black
10
216.431
20
-186.386
11
216.145
21
-186.386
0
LINE
8
Black
10
216.145
20
-186.386
11
216.002
21
-186.314
0
LINE
8
Black
10
218.002
20
-186.314
11
217.859
21
-186.386
0
LINE
8
Black
10
217.859
20
-186.386
11
217.574
21
-186.386
0
LINE
8
Black
10
217.574
20
-186.386
11
217.431
21
-186.314
0
LINE
8
Black
10
217.431
20
-186.314
11
217.359
21
-186.243
0
LINE
8
Black
10
217.359
20
-186.243
11
217.288
21
-186.1
0
LINE
8
Black
10
217.288
20
-186.1
11
217.288
21
-185.671
0
LINE
8
Black
10
217.288
20
-185.671
11
217.359
21
-185.529
0
LINE
8
Black
10
217.359
20
-185.529
11
217.431
21
-185.457
0
LINE
8
Black
10
217.431
20
-185.457
11
217.574
21
-185.386
0
LINE
8
Black
10
217.574
20
-185.386
11
217.859
21
-185.386
0
LINE
8
Black
10
217.859
20
-185.386
11
218.002
21
-185.457
0
LINE
8
Black
10
218.645
20
-186.386
11
218.645
21
-184.886
0
LINE
8
Black
10
218.645
20
-185.457
11
218.788
21
-185.386
0
LINE
8
Black
10
218.788
20
-185.386
11
219.074
21
-185.386
0
LINE
8
Black
10
219.074
20
-185.386
11
219.216
21
-185.457
0
LINE
8
Black
10
219.216
20
-185.457
11
219.288
21
-185.529
0
LINE
8
Black
10
219.288
20
-185.529
11
219.359
21
-185.671
0
LINE
8
Black
10
219.359
20
-185.671
11
219.359
21
-186.1
0
LINE
8
Black
10
219.359
20
-186.1
11
219.288
21
-186.243
0
LINE
8
Black
10
219.288
20
-186.243
11
219.216
21
-186.314
0
LINE
8
Black
10
219.216
20
-186.314
11
219.074
21
-186.386
0
LINE
8
Black
10
219.074
20
-186.386
11
218.788
21
-186.386
0
LINE
8
Black
10
218.788
20
-186.386
11
218.645
21
-186.314
0
LINE
8
Black
10
177.002
20
-181.507
11
285.002
21
-181.507
0
LINE
8
Black
10
178.288
20
-183.614
11
178.502
21
-183.686
0
LINE
8
Black
10
178.502
20
-183.686
11
178.859
21
-183.686
0
LINE
8
Black
10
178.859
20
-183.686
11
179.002
21
-183.614
0
LINE
8
Black
10
179.002
20
-183.614
11
179.074
21
-183.543
0
LINE
8
Black
10
179.074
20
-183.543
11
179.145
21
-183.4
0
LINE
8
Black
10
179.145
20
-183.4
11
179.145
21
-183.257
0
LINE
8
Black
10
179.145
20
-183.257
11
179.074
21
-183.114
0
LINE
8
Black
10
179.074
20
-183.114
11
179.002
21
-183.043
0
LINE
8
Black
10
179.002
20
-183.043
11
178.859
21
-182.971
0
LINE
8
Black
10
178.859
20
-182.971
11
178.574
21
-182.9
0
LINE
8
Black
10
178.574
20
-182.9
11
178.431
21
-182.829
0
LINE
8
Black
10
178.431
20
-182.829
11
178.359
21
-182.757
0
LINE
8
Black
10
178.359
20
-182.757
11
178.288
21
-182.614
0
LINE
8
Black
10
178.288
20
-182.614
11
178.288
21
-182.471
0
LINE
8
Black
10
178.288
20
-182.471
11
178.359
21
-182.329
0
LINE
8
Black
10
178.359
20
-182.329
11
178.431
21
-182.257
0
LINE
8
Black
10
178.431
20
-182.257
11
178.574
21
-182.186
0
LINE
8
Black
10
178.574
20
-182.186
11
178.931
21
-182.186
0
LINE
8
Black
10
178.931
20
-182.186
11
179.145
21
-182.257
0
LINE
8
Black
10
179.788
20
-183.686
11
179.788
21
-182.186
0
LINE
8
Black
10
180.431
20
-183.686
11
180.431
21
-182.9
0
LINE
8
Black
10
180.431
20
-182.9
11
180.359
21
-182.757
0
LINE
8
Black
10
180.359
20
-182.757
11
180.216
21
-182.686
0
LINE
8
Black
10
180.216
20
-182.686
11
180.002
21
-182.686
0
LINE
8
Black
10
180.002
20
-182.686
11
179.859
21
-182.757
0
LINE
8
Black
10
179.859
20
-182.757
11
179.788
21
-182.829
0
LINE
8
Black
10
181.716
20
-183.614
11
181.574
21
-183.686
0
LINE
8
Black
10
181.574
20
-183.686
11
181.288
21
-183.686
0
LINE
8
Black
10
181.288
20
-183.686
11
181.145
21
-183.614
0
LINE
8
Black
10
181.145
20
-183.614
11
181.074
21
-183.471
0
LINE
8
Black
10
181.074
20
-183.471
11
181.074
21
-182.9
0
LINE
8
Black
10
181.074
20
-182.9
11
181.145
21
-182.757
0
LINE
8
Black
10
181.145
20
-182.757
11
181.288
21
-182.686
0
LINE
8
Black
10
181.288
20
-182.686
11
181.574
21
-182.686
0
LINE
8
Black
10
181.574
20
-182.686
11
181.716
21
-182.757
0
LINE
8
Black
10
181.716
20
-182.757
11
181.788
21
-182.9
0
LINE
8
Black
10
181.788
20
-182.9
11
181.788
21
-183.043
0
LINE
8
Black
10
181.788
20
-183.043
11
181.074
21
-183.186
0
LINE
8
Black
10
183.002
20
-183.614
11
182.859
21
-183.686
0
LINE
8
Black
10
182.859
20
-183.686
11
182.574
21
-183.686
0
LINE
8
Black
10
182.574
20
-183.686
11
182.431
21
-183.614
0
LINE
8
Black
10
182.431
20
-183.614
11
182.359
21
-183.471
0
LINE
8
Black
10
182.359
20
-183.471
11
182.359
21
-182.9
0
LINE
8
Black
10
182.359
20
-182.9
11
182.431
21
-182.757
0
LINE
8
Black
10
182.431
20
-182.757
11
182.574
21
-182.686
0
LINE
8
Black
10
182.574
20
-182.686
11
182.859
21
-182.686
0
LINE
8
Black
10
182.859
20
-182.686
11
183.002
21
-182.757
0
LINE
8
Black
10
183.002
20
-182.757
11
183.074
21
-182.9
0
LINE
8
Black
10
183.074
20
-182.9
11
183.074
21
-183.043
0
LINE
8
Black
10
183.074
20
-183.043
11
182.359
21
-183.186
0
LINE
8
Black
10
183.502
20
-182.686
11
184.074
21
-182.686
0
LINE
8
Black
10
183.716
20
-182.186
11
183.716
21
-183.471
0
LINE
8
Black
10
183.716
20
-183.471
11
183.788
21
-183.614
0
LINE
8
Black
10
183.788
20
-183.614
11
183.931
21
-183.686
0
LINE
8
Black
10
183.931
20
-183.686
11
184.074
21
-183.686
0
LINE
8
Black
10
184.574
20
-183.543
11
184.645
21
-183.614
0
LINE
8
Black
10
184.645
20
-183.614
11
184.574
21
-183.686
0
LINE
8
Black
10
184.574
20
-183.686
11
184.502
21
-183.614
0
LINE
8
Black
10
184.502
20
-183.614
11
184.574
21
-183.543
0
LINE
8
Black
10
184.574
20
-183.543
11
184.574
21
-183.686
0
LINE
8
Black
10
184.574
20
-182.757
11
184.645
21
-182.829
0
LINE
8
Black
10
184.645
20
-182.829
11
184.574
21
-182.9
0
LINE
8
Black
10
184.574
20
-182.9
11
184.502
21
-182.829
0
LINE
8
Black
10
184.502
20
-182.829
11
184.574
21
-182.757
0
LINE
8
Black
10
184.574
20
-182.757
11
184.574
21
-182.9
0
LINE
8
Black
10
197.002
20
-191.507
11
197.002
21
-194.507
0
LINE
8
Black
10
261.002
20
-191.507
11
261.002
21
-198.007
0
LINE
8
Black
10
138.916
20
-124.606
11
139.146
21
-124.738
0
LINE
8
Black
10
139.146
20
-124.738
11
139.317
21
-124.942
0
LINE
8
Black
10
139.317
20
-124.942
11
139.408
21
-125.192
0
LINE
8
Black
10
139.408
20
-125.192
11
139.408
21
-125.457
0
LINE
8
Black
10
139.408
20
-125.457
11
139.317
21
-125.707
0
LINE
8
Black
10
139.317
20
-125.707
11
139.146
21
-125.91
0
LINE
8
Black
10
139.146
20
-125.91
11
138.916
21
-126.043
0
LINE
8
Black
10
138.916
20
-126.043
11
138.654
21
-126.089
0
LINE
8
Black
10
138.654
20
-126.089
11
138.393
21
-126.043
0
LINE
8
Black
10
138.393
20
-126.043
11
138.163
21
-125.91
0
LINE
8
Black
10
138.163
20
-125.91
11
137.992
21
-125.707
0
LINE
8
Black
10
137.992
20
-125.707
11
137.901
21
-125.457
0
LINE
8
Black
10
137.901
20
-125.457
11
137.901
21
-125.192
0
LINE
8
Black
10
137.901
20
-125.192
11
137.992
21
-124.942
0
LINE
8
Black
10
137.992
20
-124.942
11
138.163
21
-124.738
0
LINE
8
Black
10
138.163
20
-124.738
11
138.393
21
-124.606
0
LINE
8
Black
10
138.393
20
-124.606
11
138.654
21
-124.559
0
LINE
8
Black
10
138.654
20
-124.559
11
138.916
21
-124.606
0
LINE
8
Black
10
165.616
20
-122.217
11
165.846
21
-122.35
0
LINE
8
Black
10
165.846
20
-122.35
11
166.016
21
-122.554
0
LINE
8
Black
10
166.016
20
-122.554
11
166.107
21
-122.803
0
LINE
8
Black
10
166.107
20
-122.803
11
166.107
21
-123.069
0
LINE
8
Black
10
166.107
20
-123.069
11
166.016
21
-123.318
0
LINE
8
Black
10
166.016
20
-123.318
11
165.846
21
-123.522
0
LINE
8
Black
10
165.846
20
-123.522
11
165.616
21
-123.655
0
LINE
8
Black
10
165.616
20
-123.655
11
165.354
21
-123.701
0
LINE
8
Black
10
165.354
20
-123.701
11
165.092
21
-123.655
0
LINE
8
Black
10
165.092
20
-123.655
11
164.862
21
-123.522
0
LINE
8
Black
10
164.862
20
-123.522
11
164.692
21
-123.318
0
LINE
8
Black
10
164.692
20
-123.318
11
164.601
21
-123.069
0
LINE
8
Black
10
164.601
20
-123.069
11
164.601
21
-122.803
0
LINE
8
Black
10
164.601
20
-122.803
11
164.692
21
-122.554
0
LINE
8
Black
10
164.692
20
-122.554
11
164.862
21
-122.35
0
LINE
8
Black
10
164.862
20
-122.35
11
165.092
21
-122.217
0
LINE
8
Black
10
165.092
20
-122.217
11
165.354
21
-122.171
0
LINE
8
Black
10
165.354
20
-122.171
11
165.616
21
-122.217
0
LINE
8
Black
10
141.355
20
-122.166
11
141.585
21
-122.299
0
LINE
8
Black
10
141.585
20
-122.299
11
141.756
21
-122.502
0
LINE
8
Black
10
141.756
20
-122.502
11
141.847
21
-122.752
0
LINE
8
Black
10
141.847
20
-122.752
11
141.847
21
-123.018
0
LINE
8
Black
10
141.847
20
-123.018
11
141.756
21
-123.267
0
LINE
8
Black
10
141.756
20
-123.267
11
141.585
21
-123.471
0
LINE
8
Black
10
141.585
20
-123.471
11
141.355
21
-123.604
0
LINE
8
Black
10
141.355
20
-123.604
11
141.094
21
-123.65
0
LINE
8
Black
10
141.094
20
-123.65
11
140.832
21
-123.604
0
LINE
8
Black
10
140.832
20
-123.604
11
140.602
21
-123.471
0
LINE
8
Black
10
140.602
20
-123.471
11
140.431
21
-123.267
0
LINE
8
Black
10
140.431
20
-123.267
11
140.34
21
-123.018
0
LINE
8
Black
10
140.34
20
-123.018
11
140.34
21
-122.752
0
LINE
8
Black
10
140.34
20
-122.752
11
140.431
21
-122.502
0
LINE
8
Black
10
140.431
20
-122.502
11
140.602
21
-122.299
0
LINE
8
Black
10
140.602
20
-122.299
11
140.832
21
-122.166
0
LINE
8
Black
10
140.832
20
-122.166
11
141.094
21
-122.12
0
LINE
8
Black
10
141.094
20
-122.12
11
141.355
21
-122.166
0
LINE
8
Black
10
129.918
20
-119.551
11
130.131
21
-119.7
0
LINE
8
Black
10
130.131
20
-119.7
11
130.49
21
-120.059
0
LINE
8
Black
10
130.49
20
-120.059
11
130.639
21
-120.272
0
LINE
8
Black
10
130.639
20
-120.272
11
130.707
21
-120.524
0
LINE
8
Black
10
130.707
20
-120.524
11
130.684
21
-120.784
0
LINE
8
Black
10
130.684
20
-120.784
11
130.574
21
-121.02
0
LINE
8
Black
10
130.574
20
-121.02
11
130.39
21
-121.204
0
LINE
8
Black
10
130.39
20
-121.204
11
130.154
21
-121.314
0
LINE
8
Black
10
130.154
20
-121.314
11
129.894
21
-121.337
0
LINE
8
Black
10
129.894
20
-121.337
11
129.643
21
-121.269
0
LINE
8
Black
10
129.643
20
-121.269
11
129.429
21
-121.12
0
LINE
8
Black
10
129.429
20
-121.12
11
129.07
21
-120.761
0
LINE
8
Black
10
129.07
20
-120.761
11
128.921
21
-120.547
0
LINE
8
Black
10
128.921
20
-120.547
11
128.853
21
-120.296
0
LINE
8
Black
10
128.853
20
-120.296
11
128.876
21
-120.036
0
LINE
8
Black
10
128.876
20
-120.036
11
128.986
21
-119.8
0
LINE
8
Black
10
128.986
20
-119.8
11
129.17
21
-119.616
0
LINE
8
Black
10
129.17
20
-119.616
11
129.406
21
-119.506
0
LINE
8
Black
10
129.406
20
-119.506
11
129.666
21
-119.483
0
LINE
8
Black
10
129.666
20
-119.483
11
129.918
21
-119.551
0
LINE
8
Black
10
168.189
20
-118.125
11
168.672
21
-118.404
0
LINE
8
Black
10
168.672
20
-118.404
11
169.031
21
-118.831
0
LINE
8
Black
10
169.031
20
-118.831
11
169.222
21
-119.355
0
LINE
8
Black
10
169.222
20
-119.355
11
169.222
21
-119.913
0
LINE
8
Black
10
169.222
20
-119.913
11
169.031
21
-120.437
0
LINE
8
Black
10
169.031
20
-120.437
11
168.672
21
-120.864
0
LINE
8
Black
10
168.672
20
-120.864
11
168.189
21
-121.143
0
LINE
8
Black
10
168.189
20
-121.143
11
167.64
21
-121.24
0
LINE
8
Black
10
167.64
20
-121.24
11
167.091
21
-121.143
0
LINE
8
Black
10
167.091
20
-121.143
11
166.608
21
-120.864
0
LINE
8
Black
10
166.608
20
-120.864
11
166.249
21
-120.437
0
LINE
8
Black
10
166.249
20
-120.437
11
166.058
21
-119.913
0
LINE
8
Black
10
166.058
20
-119.913
11
166.058
21
-119.355
0
LINE
8
Black
10
166.058
20
-119.355
11
166.249
21
-118.831
0
LINE
8
Black
10
166.249
20
-118.831
11
166.608
21
-118.404
0
LINE
8
Black
10
166.608
20
-118.404
11
167.091
21
-118.125
0
LINE
8
Black
10
167.091
20
-118.125
11
167.64
21
-118.028
0
LINE
8
Black
10
167.64
20
-118.028
11
168.189
21
-118.125
0
LINE
8
Black
10
159.361
20
-116.811
11
159.452
21
-116.863
0
LINE
8
Black
10
159.452
20
-116.863
11
159.519
21
-116.943
0
LINE
8
Black
10
159.519
20
-116.943
11
159.555
21
-117.042
0
LINE
8
Black
10
159.555
20
-117.042
11
159.555
21
-117.146
0
LINE
8
Black
10
159.555
20
-117.146
11
159.537
21
-117.196
0
LINE
8
Black
10
159.537
20
-117.196
11
159.6
21
-117.26
0
LINE
8
Black
10
159.6
20
-117.26
11
159.604
21
-117.264
0
LINE
8
Black
10
159.604
20
-117.264
11
159.608
21
-117.268
0
LINE
8
Black
10
159.608
20
-117.268
11
159.616
21
-117.282
0
LINE
8
Black
10
159.616
20
-117.282
11
159.625
21
-117.295
0
LINE
8
Black
10
159.625
20
-117.295
11
159.627
21
-117.3
0
LINE
8
Black
10
159.627
20
-117.3
11
159.629
21
-117.305
0
LINE
8
Black
10
159.629
20
-117.305
11
159.632
21
-117.321
0
LINE
8
Black
10
159.632
20
-117.321
11
159.637
21
-117.337
0
LINE
8
Black
10
159.637
20
-117.337
11
159.636
21
-117.343
0
LINE
8
Black
10
159.636
20
-117.343
11
159.637
21
-117.348
0
LINE
8
Black
10
159.637
20
-117.348
11
159.637
21
-119.618
0
LINE
8
Black
10
159.637
20
-119.618
11
159.706
21
-119.657
0
LINE
8
Black
10
159.706
20
-119.657
11
159.773
21
-119.737
0
LINE
8
Black
10
159.773
20
-119.737
11
159.809
21
-119.836
0
LINE
8
Black
10
159.809
20
-119.836
11
159.809
21
-119.94
0
LINE
8
Black
10
159.809
20
-119.94
11
159.773
21
-120.039
0
LINE
8
Black
10
159.773
20
-120.039
11
159.706
21
-120.119
0
LINE
8
Black
10
159.706
20
-120.119
11
159.615
21
-120.171
0
LINE
8
Black
10
159.615
20
-120.171
11
159.512
21
-120.189
0
LINE
8
Black
10
159.512
20
-120.189
11
159.409
21
-120.171
0
LINE
8
Black
10
159.409
20
-120.171
11
159.318
21
-120.119
0
LINE
8
Black
10
159.318
20
-120.119
11
159.251
21
-120.039
0
LINE
8
Black
10
159.251
20
-120.039
11
159.215
21
-119.94
0
LINE
8
Black
10
159.215
20
-119.94
11
159.215
21
-119.836
0
LINE
8
Black
10
159.215
20
-119.836
11
159.251
21
-119.737
0
LINE
8
Black
10
159.251
20
-119.737
11
159.318
21
-119.657
0
LINE
8
Black
10
159.318
20
-119.657
11
159.387
21
-119.618
0
LINE
8
Black
10
159.387
20
-119.618
11
159.387
21
-117.4
0
LINE
8
Black
10
159.387
20
-117.4
11
159.363
21
-117.376
0
LINE
8
Black
10
159.363
20
-117.376
11
159.361
21
-117.377
0
LINE
8
Black
10
159.361
20
-117.377
11
159.258
21
-117.395
0
LINE
8
Black
10
159.258
20
-117.395
11
159.155
21
-117.377
0
LINE
8
Black
10
159.155
20
-117.377
11
159.064
21
-117.325
0
LINE
8
Black
10
159.064
20
-117.325
11
158.997
21
-117.245
0
LINE
8
Black
10
158.997
20
-117.245
11
158.961
21
-117.146
0
LINE
8
Black
10
158.961
20
-117.146
11
158.961
21
-117.042
0
LINE
8
Black
10
158.961
20
-117.042
11
158.997
21
-116.943
0
LINE
8
Black
10
158.997
20
-116.943
11
159.064
21
-116.863
0
LINE
8
Black
10
159.064
20
-116.863
11
159.155
21
-116.811
0
LINE
8
Black
10
159.155
20
-116.811
11
159.258
21
-116.793
0
LINE
8
Black
10
159.258
20
-116.793
11
159.361
21
-116.811
0
LINE
8
Black
10
136.281
20
-113.187
11
136.495
21
-113.336
0
LINE
8
Black
10
136.495
20
-113.336
11
136.854
21
-113.695
0
LINE
8
Black
10
136.854
20
-113.695
11
137.003
21
-113.909
0
LINE
8
Black
10
137.003
20
-113.909
11
137.071
21
-114.16
0
LINE
8
Black
10
137.071
20
-114.16
11
137.048
21
-114.42
0
LINE
8
Black
10
137.048
20
-114.42
11
136.938
21
-114.656
0
LINE
8
Black
10
136.938
20
-114.656
11
136.754
21
-114.84
0
LINE
8
Black
10
136.754
20
-114.84
11
136.518
21
-114.95
0
LINE
8
Black
10
136.518
20
-114.95
11
136.258
21
-114.973
0
LINE
8
Black
10
136.258
20
-114.973
11
136.007
21
-114.905
0
LINE
8
Black
10
136.007
20
-114.905
11
135.793
21
-114.756
0
LINE
8
Black
10
135.793
20
-114.756
11
135.434
21
-114.397
0
LINE
8
Black
10
135.434
20
-114.397
11
135.285
21
-114.183
0
LINE
8
Black
10
135.285
20
-114.183
11
135.217
21
-113.932
0
LINE
8
Black
10
135.217
20
-113.932
11
135.24
21
-113.672
0
LINE
8
Black
10
135.24
20
-113.672
11
135.35
21
-113.436
0
LINE
8
Black
10
135.35
20
-113.436
11
135.534
21
-113.252
0
LINE
8
Black
10
135.534
20
-113.252
11
135.77
21
-113.142
0
LINE
8
Black
10
135.77
20
-113.142
11
136.03
21
-113.119
0
LINE
8
Black
10
136.03
20
-113.119
11
136.281
21
-113.187
0
LINE
8
Black
10
162.663
20
-110.461
11
162.754
21
-110.513
0
LINE
8
Black
10
162.754
20
-110.513
11
162.821
21
-110.593
0
LINE
8
Black
10
162.821
20
-110.593
11
162.857
21
-110.692
0
LINE
8
Black
10
162.857
20
-110.692
11
162.857
21
-110.796
0
LINE
8
Black
10
162.857
20
-110.796
11
162.821
21
-110.895
0
LINE
8
Black
10
162.821
20
-110.895
11
162.754
21
-110.975
0
LINE
8
Black
10
162.754
20
-110.975
11
162.685
21
-111.014
0
LINE
8
Black
10
162.685
20
-111.014
11
162.685
21
-112.76
0
LINE
8
Black
10
162.685
20
-112.76
11
162.754
21
-112.799
0
LINE
8
Black
10
162.754
20
-112.799
11
162.821
21
-112.879
0
LINE
8
Black
10
162.821
20
-112.879
11
162.857
21
-112.978
0
LINE
8
Black
10
162.857
20
-112.978
11
162.857
21
-113.082
0
LINE
8
Black
10
162.857
20
-113.082
11
162.821
21
-113.181
0
LINE
8
Black
10
162.821
20
-113.181
11
162.754
21
-113.261
0
LINE
8
Black
10
162.754
20
-113.261
11
162.663
21
-113.313
0
LINE
8
Black
10
162.663
20
-113.313
11
162.56
21
-113.331
0
LINE
8
Black
10
162.56
20
-113.331
11
162.457
21
-113.313
0
LINE
8
Black
10
162.457
20
-113.313
11
162.366
21
-113.261
0
LINE
8
Black
10
162.366
20
-113.261
11
162.299
21
-113.181
0
LINE
8
Black
10
162.299
20
-113.181
11
162.263
21
-113.082
0
LINE
8
Black
10
162.263
20
-113.082
11
162.263
21
-112.978
0
LINE
8
Black
10
162.263
20
-112.978
11
162.299
21
-112.879
0
LINE
8
Black
10
162.299
20
-112.879
11
162.366
21
-112.799
0
LINE
8
Black
10
162.366
20
-112.799
11
162.435
21
-112.76
0
LINE
8
Black
10
162.435
20
-112.76
11
162.435
21
-111.014
0
LINE
8
Black
10
162.435
20
-111.014
11
162.366
21
-110.975
0
LINE
8
Black
10
162.366
20
-110.975
11
162.299
21
-110.895
0
LINE
8
Black
10
162.299
20
-110.895
11
162.263
21
-110.796
0
LINE
8
Black
10
162.263
20
-110.796
11
162.263
21
-110.692
0
LINE
8
Black
10
162.263
20
-110.692
11
162.299
21
-110.593
0
LINE
8
Black
10
162.299
20
-110.593
11
162.366
21
-110.513
0
LINE
8
Black
10
162.366
20
-110.513
11
162.457
21
-110.461
0
LINE
8
Black
10
162.457
20
-110.461
11
162.56
21
-110.443
0
LINE
8
Black
10
162.56
20
-110.443
11
162.663
21
-110.461
0
LINE
8
Black
10
157.329
20
-110.461
11
157.42
21
-110.513
0
LINE
8
Black
10
157.42
20
-110.513
11
157.487
21
-110.593
0
LINE
8
Black
10
157.487
20
-110.593
11
157.523
21
-110.692
0
LINE
8
Black
10
157.523
20
-110.692
11
157.523
21
-110.796
0
LINE
8
Black
10
157.523
20
-110.796
11
157.487
21
-110.895
0
LINE
8
Black
10
157.487
20
-110.895
11
157.42
21
-110.975
0
LINE
8
Black
10
157.42
20
-110.975
11
157.329
21
-111.027
0
LINE
8
Black
10
157.329
20
-111.027
11
157.226
21
-111.045
0
LINE
8
Black
10
157.226
20
-111.045
11
157.123
21
-111.027
0
LINE
8
Black
10
157.123
20
-111.027
11
157.032
21
-110.975
0
LINE
8
Black
10
157.032
20
-110.975
11
156.965
21
-110.895
0
LINE
8
Black
10
156.965
20
-110.895
11
156.956
21
-110.869
0
LINE
8
Black
10
156.956
20
-110.869
11
152.162
21
-110.869
0
LINE
8
Black
10
152.162
20
-110.869
11
152.153
21
-110.895
0
LINE
8
Black
10
152.153
20
-110.895
11
152.086
21
-110.975
0
LINE
8
Black
10
152.086
20
-110.975
11
151.995
21
-111.027
0
LINE
8
Black
10
151.995
20
-111.027
11
151.892
21
-111.045
0
LINE
8
Black
10
151.892
20
-111.045
11
151.789
21
-111.027
0
LINE
8
Black
10
151.789
20
-111.027
11
151.698
21
-110.975
0
LINE
8
Black
10
151.698
20
-110.975
11
151.631
21
-110.895
0
LINE
8
Black
10
151.631
20
-110.895
11
151.595
21
-110.796
0
LINE
8
Black
10
151.595
20
-110.796
11
151.595
21
-110.692
0
LINE
8
Black
10
151.595
20
-110.692
11
151.631
21
-110.593
0
LINE
8
Black
10
151.631
20
-110.593
11
151.698
21
-110.513
0
LINE
8
Black
10
151.698
20
-110.513
11
151.789
21
-110.461
0
LINE
8
Black
10
151.789
20
-110.461
11
151.892
21
-110.443
0
LINE
8
Black
10
151.892
20
-110.443
11
151.995
21
-110.461
0
LINE
8
Black
10
151.995
20
-110.461
11
152.086
21
-110.513
0
LINE
8
Black
10
152.086
20
-110.513
11
152.153
21
-110.593
0
LINE
8
Black
10
152.153
20
-110.593
11
152.162
21
-110.619
0
LINE
8
Black
10
152.162
20
-110.619
11
156.956
21
-110.619
0
LINE
8
Black
10
156.956
20
-110.619
11
156.965
21
-110.593
0
LINE
8
Black
10
156.965
20
-110.593
11
157.032
21
-110.513
0
LINE
8
Black
10
157.032
20
-110.513
11
157.123
21
-110.461
0
LINE
8
Black
10
157.123
20
-110.461
11
157.226
21
-110.443
0
LINE
8
Black
10
157.226
20
-110.443
11
157.329
21
-110.461
0
LINE
8
Black
10
153.011
20
-107.413
11
153.102
21
-107.465
0
LINE
8
Black
10
153.102
20
-107.465
11
153.169
21
-107.545
0
LINE
8
Black
10
153.169
20
-107.545
11
153.205
21
-107.644
0
LINE
8
Black
10
153.205
20
-107.644
11
153.205
21
-107.748
0
LINE
8
Black
10
153.205
20
-107.748
11
153.187
21
-107.798
0
LINE
8
Black
10
153.187
20
-107.798
11
153.932
21
-108.543
0
LINE
8
Black
10
153.932
20
-108.543
11
153.984
21
-108.481
0
LINE
8
Black
10
153.984
20
-108.481
11
154.075
21
-108.429
0
LINE
8
Black
10
154.075
20
-108.429
11
154.178
21
-108.411
0
LINE
8
Black
10
154.178
20
-108.411
11
154.281
21
-108.429
0
LINE
8
Black
10
154.281
20
-108.429
11
154.372
21
-108.481
0
LINE
8
Black
10
154.372
20
-108.481
11
154.439
21
-108.561
0
LINE
8
Black
10
154.439
20
-108.561
11
154.475
21
-108.66
0
LINE
8
Black
10
154.475
20
-108.66
11
154.475
21
-108.764
0
LINE
8
Black
10
154.475
20
-108.764
11
154.439
21
-108.863
0
LINE
8
Black
10
154.439
20
-108.863
11
154.372
21
-108.943
0
LINE
8
Black
10
154.372
20
-108.943
11
154.281
21
-108.995
0
LINE
8
Black
10
154.281
20
-108.995
11
154.178
21
-109.013
0
LINE
8
Black
10
154.178
20
-109.013
11
154.075
21
-108.995
0
LINE
8
Black
10
154.075
20
-108.995
11
153.984
21
-108.943
0
LINE
8
Black
10
153.984
20
-108.943
11
153.917
21
-108.863
0
LINE
8
Black
10
153.917
20
-108.863
11
153.907
21
-108.835
0
LINE
8
Black
10
153.907
20
-108.835
11
153.897
21
-108.832
0
LINE
8
Black
10
153.897
20
-108.832
11
153.881
21
-108.829
0
LINE
8
Black
10
153.881
20
-108.829
11
153.876
21
-108.827
0
LINE
8
Black
10
153.876
20
-108.827
11
153.871
21
-108.825
0
LINE
8
Black
10
153.871
20
-108.825
11
153.858
21
-108.816
0
LINE
8
Black
10
153.858
20
-108.816
11
153.844
21
-108.808
0
LINE
8
Black
10
153.844
20
-108.808
11
153.84
21
-108.804
0
LINE
8
Black
10
153.84
20
-108.804
11
153.836
21
-108.8
0
LINE
8
Black
10
153.836
20
-108.8
11
153.013
21
-107.978
0
LINE
8
Black
10
153.013
20
-107.978
11
153.011
21
-107.979
0
LINE
8
Black
10
153.011
20
-107.979
11
152.908
21
-107.997
0
LINE
8
Black
10
152.908
20
-107.997
11
152.805
21
-107.979
0
LINE
8
Black
10
152.805
20
-107.979
11
152.714
21
-107.927
0
LINE
8
Black
10
152.714
20
-107.927
11
152.647
21
-107.847
0
LINE
8
Black
10
152.647
20
-107.847
11
152.611
21
-107.748
0
LINE
8
Black
10
152.611
20
-107.748
11
152.611
21
-107.644
0
LINE
8
Black
10
152.611
20
-107.644
11
152.647
21
-107.545
0
LINE
8
Black
10
152.647
20
-107.545
11
152.714
21
-107.465
0
LINE
8
Black
10
152.714
20
-107.465
11
152.805
21
-107.413
0
LINE
8
Black
10
152.805
20
-107.413
11
152.908
21
-107.395
0
LINE
8
Black
10
152.908
20
-107.395
11
153.011
21
-107.413
0
LINE
8
Black
10
153.773
20
-106.905
11
153.864
21
-106.957
0
LINE
8
Black
10
153.864
20
-106.957
11
153.931
21
-107.037
0
LINE
8
Black
10
153.931
20
-107.037
11
153.967
21
-107.136
0
LINE
8
Black
10
153.967
20
-107.136
11
153.967
21
-107.24
0
LINE
8
Black
10
153.967
20
-107.24
11
153.949
21
-107.29
0
LINE
8
Black
10
153.949
20
-107.29
11
154.484
21
-107.825
0
LINE
8
Black
10
154.484
20
-107.825
11
154.67
21
-107.825
0
LINE
8
Black
10
154.67
20
-107.825
11
154.679
21
-107.799
0
LINE
8
Black
10
154.679
20
-107.799
11
154.746
21
-107.719
0
LINE
8
Black
10
154.746
20
-107.719
11
154.837
21
-107.667
0
LINE
8
Black
10
154.837
20
-107.667
11
154.94
21
-107.649
0
LINE
8
Black
10
154.94
20
-107.649
11
155.043
21
-107.667
0
LINE
8
Black
10
155.043
20
-107.667
11
155.134
21
-107.719
0
LINE
8
Black
10
155.134
20
-107.719
11
155.201
21
-107.799
0
LINE
8
Black
10
155.201
20
-107.799
11
155.237
21
-107.898
0
LINE
8
Black
10
155.237
20
-107.898
11
155.237
21
-108.002
0
LINE
8
Black
10
155.237
20
-108.002
11
155.201
21
-108.101
0
LINE
8
Black
10
155.201
20
-108.101
11
155.134
21
-108.181
0
LINE
8
Black
10
155.134
20
-108.181
11
155.043
21
-108.233
0
LINE
8
Black
10
155.043
20
-108.233
11
154.94
21
-108.251
0
LINE
8
Black
10
154.94
20
-108.251
11
154.837
21
-108.233
0
LINE
8
Black
10
154.837
20
-108.233
11
154.746
21
-108.181
0
LINE
8
Black
10
154.746
20
-108.181
11
154.679
21
-108.101
0
LINE
8
Black
10
154.679
20
-108.101
11
154.67
21
-108.075
0
LINE
8
Black
10
154.67
20
-108.075
11
154.432
21
-108.075
0
LINE
8
Black
10
154.432
20
-108.075
11
154.427
21
-108.074
0
LINE
8
Black
10
154.427
20
-108.074
11
154.421
21
-108.075
0
LINE
8
Black
10
154.421
20
-108.075
11
154.405
21
-108.07
0
LINE
8
Black
10
154.405
20
-108.07
11
154.389
21
-108.067
0
LINE
8
Black
10
154.389
20
-108.067
11
154.384
21
-108.065
0
LINE
8
Black
10
154.384
20
-108.065
11
154.379
21
-108.063
0
LINE
8
Black
10
154.379
20
-108.063
11
154.366
21
-108.054
0
LINE
8
Black
10
154.366
20
-108.054
11
154.352
21
-108.046
0
LINE
8
Black
10
154.352
20
-108.046
11
154.348
21
-108.042
0
LINE
8
Black
10
154.348
20
-108.042
11
154.344
21
-108.038
0
LINE
8
Black
10
154.344
20
-108.038
11
153.775
21
-107.47
0
LINE
8
Black
10
153.775
20
-107.47
11
153.773
21
-107.471
0
LINE
8
Black
10
153.773
20
-107.471
11
153.67
21
-107.489
0
LINE
8
Black
10
153.67
20
-107.489
11
153.567
21
-107.471
0
LINE
8
Black
10
153.567
20
-107.471
11
153.476
21
-107.419
0
LINE
8
Black
10
153.476
20
-107.419
11
153.409
21
-107.339
0
LINE
8
Black
10
153.409
20
-107.339
11
153.373
21
-107.24
0
LINE
8
Black
10
153.373
20
-107.24
11
153.373
21
-107.136
0
LINE
8
Black
10
153.373
20
-107.136
11
153.409
21
-107.037
0
LINE
8
Black
10
153.409
20
-107.037
11
153.476
21
-106.957
0
LINE
8
Black
10
153.476
20
-106.957
11
153.567
21
-106.905
0
LINE
8
Black
10
153.567
20
-106.905
11
153.67
21
-106.887
0
LINE
8
Black
10
153.67
20
-106.887
11
153.773
21
-106.905
0
LINE
8
Black
10
127.611
20
-102.079
11
127.702
21
-102.131
0
LINE
8
Black
10
127.702
20
-102.131
11
127.769
21
-102.211
0
LINE
8
Black
10
127.769
20
-102.211
11
127.805
21
-102.31
0
LINE
8
Black
10
127.805
20
-102.31
11
127.805
21
-102.414
0
LINE
8
Black
10
127.805
20
-102.414
11
127.769
21
-102.513
0
LINE
8
Black
10
127.769
20
-102.513
11
127.702
21
-102.593
0
LINE
8
Black
10
127.702
20
-102.593
11
127.633
21
-102.632
0
LINE
8
Black
10
127.633
20
-102.632
11
127.633
21
-106.156
0
LINE
8
Black
10
127.633
20
-106.156
11
127.702
21
-106.195
0
LINE
8
Black
10
127.702
20
-106.195
11
127.769
21
-106.275
0
LINE
8
Black
10
127.769
20
-106.275
11
127.805
21
-106.374
0
LINE
8
Black
10
127.805
20
-106.374
11
127.805
21
-106.478
0
LINE
8
Black
10
127.805
20
-106.478
11
127.769
21
-106.577
0
LINE
8
Black
10
127.769
20
-106.577
11
127.702
21
-106.657
0
LINE
8
Black
10
127.702
20
-106.657
11
127.611
21
-106.709
0
LINE
8
Black
10
127.611
20
-106.709
11
127.508
21
-106.727
0
LINE
8
Black
10
127.508
20
-106.727
11
127.405
21
-106.709
0
LINE
8
Black
10
127.405
20
-106.709
11
127.314
21
-106.657
0
LINE
8
Black
10
127.314
20
-106.657
11
127.247
21
-106.577
0
LINE
8
Black
10
127.247
20
-106.577
11
127.211
21
-106.478
0
LINE
8
Black
10
127.211
20
-106.478
11
127.211
21
-106.374
0
LINE
8
Black
10
127.211
20
-106.374
11
127.247
21
-106.275
0
LINE
8
Black
10
127.247
20
-106.275
11
127.314
21
-106.195
0
LINE
8
Black
10
127.314
20
-106.195
11
127.383
21
-106.156
0
LINE
8
Black
10
127.383
20
-106.156
11
127.383
21
-102.632
0
LINE
8
Black
10
127.383
20
-102.632
11
127.314
21
-102.593
0
LINE
8
Black
10
127.314
20
-102.593
11
127.247
21
-102.513
0
LINE
8
Black
10
127.247
20
-102.513
11
127.211
21
-102.414
0
LINE
8
Black
10
127.211
20
-102.414
11
127.211
21
-102.31
0
LINE
8
Black
10
127.211
20
-102.31
11
127.247
21
-102.211
0
LINE
8
Black
10
127.247
20
-102.211
11
127.314
21
-102.131
0
LINE
8
Black
10
127.314
20
-102.131
11
127.405
21
-102.079
0
LINE
8
Black
10
127.405
20
-102.079
11
127.508
21
-102.061
0
LINE
8
Black
10
127.508
20
-102.061
11
127.611
21
-102.079
0
LINE
8
Black
10
144.256
20
-104.151
11
144.486
21
-104.284
0
LINE
8
Black
10
144.486
20
-104.284
11
144.656
21
-104.488
0
LINE
8
Black
10
144.656
20
-104.488
11
144.747
21
-104.737
0
LINE
8
Black
10
144.747
20
-104.737
11
144.747
21
-105.003
0
LINE
8
Black
10
144.747
20
-105.003
11
144.656
21
-105.252
0
LINE
8
Black
10
144.656
20
-105.252
11
144.486
21
-105.456
0
LINE
8
Black
10
144.486
20
-105.456
11
144.256
21
-105.589
0
LINE
8
Black
10
144.256
20
-105.589
11
143.994
21
-105.635
0
LINE
8
Black
10
143.994
20
-105.635
11
143.732
21
-105.589
0
LINE
8
Black
10
143.732
20
-105.589
11
143.502
21
-105.456
0
LINE
8
Black
10
143.502
20
-105.456
11
143.332
21
-105.252
0
LINE
8
Black
10
143.332
20
-105.252
11
143.241
21
-105.003
0
LINE
8
Black
10
143.241
20
-105.003
11
143.241
21
-104.737
0
LINE
8
Black
10
143.241
20
-104.737
11
143.332
21
-104.488
0
LINE
8
Black
10
143.332
20
-104.488
11
143.502
21
-104.284
0
LINE
8
Black
10
143.502
20
-104.284
11
143.732
21
-104.151
0
LINE
8
Black
10
143.732
20
-104.151
11
143.994
21
-104.105
0
LINE
8
Black
10
143.994
20
-104.105
11
144.256
21
-104.151
0
LINE
8
Black
10
141.256
20
-104.151
11
141.486
21
-104.284
0
LINE
8
Black
10
141.486
20
-104.284
11
141.656
21
-104.488
0
LINE
8
Black
10
141.656
20
-104.488
11
141.747
21
-104.737
0
LINE
8
Black
10
141.747
20
-104.737
11
141.747
21
-105.003
0
LINE
8
Black
10
141.747
20
-105.003
11
141.656
21
-105.252
0
LINE
8
Black
10
141.656
20
-105.252
11
141.486
21
-105.456
0
LINE
8
Black
10
141.486
20
-105.456
11
141.256
21
-105.589
0
LINE
8
Black
10
141.256
20
-105.589
11
140.994
21
-105.635
0
LINE
8
Black
10
140.994
20
-105.635
11
140.732
21
-105.589
0
LINE
8
Black
10
140.732
20
-105.589
11
140.502
21
-105.456
0
LINE
8
Black
10
140.502
20
-105.456
11
140.332
21
-105.252
0
LINE
8
Black
10
140.332
20
-105.252
11
140.241
21
-105.003
0
LINE
8
Black
10
140.241
20
-105.003
11
140.241
21
-104.737
0
LINE
8
Black
10
140.241
20
-104.737
11
140.332
21
-104.488
0
LINE
8
Black
10
140.332
20
-104.488
11
140.502
21
-104.284
0
LINE
8
Black
10
140.502
20
-104.284
11
140.732
21
-104.151
0
LINE
8
Black
10
140.732
20
-104.151
11
140.994
21
-104.105
0
LINE
8
Black
10
140.994
20
-104.105
11
141.256
21
-104.151
0
LINE
8
Black
10
159.615
20
-100.301
11
159.706
21
-100.353
0
LINE
8
Black
10
159.706
20
-100.353
11
159.773
21
-100.433
0
LINE
8
Black
10
159.773
20
-100.433
11
159.809
21
-100.532
0
LINE
8
Black
10
159.809
20
-100.532
11
159.809
21
-100.636
0
LINE
8
Black
10
159.809
20
-100.636
11
159.773
21
-100.735
0
LINE
8
Black
10
159.773
20
-100.735
11
159.706
21
-100.815
0
LINE
8
Black
10
159.706
20
-100.815
11
159.615
21
-100.867
0
LINE
8
Black
10
159.615
20
-100.867
11
159.512
21
-100.885
0
LINE
8
Black
10
159.512
20
-100.885
11
159.409
21
-100.867
0
LINE
8
Black
10
159.409
20
-100.867
11
159.318
21
-100.815
0
LINE
8
Black
10
159.318
20
-100.815
11
159.251
21
-100.735
0
LINE
8
Black
10
159.251
20
-100.735
11
159.242
21
-100.709
0
LINE
8
Black
10
159.242
20
-100.709
11
155.754
21
-100.709
0
LINE
8
Black
10
155.754
20
-100.709
11
153.695
21
-102.768
0
LINE
8
Black
10
153.695
20
-102.768
11
153.713
21
-102.818
0
LINE
8
Black
10
153.713
20
-102.818
11
153.713
21
-102.922
0
LINE
8
Black
10
153.713
20
-102.922
11
153.677
21
-103.021
0
LINE
8
Black
10
153.677
20
-103.021
11
153.61
21
-103.101
0
LINE
8
Black
10
153.61
20
-103.101
11
153.519
21
-103.153
0
LINE
8
Black
10
153.519
20
-103.153
11
153.416
21
-103.171
0
LINE
8
Black
10
153.416
20
-103.171
11
153.313
21
-103.153
0
LINE
8
Black
10
153.313
20
-103.153
11
153.222
21
-103.101
0
LINE
8
Black
10
153.222
20
-103.101
11
153.155
21
-103.021
0
LINE
8
Black
10
153.155
20
-103.021
11
153.119
21
-102.922
0
LINE
8
Black
10
153.119
20
-102.922
11
153.119
21
-102.818
0
LINE
8
Black
10
153.119
20
-102.818
11
153.155
21
-102.719
0
LINE
8
Black
10
153.155
20
-102.719
11
153.222
21
-102.639
0
LINE
8
Black
10
153.222
20
-102.639
11
153.313
21
-102.587
0
LINE
8
Black
10
153.313
20
-102.587
11
153.416
21
-102.569
0
LINE
8
Black
10
153.416
20
-102.569
11
153.519
21
-102.587
0
LINE
8
Black
10
153.519
20
-102.587
11
153.521
21
-102.588
0
LINE
8
Black
10
153.521
20
-102.588
11
155.614
21
-100.496
0
LINE
8
Black
10
155.614
20
-100.496
11
155.618
21
-100.492
0
LINE
8
Black
10
155.618
20
-100.492
11
155.622
21
-100.488
0
LINE
8
Black
10
155.622
20
-100.488
11
155.636
21
-100.48
0
LINE
8
Black
10
155.636
20
-100.48
11
155.649
21
-100.471
0
LINE
8
Black
10
155.649
20
-100.471
11
155.654
21
-100.469
0
LINE
8
Black
10
155.654
20
-100.469
11
155.659
21
-100.467
0
LINE
8
Black
10
155.659
20
-100.467
11
155.675
21
-100.464
0
LINE
8
Black
10
155.675
20
-100.464
11
155.691
21
-100.459
0
LINE
8
Black
10
155.691
20
-100.459
11
155.697
21
-100.46
0
LINE
8
Black
10
155.697
20
-100.46
11
155.702
21
-100.459
0
LINE
8
Black
10
155.702
20
-100.459
11
159.242
21
-100.459
0
LINE
8
Black
10
159.242
20
-100.459
11
159.251
21
-100.433
0
LINE
8
Black
10
159.251
20
-100.433
11
159.318
21
-100.353
0
LINE
8
Black
10
159.318
20
-100.353
11
159.409
21
-100.301
0
LINE
8
Black
10
159.409
20
-100.301
11
159.512
21
-100.283
0
LINE
8
Black
10
159.512
20
-100.283
11
159.615
21
-100.301
0
LINE
8
Black
10
134.723
20
-87.855
11
134.814
21
-87.9073
0
LINE
8
Black
10
134.814
20
-87.9073
11
134.881
21
-87.9874
0
LINE
8
Black
10
134.881
20
-87.9874
11
134.917
21
-88.0857
0
LINE
8
Black
10
134.917
20
-88.0857
11
134.917
21
-88.1903
0
LINE
8
Black
10
134.917
20
-88.1903
11
134.881
21
-88.2886
0
LINE
8
Black
10
134.881
20
-88.2886
11
134.814
21
-88.3687
0
LINE
8
Black
10
134.814
20
-88.3687
11
134.745
21
-88.4083
0
LINE
8
Black
10
134.745
20
-88.4083
11
134.745
21
-96.9762
0
LINE
8
Black
10
134.745
20
-96.9762
11
135.216
21
-97.4476
0
LINE
8
Black
10
135.216
20
-97.4476
11
135.216
21
-97.4476
0
LINE
8
Black
10
135.216
20
-97.4476
11
137.055
21
-99.2862
0
LINE
8
Black
10
137.055
20
-99.2862
11
137.057
21
-99.285
0
LINE
8
Black
10
137.057
20
-99.285
11
137.16
21
-99.2669
0
LINE
8
Black
10
137.16
20
-99.2669
11
137.263
21
-99.285
0
LINE
8
Black
10
137.263
20
-99.285
11
137.354
21
-99.3373
0
LINE
8
Black
10
137.354
20
-99.3373
11
137.421
21
-99.4174
0
LINE
8
Black
10
137.421
20
-99.4174
11
137.457
21
-99.5157
0
LINE
8
Black
10
137.457
20
-99.5157
11
137.457
21
-99.6203
0
LINE
8
Black
10
137.457
20
-99.6203
11
137.421
21
-99.7186
0
LINE
8
Black
10
137.421
20
-99.7186
11
137.354
21
-99.7987
0
LINE
8
Black
10
137.354
20
-99.7987
11
137.263
21
-99.851
0
LINE
8
Black
10
137.263
20
-99.851
11
137.16
21
-99.8691
0
LINE
8
Black
10
137.16
20
-99.8691
11
137.057
21
-99.851
0
LINE
8
Black
10
137.057
20
-99.851
11
136.966
21
-99.7987
0
LINE
8
Black
10
136.966
20
-99.7987
11
136.899
21
-99.7186
0
LINE
8
Black
10
136.899
20
-99.7186
11
136.863
21
-99.6203
0
LINE
8
Black
10
136.863
20
-99.6203
11
136.863
21
-99.5157
0
LINE
8
Black
10
136.863
20
-99.5157
11
136.881
21
-99.4662
0
LINE
8
Black
10
136.881
20
-99.4662
11
135.04
21
-97.6244
0
LINE
8
Black
10
135.04
20
-97.6244
11
135.04
21
-97.6244
0
LINE
8
Black
10
135.04
20
-97.6244
11
134.532
21
-97.1164
0
LINE
8
Black
10
134.532
20
-97.1164
11
134.528
21
-97.1119
0
LINE
8
Black
10
134.528
20
-97.1119
11
134.524
21
-97.1083
0
LINE
8
Black
10
134.524
20
-97.1083
11
134.516
21
-97.0942
0
LINE
8
Black
10
134.516
20
-97.0942
11
134.507
21
-97.0808
0
LINE
8
Black
10
134.507
20
-97.0808
11
134.505
21
-97.0755
0
LINE
8
Black
10
134.505
20
-97.0755
11
134.503
21
-97.0708
0
LINE
8
Black
10
134.503
20
-97.0708
11
134.5
21
-97.0547
0
LINE
8
Black
10
134.5
20
-97.0547
11
134.495
21
-97.0389
0
LINE
8
Black
10
134.495
20
-97.0389
11
134.496
21
-97.0334
0
LINE
8
Black
10
134.496
20
-97.0334
11
134.495
21
-97.028
0
LINE
8
Black
10
134.495
20
-97.028
11
134.495
21
-88.4083
0
LINE
8
Black
10
134.495
20
-88.4083
11
134.426
21
-88.3687
0
LINE
8
Black
10
134.426
20
-88.3687
11
134.359
21
-88.2886
0
LINE
8
Black
10
134.359
20
-88.2886
11
134.323
21
-88.1903
0
LINE
8
Black
10
134.323
20
-88.1903
11
134.323
21
-88.0857
0
LINE
8
Black
10
134.323
20
-88.0857
11
134.359
21
-87.9874
0
LINE
8
Black
10
134.359
20
-87.9874
11
134.426
21
-87.9073
0
LINE
8
Black
10
134.426
20
-87.9073
11
134.517
21
-87.855
0
LINE
8
Black
10
134.517
20
-87.855
11
134.62
21
-87.8369
0
LINE
8
Black
10
134.62
20
-87.8369
11
134.723
21
-87.855
0
LINE
8
Black
10
124.247
20
-96.5347
11
124.73
21
-96.8136
0
LINE
8
Black
10
124.73
20
-96.8136
11
125.089
21
-97.2409
0
LINE
8
Black
10
125.089
20
-97.2409
11
125.28
21
-97.7651
0
LINE
8
Black
10
125.28
20
-97.7651
11
125.28
21
-98.3229
0
LINE
8
Black
10
125.28
20
-98.3229
11
125.089
21
-98.8471
0
LINE
8
Black
10
125.089
20
-98.8471
11
124.73
21
-99.2744
0
LINE
8
Black
10
124.73
20
-99.2744
11
124.247
21
-99.5533
0
LINE
8
Black
10
124.247
20
-99.5533
11
123.698
21
-99.6501
0
LINE
8
Black
10
123.698
20
-99.6501
11
123.149
21
-99.5533
0
LINE
8
Black
10
123.149
20
-99.5533
11
122.666
21
-99.2744
0
LINE
8
Black
10
122.666
20
-99.2744
11
122.307
21
-98.8471
0
LINE
8
Black
10
122.307
20
-98.8471
11
122.116
21
-98.3229
0
LINE
8
Black
10
122.116
20
-98.3229
11
122.116
21
-97.7651
0
LINE
8
Black
10
122.116
20
-97.7651
11
122.307
21
-97.2409
0
LINE
8
Black
10
122.307
20
-97.2409
11
122.666
21
-96.8136
0
LINE
8
Black
10
122.666
20
-96.8136
11
123.149
21
-96.5347
0
LINE
8
Black
10
123.149
20
-96.5347
11
123.698
21
-96.4379
0
LINE
8
Black
10
123.698
20
-96.4379
11
124.247
21
-96.5347
0
LINE
8
Black
10
175.014
20
-97.3252
11
175.244
21
-97.458
0
LINE
8
Black
10
175.244
20
-97.458
11
175.414
21
-97.6615
0
LINE
8
Black
10
175.414
20
-97.6615
11
175.505
21
-97.9112
0
LINE
8
Black
10
175.505
20
-97.9112
11
175.505
21
-98.1768
0
LINE
8
Black
10
175.505
20
-98.1768
11
175.414
21
-98.4265
0
LINE
8
Black
10
175.414
20
-98.4265
11
175.244
21
-98.63
0
LINE
8
Black
10
175.244
20
-98.63
11
175.014
21
-98.7628
0
LINE
8
Black
10
175.014
20
-98.7628
11
174.752
21
-98.8089
0
LINE
8
Black
10
174.752
20
-98.8089
11
174.49
21
-98.7628
0
LINE
8
Black
10
174.49
20
-98.7628
11
174.26
21
-98.63
0
LINE
8
Black
10
174.26
20
-98.63
11
174.09
21
-98.4265
0
LINE
8
Black
10
174.09
20
-98.4265
11
173.999
21
-98.1768
0
LINE
8
Black
10
173.999
20
-98.1768
11
173.999
21
-97.9112
0
LINE
8
Black
10
173.999
20
-97.9112
11
174.09
21
-97.6615
0
LINE
8
Black
10
174.09
20
-97.6615
11
174.26
21
-97.458
0
LINE
8
Black
10
174.26
20
-97.458
11
174.49
21
-97.3252
0
LINE
8
Black
10
174.49
20
-97.3252
11
174.752
21
-97.2791
0
LINE
8
Black
10
174.752
20
-97.2791
11
175.014
21
-97.3252
0
LINE
8
Black
10
137.771
20
-94.967
11
137.862
21
-95.0193
0
LINE
8
Black
10
137.862
20
-95.0193
11
137.929
21
-95.0994
0
LINE
8
Black
10
137.929
20
-95.0994
11
137.965
21
-95.1977
0
LINE
8
Black
10
137.965
20
-95.1977
11
137.965
21
-95.3023
0
LINE
8
Black
10
137.965
20
-95.3023
11
137.947
21
-95.3518
0
LINE
8
Black
10
137.947
20
-95.3518
11
139.244
21
-96.649
0
LINE
8
Black
10
139.244
20
-96.649
11
145.018
21
-96.649
0
LINE
8
Black
10
145.018
20
-96.649
11
145.027
21
-96.6234
0
LINE
8
Black
10
145.027
20
-96.6234
11
145.094
21
-96.5433
0
LINE
8
Black
10
145.094
20
-96.5433
11
145.185
21
-96.491
0
LINE
8
Black
10
145.185
20
-96.491
11
145.288
21
-96.4729
0
LINE
8
Black
10
145.288
20
-96.4729
11
145.391
21
-96.491
0
LINE
8
Black
10
145.391
20
-96.491
11
145.482
21
-96.5433
0
LINE
8
Black
10
145.482
20
-96.5433
11
145.549
21
-96.6234
0
LINE
8
Black
10
145.549
20
-96.6234
11
145.585
21
-96.7217
0
LINE
8
Black
10
145.585
20
-96.7217
11
145.585
21
-96.8263
0
LINE
8
Black
10
145.585
20
-96.8263
11
145.549
21
-96.9246
0
LINE
8
Black
10
145.549
20
-96.9246
11
145.482
21
-97.0047
0
LINE
8
Black
10
145.482
20
-97.0047
11
145.391
21
-97.057
0
LINE
8
Black
10
145.391
20
-97.057
11
145.288
21
-97.0751
0
LINE
8
Black
10
145.288
20
-97.0751
11
145.185
21
-97.057
0
LINE
8
Black
10
145.185
20
-97.057
11
145.094
21
-97.0047
0
LINE
8
Black
10
145.094
20
-97.0047
11
145.027
21
-96.9246
0
LINE
8
Black
10
145.027
20
-96.9246
11
145.018
21
-96.899
0
LINE
8
Black
10
145.018
20
-96.899
11
139.192
21
-96.899
0
LINE
8
Black
10
139.192
20
-96.899
11
139.187
21
-96.898
0
LINE
8
Black
10
139.187
20
-96.898
11
139.181
21
-96.8985
0
LINE
8
Black
10
139.181
20
-96.8985
11
139.165
21
-96.8943
0
LINE
8
Black
10
139.165
20
-96.8943
11
139.149
21
-96.8915
0
LINE
8
Black
10
139.149
20
-96.8915
11
139.144
21
-96.8887
0
LINE
8
Black
10
139.144
20
-96.8887
11
139.139
21
-96.8873
0
LINE
8
Black
10
139.139
20
-96.8873
11
139.126
21
-96.8779
0
LINE
8
Black
10
139.126
20
-96.8779
11
139.112
21
-96.8698
0
LINE
8
Black
10
139.112
20
-96.8698
11
139.108
21
-96.8655
0
LINE
8
Black
10
139.108
20
-96.8655
11
139.104
21
-96.8624
0
LINE
8
Black
10
139.104
20
-96.8624
11
137.773
21
-95.5318
0
LINE
8
Black
10
137.773
20
-95.5318
11
137.771
21
-95.533
0
LINE
8
Black
10
137.771
20
-95.533
11
137.668
21
-95.5511
0
LINE
8
Black
10
137.668
20
-95.5511
11
137.565
21
-95.533
0
LINE
8
Black
10
137.565
20
-95.533
11
137.474
21
-95.4807
0
LINE
8
Black
10
137.474
20
-95.4807
11
137.407
21
-95.4006
0
LINE
8
Black
10
137.407
20
-95.4006
11
137.371
21
-95.3023
0
LINE
8
Black
10
137.371
20
-95.3023
11
137.371
21
-95.1977
0
LINE
8
Black
10
137.371
20
-95.1977
11
137.407
21
-95.0994
0
LINE
8
Black
10
137.407
20
-95.0994
11
137.474
21
-95.0193
0
LINE
8
Black
10
137.474
20
-95.0193
11
137.565
21
-94.967
0
LINE
8
Black
10
137.565
20
-94.967
11
137.668
21
-94.9489
0
LINE
8
Black
10
137.668
20
-94.9489
11
137.771
21
-94.967
0
LINE
8
Black
10
140.057
20
-94.205
11
140.148
21
-94.2573
0
LINE
8
Black
10
140.148
20
-94.2573
11
140.215
21
-94.3374
0
LINE
8
Black
10
140.215
20
-94.3374
11
140.251
21
-94.4357
0
LINE
8
Black
10
140.251
20
-94.4357
11
140.251
21
-94.5403
0
LINE
8
Black
10
140.251
20
-94.5403
11
140.233
21
-94.5898
0
LINE
8
Black
10
140.233
20
-94.5898
11
141.486
21
-95.8435
0
LINE
8
Black
10
141.486
20
-95.8435
11
141.538
21
-95.7813
0
LINE
8
Black
10
141.538
20
-95.7813
11
141.629
21
-95.729
0
LINE
8
Black
10
141.629
20
-95.729
11
141.732
21
-95.7109
0
LINE
8
Black
10
141.732
20
-95.7109
11
141.835
21
-95.729
0
LINE
8
Black
10
141.835
20
-95.729
11
141.926
21
-95.7813
0
LINE
8
Black
10
141.926
20
-95.7813
11
141.993
21
-95.8614
0
LINE
8
Black
10
141.993
20
-95.8614
11
142.029
21
-95.9597
0
LINE
8
Black
10
142.029
20
-95.9597
11
142.029
21
-96.0643
0
LINE
8
Black
10
142.029
20
-96.0643
11
141.993
21
-96.1626
0
LINE
8
Black
10
141.993
20
-96.1626
11
141.926
21
-96.2427
0
LINE
8
Black
10
141.926
20
-96.2427
11
141.835
21
-96.295
0
LINE
8
Black
10
141.835
20
-96.295
11
141.732
21
-96.3131
0
LINE
8
Black
10
141.732
20
-96.3131
11
141.629
21
-96.295
0
LINE
8
Black
10
141.629
20
-96.295
11
141.538
21
-96.2427
0
LINE
8
Black
10
141.538
20
-96.2427
11
141.471
21
-96.1626
0
LINE
8
Black
10
141.471
20
-96.1626
11
141.461
21
-96.1349
0
LINE
8
Black
10
141.461
20
-96.1349
11
141.451
21
-96.1323
0
LINE
8
Black
10
141.451
20
-96.1323
11
141.435
21
-96.1295
0
LINE
8
Black
10
141.435
20
-96.1295
11
141.43
21
-96.1267
0
LINE
8
Black
10
141.43
20
-96.1267
11
141.425
21
-96.1253
0
LINE
8
Black
10
141.425
20
-96.1253
11
141.412
21
-96.1159
0
LINE
8
Black
10
141.412
20
-96.1159
11
141.398
21
-96.1078
0
LINE
8
Black
10
141.398
20
-96.1078
11
141.394
21
-96.1035
0
LINE
8
Black
10
141.394
20
-96.1035
11
141.39
21
-96.1004
0
LINE
8
Black
10
141.39
20
-96.1004
11
140.059
21
-94.7698
0
LINE
8
Black
10
140.059
20
-94.7698
11
140.057
21
-94.771
0
LINE
8
Black
10
140.057
20
-94.771
11
139.954
21
-94.7891
0
LINE
8
Black
10
139.954
20
-94.7891
11
139.851
21
-94.771
0
LINE
8
Black
10
139.851
20
-94.771
11
139.76
21
-94.7187
0
LINE
8
Black
10
139.76
20
-94.7187
11
139.693
21
-94.6386
0
LINE
8
Black
10
139.693
20
-94.6386
11
139.657
21
-94.5403
0
LINE
8
Black
10
139.657
20
-94.5403
11
139.657
21
-94.4357
0
LINE
8
Black
10
139.657
20
-94.4357
11
139.693
21
-94.3374
0
LINE
8
Black
10
139.693
20
-94.3374
11
139.76
21
-94.2573
0
LINE
8
Black
10
139.76
20
-94.2573
11
139.851
21
-94.205
0
LINE
8
Black
10
139.851
20
-94.205
11
139.954
21
-94.1869
0
LINE
8
Black
10
139.954
20
-94.1869
11
140.057
21
-94.205
0
LINE
8
Black
10
123.198
20
-92.7532
11
123.428
21
-92.886
0
LINE
8
Black
10
123.428
20
-92.886
11
123.598
21
-93.0895
0
LINE
8
Black
10
123.598
20
-93.0895
11
123.689
21
-93.3392
0
LINE
8
Black
10
123.689
20
-93.3392
11
123.689
21
-93.6048
0
LINE
8
Black
10
123.689
20
-93.6048
11
123.598
21
-93.8545
0
LINE
8
Black
10
123.598
20
-93.8545
11
123.428
21
-94.058
0
LINE
8
Black
10
123.428
20
-94.058
11
123.198
21
-94.1908
0
LINE
8
Black
10
123.198
20
-94.1908
11
122.936
21
-94.2369
0
LINE
8
Black
10
122.936
20
-94.2369
11
122.674
21
-94.1908
0
LINE
8
Black
10
122.674
20
-94.1908
11
122.444
21
-94.058
0
LINE
8
Black
10
122.444
20
-94.058
11
122.274
21
-93.8545
0
LINE
8
Black
10
122.274
20
-93.8545
11
122.183
21
-93.6048
0
LINE
8
Black
10
122.183
20
-93.6048
11
122.183
21
-93.3392
0
LINE
8
Black
10
122.183
20
-93.3392
11
122.274
21
-93.0895
0
LINE
8
Black
10
122.274
20
-93.0895
11
122.444
21
-92.886
0
LINE
8
Black
10
122.444
20
-92.886
11
122.674
21
-92.7532
0
LINE
8
Black
10
122.674
20
-92.7532
11
122.936
21
-92.7071
0
LINE
8
Black
10
122.936
20
-92.7071
11
123.198
21
-92.7532
0
LINE
8
Black
10
148.313
20
-93.1758
11
148.403
21
-93.2281
0
LINE
8
Black
10
148.403
20
-93.2281
11
148.471
21
-93.3082
0
LINE
8
Black
10
148.471
20
-93.3082
11
148.506
21
-93.4065
0
LINE
8
Black
10
148.506
20
-93.4065
11
148.506
21
-93.5111
0
LINE
8
Black
10
148.506
20
-93.5111
11
148.471
21
-93.6093
0
LINE
8
Black
10
148.471
20
-93.6093
11
148.403
21
-93.6895
0
LINE
8
Black
10
148.403
20
-93.6895
11
148.313
21
-93.7418
0
LINE
8
Black
10
148.313
20
-93.7418
11
148.21
21
-93.7599
0
LINE
8
Black
10
148.21
20
-93.7599
11
148.107
21
-93.7418
0
LINE
8
Black
10
148.107
20
-93.7418
11
148.062
21
-93.716
0
LINE
8
Black
10
148.062
20
-93.716
11
144.796
21
-93.716
0
LINE
8
Black
10
144.796
20
-93.716
11
144.787
21
-93.7416
0
LINE
8
Black
10
144.787
20
-93.7416
11
144.72
21
-93.8217
0
LINE
8
Black
10
144.72
20
-93.8217
11
144.629
21
-93.874
0
LINE
8
Black
10
144.629
20
-93.874
11
144.526
21
-93.8922
0
LINE
8
Black
10
144.526
20
-93.8922
11
144.423
21
-93.874
0
LINE
8
Black
10
144.423
20
-93.874
11
144.332
21
-93.8217
0
LINE
8
Black
10
144.332
20
-93.8217
11
144.265
21
-93.7416
0
LINE
8
Black
10
144.265
20
-93.7416
11
144.229
21
-93.6433
0
LINE
8
Black
10
144.229
20
-93.6433
11
144.229
21
-93.5387
0
LINE
8
Black
10
144.229
20
-93.5387
11
144.265
21
-93.4404
0
LINE
8
Black
10
144.265
20
-93.4404
11
144.332
21
-93.3603
0
LINE
8
Black
10
144.332
20
-93.3603
11
144.423
21
-93.308
0
LINE
8
Black
10
144.423
20
-93.308
11
144.526
21
-93.2899
0
LINE
8
Black
10
144.526
20
-93.2899
11
144.629
21
-93.308
0
LINE
8
Black
10
144.629
20
-93.308
11
144.72
21
-93.3603
0
LINE
8
Black
10
144.72
20
-93.3603
11
144.787
21
-93.4404
0
LINE
8
Black
10
144.787
20
-93.4404
11
144.796
21
-93.466
0
LINE
8
Black
10
144.796
20
-93.466
11
147.913
21
-93.466
0
LINE
8
Black
10
147.913
20
-93.466
11
147.913
21
-93.4065
0
LINE
8
Black
10
147.913
20
-93.4065
11
147.949
21
-93.3082
0
LINE
8
Black
10
147.949
20
-93.3082
11
148.016
21
-93.2281
0
LINE
8
Black
10
148.016
20
-93.2281
11
148.107
21
-93.1758
0
LINE
8
Black
10
148.107
20
-93.1758
11
148.21
21
-93.1576
0
LINE
8
Black
10
148.21
20
-93.1576
11
148.313
21
-93.1758
0
LINE
8
Black
10
175.014
20
-92.2452
11
175.244
21
-92.378
0
LINE
8
Black
10
175.244
20
-92.378
11
175.414
21
-92.5815
0
LINE
8
Black
10
175.414
20
-92.5815
11
175.505
21
-92.8312
0
LINE
8
Black
10
175.505
20
-92.8312
11
175.505
21
-93.0968
0
LINE
8
Black
10
175.505
20
-93.0968
11
175.414
21
-93.3465
0
LINE
8
Black
10
175.414
20
-93.3465
11
175.244
21
-93.55
0
LINE
8
Black
10
175.244
20
-93.55
11
175.014
21
-93.6828
0
LINE
8
Black
10
175.014
20
-93.6828
11
174.752
21
-93.7289
0
LINE
8
Black
10
174.752
20
-93.7289
11
174.49
21
-93.6828
0
LINE
8
Black
10
174.49
20
-93.6828
11
174.26
21
-93.55
0
LINE
8
Black
10
174.26
20
-93.55
11
174.09
21
-93.3465
0
LINE
8
Black
10
174.09
20
-93.3465
11
173.999
21
-93.0968
0
LINE
8
Black
10
173.999
20
-93.0968
11
173.999
21
-92.8312
0
LINE
8
Black
10
173.999
20
-92.8312
11
174.09
21
-92.5815
0
LINE
8
Black
10
174.09
20
-92.5815
11
174.26
21
-92.378
0
LINE
8
Black
10
174.26
20
-92.378
11
174.49
21
-92.2452
0
LINE
8
Black
10
174.49
20
-92.2452
11
174.752
21
-92.1991
0
LINE
8
Black
10
174.752
20
-92.1991
11
175.014
21
-92.2452
0
LINE
8
Black
10
147.677
20
-92.681
11
147.768
21
-92.7333
0
LINE
8
Black
10
147.768
20
-92.7333
11
147.835
21
-92.8134
0
LINE
8
Black
10
147.835
20
-92.8134
11
147.871
21
-92.9117
0
LINE
8
Black
10
147.871
20
-92.9117
11
147.871
21
-93.0163
0
LINE
8
Black
10
147.871
20
-93.0163
11
147.835
21
-93.1146
0
LINE
8
Black
10
147.835
20
-93.1146
11
147.768
21
-93.1947
0
LINE
8
Black
10
147.768
20
-93.1947
11
147.677
21
-93.247
0
LINE
8
Black
10
147.677
20
-93.247
11
147.574
21
-93.2651
0
LINE
8
Black
10
147.574
20
-93.2651
11
147.471
21
-93.247
0
LINE
8
Black
10
147.471
20
-93.247
11
147.38
21
-93.1947
0
LINE
8
Black
10
147.38
20
-93.1947
11
147.313
21
-93.1146
0
LINE
8
Black
10
147.313
20
-93.1146
11
147.304
21
-93.089
0
LINE
8
Black
10
147.304
20
-93.089
11
145.812
21
-93.089
0
LINE
8
Black
10
145.812
20
-93.089
11
145.803
21
-93.1146
0
LINE
8
Black
10
145.803
20
-93.1146
11
145.736
21
-93.1947
0
LINE
8
Black
10
145.736
20
-93.1947
11
145.645
21
-93.247
0
LINE
8
Black
10
145.645
20
-93.247
11
145.542
21
-93.2651
0
LINE
8
Black
10
145.542
20
-93.2651
11
145.439
21
-93.247
0
LINE
8
Black
10
145.439
20
-93.247
11
145.348
21
-93.1947
0
LINE
8
Black
10
145.348
20
-93.1947
11
145.281
21
-93.1146
0
LINE
8
Black
10
145.281
20
-93.1146
11
145.245
21
-93.0163
0
LINE
8
Black
10
145.245
20
-93.0163
11
145.245
21
-92.9117
0
LINE
8
Black
10
145.245
20
-92.9117
11
145.281
21
-92.8134
0
LINE
8
Black
10
145.281
20
-92.8134
11
145.348
21
-92.7333
0
LINE
8
Black
10
145.348
20
-92.7333
11
145.439
21
-92.681
0
LINE
8
Black
10
145.439
20
-92.681
11
145.542
21
-92.6629
0
LINE
8
Black
10
145.542
20
-92.6629
11
145.645
21
-92.681
0
LINE
8
Black
10
145.645
20
-92.681
11
145.736
21
-92.7333
0
LINE
8
Black
10
145.736
20
-92.7333
11
145.803
21
-92.8134
0
LINE
8
Black
10
145.803
20
-92.8134
11
145.812
21
-92.839
0
LINE
8
Black
10
145.812
20
-92.839
11
147.304
21
-92.839
0
LINE
8
Black
10
147.304
20
-92.839
11
147.313
21
-92.8134
0
LINE
8
Black
10
147.313
20
-92.8134
11
147.38
21
-92.7333
0
LINE
8
Black
10
147.38
20
-92.7333
11
147.471
21
-92.681
0
LINE
8
Black
10
147.471
20
-92.681
11
147.574
21
-92.6629
0
LINE
8
Black
10
147.574
20
-92.6629
11
147.677
21
-92.681
0
LINE
8
Black
10
134.098
20
-88.871
11
134.189
21
-88.9233
0
LINE
8
Black
10
134.189
20
-88.9233
11
134.256
21
-89.0034
0
LINE
8
Black
10
134.256
20
-89.0034
11
134.292
21
-89.1017
0
LINE
8
Black
10
134.292
20
-89.1017
11
134.292
21
-89.2063
0
LINE
8
Black
10
134.292
20
-89.2063
11
134.256
21
-89.3046
0
LINE
8
Black
10
134.256
20
-89.3046
11
134.189
21
-89.3847
0
LINE
8
Black
10
134.189
20
-89.3847
11
134.12
21
-89.4243
0
LINE
8
Black
10
134.12
20
-89.4243
11
134.12
21
-92.2857
0
LINE
8
Black
10
134.12
20
-92.2857
11
134.12
21
-92.4397
0
LINE
8
Black
10
134.12
20
-92.4397
11
134.189
21
-92.4793
0
LINE
8
Black
10
134.189
20
-92.4793
11
134.256
21
-92.5594
0
LINE
8
Black
10
134.256
20
-92.5594
11
134.292
21
-92.6577
0
LINE
8
Black
10
134.292
20
-92.6577
11
134.292
21
-92.7623
0
LINE
8
Black
10
134.292
20
-92.7623
11
134.256
21
-92.8606
0
LINE
8
Black
10
134.256
20
-92.8606
11
134.189
21
-92.9407
0
LINE
8
Black
10
134.189
20
-92.9407
11
134.098
21
-92.993
0
LINE
8
Black
10
134.098
20
-92.993
11
133.995
21
-93.0111
0
LINE
8
Black
10
133.995
20
-93.0111
11
133.892
21
-92.993
0
LINE
8
Black
10
133.892
20
-92.993
11
133.801
21
-92.9407
0
LINE
8
Black
10
133.801
20
-92.9407
11
133.734
21
-92.8606
0
LINE
8
Black
10
133.734
20
-92.8606
11
133.698
21
-92.7623
0
LINE
8
Black
10
133.698
20
-92.7623
11
133.698
21
-92.6577
0
LINE
8
Black
10
133.698
20
-92.6577
11
133.734
21
-92.5594
0
LINE
8
Black
10
133.734
20
-92.5594
11
133.801
21
-92.4793
0
LINE
8
Black
10
133.801
20
-92.4793
11
133.87
21
-92.4397
0
LINE
8
Black
10
133.87
20
-92.4397
11
133.87
21
-92.2857
0
LINE
8
Black
10
133.87
20
-92.2857
11
133.87
21
-89.4243
0
LINE
8
Black
10
133.87
20
-89.4243
11
133.801
21
-89.3847
0
LINE
8
Black
10
133.801
20
-89.3847
11
133.734
21
-89.3046
0
LINE
8
Black
10
133.734
20
-89.3046
11
133.698
21
-89.2063
0
LINE
8
Black
10
133.698
20
-89.2063
11
133.698
21
-89.1017
0
LINE
8
Black
10
133.698
20
-89.1017
11
133.734
21
-89.0034
0
LINE
8
Black
10
133.734
20
-89.0034
11
133.801
21
-88.9233
0
LINE
8
Black
10
133.801
20
-88.9233
11
133.892
21
-88.871
0
LINE
8
Black
10
133.892
20
-88.871
11
133.995
21
-88.8529
0
LINE
8
Black
10
133.995
20
-88.8529
11
134.098
21
-88.871
0
LINE
8
Black
10
147.306
20
-91.7294
11
147.397
21
-91.7817
0
LINE
8
Black
10
147.397
20
-91.7817
11
147.464
21
-91.8618
0
LINE
8
Black
10
147.464
20
-91.8618
11
147.5
21
-91.9601
0
LINE
8
Black
10
147.5
20
-91.9601
11
147.5
21
-92.0647
0
LINE
8
Black
10
147.5
20
-92.0647
11
147.464
21
-92.163
0
LINE
8
Black
10
147.464
20
-92.163
11
147.397
21
-92.2431
0
LINE
8
Black
10
147.397
20
-92.2431
11
147.306
21
-92.2954
0
LINE
8
Black
10
147.306
20
-92.2954
11
147.203
21
-92.3136
0
LINE
8
Black
10
147.203
20
-92.3136
11
147.1
21
-92.2954
0
LINE
8
Black
10
147.1
20
-92.2954
11
147.009
21
-92.2431
0
LINE
8
Black
10
147.009
20
-92.2431
11
146.942
21
-92.163
0
LINE
8
Black
10
146.942
20
-92.163
11
146.933
21
-92.1374
0
LINE
8
Black
10
146.933
20
-92.1374
11
145.839
21
-92.1374
0
LINE
8
Black
10
145.839
20
-92.1374
11
145.839
21
-92.2163
0
LINE
8
Black
10
145.839
20
-92.2163
11
145.803
21
-92.3146
0
LINE
8
Black
10
145.803
20
-92.3146
11
145.736
21
-92.3947
0
LINE
8
Black
10
145.736
20
-92.3947
11
145.645
21
-92.447
0
LINE
8
Black
10
145.645
20
-92.447
11
145.542
21
-92.4651
0
LINE
8
Black
10
145.542
20
-92.4651
11
145.439
21
-92.447
0
LINE
8
Black
10
145.439
20
-92.447
11
145.348
21
-92.3947
0
LINE
8
Black
10
145.348
20
-92.3947
11
145.281
21
-92.3146
0
LINE
8
Black
10
145.281
20
-92.3146
11
145.245
21
-92.2163
0
LINE
8
Black
10
145.245
20
-92.2163
11
145.245
21
-92.1117
0
LINE
8
Black
10
145.245
20
-92.1117
11
145.281
21
-92.0134
0
LINE
8
Black
10
145.281
20
-92.0134
11
145.348
21
-91.9333
0
LINE
8
Black
10
145.348
20
-91.9333
11
145.439
21
-91.881
0
LINE
8
Black
10
145.439
20
-91.881
11
145.542
21
-91.8628
0
LINE
8
Black
10
145.542
20
-91.8628
11
145.645
21
-91.881
0
LINE
8
Black
10
145.645
20
-91.881
11
145.665
21
-91.8925
0
LINE
8
Black
10
145.665
20
-91.8925
11
145.667
21
-91.8921
0
LINE
8
Black
10
145.667
20
-91.8921
11
145.683
21
-91.8879
0
LINE
8
Black
10
145.683
20
-91.8879
11
145.688
21
-91.8884
0
LINE
8
Black
10
145.688
20
-91.8884
11
145.694
21
-91.8874
0
LINE
8
Black
10
145.694
20
-91.8874
11
146.933
21
-91.8874
0
LINE
8
Black
10
146.933
20
-91.8874
11
146.942
21
-91.8618
0
LINE
8
Black
10
146.942
20
-91.8618
11
147.009
21
-91.7817
0
LINE
8
Black
10
147.009
20
-91.7817
11
147.1
21
-91.7294
0
LINE
8
Black
10
147.1
20
-91.7294
11
147.203
21
-91.7113
0
LINE
8
Black
10
147.203
20
-91.7113
11
147.306
21
-91.7294
0
LINE
8
Black
10
145.935
20
-90.4707
11
146.025
21
-90.523
0
LINE
8
Black
10
146.025
20
-90.523
11
146.092
21
-90.6032
0
LINE
8
Black
10
146.092
20
-90.6032
11
146.102
21
-90.6287
0
LINE
8
Black
10
146.102
20
-90.6287
11
148.752
21
-90.6287
0
LINE
8
Black
10
148.752
20
-90.6287
11
148.755
21
-90.6247
0
LINE
8
Black
10
148.755
20
-90.6247
11
148.846
21
-90.5724
0
LINE
8
Black
10
148.846
20
-90.5724
11
148.949
21
-90.5543
0
LINE
8
Black
10
148.949
20
-90.5543
11
149.052
21
-90.5724
0
LINE
8
Black
10
149.052
20
-90.5724
11
149.143
21
-90.6247
0
LINE
8
Black
10
149.143
20
-90.6247
11
149.21
21
-90.7048
0
LINE
8
Black
10
149.21
20
-90.7048
11
149.246
21
-90.8031
0
LINE
8
Black
10
149.246
20
-90.8031
11
149.246
21
-90.9077
0
LINE
8
Black
10
149.246
20
-90.9077
11
149.21
21
-91.006
0
LINE
8
Black
10
149.21
20
-91.006
11
149.143
21
-91.0861
0
LINE
8
Black
10
149.143
20
-91.0861
11
149.052
21
-91.1384
0
LINE
8
Black
10
149.052
20
-91.1384
11
148.949
21
-91.1566
0
LINE
8
Black
10
148.949
20
-91.1566
11
148.846
21
-91.1384
0
LINE
8
Black
10
148.846
20
-91.1384
11
148.755
21
-91.0861
0
LINE
8
Black
10
148.755
20
-91.0861
11
148.688
21
-91.006
0
LINE
8
Black
10
148.688
20
-91.006
11
148.652
21
-90.9077
0
LINE
8
Black
10
148.652
20
-90.9077
11
148.652
21
-90.8787
0
LINE
8
Black
10
148.652
20
-90.8787
11
146.102
21
-90.8787
0
LINE
8
Black
10
146.102
20
-90.8787
11
146.092
21
-90.9043
0
LINE
8
Black
10
146.092
20
-90.9043
11
146.025
21
-90.9844
0
LINE
8
Black
10
146.025
20
-90.9844
11
145.935
21
-91.0367
0
LINE
8
Black
10
145.935
20
-91.0367
11
145.832
21
-91.0549
0
LINE
8
Black
10
145.832
20
-91.0549
11
145.729
21
-91.0367
0
LINE
8
Black
10
145.729
20
-91.0367
11
145.638
21
-90.9844
0
LINE
8
Black
10
145.638
20
-90.9844
11
145.571
21
-90.9043
0
LINE
8
Black
10
145.571
20
-90.9043
11
145.535
21
-90.806
0
LINE
8
Black
10
145.535
20
-90.806
11
145.535
21
-90.7014
0
LINE
8
Black
10
145.535
20
-90.7014
11
145.571
21
-90.6032
0
LINE
8
Black
10
145.571
20
-90.6032
11
145.638
21
-90.523
0
LINE
8
Black
10
145.638
20
-90.523
11
145.729
21
-90.4707
0
LINE
8
Black
10
145.729
20
-90.4707
11
145.832
21
-90.4526
0
LINE
8
Black
10
145.832
20
-90.4526
11
145.935
21
-90.4707
0
LINE
8
Black
10
134.469
20
-82.775
11
134.56
21
-82.8273
0
LINE
8
Black
10
134.56
20
-82.8273
11
134.627
21
-82.9074
0
LINE
8
Black
10
134.627
20
-82.9074
11
134.637
21
-82.9351
0
LINE
8
Black
10
134.637
20
-82.9351
11
134.647
21
-82.9377
0
LINE
8
Black
10
134.647
20
-82.9377
11
134.663
21
-82.9405
0
LINE
8
Black
10
134.663
20
-82.9405
11
134.668
21
-82.9433
0
LINE
8
Black
10
134.668
20
-82.9433
11
134.673
21
-82.9447
0
LINE
8
Black
10
134.673
20
-82.9447
11
134.686
21
-82.9541
0
LINE
8
Black
10
134.686
20
-82.9541
11
134.7
21
-82.9622
0
LINE
8
Black
10
134.7
20
-82.9622
11
134.704
21
-82.9665
0
LINE
8
Black
10
134.704
20
-82.9665
11
134.708
21
-82.9696
0
LINE
8
Black
10
134.708
20
-82.9696
11
138.579
21
-86.8402
0
LINE
8
Black
10
138.579
20
-86.8402
11
138.581
21
-86.839
0
LINE
8
Black
10
138.581
20
-86.839
11
138.684
21
-86.8209
0
LINE
8
Black
10
138.684
20
-86.8209
11
138.787
21
-86.839
0
LINE
8
Black
10
138.787
20
-86.839
11
138.878
21
-86.8913
0
LINE
8
Black
10
138.878
20
-86.8913
11
138.945
21
-86.9714
0
LINE
8
Black
10
138.945
20
-86.9714
11
138.981
21
-87.0697
0
LINE
8
Black
10
138.981
20
-87.0697
11
138.981
21
-87.1743
0
LINE
8
Black
10
138.981
20
-87.1743
11
138.945
21
-87.2726
0
LINE
8
Black
10
138.945
20
-87.2726
11
138.878
21
-87.3527
0
LINE
8
Black
10
138.878
20
-87.3527
11
138.787
21
-87.405
0
LINE
8
Black
10
138.787
20
-87.405
11
138.684
21
-87.4231
0
LINE
8
Black
10
138.684
20
-87.4231
11
138.581
21
-87.405
0
LINE
8
Black
10
138.581
20
-87.405
11
138.49
21
-87.3527
0
LINE
8
Black
10
138.49
20
-87.3527
11
138.423
21
-87.2726
0
LINE
8
Black
10
138.423
20
-87.2726
11
138.387
21
-87.1743
0
LINE
8
Black
10
138.387
20
-87.1743
11
138.387
21
-87.0697
0
LINE
8
Black
10
138.387
20
-87.0697
11
138.405
21
-87.0202
0
LINE
8
Black
10
138.405
20
-87.0202
11
134.612
21
-83.2265
0
LINE
8
Black
10
134.612
20
-83.2265
11
134.56
21
-83.2887
0
LINE
8
Black
10
134.56
20
-83.2887
11
134.469
21
-83.341
0
LINE
8
Black
10
134.469
20
-83.341
11
134.366
21
-83.3591
0
LINE
8
Black
10
134.366
20
-83.3591
11
134.263
21
-83.341
0
LINE
8
Black
10
134.263
20
-83.341
11
134.172
21
-83.2887
0
LINE
8
Black
10
134.172
20
-83.2887
11
134.105
21
-83.2086
0
LINE
8
Black
10
134.105
20
-83.2086
11
134.069
21
-83.1103
0
LINE
8
Black
10
134.069
20
-83.1103
11
134.069
21
-83.0057
0
LINE
8
Black
10
134.069
20
-83.0057
11
134.105
21
-82.9074
0
LINE
8
Black
10
134.105
20
-82.9074
11
134.172
21
-82.8273
0
LINE
8
Black
10
134.172
20
-82.8273
11
134.263
21
-82.775
0
LINE
8
Black
10
134.263
20
-82.775
11
134.366
21
-82.7569
0
LINE
8
Black
10
134.366
20
-82.7569
11
134.469
21
-82.775
0
LINE
8
Black
10
138.025
20
-81.759
11
138.116
21
-81.8113
0
LINE
8
Black
10
138.116
20
-81.8113
11
138.183
21
-81.8914
0
LINE
8
Black
10
138.183
20
-81.8914
11
138.219
21
-81.9897
0
LINE
8
Black
10
138.219
20
-81.9897
11
138.219
21
-82.0943
0
LINE
8
Black
10
138.219
20
-82.0943
11
138.183
21
-82.1926
0
LINE
8
Black
10
138.183
20
-82.1926
11
138.116
21
-82.2727
0
LINE
8
Black
10
138.116
20
-82.2727
11
138.025
21
-82.325
0
LINE
8
Black
10
138.025
20
-82.325
11
137.922
21
-82.3431
0
LINE
8
Black
10
137.922
20
-82.3431
11
137.819
21
-82.325
0
LINE
8
Black
10
137.819
20
-82.325
11
137.817
21
-82.3238
0
LINE
8
Black
10
137.817
20
-82.3238
11
136.677
21
-83.4642
0
LINE
8
Black
10
136.677
20
-83.4642
11
136.695
21
-83.5137
0
LINE
8
Black
10
136.695
20
-83.5137
11
136.695
21
-83.6183
0
LINE
8
Black
10
136.695
20
-83.6183
11
136.659
21
-83.7166
0
LINE
8
Black
10
136.659
20
-83.7166
11
136.592
21
-83.7967
0
LINE
8
Black
10
136.592
20
-83.7967
11
136.501
21
-83.849
0
LINE
8
Black
10
136.501
20
-83.849
11
136.398
21
-83.8671
0
LINE
8
Black
10
136.398
20
-83.8671
11
136.295
21
-83.849
0
LINE
8
Black
10
136.295
20
-83.849
11
136.204
21
-83.7967
0
LINE
8
Black
10
136.204
20
-83.7967
11
136.137
21
-83.7166
0
LINE
8
Black
10
136.137
20
-83.7166
11
136.101
21
-83.6183
0
LINE
8
Black
10
136.101
20
-83.6183
11
136.101
21
-83.5137
0
LINE
8
Black
10
136.101
20
-83.5137
11
136.137
21
-83.4154
0
LINE
8
Black
10
136.137
20
-83.4154
11
136.204
21
-83.3353
0
LINE
8
Black
10
136.204
20
-83.3353
11
136.295
21
-83.283
0
LINE
8
Black
10
136.295
20
-83.283
11
136.398
21
-83.2649
0
LINE
8
Black
10
136.398
20
-83.2649
11
136.501
21
-83.283
0
LINE
8
Black
10
136.501
20
-83.283
11
136.503
21
-83.2842
0
LINE
8
Black
10
136.503
20
-83.2842
11
137.643
21
-82.1438
0
LINE
8
Black
10
137.643
20
-82.1438
11
137.625
21
-82.0943
0
LINE
8
Black
10
137.625
20
-82.0943
11
137.625
21
-81.9897
0
LINE
8
Black
10
137.625
20
-81.9897
11
137.661
21
-81.8914
0
LINE
8
Black
10
137.661
20
-81.8914
11
137.728
21
-81.8113
0
LINE
8
Black
10
137.728
20
-81.8113
11
137.819
21
-81.759
0
LINE
8
Black
10
137.819
20
-81.759
11
137.922
21
-81.7409
0
LINE
8
Black
10
137.922
20
-81.7409
11
138.025
21
-81.759
0
LINE
8
Black
10
161.585
20
-74.4367
11
162.068
21
-74.7156
0
LINE
8
Black
10
162.068
20
-74.7156
11
162.427
21
-75.1429
0
LINE
8
Black
10
162.427
20
-75.1429
11
162.618
21
-75.6671
0
LINE
8
Black
10
162.618
20
-75.6671
11
162.618
21
-76.2249
0
LINE
8
Black
10
162.618
20
-76.2249
11
162.427
21
-76.7491
0
LINE
8
Black
10
162.427
20
-76.7491
11
162.068
21
-77.1764
0
LINE
8
Black
10
162.068
20
-77.1764
11
161.585
21
-77.4553
0
LINE
8
Black
10
161.585
20
-77.4553
11
161.036
21
-77.5521
0
LINE
8
Black
10
161.036
20
-77.5521
11
160.487
21
-77.4553
0
LINE
8
Black
10
160.487
20
-77.4553
11
160.004
21
-77.1764
0
LINE
8
Black
10
160.004
20
-77.1764
11
159.645
21
-76.7491
0
LINE
8
Black
10
159.645
20
-76.7491
11
159.454
21
-76.2249
0
LINE
8
Black
10
159.454
20
-76.2249
11
159.454
21
-75.6671
0
LINE
8
Black
10
159.454
20
-75.6671
11
159.645
21
-75.1429
0
LINE
8
Black
10
159.645
20
-75.1429
11
160.004
21
-74.7156
0
LINE
8
Black
10
160.004
20
-74.7156
11
160.487
21
-74.4367
0
LINE
8
Black
10
160.487
20
-74.4367
11
161.036
21
-74.3399
0
LINE
8
Black
10
161.036
20
-74.3399
11
161.585
21
-74.4367
0
CIRCLE
8
Black
10
159.512
20
-100.584
40
0.2
0
CIRCLE
8
Black
10
153.416
20
-102.87
40
0.2
0
CIRCLE
8
Black
10
134.366
20
-83.058
40
0.2
0
CIRCLE
8
Black
10
138.684
20
-87.122
40
0.2
0
CIRCLE
8
Black
10
148.949
20
-90.8554
40
0.2
0
CIRCLE
8
Black
10
145.832
20
-90.7537
40
0.2
0
CIRCLE
8
Black
10
137.922
20
-82.042
40
0.2
0
CIRCLE
8
Black
10
136.398
20
-83.566
40
0.2
0
CIRCLE
8
Black
10
162.56
20
-110.744
40
0.2
0
CIRCLE
8
Black
10
162.56
20
-113.03
40
0.2
0
CIRCLE
8
Black
10
133.995
20
-89.154
40
0.2
0
CIRCLE
8
Black
10
133.995
20
-92.71
40
0.2
0
CIRCLE
8
Black
10
127.508
20
-106.426
40
0.2
0
CIRCLE
8
Black
10
127.508
20
-102.362
40
0.2
0
CIRCLE
8
Black
10
141.732
20
-96.012
40
0.2
0
CIRCLE
8
Black
10
139.954
20
-94.488
40
0.2
0
CIRCLE
8
Black
10
152.908
20
-107.696
40
0.2
0
CIRCLE
8
Black
10
154.178
20
-108.712
40
0.2
0
CIRCLE
8
Black
10
159.258
20
-117.094
40
0.2
0
CIRCLE
8
Black
10
159.512
20
-119.888
40
0.2
0
CIRCLE
8
Black
10
147.574
20
-92.964
40
0.2
0
CIRCLE
8
Black
10
145.542
20
-92.964
40
0.2
0
CIRCLE
8
Black
10
145.542
20
-92.164
40
0.2
0
CIRCLE
8
Black
10
147.203
20
-92.0124
40
0.2
0
CIRCLE
8
Black
10
148.21
20
-93.4588
40
0.2
0
CIRCLE
8
Black
10
144.526
20
-93.591
40
0.2
0
CIRCLE
8
Black
10
134.62
20
-88.138
40
0.2
0
CIRCLE
8
Black
10
137.16
20
-99.568
40
0.2
0
CIRCLE
8
Black
10
145.288
20
-96.774
40
0.2
0
CIRCLE
8
Black
10
137.668
20
-95.25
40
0.2
0
CIRCLE
8
Black
10
153.67
20
-107.188
40
0.2
0
CIRCLE
8
Black
10
154.94
20
-107.95
40
0.2
0
CIRCLE
8
Black
10
151.892
20
-110.744
40
0.2
0
CIRCLE
8
Black
10
157.226
20
-110.744
40
0.2
  0
ENDSEC
  0
EOF
