G04 #@! TF.FileFunction,Soldermask,Top*
%FSLAX46Y46*%
G04 Gerber Fmt 4.6, Leading zero omitted, Abs format (unit mm)*
G04 Created by KiCad (PCBNEW 4.0.7) date 07/04/18 14:48:19*
%MOMM*%
%LPD*%
G01*
G04 APERTURE LIST*
%ADD10C,0.100000*%
%ADD11C,1.924000*%
%ADD12C,1.900000*%
%ADD13R,2.000000X0.950000*%
%ADD14R,0.950000X2.000000*%
%ADD15R,1.900000X1.650000*%
%ADD16R,3.400000X2.000000*%
%ADD17R,2.000000X2.400000*%
%ADD18R,3.000000X2.000000*%
%ADD19R,3.900000X2.000000*%
%ADD20R,1.900000X1.700000*%
%ADD21R,1.400000X3.150000*%
%ADD22R,1.700000X1.900000*%
%ADD23R,2.400000X1.500000*%
%ADD24R,4.400000X2.900000*%
%ADD25R,1.500000X1.000000*%
%ADD26R,1.600000X3.900000*%
%ADD27R,1.400000X1.400000*%
%ADD28R,1.950000X1.000000*%
%ADD29C,3.600000*%
%ADD30R,1.400000X3.550000*%
%ADD31R,1.300000X1.600000*%
%ADD32C,3.900000*%
G04 APERTURE END LIST*
D10*
D11*
X125635501Y-113232377D03*
X123300634Y-115567244D03*
D12*
X128432816Y-124650738D02*
X128079262Y-124297184D01*
X134796777Y-118286777D02*
X134443223Y-117933223D01*
D13*
X134434000Y-82106000D03*
X134434000Y-82906000D03*
X134434000Y-83706000D03*
X134434000Y-84506000D03*
X134434000Y-85306000D03*
X134434000Y-86106000D03*
X134434000Y-86906000D03*
X134434000Y-87706000D03*
D14*
X135884000Y-89156000D03*
X136684000Y-89156000D03*
X137484000Y-89156000D03*
X138284000Y-89156000D03*
X139084000Y-89156000D03*
X139884000Y-89156000D03*
X140684000Y-89156000D03*
X141484000Y-89156000D03*
D13*
X142934000Y-87706000D03*
X142934000Y-86906000D03*
X142934000Y-86106000D03*
X142934000Y-85306000D03*
X142934000Y-84506000D03*
X142934000Y-83706000D03*
X142934000Y-82906000D03*
X142934000Y-82106000D03*
D14*
X141484000Y-80656000D03*
X140684000Y-80656000D03*
X139884000Y-80656000D03*
X139084000Y-80656000D03*
X138284000Y-80656000D03*
X137484000Y-80656000D03*
X136684000Y-80656000D03*
X135884000Y-80656000D03*
D15*
X169418000Y-94488000D03*
X171918000Y-94488000D03*
X169438000Y-86360000D03*
X171938000Y-86360000D03*
D16*
X164252000Y-126746000D03*
X159852000Y-126746000D03*
D15*
X125984000Y-81788000D03*
X123484000Y-81788000D03*
X125984000Y-89408000D03*
X123484000Y-89408000D03*
D17*
X152146000Y-122650000D03*
X152146000Y-118650000D03*
D18*
X162284000Y-107188000D03*
X165884000Y-107188000D03*
D19*
X141318000Y-116332000D03*
X146718000Y-116332000D03*
D20*
X172640000Y-113538000D03*
X175340000Y-113538000D03*
D21*
X171838000Y-98806000D03*
X169538000Y-98806000D03*
D11*
X167894000Y-120396000D03*
X117856000Y-93980000D03*
D22*
X166116000Y-85772000D03*
X166116000Y-88472000D03*
X166116000Y-91106000D03*
X166116000Y-93806000D03*
D20*
X133016000Y-76454000D03*
X135716000Y-76454000D03*
X132762000Y-113538000D03*
X135462000Y-113538000D03*
X175340000Y-109982000D03*
X172640000Y-109982000D03*
X129714000Y-103886000D03*
X132414000Y-103886000D03*
X132762000Y-108458000D03*
X135462000Y-108458000D03*
X126920000Y-100330000D03*
X129620000Y-100330000D03*
X154098000Y-94996000D03*
X156798000Y-94996000D03*
X164926000Y-113538000D03*
X162226000Y-113538000D03*
D23*
X176070000Y-94994000D03*
X176070000Y-98044000D03*
X176070000Y-101094000D03*
X182070000Y-98044000D03*
X182070000Y-94994000D03*
X182070000Y-101094000D03*
D24*
X161290000Y-83058000D03*
X153290000Y-83058000D03*
D25*
X169288000Y-91374000D03*
X172088000Y-91374000D03*
X169288000Y-90424000D03*
X172088000Y-90424000D03*
X169288000Y-89474000D03*
X172088000Y-89474000D03*
D26*
X129794000Y-82848000D03*
X129794000Y-88348000D03*
D27*
X157226000Y-115316000D03*
X157226000Y-117816000D03*
D28*
X147668000Y-127635000D03*
X147668000Y-128905000D03*
X147668000Y-130175000D03*
X147668000Y-131445000D03*
X153068000Y-131445000D03*
X153068000Y-130175000D03*
X153068000Y-128905000D03*
X153068000Y-127635000D03*
D11*
X180848000Y-104902000D03*
X180848000Y-109982000D03*
X180848000Y-91694000D03*
X180848000Y-86614000D03*
D29*
X118618000Y-98552000D03*
X164592000Y-72136000D03*
X171958000Y-122428000D03*
D30*
X147066000Y-73899000D03*
X147066000Y-68849000D03*
X149606000Y-73899000D03*
X149606000Y-68849000D03*
X152146000Y-73899000D03*
X152146000Y-68849000D03*
D31*
X120179000Y-108588000D03*
X120179000Y-105788000D03*
X121629000Y-108588000D03*
X121629000Y-105788000D03*
D32*
X151384000Y-90966000D03*
X151384000Y-108966000D03*
D11*
X144042000Y-104108000D03*
X147042000Y-104108000D03*
M02*
