G04 #@! TF.FileFunction,Copper,L2,Bot,Signal*
%FSLAX46Y46*%
G04 Gerber Fmt 4.6, Leading zero omitted, Abs format (unit mm)*
G04 Created by KiCad (PCBNEW 4.0.7) date 07/04/18 14:48:19*
%MOMM*%
%LPD*%
G01*
G04 APERTURE LIST*
%ADD10C,0.100000*%
%ADD11C,1.524000*%
%ADD12C,3.500000*%
%ADD13C,0.600000*%
%ADD14C,0.250000*%
G04 APERTURE END LIST*
D10*
D11*
X125635501Y-113232377D03*
X123300634Y-115567244D03*
X167894000Y-120396000D03*
X117856000Y-93980000D03*
X180848000Y-104902000D03*
X180848000Y-109982000D03*
X180848000Y-91694000D03*
X180848000Y-86614000D03*
D12*
X151384000Y-90966000D03*
X151384000Y-108966000D03*
D11*
X144042000Y-104108000D03*
X147042000Y-104108000D03*
D13*
X155702000Y-99568000D03*
X157988000Y-100584000D03*
X148336000Y-82550000D03*
X144526000Y-82550000D03*
X132842000Y-83566000D03*
X132588000Y-81788000D03*
X146948990Y-87376000D03*
X123444000Y-107950000D03*
X132588000Y-86360000D03*
X144780000Y-86868000D03*
X159258000Y-114300000D03*
X146558000Y-111760000D03*
X138430000Y-94605010D03*
X140462000Y-94996000D03*
X149352000Y-122174000D03*
X145288000Y-128016000D03*
X147828000Y-92710000D03*
X157480000Y-102108000D03*
X153670000Y-98552000D03*
X147574000Y-86614000D03*
X147574000Y-83566000D03*
X144272000Y-83312000D03*
X145318800Y-85101485D03*
X146948990Y-84328000D03*
X145304610Y-88406292D03*
X144780000Y-89916000D03*
X144154990Y-79911401D03*
X147067032Y-78486000D03*
X167386000Y-88392000D03*
X168910000Y-88392000D03*
X131962990Y-89154000D03*
X132080000Y-84328000D03*
X133604000Y-98806000D03*
X136144000Y-101346000D03*
X152828651Y-97164990D03*
X158242000Y-97282000D03*
X141224000Y-93980000D03*
X135890000Y-92710000D03*
X137414000Y-96774000D03*
X135636000Y-98552000D03*
D14*
X153924000Y-97790000D02*
X155702000Y-99568000D01*
X150360000Y-97790000D02*
X153924000Y-97790000D01*
X144042000Y-104108000D02*
X150360000Y-97790000D01*
X157988000Y-100584000D02*
X156718000Y-100584000D01*
X156718000Y-100584000D02*
X155702000Y-99568000D01*
X144526000Y-82550000D02*
X148336000Y-82550000D01*
X132588000Y-81788000D02*
X132588000Y-83312000D01*
X132588000Y-83312000D02*
X132842000Y-83566000D01*
X146648991Y-87076001D02*
X146948990Y-87376000D01*
X146440990Y-86868000D02*
X146648991Y-87076001D01*
X144780000Y-86868000D02*
X146440990Y-86868000D01*
X132334000Y-99060000D02*
X123444000Y-107950000D01*
X132334000Y-90424000D02*
X132334000Y-99060000D01*
X132588000Y-86360000D02*
X132588000Y-90170000D01*
X132588000Y-90170000D02*
X132334000Y-90424000D01*
X146558000Y-111760000D02*
X156718000Y-111760000D01*
X156718000Y-111760000D02*
X159258000Y-114300000D01*
X138854264Y-94605010D02*
X138430000Y-94605010D01*
X140071010Y-94605010D02*
X138854264Y-94605010D01*
X140462000Y-94996000D02*
X140071010Y-94605010D01*
X145288000Y-128016000D02*
X145288000Y-126238000D01*
X145288000Y-126238000D02*
X149352000Y-122174000D01*
X156926001Y-101808001D02*
X153670000Y-98552000D01*
X157180001Y-101808001D02*
X156926001Y-101808001D01*
X157480000Y-102108000D02*
X157180001Y-101808001D01*
X147574000Y-87884000D02*
X147574000Y-92456000D01*
X147574000Y-92456000D02*
X147828000Y-92710000D01*
X147574000Y-86614000D02*
X147574000Y-87884000D01*
X144272000Y-83312000D02*
X147320000Y-83312000D01*
X147320000Y-83312000D02*
X147574000Y-83566000D01*
X145618799Y-84801486D02*
X145318800Y-85101485D01*
X146948990Y-84328000D02*
X146092285Y-84328000D01*
X146092285Y-84328000D02*
X145618799Y-84801486D01*
X144780000Y-89916000D02*
X145304610Y-89391390D01*
X145304610Y-88830556D02*
X145304610Y-88406292D01*
X145304610Y-89391390D02*
X145304610Y-88830556D01*
X146767033Y-78785999D02*
X147067032Y-78486000D01*
X145641631Y-79911401D02*
X146767033Y-78785999D01*
X144154990Y-79911401D02*
X145641631Y-79911401D01*
X168910000Y-88392000D02*
X167386000Y-88392000D01*
X132080000Y-84328000D02*
X132080000Y-84752264D01*
X132080000Y-84752264D02*
X131962990Y-84869274D01*
X131962990Y-84869274D02*
X131962990Y-88729736D01*
X131962990Y-88729736D02*
X131962990Y-89154000D01*
X136144000Y-101346000D02*
X133604000Y-98806000D01*
X152945661Y-97282000D02*
X152828651Y-97164990D01*
X158242000Y-97282000D02*
X152945661Y-97282000D01*
X135890000Y-92710000D02*
X137160000Y-93980000D01*
X137160000Y-93980000D02*
X141224000Y-93980000D01*
X135636000Y-98552000D02*
X137414000Y-96774000D01*
M02*
