<?xml version="1.0" standalone="no"?>
 <!DOCTYPE svg PUBLIC "-//W3C//DTD SVG 1.1//EN" 
 "http://www.w3.org/Graphics/SVG/1.1/DTD/svg11.dtd"> 
<svg xmlns="http://www.w3.org/2000/svg" version="1.1" 
    width="29.7002cm" height="21.0007cm" viewBox="0 0 116930 82680 ">
<title>SVG Picture created as otheringmachines03b-NPTH-drl_map.svg date 2018/09/13 16:56:56 </title>
  <desc>Picture generated by PCBNEW </desc>
<g style="fill:#000000; fill-opacity:1;stroke:#000000; stroke-opacity:1;
stroke-linecap:round; stroke-linejoin:round; "
 transform="translate(0 0) scale(1 1)">
</g>
<g style="fill:#000000; fill-opacity:0.0; 
stroke:#000000; stroke-width:-0.000393701; stroke-opacity:1; 
stroke-linecap:round; stroke-linejoin:round;">
</g>
<g style="fill:#000000; fill-opacity:0.0; 
stroke:#000000; stroke-width:59.0551; stroke-opacity:1; 
stroke-linecap:round; stroke-linejoin:round;">
<circle cx="59055.1" cy="39370.1" r="14763.8" /> 
</g>
<g style="fill:#000000; fill-opacity:0.0; 
stroke:#000000; stroke-width:78.7402; stroke-opacity:1; 
stroke-linecap:round; stroke-linejoin:round;">
<path d="M50199 48710
L50789 49300
" />
<path d="M50789 48710
L50199 49300
" />
<path d="M50745 48894
L50605 48754
" />
<path d="M50383 49256
L50243 49116
" />
<path d="M50605.9 48754.9 A255.906 255.906 0.0 1 0 50244 49116.9 " />
<path d="M50383.1 49256 A255.906 255.906 0.0 0 0 50745.1 48894.1 " />
<path d="M52704 46204
L53295 46795
" />
<path d="M53295 46204
L52704 46795
" />
<path d="M53250 46388
L53111 46249
" />
<path d="M52888 46750
L52749 46611
" />
<path d="M53111.4 46249.5 A255.906 255.906 0.0 1 0 52749.5 46611.4 " />
<path d="M52888.6 46750.5 A255.906 255.906 0.0 0 0 53250.5 46388.6 " />
<circle cx="45700" cy="38800" r="629.921" /> 
<circle cx="66000" cy="28000" r="629.921" /> 
<circle cx="68600" cy="48700" r="629.921" /> 
<path d="M59055 35177
L59055 36476
" />
<path d="M58405 35826
L59704 35826
" />
<path d="M59055 42263
L59055 43562
" />
<path d="M58405 42913
L59704 42913
" />
</g>
<g style="fill:#000000; fill-opacity:0.0; 
stroke:#000000; stroke-width:118.11; stroke-opacity:1; 
stroke-linecap:round; stroke-linejoin:round;">
<path d="M45330 55996
L45330 54815
L45611 54815
L45780 54872
L45892 54984
L45949 55097
L46005 55321
L46005 55490
L45949 55715
L45892 55828
L45780 55940
L45611 55996
L45330 55996
" />
<path d="M46511 55996
L46511 55209
" />
<path d="M46511 55434
L46567 55321
L46624 55265
L46736 55209
L46848 55209
" />
<path d="M47242 55996
L47242 55209
" />
<path d="M47242 54815
L47186 54872
L47242 54928
L47298 54872
L47242 54815
L47242 54928
" />
<path d="M47973 55996
L47861 55940
L47805 55828
L47805 54815
" />
<path d="M48592 55996
L48480 55940
L48423 55828
L48423 54815
" />
<path d="M49942 55996
L49942 54815
L50336 55659
L50729 54815
L50729 55996
" />
<path d="M51798 55996
L51798 55378
L51742 55265
L51629 55209
L51404 55209
L51292 55265
" />
<path d="M51798 55940
L51685 55996
L51404 55996
L51292 55940
L51235 55828
L51235 55715
L51292 55603
L51404 55546
L51685 55546
L51798 55490
" />
<path d="M52360 55209
L52360 56390
" />
<path d="M52360 55265
L52473 55209
L52698 55209
L52810 55265
L52866 55321
L52923 55434
L52923 55771
L52866 55884
L52810 55940
L52698 55996
L52473 55996
L52360 55940
" />
<path d="M53429 55884
L53485 55940
L53429 55996
L53373 55940
L53429 55884
L53429 55996
" />
<path d="M53429 55265
L53485 55321
L53429 55378
L53373 55321
L53429 55265
L53429 55378
" />
<path d="M43671 57647
L44261 58238
" />
<path d="M44261 57647
L43671 58238
" />
<path d="M45949 58477
L45274 58477
" />
<path d="M45611 58477
L45611 57296
L45499 57464
L45386 57577
L45274 57633
" />
<path d="M46455 58364
L46511 58420
L46455 58477
L46399 58420
L46455 58364
L46455 58477
" />
<path d="M47580 57296
L47017 57296
L46961 57858
L47017 57802
L47130 57746
L47411 57746
L47523 57802
L47580 57858
L47636 57971
L47636 58252
L47580 58364
L47523 58420
L47411 58477
L47130 58477
L47017 58420
L46961 58364
" />
<path d="M48367 57296
L48480 57296
L48592 57352
L48648 57408
L48705 57521
L48761 57746
L48761 58027
L48705 58252
L48648 58364
L48592 58420
L48480 58477
L48367 58477
L48255 58420
L48198 58364
L48142 58252
L48086 58027
L48086 57746
L48142 57521
L48198 57408
L48255 57352
L48367 57296
" />
<path d="M49267 58477
L49267 57689
" />
<path d="M49267 57802
L49323 57746
L49436 57689
L49604 57689
L49717 57746
L49773 57858
L49773 58477
" />
<path d="M49773 57858
L49829 57746
L49942 57689
L50111 57689
L50223 57746
L50279 57858
L50279 58477
" />
<path d="M50842 58477
L50842 57689
" />
<path d="M50842 57802
L50898 57746
L51010 57689
L51179 57689
L51292 57746
L51348 57858
L51348 58477
" />
<path d="M51348 57858
L51404 57746
L51517 57689
L51685 57689
L51798 57746
L51854 57858
L51854 58477
" />
<path d="M54160 57239
L53148 58758
" />
<path d="M55679 57296
L55791 57296
L55904 57352
L55960 57408
L56016 57521
L56072 57746
L56072 58027
L56016 58252
L55960 58364
L55904 58420
L55791 58477
L55679 58477
L55566 58420
L55510 58364
L55454 58252
L55397 58027
L55397 57746
L55454 57521
L55510 57408
L55566 57352
L55679 57296
" />
<path d="M56579 58364
L56635 58420
L56579 58477
L56522 58420
L56579 58364
L56579 58477
" />
<path d="M57366 57296
L57478 57296
L57591 57352
L57647 57408
L57703 57521
L57760 57746
L57760 58027
L57703 58252
L57647 58364
L57591 58420
L57478 58477
L57366 58477
L57253 58420
L57197 58364
L57141 58252
L57085 58027
L57085 57746
L57141 57521
L57197 57408
L57253 57352
L57366 57296
" />
<path d="M58828 57296
L58266 57296
L58210 57858
L58266 57802
L58378 57746
L58660 57746
L58772 57802
L58828 57858
L58884 57971
L58884 58252
L58828 58364
L58772 58420
L58660 58477
L58378 58477
L58266 58420
L58210 58364
" />
<path d="M59447 58477
L59672 58477
L59784 58420
L59841 58364
L59953 58196
L60009 57971
L60009 57521
L59953 57408
L59897 57352
L59784 57296
L59559 57296
L59447 57352
L59391 57408
L59334 57521
L59334 57802
L59391 57914
L59447 57971
L59559 58027
L59784 58027
L59897 57971
L59953 57914
L60009 57802
" />
<path d="M60459 57296
L60459 57521
" />
<path d="M60909 57296
L60909 57521
" />
<path d="M62653 58927
L62597 58870
L62484 58702
L62428 58589
L62372 58420
L62315 58139
L62315 57914
L62372 57633
L62428 57464
L62484 57352
L62597 57183
L62653 57127
" />
<path d="M63328 57296
L63440 57296
L63553 57352
L63609 57408
L63665 57521
L63721 57746
L63721 58027
L63665 58252
L63609 58364
L63553 58420
L63440 58477
L63328 58477
L63215 58420
L63159 58364
L63103 58252
L63046 58027
L63046 57746
L63103 57521
L63159 57408
L63215 57352
L63328 57296
" />
<path d="M65127 58477
L65127 57296
" />
<path d="M65634 58477
L65634 57858
L65577 57746
L65465 57689
L65296 57689
L65184 57746
L65127 57802
" />
<path d="M66365 58477
L66252 58420
L66196 58364
L66140 58252
L66140 57914
L66196 57802
L66252 57746
L66365 57689
L66534 57689
L66646 57746
L66702 57802
L66758 57914
L66758 58252
L66702 58364
L66646 58420
L66534 58477
L66365 58477
" />
<path d="M67433 58477
L67321 58420
L67265 58308
L67265 57296
" />
<path d="M68333 58420
L68221 58477
L67996 58477
L67883 58420
L67827 58308
L67827 57858
L67883 57746
L67996 57689
L68221 57689
L68333 57746
L68390 57858
L68390 57971
L67827 58083
" />
<path d="M68839 58420
L68952 58477
L69177 58477
L69289 58420
L69346 58308
L69346 58252
L69289 58139
L69177 58083
L69008 58083
L68896 58027
L68839 57914
L68839 57858
L68896 57746
L69008 57689
L69177 57689
L69289 57746
" />
<path d="M70752 58027
L71652 58027
" />
<path d="M71202 58477
L71202 57577
" />
<path d="M73058 57408
L73114 57352
L73226 57296
L73508 57296
L73620 57352
L73676 57408
L73733 57521
L73733 57633
L73676 57802
L73001 58477
L73733 58477
" />
<path d="M75082 58420
L75195 58477
L75420 58477
L75532 58420
L75589 58308
L75589 58252
L75532 58139
L75420 58083
L75251 58083
L75139 58027
L75082 57914
L75082 57858
L75139 57746
L75251 57689
L75420 57689
L75532 57746
" />
<path d="M76264 58477
L76151 58420
L76095 58308
L76095 57296
" />
<path d="M76882 58477
L76770 58420
L76714 58364
L76657 58252
L76657 57914
L76714 57802
L76770 57746
L76882 57689
L77051 57689
L77163 57746
L77220 57802
L77276 57914
L77276 58252
L77220 58364
L77163 58420
L77051 58477
L76882 58477
" />
<path d="M77613 57689
L78063 57689
" />
<path d="M77782 57296
L77782 58308
L77838 58420
L77951 58477
L78063 58477
" />
<path d="M78401 58420
L78513 58477
L78738 58477
L78851 58420
L78907 58308
L78907 58252
L78851 58139
L78738 58083
L78570 58083
L78457 58027
L78401 57914
L78401 57858
L78457 57746
L78570 57689
L78738 57689
L78851 57746
" />
<path d="M79301 58927
L79357 58870
L79469 58702
L79526 58589
L79582 58420
L79638 58139
L79638 57914
L79582 57633
L79526 57464
L79469 57352
L79357 57183
L79301 57127
" />
<path d="M81438 58927
L81382 58870
L81269 58702
L81213 58589
L81157 58420
L81100 58139
L81100 57914
L81157 57633
L81213 57464
L81269 57352
L81382 57183
L81438 57127
" />
<path d="M81888 57689
L81888 58477
" />
<path d="M81888 57802
L81944 57746
L82057 57689
L82225 57689
L82338 57746
L82394 57858
L82394 58477
" />
<path d="M83125 58477
L83013 58420
L82956 58364
L82900 58252
L82900 57914
L82956 57802
L83013 57746
L83125 57689
L83294 57689
L83406 57746
L83463 57802
L83519 57914
L83519 58252
L83463 58364
L83406 58420
L83294 58477
L83125 58477
" />
<path d="M83856 57689
L84306 57689
" />
<path d="M84025 57296
L84025 58308
L84081 58420
L84194 58477
L84306 58477
" />
<path d="M85600 57689
L85600 58870
" />
<path d="M85600 57746
L85712 57689
L85937 57689
L86050 57746
L86106 57802
L86162 57914
L86162 58252
L86106 58364
L86050 58420
L85937 58477
L85712 58477
L85600 58420
" />
<path d="M86837 58477
L86725 58420
L86669 58308
L86669 57296
" />
<path d="M87793 58477
L87793 57858
L87737 57746
L87625 57689
L87400 57689
L87287 57746
" />
<path d="M87793 58420
L87681 58477
L87400 58477
L87287 58420
L87231 58308
L87231 58196
L87287 58083
L87400 58027
L87681 58027
L87793 57971
" />
<path d="M88187 57689
L88637 57689
" />
<path d="M88356 57296
L88356 58308
L88412 58420
L88525 58477
L88637 58477
" />
<path d="M89481 58420
L89368 58477
L89143 58477
L89031 58420
L88974 58308
L88974 57858
L89031 57746
L89143 57689
L89368 57689
L89481 57746
L89537 57858
L89537 57971
L88974 58083
" />
<path d="M90549 58477
L90549 57296
" />
<path d="M90549 58420
L90437 58477
L90212 58477
L90099 58420
L90043 58364
L89987 58252
L89987 57914
L90043 57802
L90099 57746
L90212 57689
L90437 57689
L90549 57746
" />
<path d="M90999 58927
L91055 58870
L91168 58702
L91224 58589
L91280 58420
L91337 58139
L91337 57914
L91280 57633
L91224 57464
L91168 57352
L91055 57183
L90999 57127
" />
<circle cx="43631.9" cy="59502" r="629.921" /> 
<path d="M45217 58855
L45949 58855
L45555 59305
L45724 59305
L45836 59361
L45892 59417
L45949 59530
L45949 59811
L45892 59923
L45836 59980
L45724 60036
L45386 60036
L45274 59980
L45217 59923
" />
<path d="M46455 59923
L46511 59980
L46455 60036
L46399 59980
L46455 59923
L46455 60036
" />
<path d="M46961 58967
L47017 58911
L47130 58855
L47411 58855
L47523 58911
L47580 58967
L47636 59080
L47636 59192
L47580 59361
L46905 60036
L47636 60036
" />
<path d="M48367 58855
L48480 58855
L48592 58911
L48648 58967
L48705 59080
L48761 59305
L48761 59586
L48705 59811
L48648 59923
L48592 59980
L48480 60036
L48367 60036
L48255 59980
L48198 59923
L48142 59811
L48086 59586
L48086 59305
L48142 59080
L48198 58967
L48255 58911
L48367 58855
" />
<path d="M49267 60036
L49267 59248
" />
<path d="M49267 59361
L49323 59305
L49436 59248
L49604 59248
L49717 59305
L49773 59417
L49773 60036
" />
<path d="M49773 59417
L49829 59305
L49942 59248
L50111 59248
L50223 59305
L50279 59417
L50279 60036
" />
<path d="M50842 60036
L50842 59248
" />
<path d="M50842 59361
L50898 59305
L51010 59248
L51179 59248
L51292 59305
L51348 59417
L51348 60036
" />
<path d="M51348 59417
L51404 59305
L51517 59248
L51685 59248
L51798 59305
L51854 59417
L51854 60036
" />
<path d="M54160 58798
L53148 60317
" />
<path d="M55679 58855
L55791 58855
L55904 58911
L55960 58967
L56016 59080
L56072 59305
L56072 59586
L56016 59811
L55960 59923
L55904 59980
L55791 60036
L55679 60036
L55566 59980
L55510 59923
L55454 59811
L55397 59586
L55397 59305
L55454 59080
L55510 58967
L55566 58911
L55679 58855
" />
<path d="M56579 59923
L56635 59980
L56579 60036
L56522 59980
L56579 59923
L56579 60036
" />
<path d="M57760 60036
L57085 60036
" />
<path d="M57422 60036
L57422 58855
L57310 59023
L57197 59136
L57085 59192
" />
<path d="M58210 58967
L58266 58911
L58378 58855
L58660 58855
L58772 58911
L58828 58967
L58884 59080
L58884 59192
L58828 59361
L58153 60036
L58884 60036
" />
<path d="M59897 58855
L59672 58855
L59559 58911
L59503 58967
L59391 59136
L59334 59361
L59334 59811
L59391 59923
L59447 59980
L59559 60036
L59784 60036
L59897 59980
L59953 59923
L60009 59811
L60009 59530
L59953 59417
L59897 59361
L59784 59305
L59559 59305
L59447 59361
L59391 59417
L59334 59530
" />
<path d="M60459 58855
L60459 59080
" />
<path d="M60909 58855
L60909 59080
" />
<path d="M62653 60486
L62597 60429
L62484 60261
L62428 60148
L62372 59980
L62315 59698
L62315 59473
L62372 59192
L62428 59023
L62484 58911
L62597 58742
L62653 58686
" />
<path d="M62990 58855
L63721 58855
L63328 59305
L63496 59305
L63609 59361
L63665 59417
L63721 59530
L63721 59811
L63665 59923
L63609 59980
L63496 60036
L63159 60036
L63046 59980
L62990 59923
" />
<path d="M65127 60036
L65127 58855
" />
<path d="M65634 60036
L65634 59417
L65577 59305
L65465 59248
L65296 59248
L65184 59305
L65127 59361
" />
<path d="M66365 60036
L66252 59980
L66196 59923
L66140 59811
L66140 59473
L66196 59361
L66252 59305
L66365 59248
L66534 59248
L66646 59305
L66702 59361
L66758 59473
L66758 59811
L66702 59923
L66646 59980
L66534 60036
L66365 60036
" />
<path d="M67433 60036
L67321 59980
L67265 59867
L67265 58855
" />
<path d="M68333 59980
L68221 60036
L67996 60036
L67883 59980
L67827 59867
L67827 59417
L67883 59305
L67996 59248
L68221 59248
L68333 59305
L68390 59417
L68390 59530
L67827 59642
" />
<path d="M68839 59980
L68952 60036
L69177 60036
L69289 59980
L69346 59867
L69346 59811
L69289 59698
L69177 59642
L69008 59642
L68896 59586
L68839 59473
L68839 59417
L68896 59305
L69008 59248
L69177 59248
L69289 59305
" />
<path d="M69739 60486
L69796 60429
L69908 60261
L69964 60148
L70021 59980
L70077 59698
L70077 59473
L70021 59192
L69964 59023
L69908 58911
L69796 58742
L69739 58686
" />
<path d="M71877 60486
L71820 60429
L71708 60261
L71652 60148
L71595 59980
L71539 59698
L71539 59473
L71595 59192
L71652 59023
L71708 58911
L71820 58742
L71877 58686
" />
<path d="M72327 59248
L72327 60036
" />
<path d="M72327 59361
L72383 59305
L72495 59248
L72664 59248
L72776 59305
L72833 59417
L72833 60036
" />
<path d="M73564 60036
L73451 59980
L73395 59923
L73339 59811
L73339 59473
L73395 59361
L73451 59305
L73564 59248
L73733 59248
L73845 59305
L73901 59361
L73958 59473
L73958 59811
L73901 59923
L73845 59980
L73733 60036
L73564 60036
" />
<path d="M74295 59248
L74745 59248
" />
<path d="M74464 58855
L74464 59867
L74520 59980
L74633 60036
L74745 60036
" />
<path d="M76039 59248
L76039 60429
" />
<path d="M76039 59305
L76151 59248
L76376 59248
L76489 59305
L76545 59361
L76601 59473
L76601 59811
L76545 59923
L76489 59980
L76376 60036
L76151 60036
L76039 59980
" />
<path d="M77276 60036
L77163 59980
L77107 59867
L77107 58855
" />
<path d="M78232 60036
L78232 59417
L78176 59305
L78063 59248
L77838 59248
L77726 59305
" />
<path d="M78232 59980
L78120 60036
L77838 60036
L77726 59980
L77670 59867
L77670 59755
L77726 59642
L77838 59586
L78120 59586
L78232 59530
" />
<path d="M78626 59248
L79076 59248
" />
<path d="M78794 58855
L78794 59867
L78851 59980
L78963 60036
L79076 60036
" />
<path d="M79919 59980
L79807 60036
L79582 60036
L79469 59980
L79413 59867
L79413 59417
L79469 59305
L79582 59248
L79807 59248
L79919 59305
L79976 59417
L79976 59530
L79413 59642
" />
<path d="M80988 60036
L80988 58855
" />
<path d="M80988 59980
L80875 60036
L80651 60036
L80538 59980
L80482 59923
L80426 59811
L80426 59473
L80482 59361
L80538 59305
L80651 59248
L80875 59248
L80988 59305
" />
<path d="M81438 60486
L81494 60429
L81607 60261
L81663 60148
L81719 59980
L81775 59698
L81775 59473
L81719 59192
L81663 59023
L81607 58911
L81494 58742
L81438 58686
" />
<path d="M43612 60624
L43612 61923
" />
<path d="M42962 61273
L44261 61273
" />
<path d="M45217 60626
L45949 60626
L45555 61076
L45724 61076
L45836 61133
L45892 61189
L45949 61301
L45949 61582
L45892 61695
L45836 61751
L45724 61807
L45386 61807
L45274 61751
L45217 61695
" />
<path d="M46455 61695
L46511 61751
L46455 61807
L46399 61751
L46455 61695
L46455 61807
" />
<path d="M46905 60626
L47636 60626
L47242 61076
L47411 61076
L47523 61133
L47580 61189
L47636 61301
L47636 61582
L47580 61695
L47523 61751
L47411 61807
L47073 61807
L46961 61751
L46905 61695
" />
<path d="M48367 60626
L48480 60626
L48592 60683
L48648 60739
L48705 60851
L48761 61076
L48761 61357
L48705 61582
L48648 61695
L48592 61751
L48480 61807
L48367 61807
L48255 61751
L48198 61695
L48142 61582
L48086 61357
L48086 61076
L48142 60851
L48198 60739
L48255 60683
L48367 60626
" />
<path d="M49267 61807
L49267 61020
" />
<path d="M49267 61133
L49323 61076
L49436 61020
L49604 61020
L49717 61076
L49773 61189
L49773 61807
" />
<path d="M49773 61189
L49829 61076
L49942 61020
L50111 61020
L50223 61076
L50279 61189
L50279 61807
" />
<path d="M50842 61807
L50842 61020
" />
<path d="M50842 61133
L50898 61076
L51010 61020
L51179 61020
L51292 61076
L51348 61189
L51348 61807
" />
<path d="M51348 61189
L51404 61076
L51517 61020
L51685 61020
L51798 61076
L51854 61189
L51854 61807
" />
<path d="M54160 60570
L53148 62089
" />
<path d="M55679 60626
L55791 60626
L55904 60683
L55960 60739
L56016 60851
L56072 61076
L56072 61357
L56016 61582
L55960 61695
L55904 61751
L55791 61807
L55679 61807
L55566 61751
L55510 61695
L55454 61582
L55397 61357
L55397 61076
L55454 60851
L55510 60739
L55566 60683
L55679 60626
" />
<path d="M56579 61695
L56635 61751
L56579 61807
L56522 61751
L56579 61695
L56579 61807
" />
<path d="M57760 61807
L57085 61807
" />
<path d="M57422 61807
L57422 60626
L57310 60795
L57197 60908
L57085 60964
" />
<path d="M58153 60626
L58884 60626
L58491 61076
L58660 61076
L58772 61133
L58828 61189
L58884 61301
L58884 61582
L58828 61695
L58772 61751
L58660 61807
L58322 61807
L58210 61751
L58153 61695
" />
<path d="M59616 60626
L59728 60626
L59841 60683
L59897 60739
L59953 60851
L60009 61076
L60009 61357
L59953 61582
L59897 61695
L59841 61751
L59728 61807
L59616 61807
L59503 61751
L59447 61695
L59391 61582
L59334 61357
L59334 61076
L59391 60851
L59447 60739
L59503 60683
L59616 60626
" />
<path d="M60459 60626
L60459 60851
" />
<path d="M60909 60626
L60909 60851
" />
<path d="M62653 62257
L62597 62201
L62484 62032
L62428 61920
L62372 61751
L62315 61470
L62315 61245
L62372 60964
L62428 60795
L62484 60683
L62597 60514
L62653 60458
" />
<path d="M63046 60739
L63103 60683
L63215 60626
L63496 60626
L63609 60683
L63665 60739
L63721 60851
L63721 60964
L63665 61133
L62990 61807
L63721 61807
" />
<path d="M65127 61807
L65127 60626
" />
<path d="M65634 61807
L65634 61189
L65577 61076
L65465 61020
L65296 61020
L65184 61076
L65127 61133
" />
<path d="M66365 61807
L66252 61751
L66196 61695
L66140 61582
L66140 61245
L66196 61133
L66252 61076
L66365 61020
L66534 61020
L66646 61076
L66702 61133
L66758 61245
L66758 61582
L66702 61695
L66646 61751
L66534 61807
L66365 61807
" />
<path d="M67433 61807
L67321 61751
L67265 61639
L67265 60626
" />
<path d="M68333 61751
L68221 61807
L67996 61807
L67883 61751
L67827 61639
L67827 61189
L67883 61076
L67996 61020
L68221 61020
L68333 61076
L68390 61189
L68390 61301
L67827 61414
" />
<path d="M68839 61751
L68952 61807
L69177 61807
L69289 61751
L69346 61639
L69346 61582
L69289 61470
L69177 61414
L69008 61414
L68896 61357
L68839 61245
L68839 61189
L68896 61076
L69008 61020
L69177 61020
L69289 61076
" />
<path d="M69739 62257
L69796 62201
L69908 62032
L69964 61920
L70021 61751
L70077 61470
L70077 61245
L70021 60964
L69964 60795
L69908 60683
L69796 60514
L69739 60458
" />
<path d="M71877 62257
L71820 62201
L71708 62032
L71652 61920
L71595 61751
L71539 61470
L71539 61245
L71595 60964
L71652 60795
L71708 60683
L71820 60514
L71877 60458
" />
<path d="M72327 61020
L72327 61807
" />
<path d="M72327 61133
L72383 61076
L72495 61020
L72664 61020
L72776 61076
L72833 61189
L72833 61807
" />
<path d="M73564 61807
L73451 61751
L73395 61695
L73339 61582
L73339 61245
L73395 61133
L73451 61076
L73564 61020
L73733 61020
L73845 61076
L73901 61133
L73958 61245
L73958 61582
L73901 61695
L73845 61751
L73733 61807
L73564 61807
" />
<path d="M74295 61020
L74745 61020
" />
<path d="M74464 60626
L74464 61639
L74520 61751
L74633 61807
L74745 61807
" />
<path d="M76039 61020
L76039 62201
" />
<path d="M76039 61076
L76151 61020
L76376 61020
L76489 61076
L76545 61133
L76601 61245
L76601 61582
L76545 61695
L76489 61751
L76376 61807
L76151 61807
L76039 61751
" />
<path d="M77276 61807
L77163 61751
L77107 61639
L77107 60626
" />
<path d="M78232 61807
L78232 61189
L78176 61076
L78063 61020
L77838 61020
L77726 61076
" />
<path d="M78232 61751
L78120 61807
L77838 61807
L77726 61751
L77670 61639
L77670 61526
L77726 61414
L77838 61357
L78120 61357
L78232 61301
" />
<path d="M78626 61020
L79076 61020
" />
<path d="M78794 60626
L78794 61639
L78851 61751
L78963 61807
L79076 61807
" />
<path d="M79919 61751
L79807 61807
L79582 61807
L79469 61751
L79413 61639
L79413 61189
L79469 61076
L79582 61020
L79807 61020
L79919 61076
L79976 61189
L79976 61301
L79413 61414
" />
<path d="M80988 61807
L80988 60626
" />
<path d="M80988 61751
L80875 61807
L80651 61807
L80538 61751
L80482 61695
L80426 61582
L80426 61245
L80482 61133
L80538 61076
L80651 61020
L80875 61020
L80988 61076
" />
<path d="M81438 62257
L81494 62201
L81607 62032
L81663 61920
L81719 61751
L81775 61470
L81775 61245
L81719 60964
L81663 60795
L81607 60683
L81494 60514
L81438 60458
" />
</g> 
</svg>
