<?xml version="1.0" standalone="no"?>
 <!DOCTYPE svg PUBLIC "-//W3C//DTD SVG 1.1//EN" 
 "http://www.w3.org/Graphics/SVG/1.1/DTD/svg11.dtd"> 
<svg xmlns="http://www.w3.org/2000/svg" version="1.1" 
    width="29.7002cm" height="21.0007cm" viewBox="0 0 116930 82680 ">
<title>SVG Picture created as otheringmachines03b-drl_map.svg date 2018/09/13 16:56:56 </title>
  <desc>Picture generated by PCBNEW </desc>
<g style="fill:#000000; fill-opacity:1;stroke:#000000; stroke-opacity:1;
stroke-linecap:round; stroke-linejoin:round; "
 transform="translate(0 0) scale(1 1)">
</g>
<g style="fill:#000000; fill-opacity:0.0; 
stroke:#000000; stroke-width:-0.000393701; stroke-opacity:1; 
stroke-linecap:round; stroke-linejoin:round;">
</g>
<g style="fill:#000000; fill-opacity:0.0; 
stroke:#000000; stroke-width:59.0551; stroke-opacity:1; 
stroke-linecap:round; stroke-linejoin:round;">
<circle cx="59055.1" cy="39370.1" r="14763.8" /> 
</g>
<g style="fill:#000000; fill-opacity:0.0; 
stroke:#000000; stroke-width:78.7402; stroke-opacity:1; 
stroke-linecap:round; stroke-linejoin:round;">
<path d="M48521 42421
L48678 42578
" />
<path d="M48678 42421
L48521 42578
" />
<path d="M51875 35021
L52032 35178
" />
<path d="M52032 35021
L51875 35178
" />
<path d="M51921 33121
L52078 33278
" />
<path d="M52078 33121
L51921 33278
" />
<path d="M52121 32121
L52278 32278
" />
<path d="M52278 32121
L52121 32278
" />
<path d="M52121 33921
L52278 34078
" />
<path d="M52278 33921
L52121 34078
" />
<path d="M52221 32821
L52378 32978
" />
<path d="M52378 32821
L52221 32978
" />
<path d="M52521 38821
L52678 38978
" />
<path d="M52678 38821
L52521 38978
" />
<path d="M53321 38721
L53478 38878
" />
<path d="M53478 38721
L53321 38878
" />
<path d="M53421 36421
L53578 36578
" />
<path d="M53578 36421
L53421 36578
" />
<path d="M53521 39821
L53678 39978
" />
<path d="M53678 39821
L53521 39978
" />
<path d="M54021 38021
L54178 38178
" />
<path d="M54178 38021
L54021 38178
" />
<path d="M54421 37167
L54578 37324
" />
<path d="M54578 37167
L54421 37324
" />
<path d="M55221 37321
L55378 37478
" />
<path d="M55378 37321
L55221 37478
" />
<path d="M55521 36921
L55678 37078
" />
<path d="M55678 36921
L55521 37078
" />
<path d="M56675 31382
L56832 31539
" />
<path d="M56832 31382
L56675 31539
" />
<path d="M56721 32721
L56878 32878
" />
<path d="M56878 32721
L56721 32878
" />
<path d="M56821 32421
L56978 32578
" />
<path d="M56978 32421
L56821 32578
" />
<path d="M56921 34121
L57078 34278
" />
<path d="M57078 34121
L56921 34278
" />
<path d="M56921 35321
L57078 35478
" />
<path d="M57078 35321
L56921 35478
" />
<path d="M57121 50321
L57278 50478
" />
<path d="M57278 50321
L57121 50478
" />
<path d="M57127 34726
L57285 34884
" />
<path d="M57285 34726
L57127 34884
" />
<path d="M57133 33425
L57290 33583
" />
<path d="M57290 33425
L57133 33583
" />
<path d="M57621 43921
L57778 44078
" />
<path d="M57778 43921
L57621 44078
" />
<path d="M57775 33121
L57932 33278
" />
<path d="M57932 33121
L57775 33278
" />
<path d="M57775 34321
L57932 34478
" />
<path d="M57932 34321
L57775 34478
" />
<path d="M57821 30821
L57979 30978
" />
<path d="M57979 30821
L57821 30978
" />
<path d="M58021 32821
L58178 32978
" />
<path d="M58178 32821
L58021 32978
" />
<path d="M58021 34021
L58178 34178
" />
<path d="M58178 34021
L58021 34178
" />
<path d="M58121 36421
L58278 36578
" />
<path d="M58278 36421
L58121 36578
" />
<path d="M58321 32421
L58478 32578
" />
<path d="M58478 32421
L58321 32578
" />
<path d="M58721 48021
L58878 48178
" />
<path d="M58878 48021
L58721 48178
" />
<path d="M60090 38175
L60247 38332
" />
<path d="M60247 38175
L60090 38332
" />
<path d="M60421 38721
L60578 38878
" />
<path d="M60578 38721
L60421 38878
" />
<path d="M61921 40121
L62078 40278
" />
<path d="M62078 40121
L61921 40278
" />
<path d="M62221 38221
L62378 38378
" />
<path d="M62378 38221
L62221 38378
" />
<path d="M62621 44921
L62778 45078
" />
<path d="M62778 44921
L62621 45078
" />
<path d="M65821 34721
L65978 34878
" />
<path d="M65978 34721
L65821 34878
" />
<path d="M66421 34721
L66578 34878
" />
<path d="M66578 34721
L66421 34878
" />
<circle cx="46400" cy="37000" r="150" /> 
<circle cx="66100" cy="47400" r="150" /> 
<circle cx="71200" cy="34100" r="150" /> 
<circle cx="71200" cy="36100" r="150" /> 
<circle cx="71200" cy="41300" r="150" /> 
<circle cx="71200" cy="43300" r="150" /> 
<path d="M48543 45341
L48543 45656
" />
<path d="M48386 45498
L48701 45498
" />
<path d="M49462 44422
L49462 44737
" />
<path d="M49305 44579
L49620 44579
" />
<path d="M56709 40829
L56709 41144
" />
<path d="M56551 40987
L56866 40987
" />
<path d="M57890 40829
L57890 41144
" />
<path d="M57733 40987
L58048 40987
" />
</g>
<g style="fill:#000000; fill-opacity:0.0; 
stroke:#000000; stroke-width:118.11; stroke-opacity:1; 
stroke-linecap:round; stroke-linejoin:round;">
<path d="M45330 55996
L45330 54815
L45611 54815
L45780 54872
L45892 54984
L45949 55097
L46005 55321
L46005 55490
L45949 55715
L45892 55828
L45780 55940
L45611 55996
L45330 55996
" />
<path d="M46511 55996
L46511 55209
" />
<path d="M46511 55434
L46567 55321
L46624 55265
L46736 55209
L46848 55209
" />
<path d="M47242 55996
L47242 55209
" />
<path d="M47242 54815
L47186 54872
L47242 54928
L47298 54872
L47242 54815
L47242 54928
" />
<path d="M47973 55996
L47861 55940
L47805 55828
L47805 54815
" />
<path d="M48592 55996
L48480 55940
L48423 55828
L48423 54815
" />
<path d="M49942 55996
L49942 54815
L50336 55659
L50729 54815
L50729 55996
" />
<path d="M51798 55996
L51798 55378
L51742 55265
L51629 55209
L51404 55209
L51292 55265
" />
<path d="M51798 55940
L51685 55996
L51404 55996
L51292 55940
L51235 55828
L51235 55715
L51292 55603
L51404 55546
L51685 55546
L51798 55490
" />
<path d="M52360 55209
L52360 56390
" />
<path d="M52360 55265
L52473 55209
L52698 55209
L52810 55265
L52866 55321
L52923 55434
L52923 55771
L52866 55884
L52810 55940
L52698 55996
L52473 55996
L52360 55940
" />
<path d="M53429 55884
L53485 55940
L53429 55996
L53373 55940
L53429 55884
L53429 55996
" />
<path d="M53429 55265
L53485 55321
L53429 55378
L53373 55321
L53429 55265
L53429 55378
" />
<path d="M44104 57864
L44261 58021
" />
<path d="M44261 57864
L44104 58021
" />
<path d="M45555 57296
L45667 57296
L45780 57352
L45836 57408
L45892 57521
L45949 57746
L45949 58027
L45892 58252
L45836 58364
L45780 58420
L45667 58477
L45555 58477
L45442 58420
L45386 58364
L45330 58252
L45274 58027
L45274 57746
L45330 57521
L45386 57408
L45442 57352
L45555 57296
" />
<path d="M46455 58364
L46511 58420
L46455 58477
L46399 58420
L46455 58364
L46455 58477
" />
<path d="M47523 57689
L47523 58477
" />
<path d="M47242 57239
L46961 58083
L47692 58083
" />
<path d="M48367 57296
L48480 57296
L48592 57352
L48648 57408
L48705 57521
L48761 57746
L48761 58027
L48705 58252
L48648 58364
L48592 58420
L48480 58477
L48367 58477
L48255 58420
L48198 58364
L48142 58252
L48086 58027
L48086 57746
L48142 57521
L48198 57408
L48255 57352
L48367 57296
" />
<path d="M49267 58477
L49267 57689
" />
<path d="M49267 57802
L49323 57746
L49436 57689
L49604 57689
L49717 57746
L49773 57858
L49773 58477
" />
<path d="M49773 57858
L49829 57746
L49942 57689
L50111 57689
L50223 57746
L50279 57858
L50279 58477
" />
<path d="M50842 58477
L50842 57689
" />
<path d="M50842 57802
L50898 57746
L51010 57689
L51179 57689
L51292 57746
L51348 57858
L51348 58477
" />
<path d="M51348 57858
L51404 57746
L51517 57689
L51685 57689
L51798 57746
L51854 57858
L51854 58477
" />
<path d="M54160 57239
L53148 58758
" />
<path d="M55679 57296
L55791 57296
L55904 57352
L55960 57408
L56016 57521
L56072 57746
L56072 58027
L56016 58252
L55960 58364
L55904 58420
L55791 58477
L55679 58477
L55566 58420
L55510 58364
L55454 58252
L55397 58027
L55397 57746
L55454 57521
L55510 57408
L55566 57352
L55679 57296
" />
<path d="M56579 58364
L56635 58420
L56579 58477
L56522 58420
L56579 58364
L56579 58477
" />
<path d="M57366 57296
L57478 57296
L57591 57352
L57647 57408
L57703 57521
L57760 57746
L57760 58027
L57703 58252
L57647 58364
L57591 58420
L57478 58477
L57366 58477
L57253 58420
L57197 58364
L57141 58252
L57085 58027
L57085 57746
L57141 57521
L57197 57408
L57253 57352
L57366 57296
" />
<path d="M58884 58477
L58210 58477
" />
<path d="M58547 58477
L58547 57296
L58435 57464
L58322 57577
L58210 57633
" />
<path d="M59897 57296
L59672 57296
L59559 57352
L59503 57408
L59391 57577
L59334 57802
L59334 58252
L59391 58364
L59447 58420
L59559 58477
L59784 58477
L59897 58420
L59953 58364
L60009 58252
L60009 57971
L59953 57858
L59897 57802
L59784 57746
L59559 57746
L59447 57802
L59391 57858
L59334 57971
" />
<path d="M60459 57296
L60459 57521
" />
<path d="M60909 57296
L60909 57521
" />
<path d="M62653 58927
L62597 58870
L62484 58702
L62428 58589
L62372 58420
L62315 58139
L62315 57914
L62372 57633
L62428 57464
L62484 57352
L62597 57183
L62653 57127
" />
<path d="M62990 57296
L63721 57296
L63328 57746
L63496 57746
L63609 57802
L63665 57858
L63721 57971
L63721 58252
L63665 58364
L63609 58420
L63496 58477
L63159 58477
L63046 58420
L62990 58364
" />
<path d="M64396 57802
L64284 57746
L64228 57689
L64171 57577
L64171 57521
L64228 57408
L64284 57352
L64396 57296
L64621 57296
L64734 57352
L64790 57408
L64846 57521
L64846 57577
L64790 57689
L64734 57746
L64621 57802
L64396 57802
L64284 57858
L64228 57914
L64171 58027
L64171 58252
L64228 58364
L64284 58420
L64396 58477
L64621 58477
L64734 58420
L64790 58364
L64846 58252
L64846 58027
L64790 57914
L64734 57858
L64621 57802
" />
<path d="M66252 58477
L66252 57296
" />
<path d="M66758 58477
L66758 57858
L66702 57746
L66590 57689
L66421 57689
L66309 57746
L66252 57802
" />
<path d="M67490 58477
L67377 58420
L67321 58364
L67265 58252
L67265 57914
L67321 57802
L67377 57746
L67490 57689
L67658 57689
L67771 57746
L67827 57802
L67883 57914
L67883 58252
L67827 58364
L67771 58420
L67658 58477
L67490 58477
" />
<path d="M68558 58477
L68446 58420
L68390 58308
L68390 57296
" />
<path d="M69458 58420
L69346 58477
L69121 58477
L69008 58420
L68952 58308
L68952 57858
L69008 57746
L69121 57689
L69346 57689
L69458 57746
L69514 57858
L69514 57971
L68952 58083
" />
<path d="M69964 58420
L70077 58477
L70302 58477
L70414 58420
L70471 58308
L70471 58252
L70414 58139
L70302 58083
L70133 58083
L70021 58027
L69964 57914
L69964 57858
L70021 57746
L70133 57689
L70302 57689
L70414 57746
" />
<path d="M70864 58927
L70920 58870
L71033 58702
L71089 58589
L71145 58420
L71202 58139
L71202 57914
L71145 57633
L71089 57464
L71033 57352
L70920 57183
L70864 57127
" />
<circle cx="44111.8" cy="59502" r="150" /> 
<path d="M45555 58855
L45667 58855
L45780 58911
L45836 58967
L45892 59080
L45949 59305
L45949 59586
L45892 59811
L45836 59923
L45780 59980
L45667 60036
L45555 60036
L45442 59980
L45386 59923
L45330 59811
L45274 59586
L45274 59305
L45330 59080
L45386 58967
L45442 58911
L45555 58855
" />
<path d="M46455 59923
L46511 59980
L46455 60036
L46399 59980
L46455 59923
L46455 60036
" />
<path d="M46905 58855
L47692 58855
L47186 60036
" />
<path d="M48648 58855
L48423 58855
L48311 58911
L48255 58967
L48142 59136
L48086 59361
L48086 59811
L48142 59923
L48198 59980
L48311 60036
L48536 60036
L48648 59980
L48705 59923
L48761 59811
L48761 59530
L48705 59417
L48648 59361
L48536 59305
L48311 59305
L48198 59361
L48142 59417
L48086 59530
" />
<path d="M49267 60036
L49267 59248
" />
<path d="M49267 59361
L49323 59305
L49436 59248
L49604 59248
L49717 59305
L49773 59417
L49773 60036
" />
<path d="M49773 59417
L49829 59305
L49942 59248
L50111 59248
L50223 59305
L50279 59417
L50279 60036
" />
<path d="M50842 60036
L50842 59248
" />
<path d="M50842 59361
L50898 59305
L51010 59248
L51179 59248
L51292 59305
L51348 59417
L51348 60036
" />
<path d="M51348 59417
L51404 59305
L51517 59248
L51685 59248
L51798 59305
L51854 59417
L51854 60036
" />
<path d="M54160 58798
L53148 60317
" />
<path d="M55679 58855
L55791 58855
L55904 58911
L55960 58967
L56016 59080
L56072 59305
L56072 59586
L56016 59811
L55960 59923
L55904 59980
L55791 60036
L55679 60036
L55566 59980
L55510 59923
L55454 59811
L55397 59586
L55397 59305
L55454 59080
L55510 58967
L55566 58911
L55679 58855
" />
<path d="M56579 59923
L56635 59980
L56579 60036
L56522 59980
L56579 59923
L56579 60036
" />
<path d="M57366 58855
L57478 58855
L57591 58911
L57647 58967
L57703 59080
L57760 59305
L57760 59586
L57703 59811
L57647 59923
L57591 59980
L57478 60036
L57366 60036
L57253 59980
L57197 59923
L57141 59811
L57085 59586
L57085 59305
L57141 59080
L57197 58967
L57253 58911
L57366 58855
" />
<path d="M58153 58855
L58884 58855
L58491 59305
L58660 59305
L58772 59361
L58828 59417
L58884 59530
L58884 59811
L58828 59923
L58772 59980
L58660 60036
L58322 60036
L58210 59980
L58153 59923
" />
<path d="M59616 58855
L59728 58855
L59841 58911
L59897 58967
L59953 59080
L60009 59305
L60009 59586
L59953 59811
L59897 59923
L59841 59980
L59728 60036
L59616 60036
L59503 59980
L59447 59923
L59391 59811
L59334 59586
L59334 59305
L59391 59080
L59447 58967
L59503 58911
L59616 58855
" />
<path d="M60459 58855
L60459 59080
" />
<path d="M60909 58855
L60909 59080
" />
<path d="M62653 60486
L62597 60429
L62484 60261
L62428 60148
L62372 59980
L62315 59698
L62315 59473
L62372 59192
L62428 59023
L62484 58911
L62597 58742
L62653 58686
" />
<path d="M63609 58855
L63384 58855
L63271 58911
L63215 58967
L63103 59136
L63046 59361
L63046 59811
L63103 59923
L63159 59980
L63271 60036
L63496 60036
L63609 59980
L63665 59923
L63721 59811
L63721 59530
L63665 59417
L63609 59361
L63496 59305
L63271 59305
L63159 59361
L63103 59417
L63046 59530
" />
<path d="M65127 60036
L65127 58855
" />
<path d="M65634 60036
L65634 59417
L65577 59305
L65465 59248
L65296 59248
L65184 59305
L65127 59361
" />
<path d="M66365 60036
L66252 59980
L66196 59923
L66140 59811
L66140 59473
L66196 59361
L66252 59305
L66365 59248
L66534 59248
L66646 59305
L66702 59361
L66758 59473
L66758 59811
L66702 59923
L66646 59980
L66534 60036
L66365 60036
" />
<path d="M67433 60036
L67321 59980
L67265 59867
L67265 58855
" />
<path d="M68333 59980
L68221 60036
L67996 60036
L67883 59980
L67827 59867
L67827 59417
L67883 59305
L67996 59248
L68221 59248
L68333 59305
L68390 59417
L68390 59530
L67827 59642
" />
<path d="M68839 59980
L68952 60036
L69177 60036
L69289 59980
L69346 59867
L69346 59811
L69289 59698
L69177 59642
L69008 59642
L68896 59586
L68839 59473
L68839 59417
L68896 59305
L69008 59248
L69177 59248
L69289 59305
" />
<path d="M69739 60486
L69796 60429
L69908 60261
L69964 60148
L70021 59980
L70077 59698
L70077 59473
L70021 59192
L69964 59023
L69908 58911
L69796 58742
L69739 58686
" />
<path d="M44104 60903
L44104 61218
" />
<path d="M43946 61061
L44261 61061
" />
<path d="M45555 60414
L45667 60414
L45780 60470
L45836 60526
L45892 60639
L45949 60864
L45949 61145
L45892 61370
L45836 61482
L45780 61539
L45667 61595
L45555 61595
L45442 61539
L45386 61482
L45330 61370
L45274 61145
L45274 60864
L45330 60639
L45386 60526
L45442 60470
L45555 60414
" />
<path d="M46455 61482
L46511 61539
L46455 61595
L46399 61539
L46455 61482
L46455 61595
" />
<path d="M47186 60920
L47073 60864
L47017 60807
L46961 60695
L46961 60639
L47017 60526
L47073 60470
L47186 60414
L47411 60414
L47523 60470
L47580 60526
L47636 60639
L47636 60695
L47580 60807
L47523 60864
L47411 60920
L47186 60920
L47073 60976
L47017 61032
L46961 61145
L46961 61370
L47017 61482
L47073 61539
L47186 61595
L47411 61595
L47523 61539
L47580 61482
L47636 61370
L47636 61145
L47580 61032
L47523 60976
L47411 60920
" />
<path d="M48367 60414
L48480 60414
L48592 60470
L48648 60526
L48705 60639
L48761 60864
L48761 61145
L48705 61370
L48648 61482
L48592 61539
L48480 61595
L48367 61595
L48255 61539
L48198 61482
L48142 61370
L48086 61145
L48086 60864
L48142 60639
L48198 60526
L48255 60470
L48367 60414
" />
<path d="M49267 61595
L49267 60807
" />
<path d="M49267 60920
L49323 60864
L49436 60807
L49604 60807
L49717 60864
L49773 60976
L49773 61595
" />
<path d="M49773 60976
L49829 60864
L49942 60807
L50111 60807
L50223 60864
L50279 60976
L50279 61595
" />
<path d="M50842 61595
L50842 60807
" />
<path d="M50842 60920
L50898 60864
L51010 60807
L51179 60807
L51292 60864
L51348 60976
L51348 61595
" />
<path d="M51348 60976
L51404 60864
L51517 60807
L51685 60807
L51798 60864
L51854 60976
L51854 61595
" />
<path d="M54160 60357
L53148 61876
" />
<path d="M55679 60414
L55791 60414
L55904 60470
L55960 60526
L56016 60639
L56072 60864
L56072 61145
L56016 61370
L55960 61482
L55904 61539
L55791 61595
L55679 61595
L55566 61539
L55510 61482
L55454 61370
L55397 61145
L55397 60864
L55454 60639
L55510 60526
L55566 60470
L55679 60414
" />
<path d="M56579 61482
L56635 61539
L56579 61595
L56522 61539
L56579 61482
L56579 61595
" />
<path d="M57366 60414
L57478 60414
L57591 60470
L57647 60526
L57703 60639
L57760 60864
L57760 61145
L57703 61370
L57647 61482
L57591 61539
L57478 61595
L57366 61595
L57253 61539
L57197 61482
L57141 61370
L57085 61145
L57085 60864
L57141 60639
L57197 60526
L57253 60470
L57366 60414
" />
<path d="M58153 60414
L58884 60414
L58491 60864
L58660 60864
L58772 60920
L58828 60976
L58884 61089
L58884 61370
L58828 61482
L58772 61539
L58660 61595
L58322 61595
L58210 61539
L58153 61482
" />
<path d="M60009 61595
L59334 61595
" />
<path d="M59672 61595
L59672 60414
L59559 60582
L59447 60695
L59334 60751
" />
<path d="M60459 60414
L60459 60639
" />
<path d="M60909 60414
L60909 60639
" />
<path d="M62653 62045
L62597 61989
L62484 61820
L62428 61707
L62372 61539
L62315 61257
L62315 61032
L62372 60751
L62428 60582
L62484 60470
L62597 60301
L62653 60245
" />
<path d="M63609 60807
L63609 61595
" />
<path d="M63328 60357
L63046 61201
L63778 61201
" />
<path d="M65127 61595
L65127 60414
" />
<path d="M65634 61595
L65634 60976
L65577 60864
L65465 60807
L65296 60807
L65184 60864
L65127 60920
" />
<path d="M66365 61595
L66252 61539
L66196 61482
L66140 61370
L66140 61032
L66196 60920
L66252 60864
L66365 60807
L66534 60807
L66646 60864
L66702 60920
L66758 61032
L66758 61370
L66702 61482
L66646 61539
L66534 61595
L66365 61595
" />
<path d="M67433 61595
L67321 61539
L67265 61426
L67265 60414
" />
<path d="M68333 61539
L68221 61595
L67996 61595
L67883 61539
L67827 61426
L67827 60976
L67883 60864
L67996 60807
L68221 60807
L68333 60864
L68390 60976
L68390 61089
L67827 61201
" />
<path d="M68839 61539
L68952 61595
L69177 61595
L69289 61539
L69346 61426
L69346 61370
L69289 61257
L69177 61201
L69008 61201
L68896 61145
L68839 61032
L68839 60976
L68896 60864
L69008 60807
L69177 60807
L69289 60864
" />
<path d="M69739 62045
L69796 61989
L69908 61820
L69964 61707
L70021 61539
L70077 61257
L70077 61032
L70021 60751
L69964 60582
L69908 60470
L69796 60301
L69739 60245
" />
</g> 
</svg>
