M48
METRIC,TZ
T1C0.400
T2C0.762
T3C0.800
%
G90
G05
T1
X123444Y-107950
X131963Y-89154
X132080Y-84328
X132588Y-81788
X132588Y-86360
X132842Y-83566
X133604Y-98806
X135636Y-98552
X135890Y-92710
X136144Y-101346
X137414Y-96774
X138430Y-94605
X140462Y-94996
X141224Y-93980
X144155Y-79911
X144272Y-83312
X144526Y-82550
X144780Y-86868
X144780Y-89916
X145288Y-128016
X145305Y-88406
X145319Y-85101
X146558Y-111760
X146949Y-84328
X146949Y-87376
X147067Y-78486
X147574Y-83566
X147574Y-86614
X147828Y-92710
X148336Y-82550
X149352Y-122174
X152829Y-97165
X153670Y-98552
X157480Y-102108
X158242Y-97282
X159258Y-114300
X167386Y-88392
X168910Y-88392
T2
X117856Y-93980
X167894Y-120396
X180848Y-86614
X180848Y-91694
X180848Y-104902
X180848Y-109982
T3
X123301Y-115567
X125636Y-113232
X144042Y-104108
X147042Y-104108
T0
M30
